M48
;Layer_Color=6321
;FILE_FORMAT=2:5
INCH,LZ
;TYPE=PLATED
T1F00S00C0.01000
T2F00S00C0.04300
T3F00S00C0.06200
T4F00S00C0.06700
T5F00S00C0.12500
T6F00S00C0.16500
;TYPE=NON_PLATED
T7F00S00C0.05500
%
T01
X01865Y00045
X0193
X0208
Y00125
X02015
X0201969Y0025197
Y0027953
X0196653Y0029134
X0191929Y0019094
X0182874Y0018701
Y0015748
X0182874Y0022244
X0182283Y0035433
X0201575Y0038976
X0206693Y0044291
X0210827Y0049016
X0212992Y0063779
X0217Y00635
X023Y00645
X0236Y00555
X02385
X02515Y00585
X02545Y00655
Y0069
X0258Y007
X0257677Y0074803
X0257677Y0077362
X0258Y008
X0254724Y0080905
X0257283Y0087992
X0254921Y0090945
X025748Y0098425
X0258268Y0101575
X0254921Y0100984
X0254724Y0106496
X0257874
X0255315Y0112402
X0257Y0119
X025748Y0122835
X0254528Y0121063
X0254724Y0130709
X025433Y0133464
X0258071Y0133268
X0257874Y0128543
X0257527Y0138252
X0255Y0141
X0249Y0139
X0237008Y0141535
X023Y0139
X02315Y0133
X0229509Y01289
X023Y01265
Y0124
X02295Y0121
Y01185
X0231823Y0116808
X0229Y01135
X02291Y01109
X0231523Y0110023
X0228762Y0107692
X02305Y0102
Y00995
X02295Y00955
Y0092
X02305Y00865
X0231693Y0081102
X0216929Y0087205
X0212205Y0086614
X021063Y0079134
X020748Y0081102
X0213779Y0076772
X0197244Y0074508
X0197047Y0065354
X0193701Y0063779
X0177362Y0064173
X021063Y009685
X0213779Y0103937
X0217126Y0107283
X0209449Y0112598
X0201969
X0198031Y0117323
X0203543Y0128347
Y0133465
X0196063
X0192913
X0210236Y0127953
X0215748Y012874
X0217126Y0132874
X0223228Y0142126
X0241929Y0152559
X0263386Y0148031
X026811Y0148819
X0284612Y0148425
X0295669Y0142717
Y0139173
X0288976Y0119291
X0271654Y0119685
Y0123425
Y0112598
X0274016Y011437
X0272441Y0108661
X0272418Y0104522
X02715Y0099
Y0096
X0275Y00965
X02735Y00905
X0271Y009
X0272047Y0086417
X02745Y0088
Y0081
X027185Y0080709
X027185Y0078149
X0271457Y0068307
X0272047Y0063779
X0271527Y0059252
X02695Y0051
X027185Y0037992
X0276772Y0023425
X0281496Y0026772
X02925Y00285
X0292Y0032
X0293027Y0043252
X0290551Y0069685
X0290158Y0072441
X02885Y0081
Y00835
X0288527Y0086252
X0310236Y008563
Y0082284
X0310039Y0095669
X0312598Y0095669
X0311Y01135
X0314118Y0124197
X0317268
X032022
X0314118Y0129905
X0297047Y0101969
X0293504Y0104528
X0312008Y0065158
X031437Y0062992
X0264173Y0023622
X0254Y00185
X02445
X0235
X0233Y0017
X02305Y00045
X0218
X0213Y0021
X0220472Y0025197
X0224803Y0028937
X0227756Y0036417
Y0038976
Y0041535
X02595Y00045
X02685
X0283
X0214173Y0120472
X0181Y01475
X016752Y0147047
X0169488Y0144882
X0165551
X0157283Y0146063
X0153937
X015Y01535
X0162008Y0153347
Y0158465
X0154331Y0133071
X0148622
X01465Y0123
X014663Y0106059
X0147441Y0101378
X0157087Y0103937
X0157874Y0081102
X0147835Y0076772
X014685Y0067716
X014863Y0062559
X0151772Y006437
X0144882Y0054724
X0148819Y0050591
X0156299Y0051378
X01605Y0038
X0169291Y0035433
X0175787
X01605Y00245
X01645Y00045
X01705
X0144Y0005
X014
X013Y0009
X0106299Y0024409
X0094094Y0026378
X0093504Y0020669
X0088583Y0022244
X0084646
X0080905Y0022047
X0078937Y0039173
X0086673Y0039823
X0089764Y0039764
X0084252Y0058268
X007126Y0049409
X0071653Y0046654
X0049Y00435
X0051575Y0034449
X0058661Y0015157
X0061221Y0012992
X0063779Y0010827
X0055905Y000374
X0046063
X003622Y0006102
X0026378Y0003937
X0027953Y0028937
Y0031496
X003163Y0052059
X0034252Y0065354
Y0078347
X0037402
X0034252Y0084449
X0034252Y0087008
X0036614Y0094488
X0034252Y0097441
X0051126Y0098539
Y0093539
X0053653Y0095791
X0052291Y0088425
X0050626Y0083039
X0051126Y0078539
X0053126Y0080539
X0052291Y0073465
Y0068543
Y0063425
X0057653Y0060291
X010263Y0063559
Y0072059
X0111024Y0061614
X0110433Y005374
X0111221Y0048031
X0111417Y0044882
X0112992Y0038976
X0114173Y0036417
Y0032874
X0131102Y0060236
X0129724Y0073819
X0132283Y0076968
X0134646Y0079724
X0135827Y008563
X0164173Y0068898
X0173622Y0064173
X0175197Y0077953
X0176378Y0133071
X0170866
X0086417Y0130905
X008563Y0127559
X008713Y0124559
X00855Y01215
Y01175
Y0114
X008563Y0110559
X00855Y0107
X0085433Y0103347
X008613Y0099059
X00875Y0096
X0085433Y0093307
Y0088189
Y0083268
X0052653Y0103791
Y0108291
X0036024Y0113976
X0034252Y0123622
Y0126772
X0030315Y0146457
X0040945Y0151181
X0042634Y0154724
X0067126Y0133539
Y0123539
X0085433Y0146457
X0006299Y0141929
X0010433Y0133268
X0010236Y0128347
X0010433Y0124409
X0006027Y0123252
X001063Y0111417
X0009843Y0107874
X0010236Y0104724
Y0101575
X0009843Y0094488
X0005906Y0093701
X0004921Y0097638
X0005512Y0088189
X001063Y0090157
X0011024Y0084449
X0004331Y0079921
Y0075984
Y0072047
X0011811Y0055512
Y0051181
X0009843Y0031102
X0007283Y0032874
X0021457Y0172047
X0024409
Y0177559
Y0180709
X0022Y0176
X002126Y019311
X0036614Y0192126
X0036417Y0188386
X004252Y0177559
Y0172047
Y0161024
X0030906Y0165551
X0068626Y016078
X0098425Y0164961
X0101181Y0168701
X0105118Y0159449
X0115945Y0166535
X0117126Y0173819
X0129921Y0174016
X0137205Y0182874
X0142913Y0184252
X014252Y019252
X0151969
X0159055Y0192717
X0161024Y0179921
X0162795Y0176181
X0158071Y0176969
X0154724Y0177559
X0151579Y0178276
X0148031Y0168307
X0161614Y0168307
X0166339Y0165748
X0163976Y0162598
X0169291Y0159843
X0170079Y0172047
X0172244Y0187205
X0175591Y0191535
X01085Y0184
X0099606Y0185433
X0093Y019
X0200984Y018937
X0203937Y0179134
X0205512Y0164961
X0194488Y0158661
X022063Y0161559
X0222835Y0175984
X0230118Y0175787
X023263Y0183559
X02325Y01915
X0226969Y0192126
X0219685
X02125Y0192
X0223228Y0183858
X02415Y01915
X0251
X025163Y0185559
X028463Y0190059
X028937Y0176772
X0284252Y0166929
X0301Y01855
T02
X0116929Y0077087
Y0087087
Y0097087
Y0107087
Y0117087
Y0127087
T03
X0314567Y0040354
X031437Y015689
T04
X0304567Y0030354
X0304567Y0050354
X0324567Y0050354
X0324567Y0030354
X032437Y014689
X030437Y014689
X030437Y016689
X032437Y016689
T05
X0322835Y0011811
X0011811
Y0185039
X0322835
T06
X0132874Y0043504
X0133071Y0153543
T07
X0242973Y0057215
X0242973Y0139715
X0022441Y0139567
X0022441Y0057067
M30
