G04*
G04 #@! TF.GenerationSoftware,Altium Limited,Altium Designer,20.1.7 (139)*
G04*
G04 Layer_Color=8150272*
%FSLAX25Y25*%
%MOIN*%
G70*
G04*
G04 #@! TF.SameCoordinates,98BAC387-3A70-427A-9A39-C9BDDE23891B*
G04*
G04*
G04 #@! TF.FilePolarity,Negative*
G04*
G01*
G75*
%ADD22R,0.08280X0.14186*%
%ADD26C,0.20800*%
G04:AMPARAMS|DCode=27|XSize=59.18mil|YSize=67.06mil|CornerRadius=16.8mil|HoleSize=0mil|Usage=FLASHONLY|Rotation=90.000|XOffset=0mil|YOffset=0mil|HoleType=Round|Shape=RoundedRectangle|*
%AMROUNDEDRECTD27*
21,1,0.05918,0.03347,0,0,90.0*
21,1,0.02559,0.06706,0,0,90.0*
1,1,0.03359,0.01673,0.01280*
1,1,0.03359,0.01673,-0.01280*
1,1,0.03359,-0.01673,-0.01280*
1,1,0.03359,-0.01673,0.01280*
%
%ADD27ROUNDEDRECTD27*%
G04:AMPARAMS|DCode=28|XSize=93mil|YSize=68mil|CornerRadius=19mil|HoleSize=0mil|Usage=FLASHONLY|Rotation=0.000|XOffset=0mil|YOffset=0mil|HoleType=Round|Shape=RoundedRectangle|*
%AMROUNDEDRECTD28*
21,1,0.09300,0.03000,0,0,0.0*
21,1,0.05500,0.06800,0,0,0.0*
1,1,0.03800,0.02750,-0.01500*
1,1,0.03800,-0.02750,-0.01500*
1,1,0.03800,-0.02750,0.01500*
1,1,0.03800,0.02750,0.01500*
%
%ADD28ROUNDEDRECTD28*%
%ADD29C,0.10800*%
%ADD30R,0.06693X0.06693*%
%ADD31C,0.06693*%
%ADD32C,0.05800*%
%ADD65R,0.08280X0.05524*%
%ADD66R,0.14186X0.08280*%
%ADD67R,0.11024X0.14567*%
%ADD68R,0.14567X0.11024*%
%ADD69R,0.05918X0.07887*%
%ADD70R,0.05524X0.08280*%
G04:AMPARAMS|DCode=71|XSize=39.5mil|YSize=39.5mil|CornerRadius=8.72mil|HoleSize=0mil|Usage=FLASHONLY|Rotation=270.000|XOffset=0mil|YOffset=0mil|HoleType=Round|Shape=RoundedRectangle|*
%AMROUNDEDRECTD71*
21,1,0.03950,0.02205,0,0,270.0*
21,1,0.02205,0.03950,0,0,270.0*
1,1,0.01745,-0.01102,-0.01102*
1,1,0.01745,-0.01102,0.01102*
1,1,0.01745,0.01102,0.01102*
1,1,0.01745,0.01102,-0.01102*
%
%ADD71ROUNDEDRECTD71*%
%ADD72R,0.07887X0.05918*%
%ADD73R,0.15564X0.04737*%
G04:AMPARAMS|DCode=74|XSize=158mil|YSize=88mil|CornerRadius=8mil|HoleSize=0mil|Usage=FLASHONLY|Rotation=90.000|XOffset=0mil|YOffset=0mil|HoleType=Round|Shape=RoundedRectangle|*
%AMROUNDEDRECTD74*
21,1,0.15800,0.07200,0,0,90.0*
21,1,0.14200,0.08800,0,0,90.0*
1,1,0.01600,0.03600,0.07100*
1,1,0.01600,0.03600,-0.07100*
1,1,0.01600,-0.03600,-0.07100*
1,1,0.01600,-0.03600,0.07100*
%
%ADD74ROUNDEDRECTD74*%
%ADD75P,0.15274X4X270.0*%
%ADD76R,0.07493X0.06706*%
%ADD77C,0.11800*%
D22*
X50984Y27953D02*
D03*
X66339D02*
D03*
X97441Y34252D02*
D03*
X82087D02*
D03*
X236177Y83000D02*
D03*
X220823D02*
D03*
X236177Y99000D02*
D03*
X220823D02*
D03*
X236177Y116000D02*
D03*
X220823D02*
D03*
X236177Y132000D02*
D03*
X220823D02*
D03*
X90748Y171260D02*
D03*
X106102D02*
D03*
X52165D02*
D03*
X67520D02*
D03*
D26*
X322835Y185039D02*
D03*
X11811D02*
D03*
X322835Y11811D02*
D03*
X11811D02*
D03*
D27*
X283071Y101181D02*
D03*
Y109055D02*
D03*
Y124803D02*
D03*
Y116929D02*
D03*
X12992Y114173D02*
D03*
Y98425D02*
D03*
Y106299D02*
D03*
Y90551D02*
D03*
Y82677D02*
D03*
D28*
X167717Y108583D02*
D03*
Y98583D02*
D03*
Y88583D02*
D03*
Y78583D02*
D03*
Y68583D02*
D03*
D29*
X114000Y44275D02*
D03*
Y152575D02*
D03*
X51181D02*
D03*
Y44275D02*
D03*
D30*
X202992Y134567D02*
D03*
D31*
Y124567D02*
D03*
Y114567D02*
D03*
Y54567D02*
D03*
Y34567D02*
D03*
X262992D02*
D03*
Y54567D02*
D03*
Y114567D02*
D03*
Y124567D02*
D03*
D32*
X297244Y25591D02*
D03*
X285433D02*
D03*
X202756Y165354D02*
D03*
X212598D02*
D03*
X299606Y53150D02*
D03*
X261811Y68898D02*
D03*
X140551Y27953D02*
D03*
X118898Y5512D02*
D03*
X79528Y20079D02*
D03*
X260138Y171161D02*
D03*
X324705Y144390D02*
D03*
X267717Y42913D02*
D03*
X262992Y22441D02*
D03*
X25197Y96457D02*
D03*
X79528Y171161D02*
D03*
X150000Y183465D02*
D03*
X177953D02*
D03*
X229921Y22835D02*
D03*
X230709Y55236D02*
D03*
D65*
X28346Y114173D02*
D03*
Y126772D02*
D03*
Y82677D02*
D03*
Y70079D02*
D03*
D66*
X51968Y90748D02*
D03*
Y106102D02*
D03*
X66929Y90748D02*
D03*
Y106102D02*
D03*
D67*
X95079Y64961D02*
D03*
X62402D02*
D03*
Y131890D02*
D03*
X95079D02*
D03*
D68*
X23228Y27756D02*
D03*
Y60433D02*
D03*
Y136417D02*
D03*
Y169095D02*
D03*
D69*
X273425Y77953D02*
D03*
X262008D02*
D03*
X277362Y65748D02*
D03*
X288779D02*
D03*
X290748Y33071D02*
D03*
X279331D02*
D03*
X252559Y28740D02*
D03*
X241142D02*
D03*
Y38583D02*
D03*
X252559D02*
D03*
X220669Y65748D02*
D03*
X232087D02*
D03*
X260433Y161417D02*
D03*
X249016D02*
D03*
X277362Y54567D02*
D03*
X288779D02*
D03*
X241142Y52756D02*
D03*
X252559D02*
D03*
X234449Y161417D02*
D03*
X223031D02*
D03*
D70*
X289764Y16142D02*
D03*
X277165D02*
D03*
X210236Y149213D02*
D03*
X222835D02*
D03*
X188189Y78347D02*
D03*
X200787D02*
D03*
X278346Y43701D02*
D03*
X290945D02*
D03*
D71*
X246654Y20866D02*
D03*
X252559D02*
D03*
D72*
X216535Y31496D02*
D03*
Y20079D02*
D03*
Y53347D02*
D03*
Y41929D02*
D03*
X300197Y44685D02*
D03*
Y33268D02*
D03*
D73*
X324705Y98425D02*
D03*
X298130D02*
D03*
X324705Y88425D02*
D03*
X298130D02*
D03*
X324705Y78425D02*
D03*
X298130D02*
D03*
Y108425D02*
D03*
Y118425D02*
D03*
X324705Y108425D02*
D03*
Y118425D02*
D03*
D74*
X283858Y79528D02*
D03*
D75*
X182043Y14567D02*
D03*
Y43067D02*
D03*
X153543Y14567D02*
D03*
Y43067D02*
D03*
D76*
X36220Y90551D02*
D03*
Y106299D02*
D03*
D77*
X321654Y162992D02*
D03*
X301181D02*
D03*
X280709D02*
D03*
X287402Y183071D02*
D03*
X59842Y11024D02*
D03*
X135433Y16142D02*
D03*
X127165Y183071D02*
D03*
M02*
