G04*
G04 #@! TF.GenerationSoftware,Altium Limited,Altium Designer,20.1.7 (139)*
G04*
G04 Layer_Color=15132400*
%FSLAX25Y25*%
%MOIN*%
G70*
G04*
G04 #@! TF.SameCoordinates,98BAC387-3A70-427A-9A39-C9BDDE23891B*
G04*
G04*
G04 #@! TF.FilePolarity,Positive*
G04*
G01*
G75*
%ADD10C,0.01000*%
%ADD11C,0.01500*%
%ADD12C,0.00591*%
%ADD13C,0.00787*%
%ADD14C,0.00500*%
D10*
X329900Y162992D02*
G03*
X329900Y162992I-8246J0D01*
G01*
X309427D02*
G03*
X309427Y162992I-8246J0D01*
G01*
X288955D02*
G03*
X288955Y162992I-8246J0D01*
G01*
X295648Y183071D02*
G03*
X295648Y183071I-8246J0D01*
G01*
X68089Y11024D02*
G03*
X68089Y11024I-8246J0D01*
G01*
X143679Y16142D02*
G03*
X143679Y16142I-8246J0D01*
G01*
X135412Y183071D02*
G03*
X135412Y183071I-8246J0D01*
G01*
X171870Y166404D02*
G03*
X155689Y166404I-8090J-17192D01*
G01*
X181060Y141313D02*
G03*
X181060Y157112I-17280J7899D01*
G01*
X155880Y131933D02*
G03*
X171679Y131933I7899J17280D01*
G01*
X146500Y157112D02*
G03*
X146588Y141122I17280J-7899D01*
G01*
X303937Y42323D02*
X305118D01*
X303937Y28543D02*
X305118D01*
X312205Y25591D02*
Y45276D01*
X278346Y42323D02*
X282283D01*
X278346Y28543D02*
Y42323D01*
Y28543D02*
X282283D01*
X201772Y172047D02*
Y173228D01*
X215551Y172047D02*
Y173228D01*
X198819Y180315D02*
X218504D01*
X201772Y146457D02*
Y150394D01*
Y146457D02*
X215551D01*
Y150394D01*
X157717Y58583D02*
Y73583D01*
X150216D02*
X157717D01*
X150216D02*
Y103583D01*
X157717Y118583D02*
X177717D01*
X157717Y58583D02*
X177717D01*
Y118583D01*
X150216Y103583D02*
X157717D01*
Y118583D01*
X139000Y36425D02*
Y160425D01*
X89000D02*
X139000D01*
X89000Y36425D02*
Y160425D01*
Y36425D02*
X139000D01*
X26181D02*
X76181D01*
X26181D02*
Y160425D01*
X76181D01*
Y36425D02*
Y160425D01*
X171215Y52084D02*
Y56083D01*
X168216D01*
X169215Y54083D01*
Y53084D01*
X168216Y52084D01*
X166216D01*
X165217Y53084D01*
Y55083D01*
X166216Y56083D01*
X165217Y123583D02*
Y121583D01*
Y122583D01*
X171215D01*
X170215Y123583D01*
X278886Y58481D02*
Y56482D01*
X279886D01*
X280219Y56815D01*
Y58148D01*
X279886Y58481D01*
X278886D01*
X281885Y56482D02*
X281218D01*
X280885Y56815D01*
Y57482D01*
X281218Y57815D01*
X281885D01*
X282218Y57482D01*
Y57148D01*
X280885D01*
X282885Y56482D02*
X283884D01*
X284217Y56815D01*
X283884Y57148D01*
X283218D01*
X282885Y57482D01*
X283218Y57815D01*
X284217D01*
X284884Y56482D02*
X285550D01*
X285217D01*
Y57815D01*
X284884D01*
X287216Y55815D02*
X287550D01*
X287883Y56149D01*
Y57815D01*
X286883D01*
X286550Y57482D01*
Y56815D01*
X286883Y56482D01*
X287883D01*
X288549D02*
Y57815D01*
X289549D01*
X289882Y57482D01*
Y56482D01*
X290882Y57815D02*
X291548D01*
X291882Y57482D01*
Y56482D01*
X290882D01*
X290549Y56815D01*
X290882Y57148D01*
X291882D01*
X292881Y58148D02*
Y57815D01*
X292548D01*
X293215D01*
X292881D01*
Y56815D01*
X293215Y56482D01*
X294547D02*
X295214D01*
X295547Y56815D01*
Y57482D01*
X295214Y57815D01*
X294547D01*
X294214Y57482D01*
Y56815D01*
X294547Y56482D01*
X296214Y57815D02*
Y56482D01*
Y57148D01*
X296547Y57482D01*
X296880Y57815D01*
X297213D01*
X299546Y56482D02*
X298213D01*
X299546Y57815D01*
Y58148D01*
X299213Y58481D01*
X298546D01*
X298213Y58148D01*
X192226Y196233D02*
Y194234D01*
X193226D01*
X193559Y194567D01*
Y195900D01*
X193226Y196233D01*
X192226D01*
X195225Y194234D02*
X194559D01*
X194225Y194567D01*
Y195234D01*
X194559Y195567D01*
X195225D01*
X195558Y195234D01*
Y194900D01*
X194225D01*
X196225Y194234D02*
X197224D01*
X197558Y194567D01*
X197224Y194900D01*
X196558D01*
X196225Y195234D01*
X196558Y195567D01*
X197558D01*
X198224Y194234D02*
X198890D01*
X198557D01*
Y195567D01*
X198224D01*
X200557Y193567D02*
X200890D01*
X201223Y193901D01*
Y195567D01*
X200223D01*
X199890Y195234D01*
Y194567D01*
X200223Y194234D01*
X201223D01*
X201889D02*
Y195567D01*
X202889D01*
X203222Y195234D01*
Y194234D01*
X204222Y195567D02*
X204889D01*
X205222Y195234D01*
Y194234D01*
X204222D01*
X203889Y194567D01*
X204222Y194900D01*
X205222D01*
X206222Y195900D02*
Y195567D01*
X205888D01*
X206555D01*
X206222D01*
Y194567D01*
X206555Y194234D01*
X207888D02*
X208554D01*
X208887Y194567D01*
Y195234D01*
X208554Y195567D01*
X207888D01*
X207554Y195234D01*
Y194567D01*
X207888Y194234D01*
X209554Y195567D02*
Y194234D01*
Y194900D01*
X209887Y195234D01*
X210220Y195567D01*
X210553D01*
X211553Y194234D02*
X212220D01*
X211886D01*
Y196233D01*
X211553Y195900D01*
X89825Y23896D02*
X88826Y24896D01*
X86826D01*
X85827Y23896D01*
Y19897D01*
X86826Y18898D01*
X88826D01*
X89825Y19897D01*
X91825Y18898D02*
X93824D01*
X92825D01*
Y24896D01*
X91825Y23896D01*
X99822Y18898D02*
Y24896D01*
X96823Y21897D01*
X100822D01*
X74077Y9723D02*
X73078Y10723D01*
X71078D01*
X70079Y9723D01*
Y5724D01*
X71078Y4724D01*
X73078D01*
X74077Y5724D01*
X76077Y4724D02*
X78076D01*
X77077D01*
Y10723D01*
X76077Y9723D01*
X85074Y10723D02*
X81075D01*
Y7723D01*
X83074Y8723D01*
X84074D01*
X85074Y7723D01*
Y5724D01*
X84074Y4724D01*
X82075D01*
X81075Y5724D01*
X93499Y168898D02*
X92499Y169898D01*
X90500D01*
X89500Y168898D01*
Y164900D01*
X90500Y163900D01*
X92499D01*
X93499Y164900D01*
X99497Y163900D02*
X95498D01*
X99497Y167899D01*
Y168898D01*
X98497Y169898D01*
X96498D01*
X95498Y168898D01*
X101496D02*
X102496Y169898D01*
X104495D01*
X105495Y168898D01*
Y167899D01*
X104495Y166899D01*
X105495Y165899D01*
Y164900D01*
X104495Y163900D01*
X102496D01*
X101496Y164900D01*
Y165899D01*
X102496Y166899D01*
X101496Y167899D01*
Y168898D01*
X102496Y166899D02*
X104495D01*
X147638Y17415D02*
Y11417D01*
X149637Y13417D01*
X151637Y11417D01*
Y17415D01*
X153636D02*
X157635D01*
X155635D01*
Y11417D01*
X159634D02*
X161633D01*
X160634D01*
Y17415D01*
X159634Y16416D01*
X261024Y191825D02*
Y185827D01*
X263023Y187826D01*
X265022Y185827D01*
Y191825D01*
X267022D02*
X271020D01*
X269021D01*
Y185827D01*
X276019D02*
Y191825D01*
X273020Y188826D01*
X277018D01*
X284252Y153636D02*
Y147638D01*
X286251Y149637D01*
X288251Y147638D01*
Y153636D01*
X290250D02*
X294249D01*
X292249D01*
Y147638D01*
X300247Y153636D02*
X298247Y152636D01*
X296248Y150637D01*
Y148637D01*
X297248Y147638D01*
X299247D01*
X300247Y148637D01*
Y149637D01*
X299247Y150637D01*
X296248D01*
X100787Y191825D02*
Y185827D01*
X102787Y187826D01*
X104786Y185827D01*
Y191825D01*
X106786D02*
X110784D01*
X108785D01*
Y185827D01*
X112784Y190825D02*
X113783Y191825D01*
X115782D01*
X116782Y190825D01*
Y189825D01*
X115782Y188826D01*
X114783D01*
X115782D01*
X116782Y187826D01*
Y186826D01*
X115782Y185827D01*
X113783D01*
X112784Y186826D01*
X304331Y153242D02*
Y147244D01*
X306330Y149243D01*
X308329Y147244D01*
Y153242D01*
X310329D02*
X314328D01*
X312328D01*
Y147244D01*
X320325Y153242D02*
X316327D01*
Y150243D01*
X318326Y151243D01*
X319326D01*
X320325Y150243D01*
Y148244D01*
X319326Y147244D01*
X317326D01*
X316327Y148244D01*
X259449Y154423D02*
Y148425D01*
X261448Y150425D01*
X263447Y148425D01*
Y154423D01*
X265447D02*
X269446D01*
X267446D01*
Y148425D01*
X271445Y154423D02*
X275444D01*
Y153424D01*
X271445Y149425D01*
Y148425D01*
X33858Y18990D02*
Y12992D01*
X35858Y14991D01*
X37857Y12992D01*
Y18990D01*
X39856D02*
X43855D01*
X41856D01*
Y12992D01*
X49853D02*
X45854D01*
X49853Y16991D01*
Y17990D01*
X48853Y18990D01*
X46854D01*
X45854Y17990D01*
X186221Y186221D02*
Y192218D01*
X189219D01*
X190219Y191219D01*
Y189219D01*
X189219Y188220D01*
X186221D01*
X188220D02*
X190219Y186221D01*
X192218Y192218D02*
X196217Y186221D01*
Y192218D02*
X192218Y186221D01*
X198217D02*
X200216D01*
X199216D01*
Y192218D01*
X198217Y191219D01*
X203215D02*
X204215Y192218D01*
X206214D01*
X207214Y191219D01*
Y187220D01*
X206214Y186221D01*
X204215D01*
X203215Y187220D01*
Y191219D01*
X2600Y151400D02*
Y157398D01*
X5599D01*
X6599Y156398D01*
Y154399D01*
X5599Y153399D01*
X2600D01*
X8598Y157398D02*
X12597Y151400D01*
Y157398D02*
X8598Y151400D01*
X17595D02*
Y157398D01*
X14596Y154399D01*
X18595D01*
X275590Y139764D02*
Y145762D01*
X278590D01*
X279589Y144762D01*
Y142763D01*
X278590Y141763D01*
X275590D01*
X281589Y145762D02*
X285587Y139764D01*
Y145762D02*
X281589Y139764D01*
X287587Y144762D02*
X288586Y145762D01*
X290586D01*
X291585Y144762D01*
Y143763D01*
X290586Y142763D01*
X289586D01*
X290586D01*
X291585Y141763D01*
Y140763D01*
X290586Y139764D01*
X288586D01*
X287587Y140763D01*
X24409Y5512D02*
Y11510D01*
X26409Y9510D01*
X28408Y11510D01*
Y5512D01*
X30408Y11510D02*
Y5512D01*
Y8511D01*
X34406D01*
Y11510D01*
Y5512D01*
X36406D02*
X38405D01*
X37405D01*
Y11510D01*
X36406Y10510D01*
X41404D02*
X42404Y11510D01*
X44403D01*
X45403Y10510D01*
Y6511D01*
X44403Y5512D01*
X42404D01*
X41404Y6511D01*
Y10510D01*
X311811Y26772D02*
Y32770D01*
X313810Y30770D01*
X315810Y32770D01*
Y26772D01*
X317809Y32770D02*
Y26772D01*
Y29771D01*
X321808D01*
Y32770D01*
Y26772D01*
X323807Y27771D02*
X324807Y26772D01*
X326806D01*
X327806Y27771D01*
Y31770D01*
X326806Y32770D01*
X324807D01*
X323807Y31770D01*
Y30770D01*
X324807Y29771D01*
X327806D01*
X296063Y186614D02*
Y192612D01*
X298062Y190613D01*
X300062Y192612D01*
Y186614D01*
X302061Y192612D02*
Y186614D01*
Y189613D01*
X306060D01*
Y192612D01*
Y186614D01*
X308059Y191613D02*
X309059Y192612D01*
X311058D01*
X312058Y191613D01*
Y190613D01*
X311058Y189613D01*
X312058Y188613D01*
Y187614D01*
X311058Y186614D01*
X309059D01*
X308059Y187614D01*
Y188613D01*
X309059Y189613D01*
X308059Y190613D01*
Y191613D01*
X309059Y189613D02*
X311058D01*
X25591Y185433D02*
Y191431D01*
X27590Y189432D01*
X29589Y191431D01*
Y185433D01*
X31589Y191431D02*
Y185433D01*
Y188432D01*
X35587D01*
Y191431D01*
Y185433D01*
X37587Y191431D02*
X41585D01*
Y190431D01*
X37587Y186433D01*
Y185433D01*
X143701Y116929D02*
Y122927D01*
X146700D01*
X147699Y121927D01*
Y119928D01*
X146700Y118929D01*
X143701D01*
X149699Y122927D02*
X153698D01*
Y121927D01*
X149699Y117929D01*
Y116929D01*
X193492Y146067D02*
Y152065D01*
X195492Y150066D01*
X197491Y152065D01*
Y146067D01*
X199490D02*
X201489D01*
X200490D01*
Y152065D01*
X199490Y151065D01*
X189764Y172927D02*
Y166929D01*
X193763D01*
X195762Y171927D02*
X196762Y172927D01*
X198761D01*
X199760Y171927D01*
Y170928D01*
X198761Y169928D01*
X199760Y168929D01*
Y167929D01*
X198761Y166929D01*
X196762D01*
X195762Y167929D01*
Y168929D01*
X196762Y169928D01*
X195762Y170928D01*
Y171927D01*
X196762Y169928D02*
X198761D01*
X30699Y168898D02*
X29699Y169898D01*
X27700D01*
X26700Y168898D01*
Y164900D01*
X27700Y163900D01*
X29699D01*
X30699Y164900D01*
X36697Y163900D02*
X32698D01*
X36697Y167899D01*
Y168898D01*
X35697Y169898D01*
X33698D01*
X32698Y168898D01*
X38696Y169898D02*
X42695D01*
Y168898D01*
X38696Y164900D01*
Y163900D01*
X144550Y62479D02*
X143550Y63478D01*
X141551D01*
X140551Y62479D01*
Y58480D01*
X141551Y57480D01*
X143550D01*
X144550Y58480D01*
X146549Y57480D02*
X148549D01*
X147549D01*
Y63478D01*
X146549Y62479D01*
X151548Y63478D02*
X155546D01*
Y62479D01*
X151548Y58480D01*
Y57480D01*
X150231Y44598D02*
X149231Y45598D01*
X147232D01*
X146232Y44598D01*
Y40600D01*
X147232Y39600D01*
X149231D01*
X150231Y40600D01*
X152230Y39600D02*
X154230D01*
X153230D01*
Y45598D01*
X152230Y44598D01*
X161227Y45598D02*
X159228Y44598D01*
X157229Y42599D01*
Y40600D01*
X158228Y39600D01*
X160228D01*
X161227Y40600D01*
Y41599D01*
X160228Y42599D01*
X157229D01*
D11*
X144487Y129213D02*
G03*
X144487Y129213I-707J0D01*
G01*
D12*
X310630Y45276D02*
X311417Y44488D01*
X304331Y44488D02*
X311417D01*
X310630Y25591D02*
X311417Y26378D01*
X304331D02*
X311417D01*
X198819Y178740D02*
X199606Y179527D01*
X199606Y172441D02*
Y179527D01*
X217717D02*
X218504Y178740D01*
X217717Y172441D02*
Y179527D01*
X193032Y142559D02*
X272992D01*
X193032Y16575D02*
Y142559D01*
Y16575D02*
X272992D01*
Y142559D01*
X307350Y31364D02*
X306694Y30708D01*
Y29396D01*
X307350Y28740D01*
X309974D01*
X310630Y29396D01*
Y30708D01*
X309974Y31364D01*
X310630Y32676D02*
X308006D01*
X306694Y33988D01*
X308006Y35300D01*
X310630D01*
X308662D01*
Y32676D01*
X307350Y39235D02*
X306694Y38579D01*
Y37268D01*
X307350Y36612D01*
X308006D01*
X308662Y37268D01*
Y38579D01*
X309318Y39235D01*
X309974D01*
X310630Y38579D01*
Y37268D01*
X309974Y36612D01*
X306694Y43171D02*
Y40547D01*
X310630D01*
Y43171D01*
X308662Y40547D02*
Y41859D01*
X212731Y175460D02*
X213387Y174804D01*
X214698D01*
X215354Y175460D01*
Y178084D01*
X214698Y178740D01*
X213387D01*
X212731Y178084D01*
X211419Y178740D02*
Y176116D01*
X210107Y174804D01*
X208795Y176116D01*
Y178740D01*
Y176772D01*
X211419D01*
X204859Y175460D02*
X205515Y174804D01*
X206827D01*
X207483Y175460D01*
Y176116D01*
X206827Y176772D01*
X205515D01*
X204859Y177428D01*
Y178084D01*
X205515Y178740D01*
X206827D01*
X207483Y178084D01*
X200923Y174804D02*
X203547D01*
Y178740D01*
X200923D01*
X203547Y176772D02*
X202235D01*
D13*
X159095Y39370D02*
Y51968D01*
X159843Y39370D02*
Y51968D01*
X154331D02*
X159843D01*
X154331Y39370D02*
X159843D01*
X116575Y20866D02*
Y33465D01*
X117323Y20866D02*
Y33465D01*
X111811D02*
X117323D01*
X111811Y20866D02*
X117323D01*
X100433Y2362D02*
Y14961D01*
X101181Y2362D02*
Y14961D01*
X95669D02*
X101181D01*
X95669Y2362D02*
X101181D01*
X154331Y23228D02*
X159843D01*
X154331Y35827D02*
X159843D01*
Y23228D02*
Y35827D01*
X159095Y23228D02*
Y35827D01*
D14*
X274410Y88976D02*
X288189D01*
X290551Y91339D01*
Y134646D01*
X274410Y88976D02*
Y137008D01*
X288189Y137008D01*
X290551Y134646D01*
X4331Y70472D02*
X17717D01*
X20866Y73622D01*
X20866Y123228D02*
X20866Y73622D01*
X17717Y126378D02*
X20866Y123228D01*
X4331Y126378D02*
X17717Y126378D01*
X4331Y70472D02*
Y126378D01*
M02*
