G04*
G04 #@! TF.GenerationSoftware,Altium Limited,Altium Designer,20.1.7 (139)*
G04*
G04 Layer_Physical_Order=4*
G04 Layer_Color=11436288*
%FSLAX25Y25*%
%MOIN*%
G70*
G04*
G04 #@! TF.SameCoordinates,98BAC387-3A70-427A-9A39-C9BDDE23891B*
G04*
G04*
G04 #@! TF.FilePolarity,Positive*
G04*
G01*
G75*
%ADD10C,0.01000*%
%ADD17R,0.07480X0.13386*%
%ADD34C,0.02000*%
%ADD35C,0.03000*%
%ADD37C,0.20000*%
G04:AMPARAMS|DCode=38|XSize=51.18mil|YSize=59.06mil|CornerRadius=12.8mil|HoleSize=0mil|Usage=FLASHONLY|Rotation=90.000|XOffset=0mil|YOffset=0mil|HoleType=Round|Shape=RoundedRectangle|*
%AMROUNDEDRECTD38*
21,1,0.05118,0.03347,0,0,90.0*
21,1,0.02559,0.05906,0,0,90.0*
1,1,0.02559,0.01673,0.01280*
1,1,0.02559,0.01673,-0.01280*
1,1,0.02559,-0.01673,-0.01280*
1,1,0.02559,-0.01673,0.01280*
%
%ADD38ROUNDEDRECTD38*%
G04:AMPARAMS|DCode=39|XSize=85mil|YSize=60mil|CornerRadius=15mil|HoleSize=0mil|Usage=FLASHONLY|Rotation=0.000|XOffset=0mil|YOffset=0mil|HoleType=Round|Shape=RoundedRectangle|*
%AMROUNDEDRECTD39*
21,1,0.08500,0.03000,0,0,0.0*
21,1,0.05500,0.06000,0,0,0.0*
1,1,0.03000,0.02750,-0.01500*
1,1,0.03000,-0.02750,-0.01500*
1,1,0.03000,-0.02750,0.01500*
1,1,0.03000,0.02750,0.01500*
%
%ADD39ROUNDEDRECTD39*%
%ADD40C,0.10000*%
%ADD41R,0.06299X0.06299*%
%ADD42C,0.06299*%
%ADD43C,0.05000*%
%ADD45C,0.11000*%
%ADD53R,0.07480X0.04724*%
%ADD54R,0.13386X0.07480*%
%ADD55R,0.10630X0.14173*%
%ADD56R,0.14173X0.10630*%
%ADD57R,0.05118X0.07087*%
%ADD58R,0.04724X0.07480*%
G04:AMPARAMS|DCode=59|XSize=31.5mil|YSize=31.5mil|CornerRadius=4.72mil|HoleSize=0mil|Usage=FLASHONLY|Rotation=270.000|XOffset=0mil|YOffset=0mil|HoleType=Round|Shape=RoundedRectangle|*
%AMROUNDEDRECTD59*
21,1,0.03150,0.02205,0,0,270.0*
21,1,0.02205,0.03150,0,0,270.0*
1,1,0.00945,-0.01102,-0.01102*
1,1,0.00945,-0.01102,0.01102*
1,1,0.00945,0.01102,0.01102*
1,1,0.00945,0.01102,-0.01102*
%
%ADD59ROUNDEDRECTD59*%
%ADD60R,0.07087X0.05118*%
%ADD61R,0.14764X0.03937*%
G04:AMPARAMS|DCode=62|XSize=150mil|YSize=80mil|CornerRadius=4mil|HoleSize=0mil|Usage=FLASHONLY|Rotation=90.000|XOffset=0mil|YOffset=0mil|HoleType=Round|Shape=RoundedRectangle|*
%AMROUNDEDRECTD62*
21,1,0.15000,0.07200,0,0,90.0*
21,1,0.14200,0.08000,0,0,90.0*
1,1,0.00800,0.03600,0.07100*
1,1,0.00800,0.03600,-0.07100*
1,1,0.00800,-0.03600,-0.07100*
1,1,0.00800,-0.03600,0.07100*
%
%ADD62ROUNDEDRECTD62*%
%ADD63P,0.14142X4X270.0*%
%ADD64R,0.06693X0.05906*%
D10*
X290748Y33071D02*
X290945Y33268D01*
X278346Y33071D02*
X279331Y34055D01*
X312598Y21260D02*
Y81496D01*
X301181Y9843D02*
X312598Y21260D01*
X201181Y9843D02*
X301181D01*
X302603Y7842D02*
X314598Y19838D01*
X188768Y7842D02*
X302603D01*
X314598Y19838D02*
Y66819D01*
Y74803D02*
X315338Y75542D01*
X316409D01*
X319291Y78425D01*
X324705D01*
X314598Y72043D02*
Y74803D01*
Y72043D02*
X315184Y71457D01*
X327362D01*
X328346Y70472D01*
Y69291D02*
Y70472D01*
X327953Y68898D02*
X328346Y69291D01*
X327953Y68504D02*
Y68898D01*
X327165Y67716D02*
X327953Y68504D01*
X315748Y67716D02*
X327165D01*
X314850Y66819D02*
X315748Y67716D01*
X314598Y66819D02*
X314850D01*
X182043Y14567D02*
X188768Y7842D01*
X288779Y65748D02*
X291417D01*
X51181Y170276D02*
X52165Y171260D01*
X324705Y88425D02*
X325886D01*
X319528D02*
X324705D01*
X312598Y81496D02*
X319528Y88425D01*
X90650Y171161D02*
X90748Y171260D01*
X67520D02*
X67618Y171161D01*
X241142Y28740D02*
X242126Y27756D01*
X299606Y45276D02*
X300197Y44685D01*
X261811Y77756D02*
X262008Y77953D01*
X279331Y33071D02*
Y34055D01*
X229224Y22138D02*
X229921Y22835D01*
X218595Y22138D02*
X229224D01*
X216535Y20079D02*
X218595Y22138D01*
X79528Y20079D02*
Y20617D01*
X260138Y161713D02*
X260433Y161417D01*
X280709Y162992D02*
X281303Y162398D01*
Y126571D02*
Y162398D01*
Y126571D02*
X283071Y124803D01*
X295276Y98425D02*
X298130D01*
X312205D01*
X313386Y154724D02*
X321654Y162992D01*
Y162992D01*
X313386Y99606D02*
Y154724D01*
X312205Y98425D02*
X313386Y99606D01*
X298130Y118425D02*
X304331D01*
X296929D02*
X298130D01*
X324705D02*
Y144390D01*
Y108425D02*
Y118425D01*
Y98425D02*
Y108425D01*
X301181Y162992D02*
X310630Y153543D01*
Y112598D02*
Y153543D01*
X307925Y109894D02*
X310630Y112598D01*
X294724Y108425D02*
X298130D01*
X299598Y109894D02*
X307925D01*
X298130Y108425D02*
X299598Y109894D01*
X286221Y107480D02*
X295276Y98425D01*
X286221Y107480D02*
Y109055D01*
Y116929D02*
X286248Y116957D01*
X286221Y116929D02*
X294724Y108425D01*
X290551Y124803D02*
X296929Y118425D01*
X286221Y124803D02*
X290551D01*
X277362Y55354D02*
X278346Y54370D01*
X283858Y79528D02*
X284961Y78425D01*
X282283Y77953D02*
X283858Y79528D01*
Y83028D01*
X51378Y25000D02*
X52756Y23622D01*
X51181Y25197D02*
X51378Y25000D01*
X182043Y43067D02*
X187795Y37315D01*
Y23228D02*
Y37315D01*
Y23228D02*
X201181Y9843D01*
X290748Y43504D02*
X290945Y43701D01*
X202992Y124567D02*
X202996Y124571D01*
X220823Y65988D02*
X221063Y65748D01*
X220669Y64764D02*
Y65748D01*
X252559Y28740D02*
X252559Y28740D01*
X241142Y52756D02*
X241339Y52953D01*
X236177Y80047D02*
Y83000D01*
X249016Y161417D02*
X249016Y161417D01*
X222835Y161221D02*
X223031Y161417D01*
X219965Y83858D02*
X220823Y83000D01*
X187953Y78583D02*
X188189Y78347D01*
X106102Y168307D02*
Y171260D01*
X105905Y171063D02*
X106102Y171260D01*
X113993Y44275D02*
X114000D01*
X27362Y70079D02*
X28043Y69398D01*
X24016Y57677D02*
Y59055D01*
X28043Y63083D01*
X28346Y70079D02*
X28740D01*
X27362D02*
X28346D01*
X50590Y171063D02*
X52756Y173228D01*
X23228Y138386D02*
X27362Y134252D01*
X113173Y152575D02*
X114000D01*
X36220Y90551D02*
X36614D01*
X51772D02*
X51968Y90748D01*
X28740Y82677D02*
X28740Y82677D01*
X27362Y126772D02*
X28740D01*
X51772Y106299D02*
X51968Y106102D01*
X28043Y127469D02*
X28740Y126772D01*
D17*
X50984Y27953D02*
D03*
X66339D02*
D03*
X97441Y34252D02*
D03*
X82087D02*
D03*
X236177Y83000D02*
D03*
X220823D02*
D03*
X236177Y99000D02*
D03*
X220823D02*
D03*
X236177Y116000D02*
D03*
X220823D02*
D03*
X236177Y132000D02*
D03*
X220823D02*
D03*
X90748Y171260D02*
D03*
X106102D02*
D03*
X52165D02*
D03*
X67520D02*
D03*
D34*
X144488Y5512D02*
X153543Y14567D01*
X118898Y5512D02*
X144488D01*
X153543Y40945D02*
Y43067D01*
X140551Y27953D02*
X153543Y40945D01*
D35*
X289764Y16142D02*
X299606D01*
X305118Y21654D01*
Y29528D01*
X300197Y33268D02*
X301378D01*
X305118Y29528D01*
X290945Y33268D02*
X300197D01*
X289764Y16142D02*
X290626Y17004D01*
X270827Y23858D02*
Y26732D01*
Y23858D02*
X277165Y17520D01*
Y16142D02*
Y17520D01*
X262992Y34567D02*
X270827Y26732D01*
X291417Y65748D02*
X299606Y57559D01*
Y53150D02*
Y57559D01*
X290197Y53150D02*
X299606D01*
X288779Y54567D02*
X290197Y53150D01*
X277362Y55354D02*
Y65354D01*
X51181Y152575D02*
Y170276D01*
X79528Y171161D02*
X90650D01*
X67618D02*
X79528D01*
X242126Y25394D02*
Y27756D01*
Y25394D02*
X246654Y20866D01*
X299606Y45276D02*
Y53150D01*
X277559Y33071D02*
X278346D01*
X267717Y42913D02*
X277559Y33071D01*
X241142Y28740D02*
Y38583D01*
X261811Y68898D02*
Y77756D01*
X229921Y22835D02*
X235827Y28740D01*
X241142D01*
X230709Y59327D02*
X232087Y60705D01*
X230709Y55236D02*
Y59327D01*
X232087Y60705D02*
Y65748D01*
X79528Y20617D02*
X82087Y23177D01*
Y34252D01*
X106496D02*
X114000Y41756D01*
X97441Y34252D02*
X106496D01*
X114000Y41756D02*
Y44275D01*
X71653Y27953D02*
X79528Y20079D01*
X66339Y27953D02*
X71653D01*
X260138Y161713D02*
Y171161D01*
X277362Y65354D02*
Y66732D01*
X277264Y66634D02*
X277362Y66732D01*
X277264Y66634D02*
Y67618D01*
X273425Y71457D02*
X277264Y67618D01*
X284961Y78425D02*
X299311D01*
X289256Y88425D02*
X299311D01*
X283858Y83028D02*
X289256Y88425D01*
X273425Y77953D02*
X282283D01*
X273425Y71457D02*
Y77953D01*
X12992Y82677D02*
X28740D01*
X278346Y43701D02*
Y54370D01*
X290748Y33071D02*
Y43504D01*
X202992Y114567D02*
Y124567D01*
X262992Y114567D02*
Y124567D01*
X28346Y114173D02*
X28740D01*
X12992D02*
X28346D01*
X216535Y31496D02*
Y41929D01*
Y60630D02*
X220669Y64764D01*
X216535Y53347D02*
Y60630D01*
X203028Y80587D02*
X206299Y83858D01*
X201650Y80587D02*
X203028D01*
X200787Y79724D02*
X201650Y80587D01*
X200787Y78347D02*
Y79724D01*
X252559Y20866D02*
Y28740D01*
X258976Y38583D02*
X262992Y34567D01*
X252559Y38583D02*
X258976D01*
X252559Y28740D02*
Y38583D01*
Y52756D01*
X241339Y52953D02*
Y74886D01*
X236177Y80047D02*
X241339Y74886D01*
X220823Y65988D02*
Y83000D01*
X234449Y161417D02*
X249016D01*
X222835Y149213D02*
Y161221D01*
X248354Y83000D02*
X262992Y97638D01*
Y114567D01*
X236177Y83000D02*
X248354D01*
X207642Y124571D02*
X215071Y132000D01*
X220823D01*
X202996Y124571D02*
X207642D01*
X220823Y116000D02*
Y132000D01*
Y99000D02*
Y116000D01*
Y83000D02*
Y99000D01*
X206299Y83858D02*
X219965D01*
X236177Y83000D02*
Y99000D01*
Y116000D01*
Y132000D01*
Y143244D01*
X230209Y149213D02*
X236177Y143244D01*
X222835Y149213D02*
X230209D01*
X167717Y78583D02*
X187953D01*
X192913Y144095D02*
X198031Y149213D01*
X192913Y108449D02*
Y144095D01*
X183047Y98583D02*
X192913Y108449D01*
X198031Y149213D02*
X210236D01*
X167717Y98583D02*
X183047D01*
X105905Y166142D02*
Y171063D01*
X95079Y155315D02*
X105905Y166142D01*
X95079Y131890D02*
Y155315D01*
Y40354D02*
Y64961D01*
X106102Y168307D02*
X114000Y160409D01*
Y152575D02*
Y160409D01*
X51181Y25197D02*
Y44275D01*
X36614Y73622D02*
Y90551D01*
X51181Y44275D02*
Y59055D01*
X36614Y73622D02*
X51181Y59055D01*
Y139992D02*
Y152575D01*
X36220Y125031D02*
X51181Y139992D01*
X36220Y106299D02*
Y125031D01*
X28043Y63083D02*
Y69398D01*
X62402Y110630D02*
X66929Y106102D01*
X62402Y110630D02*
Y131890D01*
X23228Y171063D02*
X50590D01*
X27362Y126772D02*
Y134252D01*
X62402Y86221D02*
X66929Y90748D01*
X62402Y64961D02*
Y86221D01*
X51968Y90748D02*
X66929D01*
X36614Y90551D02*
X51772D01*
X24016Y25000D02*
X51378D01*
X51968Y106102D02*
X66929D01*
X36220Y106299D02*
X51772D01*
D37*
X322835Y185039D02*
D03*
X11811D02*
D03*
X322835Y11811D02*
D03*
X11811D02*
D03*
D38*
X283071Y101181D02*
D03*
Y109055D02*
D03*
Y124803D02*
D03*
Y116929D02*
D03*
X12992Y114173D02*
D03*
Y98425D02*
D03*
Y106299D02*
D03*
Y90551D02*
D03*
Y82677D02*
D03*
D39*
X167717Y108583D02*
D03*
Y98583D02*
D03*
Y88583D02*
D03*
Y78583D02*
D03*
Y68583D02*
D03*
D40*
X114000Y44275D02*
D03*
Y152575D02*
D03*
X51181D02*
D03*
Y44275D02*
D03*
D41*
X202992Y134567D02*
D03*
D42*
Y124567D02*
D03*
Y114567D02*
D03*
Y54567D02*
D03*
Y34567D02*
D03*
X262992D02*
D03*
Y54567D02*
D03*
Y114567D02*
D03*
Y124567D02*
D03*
D43*
X297244Y25591D02*
D03*
X285433D02*
D03*
X202756Y165354D02*
D03*
X212598D02*
D03*
X299606Y53150D02*
D03*
X261811Y68898D02*
D03*
X140551Y27953D02*
D03*
X118898Y5512D02*
D03*
X79528Y20079D02*
D03*
X260138Y171161D02*
D03*
X324705Y144390D02*
D03*
X267717Y42913D02*
D03*
X262992Y22441D02*
D03*
X25197Y96457D02*
D03*
X79528Y171161D02*
D03*
X150000Y183465D02*
D03*
X177953D02*
D03*
X229921Y22835D02*
D03*
X230709Y55236D02*
D03*
D45*
X321654Y162992D02*
D03*
X301181D02*
D03*
X280709D02*
D03*
X287402Y183071D02*
D03*
X59842Y11024D02*
D03*
X135433Y16142D02*
D03*
X127165Y183071D02*
D03*
D53*
X28346Y114173D02*
D03*
Y126772D02*
D03*
Y82677D02*
D03*
Y70079D02*
D03*
D54*
X51968Y90748D02*
D03*
Y106102D02*
D03*
X66929Y90748D02*
D03*
Y106102D02*
D03*
D55*
X95079Y64961D02*
D03*
X62402D02*
D03*
Y131890D02*
D03*
X95079D02*
D03*
D56*
X23228Y27756D02*
D03*
Y60433D02*
D03*
Y136417D02*
D03*
Y169095D02*
D03*
D57*
X273425Y77953D02*
D03*
X262008D02*
D03*
X277362Y65748D02*
D03*
X288779D02*
D03*
X290748Y33071D02*
D03*
X279331D02*
D03*
X252559Y28740D02*
D03*
X241142D02*
D03*
Y38583D02*
D03*
X252559D02*
D03*
X220669Y65748D02*
D03*
X232087D02*
D03*
X260433Y161417D02*
D03*
X249016D02*
D03*
X277362Y54567D02*
D03*
X288779D02*
D03*
X241142Y52756D02*
D03*
X252559D02*
D03*
X234449Y161417D02*
D03*
X223031D02*
D03*
D58*
X289764Y16142D02*
D03*
X277165D02*
D03*
X210236Y149213D02*
D03*
X222835D02*
D03*
X188189Y78347D02*
D03*
X200787D02*
D03*
X278346Y43701D02*
D03*
X290945D02*
D03*
D59*
X246654Y20866D02*
D03*
X252559D02*
D03*
D60*
X216535Y31496D02*
D03*
Y20079D02*
D03*
Y53347D02*
D03*
Y41929D02*
D03*
X300197Y44685D02*
D03*
Y33268D02*
D03*
D61*
X324705Y98425D02*
D03*
X298130D02*
D03*
X324705Y88425D02*
D03*
X298130D02*
D03*
X324705Y78425D02*
D03*
X298130D02*
D03*
Y108425D02*
D03*
Y118425D02*
D03*
X324705Y108425D02*
D03*
Y118425D02*
D03*
D62*
X283858Y79528D02*
D03*
D63*
X182043Y14567D02*
D03*
Y43067D02*
D03*
X153543Y14567D02*
D03*
Y43067D02*
D03*
D64*
X36220Y90551D02*
D03*
Y106299D02*
D03*
M02*
