M48
;Layer_Color=6321
;FILE_FORMAT=2:5
INCH,LZ
;TYPE=PLATED
T1F00S00C0.02800
T2F00S00C0.04000
T3F00S00C0.04300
T4F00S00C0.07000
T5F00S00C0.12500
%
T01
X0079528Y0020079
X0118898Y0005512
X0229921Y0022835
X0262992Y0022441
X0324705Y014439
X0283071Y0124803
Y0116929
Y0109055
Y0101181
X0262992Y0114567
Y0124567
X0260138Y0171161
X0212598Y0165354
X0202756
X0202992Y0134567
Y0124567
Y0114567
Y0054567
Y0034567
X0230709Y0055236
X0262992Y0054567
X0261811Y0068898
X0267717Y0042913
X0262992Y0034567
X0285433Y0025591
X0297244
X0299606Y005315
X0140551Y0027953
X0012992Y0082677
Y0090551
Y0098425
Y0106299
Y0114173
X0025197Y0096457
X0079528Y0171161
X015Y0183465
X0177953
T02
X0051181Y0044275
X0114
Y0152575
X0051181
T03
X0167717Y0068583
Y0078583
Y0088583
Y0098583
Y0108583
T04
X0059842Y0011024
X0135433Y0016142
X0321654Y0162992
X0301181
X0280709
X0127165Y0183071
X0287402
T05
X0011811Y0011811
X0322835
X0011811Y0185039
X0322835
M30
