G04*
G04 #@! TF.GenerationSoftware,Altium Limited,Altium Designer,20.1.11 (218)*
G04*
G04 Layer_Physical_Order=6*
G04 Layer_Color=7143601*
%FSLAX25Y25*%
%MOIN*%
G70*
G04*
G04 #@! TF.SameCoordinates,26502B99-587C-4767-892E-7210AEBADD4C*
G04*
G04*
G04 #@! TF.FilePolarity,Positive*
G04*
G01*
G75*
%ADD17C,0.01200*%
%ADD114C,0.02000*%
%ADD127C,0.00400*%
D17*
X1016816Y-294278D02*
Y-304275D01*
X1023480D01*
X1028479Y-297610D02*
X1031811D01*
X1033477Y-299276D01*
Y-304275D01*
X1028479D01*
X1026812Y-302609D01*
X1028479Y-300943D01*
X1033477D01*
X1036809Y-297610D02*
Y-302609D01*
X1038475Y-304275D01*
X1043474D01*
Y-305941D01*
X1041808Y-307607D01*
X1040141D01*
X1043474Y-304275D02*
Y-297610D01*
X1051804Y-304275D02*
X1048472D01*
X1046806Y-302609D01*
Y-299276D01*
X1048472Y-297610D01*
X1051804D01*
X1053471Y-299276D01*
Y-300943D01*
X1046806D01*
X1056803Y-297610D02*
Y-304275D01*
Y-300943D01*
X1058469Y-299276D01*
X1060135Y-297610D01*
X1061801D01*
X1083461Y-294278D02*
X1080129Y-295944D01*
X1076796Y-299276D01*
Y-302609D01*
X1078463Y-304275D01*
X1081795D01*
X1083461Y-302609D01*
Y-300943D01*
X1081795Y-299276D01*
X1076796D01*
X1029716Y-320444D02*
X1031382Y-318778D01*
X1034714D01*
X1036380Y-320444D01*
Y-327109D01*
X1034714Y-328775D01*
X1031382D01*
X1029716Y-327109D01*
Y-320444D01*
X1039713Y-327109D02*
X1041379Y-328775D01*
X1044711D01*
X1046377Y-327109D01*
Y-320444D01*
X1044711Y-318778D01*
X1041379D01*
X1039713Y-320444D01*
Y-322110D01*
X1041379Y-323776D01*
X1046377D01*
X1049709Y-328775D02*
Y-327109D01*
X1051375D01*
Y-328775D01*
X1049709D01*
X1058040Y-320444D02*
X1059706Y-318778D01*
X1063038D01*
X1064704Y-320444D01*
Y-327109D01*
X1063038Y-328775D01*
X1059706D01*
X1058040Y-327109D01*
Y-320444D01*
X1074701Y-318778D02*
X1071369Y-320444D01*
X1068037Y-323776D01*
Y-327109D01*
X1069703Y-328775D01*
X1073035D01*
X1074701Y-327109D01*
Y-325443D01*
X1073035Y-323776D01*
X1068037D01*
X1078034Y-328775D02*
Y-327109D01*
X1079700D01*
Y-328775D01*
X1078034D01*
X1093029D02*
X1086364D01*
X1093029Y-322110D01*
Y-320444D01*
X1091362Y-318778D01*
X1088030D01*
X1086364Y-320444D01*
X1096361D02*
X1098027Y-318778D01*
X1101359D01*
X1103025Y-320444D01*
Y-327109D01*
X1101359Y-328775D01*
X1098027D01*
X1096361Y-327109D01*
Y-320444D01*
X1113022Y-328775D02*
X1106358D01*
X1113022Y-322110D01*
Y-320444D01*
X1111356Y-318778D01*
X1108024D01*
X1106358Y-320444D01*
X1116354D02*
X1118021Y-318778D01*
X1121353D01*
X1123019Y-320444D01*
Y-327109D01*
X1121353Y-328775D01*
X1118021D01*
X1116354Y-327109D01*
Y-320444D01*
X974816Y-282875D02*
Y-272878D01*
X978148Y-276210D01*
X981480Y-272878D01*
Y-282875D01*
X984813D02*
Y-272878D01*
X988145Y-276210D01*
X991477Y-272878D01*
Y-282875D01*
X994809Y-272878D02*
Y-282875D01*
X999808D01*
X1001474Y-281209D01*
Y-279542D01*
X999808Y-277876D01*
X994809D01*
X999808D01*
X1001474Y-276210D01*
Y-274544D01*
X999808Y-272878D01*
X994809D01*
X1004806Y-284541D02*
X1011471D01*
X1021467Y-274544D02*
X1019801Y-272878D01*
X1016469D01*
X1014803Y-274544D01*
Y-281209D01*
X1016469Y-282875D01*
X1019801D01*
X1021467Y-281209D01*
X1026466Y-282875D02*
X1029798D01*
X1031464Y-281209D01*
Y-277876D01*
X1029798Y-276210D01*
X1026466D01*
X1024800Y-277876D01*
Y-281209D01*
X1026466Y-282875D01*
X1034796D02*
Y-276210D01*
X1039795D01*
X1041461Y-277876D01*
Y-282875D01*
X1046459Y-274544D02*
Y-276210D01*
X1044793D01*
X1048125D01*
X1046459D01*
Y-281209D01*
X1048125Y-282875D01*
X1053124Y-276210D02*
Y-282875D01*
Y-279542D01*
X1054790Y-277876D01*
X1056456Y-276210D01*
X1058122D01*
X1064787Y-282875D02*
X1068119D01*
X1069785Y-281209D01*
Y-277876D01*
X1068119Y-276210D01*
X1064787D01*
X1063121Y-277876D01*
Y-281209D01*
X1064787Y-282875D01*
X1073117D02*
X1076450D01*
X1074784D01*
Y-272878D01*
X1073117D01*
X1081448Y-282875D02*
X1084780D01*
X1083114D01*
Y-272878D01*
X1081448D01*
X1094777Y-282875D02*
X1091445D01*
X1089779Y-281209D01*
Y-277876D01*
X1091445Y-276210D01*
X1094777D01*
X1096443Y-277876D01*
Y-279542D01*
X1089779D01*
X1099775Y-276210D02*
Y-282875D01*
Y-279542D01*
X1101441Y-277876D01*
X1103108Y-276210D01*
X1104774D01*
X1109772Y-284541D02*
X1116437D01*
X1119769Y-272878D02*
Y-282875D01*
X1124767D01*
X1126433Y-281209D01*
Y-279542D01*
X1124767Y-277876D01*
X1119769D01*
X1124767D01*
X1126433Y-276210D01*
Y-274544D01*
X1124767Y-272878D01*
X1119769D01*
X1131432Y-282875D02*
X1134764D01*
X1136430Y-281209D01*
Y-277876D01*
X1134764Y-276210D01*
X1131432D01*
X1129766Y-277876D01*
Y-281209D01*
X1131432Y-282875D01*
X1141429Y-276210D02*
X1144761D01*
X1146427Y-277876D01*
Y-282875D01*
X1141429D01*
X1139762Y-281209D01*
X1141429Y-279542D01*
X1146427D01*
X1149759Y-276210D02*
Y-282875D01*
Y-279542D01*
X1151425Y-277876D01*
X1153092Y-276210D01*
X1154758D01*
X1166420Y-272878D02*
Y-282875D01*
X1161422D01*
X1159756Y-281209D01*
Y-277876D01*
X1161422Y-276210D01*
X1166420D01*
X1169753Y-282875D02*
Y-281209D01*
X1171419D01*
Y-282875D01*
X1169753D01*
X1178083Y-286207D02*
Y-276210D01*
X1183082D01*
X1184748Y-277876D01*
Y-281209D01*
X1183082Y-282875D01*
X1178083D01*
X1194745Y-276210D02*
X1189746D01*
X1188080Y-277876D01*
Y-281209D01*
X1189746Y-282875D01*
X1194745D01*
X1198077Y-272878D02*
Y-282875D01*
X1203075D01*
X1204741Y-281209D01*
Y-279542D01*
Y-277876D01*
X1203075Y-276210D01*
X1198077D01*
X1214738Y-272878D02*
Y-282875D01*
X1209740D01*
X1208074Y-281209D01*
Y-277876D01*
X1209740Y-276210D01*
X1214738D01*
X1219737Y-282875D02*
X1223069D01*
X1224735Y-281209D01*
Y-277876D01*
X1223069Y-276210D01*
X1219737D01*
X1218071Y-277876D01*
Y-281209D01*
X1219737Y-282875D01*
X1234732Y-276210D02*
X1229733D01*
X1228067Y-277876D01*
Y-281209D01*
X1229733Y-282875D01*
X1234732D01*
D114*
X310236Y82284D02*
D03*
Y85630D02*
D03*
X34252Y126772D02*
D03*
Y123622D02*
D03*
X9843Y94488D02*
D03*
X10630Y90157D02*
D03*
X312598Y95669D02*
D03*
X257480Y122835D02*
D03*
X89764Y39764D02*
D03*
X86673Y39823D02*
D03*
X272418Y104522D02*
D03*
X272441Y108661D02*
D03*
X290551Y69685D02*
D03*
X9843Y31102D02*
D03*
X34252Y84449D02*
D03*
X271457Y68307D02*
D03*
X34252Y87008D02*
D03*
X254528Y121063D02*
D03*
X254724Y130709D02*
D03*
X271654Y112598D02*
D03*
X274016Y114370D02*
D03*
X310039Y95669D02*
D03*
X34252Y97441D02*
D03*
X27953Y28937D02*
D03*
Y31496D02*
D03*
X114173Y32874D02*
D03*
X272047Y63779D02*
D03*
X114173Y36417D02*
D03*
X7283Y32874D02*
D03*
X257874Y128543D02*
D03*
X290158Y72441D02*
D03*
X295669Y139173D02*
D03*
X36614Y94488D02*
D03*
X295669Y142717D02*
D03*
D127*
X37795Y96063D02*
X38583Y95276D01*
X36614Y96063D02*
X37795D01*
X38583Y92716D02*
Y95276D01*
X149959Y32743D02*
X229790D01*
X145037Y27822D02*
X149959Y32743D01*
X229790D02*
X269094Y72047D01*
X109014Y58333D02*
X229388D01*
X109449Y57284D02*
X229823D01*
X44055Y135335D02*
X272039D01*
X43620Y136385D02*
X272474D01*
X148228Y84055D02*
X278543D01*
X148663Y83005D02*
X278108D01*
X36220Y127500D02*
X44055Y135335D01*
X36220Y125591D02*
Y127500D01*
X34252Y123622D02*
X36220Y125591D01*
X34252Y126772D02*
X35171Y127690D01*
Y127935D01*
X7808Y92060D02*
X9843Y94095D01*
Y94488D01*
X7808Y33399D02*
Y92060D01*
X10630Y90224D02*
X11069Y90663D01*
X10630Y90157D02*
Y90224D01*
X10356Y91376D02*
X11069Y90663D01*
X9093Y91376D02*
X10356D01*
X8858Y91142D02*
X9093Y91376D01*
X8858Y33661D02*
Y91142D01*
X310039Y95669D02*
X311548Y94161D01*
Y88452D02*
Y94161D01*
Y88452D02*
X312598Y87402D01*
X312598Y88887D02*
X313648Y87836D01*
X312598Y88887D02*
Y95669D01*
X273647Y63665D02*
X279372Y57940D01*
X273647Y63665D02*
Y64442D01*
X279372Y57940D02*
X300353D01*
X271457Y66633D02*
Y68307D01*
Y66633D02*
X273647Y64442D01*
X284145Y60433D02*
X298585D01*
X273581Y70997D02*
X284145Y60433D01*
X269529Y70997D02*
X273581D01*
X35171Y127935D02*
X43620Y136385D01*
X286624Y109145D02*
Y122234D01*
X272474Y136385D02*
X286624Y122234D01*
X272039Y135335D02*
X285574Y121800D01*
X286624Y109145D02*
X310139Y85630D01*
X310236Y82284D02*
Y83071D01*
X308264Y85043D02*
X310236Y83071D01*
X308264Y85043D02*
Y86020D01*
X285574Y108710D02*
Y121800D01*
X147244Y83071D02*
X148228Y84055D01*
X278543D02*
X288417Y74181D01*
X257480Y122113D02*
X257635D01*
X257480D02*
Y122835D01*
X254331Y121063D02*
X254528Y120866D01*
Y121063D02*
X257200D01*
X263308Y114955D01*
X88439Y41589D02*
X92269D01*
X86673Y39823D02*
X88439Y41589D01*
X89862Y39862D02*
X92028D01*
X89764Y39764D02*
X89862Y39862D01*
X92269Y41589D02*
X109014Y58333D01*
X92028Y39862D02*
X109449Y57284D01*
X271405Y104522D02*
X272418D01*
X272522Y104418D02*
X274018D01*
X272418Y104522D02*
X272522Y104418D01*
X274018D02*
X300131Y78305D01*
X301181Y69095D02*
Y78819D01*
X272480Y107520D02*
X301181Y78819D01*
X272480Y107520D02*
Y108622D01*
X272441Y108661D02*
X272480Y108622D01*
X271260Y107480D02*
X272441Y108661D01*
X270020Y107480D02*
X271260D01*
X264358Y113142D02*
X270020Y107480D01*
X254724Y129331D02*
X271654Y112402D01*
X290317Y72441D02*
X291339Y73463D01*
X290158Y72441D02*
X290317D01*
X291339Y73463D02*
Y74016D01*
X290551Y74803D02*
X291339Y74016D01*
X289370Y74803D02*
X290551D01*
X288748Y74181D02*
X289370Y74803D01*
X288417Y74181D02*
X288748D01*
X288558Y71678D02*
X290551Y69685D01*
X8858Y33661D02*
X9843Y32677D01*
Y31102D02*
Y32677D01*
X7283Y32874D02*
X7808Y33399D01*
X36024Y92716D02*
X37098D01*
X34252Y94488D02*
X36024Y92716D01*
X34252Y94488D02*
Y97441D01*
X38583Y92716D02*
X45079Y86221D01*
X36614Y94488D02*
Y96063D01*
X278108Y83005D02*
X288558Y72556D01*
X147548Y81890D02*
X148663Y83005D01*
X86483Y85171D02*
X89764Y81890D01*
X44644Y85171D02*
X86483D01*
X37098Y92716D02*
X44644Y85171D01*
X89764Y81890D02*
X147548D01*
X87008Y86221D02*
X90158Y83071D01*
X45079Y86221D02*
X87008D01*
X90158Y83071D02*
X147244D01*
X295363Y139479D02*
X295669Y139173D01*
X295363Y139479D02*
Y140725D01*
X293352Y142736D02*
X295363Y140725D01*
X293352Y142736D02*
Y143549D01*
X282283Y156102D02*
X295669Y142717D01*
X281849Y155052D02*
X293352Y143549D01*
X152518Y155052D02*
X281849D01*
X272047Y63779D02*
X272047D01*
X152953Y156102D02*
X282283D01*
X99606Y142913D02*
X125984Y169291D01*
X139764D01*
X152953Y156102D01*
X139329Y168241D02*
X152518Y155052D01*
X126419Y168241D02*
X139329D01*
X100041Y141863D02*
X126419Y168241D01*
X35039Y142913D02*
X99606D01*
X35474Y141863D02*
X100041D01*
X25591Y133465D02*
X35039Y142913D01*
X26641Y133030D02*
X35474Y141863D01*
X26641Y93832D02*
Y133030D01*
X288558Y71678D02*
Y72556D01*
X278937Y56890D02*
X300787D01*
X300353Y57940D02*
X312598Y70186D01*
X300787Y56890D02*
X313648Y69751D01*
X298422Y61717D02*
X305052Y68348D01*
X298384Y61717D02*
X298422D01*
X298150Y61483D02*
X298384Y61717D01*
X298819Y60667D02*
X298856D01*
X298585Y60433D02*
X298819Y60667D01*
X298856D02*
X306102Y67913D01*
X119095Y26772D02*
X145472D01*
X150394Y31693D01*
X119529Y27822D02*
X145037D01*
X114477Y32874D02*
X119529Y27822D01*
X284580Y61483D02*
X298150D01*
X150394Y31693D02*
X230225D01*
X269529Y70997D01*
X114592Y31274D02*
X119095Y26772D01*
X113511Y31274D02*
X114592D01*
X112573Y32211D02*
X113511Y31274D01*
X114173Y32874D02*
X114477D01*
X112573Y32211D02*
Y33833D01*
X113362Y34622D01*
X113976Y35236D01*
Y36220D02*
X114173Y36417D01*
X113976Y35236D02*
Y36220D01*
X233169Y60630D02*
X254528D01*
X267913Y74016D01*
X229823Y57284D02*
X233169Y60630D01*
X300131Y69529D02*
Y78305D01*
X296415Y65814D02*
X300131Y69529D01*
X296850Y64764D02*
X301181Y69095D01*
X286221Y64764D02*
X296850D01*
X286655Y65814D02*
X296415D01*
X254093Y61680D02*
X267478Y75066D01*
X232734Y61680D02*
X254093D01*
X229388Y58333D02*
X232734Y61680D01*
X26641Y93832D02*
X33159Y87314D01*
X33946D02*
X34252Y87008D01*
X33159Y87314D02*
X33946D01*
X29443Y30793D02*
X30624D01*
X28740Y31496D02*
X29443Y30793D01*
X27953Y31496D02*
X28740D01*
X27953Y28937D02*
X27953Y28937D01*
X27953Y28937D02*
X27953D01*
X28740Y28937D02*
X30253D01*
X28346Y29331D02*
X28740Y28937D01*
X30253D02*
X40551Y39236D01*
X30624Y30793D02*
X39501Y39671D01*
X312598Y70186D02*
Y87402D01*
X313648Y69751D02*
Y87836D01*
X305052Y68348D02*
Y79987D01*
X306102Y67913D02*
Y80512D01*
X114173Y36417D02*
X114370D01*
X271850Y112795D02*
X272244D01*
X274016Y112598D02*
X306102Y80512D01*
X272244Y112795D02*
X305052Y79987D01*
X274016Y112598D02*
Y114370D01*
X310139Y85630D02*
X310236D01*
X271654Y112598D02*
X271850Y112795D01*
X257874Y127666D02*
Y128543D01*
X271170Y114370D02*
X273622D01*
X254724Y129331D02*
Y130709D01*
X257874Y127666D02*
X271170Y114370D01*
X254528Y121063D02*
Y121215D01*
X257635Y122113D02*
X264358Y115390D01*
X285574Y108710D02*
X308264Y86020D01*
X272047Y63779D02*
X278937Y56890D01*
X263308Y112619D02*
Y114955D01*
Y112619D02*
X271405Y104522D01*
X264358Y113142D02*
Y115390D01*
X277403Y75066D02*
X286655Y65814D01*
X269094Y72047D02*
X274016D01*
X284580Y61483D01*
X276969Y74016D02*
X286221Y64764D01*
X267913Y74016D02*
X276969D01*
X267478Y75066D02*
X277403D01*
X39501Y39671D02*
Y80273D01*
X34558Y84143D02*
X35632D01*
X34252Y87008D02*
X40551Y80708D01*
Y39236D02*
Y80708D01*
X35632Y84143D02*
X39501Y80273D01*
X25591Y93110D02*
Y133465D01*
Y93110D02*
X34252Y84449D01*
X34558Y84143D01*
M02*
