G04*
G04 #@! TF.GenerationSoftware,Altium Limited,Altium Designer,20.1.11 (218)*
G04*
G04 Layer_Physical_Order=4*
G04 Layer_Color=11619584*
%FSLAX25Y25*%
%MOIN*%
G70*
G04*
G04 #@! TF.SameCoordinates,26502B99-587C-4767-892E-7210AEBADD4C*
G04*
G04*
G04 #@! TF.FilePolarity,Positive*
G04*
G01*
G75*
%ADD17C,0.01200*%
%ADD110C,0.10000*%
%ADD111C,0.20000*%
%ADD112C,0.24410*%
G04:AMPARAMS|DCode=113|XSize=85mil|YSize=60mil|CornerRadius=15mil|HoleSize=0mil|Usage=FLASHONLY|Rotation=180.000|XOffset=0mil|YOffset=0mil|HoleType=Round|Shape=RoundedRectangle|*
%AMROUNDEDRECTD113*
21,1,0.08500,0.03000,0,0,180.0*
21,1,0.05500,0.06000,0,0,180.0*
1,1,0.03000,-0.02750,0.01500*
1,1,0.03000,0.02750,0.01500*
1,1,0.03000,0.02750,-0.01500*
1,1,0.03000,-0.02750,-0.01500*
%
%ADD113ROUNDEDRECTD113*%
%ADD114C,0.02000*%
%ADD124C,0.00550*%
%ADD125C,0.01968*%
%ADD126C,0.00799*%
G36*
X27332Y195847D02*
X27524Y195385D01*
X26569Y194431D01*
X26131Y193774D01*
X25977Y193000D01*
Y182668D01*
X25477Y182401D01*
X25190Y182593D01*
X24409Y182748D01*
X23629Y182593D01*
X23552Y182541D01*
X23112Y182848D01*
X23205Y183235D01*
X23288Y184289D01*
X12561D01*
Y173563D01*
X13616Y173646D01*
X15376Y174068D01*
X17048Y174761D01*
X18591Y175707D01*
X19557Y176531D01*
X20013Y176264D01*
X19961Y176000D01*
X20116Y175220D01*
X20558Y174558D01*
X21220Y174116D01*
X22000Y173961D01*
X22780Y174116D01*
X23442Y174558D01*
X23884Y175220D01*
X23961Y175609D01*
X24409Y175520D01*
X24490Y175536D01*
X27559D01*
X28333Y175690D01*
X28990Y176128D01*
X29431Y176569D01*
X29869Y177226D01*
X30023Y178000D01*
Y192162D01*
X30939Y193078D01*
X34289D01*
X34665Y192578D01*
X34575Y192126D01*
X34730Y191346D01*
X35172Y190684D01*
X35834Y190242D01*
X36614Y190087D01*
X37394Y190242D01*
X38056Y190684D01*
X38498Y191346D01*
X38653Y192126D01*
X38563Y192578D01*
X38939Y193078D01*
X94977D01*
Y191541D01*
X94477Y191390D01*
X94442Y191442D01*
X93780Y191884D01*
X93000Y192039D01*
X92220Y191884D01*
X91558Y191442D01*
X91116Y190780D01*
X90961Y190000D01*
X91116Y189220D01*
X91558Y188558D01*
X92220Y188116D01*
X93000Y187961D01*
X93780Y188116D01*
X94442Y188558D01*
X94477Y188610D01*
X94977Y188459D01*
Y166386D01*
X95131Y165612D01*
X95569Y164955D01*
X96938Y163587D01*
X96983Y163519D01*
X97645Y163077D01*
X98425Y162922D01*
X98506Y162937D01*
X113310D01*
X113527Y162721D01*
X114183Y162282D01*
X114957Y162128D01*
X115127D01*
X115186Y162069D01*
X115842Y161631D01*
X116617Y161477D01*
X117391Y161631D01*
X118047Y162069D01*
X122455Y166477D01*
X127202D01*
X127299Y165987D01*
X126830Y165792D01*
X124990Y164665D01*
X123350Y163264D01*
X121949Y161624D01*
X120822Y159784D01*
X119997Y157791D01*
X119493Y155694D01*
X119383Y154293D01*
X133071D01*
Y153543D01*
X133821D01*
Y139855D01*
X135221Y139965D01*
X137319Y140469D01*
X137482Y140536D01*
X137760Y140121D01*
X133069Y135431D01*
X132631Y134774D01*
X132477Y134000D01*
Y123838D01*
X121113Y112475D01*
X121096Y112448D01*
X121069Y112431D01*
X119759Y111120D01*
X119679Y111136D01*
X114179D01*
X113204Y110942D01*
X112377Y110389D01*
X111824Y109562D01*
X111630Y108587D01*
Y105587D01*
X111824Y104611D01*
X112377Y103784D01*
X113204Y103232D01*
X114179Y103038D01*
X119679D01*
X120655Y103232D01*
X121482Y103784D01*
X122034Y104611D01*
X122107Y104977D01*
X140981D01*
X145888Y100069D01*
X145927Y100043D01*
X145999Y99936D01*
X146661Y99494D01*
X147441Y99339D01*
X148221Y99494D01*
X148883Y99936D01*
X149325Y100598D01*
X149480Y101378D01*
X149325Y102158D01*
X148883Y102820D01*
X148775Y102892D01*
X148749Y102931D01*
X143249Y108431D01*
X142593Y108869D01*
X141819Y109023D01*
X124038D01*
X123846Y109485D01*
X123931Y109569D01*
X123948Y109596D01*
X123975Y109613D01*
X135931Y121569D01*
X136369Y122226D01*
X136523Y123000D01*
Y133162D01*
X147515Y144154D01*
X147977Y143963D01*
Y135505D01*
X147569Y135098D01*
X147131Y134442D01*
X147130Y134438D01*
X146738Y133851D01*
X146583Y133071D01*
X146738Y132290D01*
X147180Y131629D01*
X147842Y131187D01*
X148622Y131032D01*
X149402Y131187D01*
X150064Y131629D01*
X150506Y132290D01*
X150512Y132318D01*
X151431Y133237D01*
X151869Y133893D01*
X152023Y134668D01*
Y144427D01*
X152370Y144570D01*
X152523Y144602D01*
X153157Y144179D01*
X153937Y144024D01*
X154717Y144179D01*
X155379Y144621D01*
X155842D01*
X156503Y144179D01*
X157283Y144024D01*
X158064Y144179D01*
X158725Y144621D01*
X159167Y145283D01*
X159323Y146063D01*
X159167Y146843D01*
X158744Y147477D01*
X158777Y147630D01*
X158919Y147977D01*
X165180D01*
X165566Y147477D01*
X165480Y147047D01*
X165507Y146912D01*
X164771Y146766D01*
X164109Y146324D01*
X163667Y145662D01*
X163512Y144882D01*
X163667Y144102D01*
X164109Y143440D01*
X164771Y142998D01*
X165551Y142843D01*
X166332Y142998D01*
X166993Y143440D01*
X167219Y143778D01*
X167820D01*
X168046Y143440D01*
X168708Y142998D01*
X169488Y142843D01*
X170269Y142998D01*
X170930Y143440D01*
X170977Y143510D01*
X171477Y143358D01*
Y136936D01*
X169436Y134895D01*
X168997Y134239D01*
X168843Y133465D01*
Y133152D01*
X168827Y133071D01*
X168982Y132290D01*
X169424Y131629D01*
X170086Y131187D01*
X170866Y131032D01*
X171646Y131187D01*
X172308Y131629D01*
X172750Y132290D01*
X172799Y132536D01*
X174931Y134668D01*
X175369Y135324D01*
X175523Y136098D01*
Y147500D01*
X175505Y147590D01*
X175822Y147977D01*
X178662D01*
X178979Y147590D01*
X178961Y147500D01*
X179116Y146720D01*
X179558Y146058D01*
X180220Y145616D01*
X181000Y145461D01*
X181780Y145616D01*
X182442Y146058D01*
X182884Y146720D01*
X183039Y147500D01*
X183021Y147590D01*
X183338Y147977D01*
X190608D01*
X190926Y147590D01*
X190890Y147413D01*
Y133545D01*
X190874Y133465D01*
X191029Y132684D01*
X191472Y132023D01*
X192133Y131581D01*
X192913Y131425D01*
X193694Y131581D01*
X194355Y132023D01*
X194797Y132684D01*
X194953Y133465D01*
X194937Y133545D01*
Y146575D01*
X196338Y147977D01*
X215103D01*
Y132955D01*
X215087Y132874D01*
X215109Y132763D01*
Y131122D01*
X215263Y130348D01*
X215702Y129691D01*
X217243Y128150D01*
Y119488D01*
X215695Y117941D01*
X215257Y117284D01*
X215103Y116510D01*
Y107364D01*
X215087Y107283D01*
X215102Y107205D01*
X214978Y87646D01*
X214890Y87205D01*
X215045Y86424D01*
X215111Y86326D01*
X215131Y86226D01*
X215322Y85940D01*
Y75712D01*
X215131Y75426D01*
X214977Y74652D01*
Y65309D01*
X214477Y65157D01*
X214434Y65222D01*
X213773Y65663D01*
X212992Y65819D01*
X212212Y65663D01*
X211550Y65222D01*
X211108Y64560D01*
X210953Y63779D01*
X211108Y62999D01*
X211550Y62338D01*
X212212Y61896D01*
X212992Y61740D01*
X213773Y61896D01*
X214434Y62338D01*
X214477Y62402D01*
X214977Y62250D01*
Y52065D01*
X212988Y50076D01*
X212491Y50125D01*
X212269Y50458D01*
X211607Y50900D01*
X210827Y51055D01*
X210046Y50900D01*
X209385Y50458D01*
X208943Y49796D01*
X208788Y49016D01*
X208943Y48235D01*
X209385Y47574D01*
X209717Y47352D01*
X209766Y46854D01*
X206435Y43523D01*
X199070D01*
Y65274D01*
X199086Y65354D01*
X198931Y66135D01*
X198489Y66796D01*
X197828Y67238D01*
X197047Y67393D01*
X196267Y67238D01*
X195605Y66796D01*
X195163Y66135D01*
X195008Y65354D01*
X195024Y65274D01*
Y43523D01*
X179385D01*
Y64092D01*
X179401Y64173D01*
X179246Y64954D01*
X178804Y65615D01*
X178143Y66057D01*
X177362Y66212D01*
X176582Y66057D01*
X175920Y65615D01*
X175478Y64954D01*
X175323Y64173D01*
X175339Y64092D01*
Y43523D01*
X154905D01*
X153795Y44634D01*
Y51154D01*
X154295Y51203D01*
X154320Y51078D01*
X154415Y50598D01*
X154857Y49936D01*
X155519Y49494D01*
X156299Y49339D01*
X157080Y49494D01*
X157741Y49936D01*
X158183Y50598D01*
X158338Y51378D01*
X158183Y52158D01*
X157741Y52820D01*
X157080Y53262D01*
X156299Y53417D01*
X155519Y53262D01*
X154857Y52820D01*
X154415Y52158D01*
X154320Y51678D01*
X154295Y51553D01*
X153795Y51602D01*
Y64289D01*
X153811Y64370D01*
X153656Y65150D01*
X153214Y65812D01*
X152552Y66254D01*
X151772Y66409D01*
X150991Y66254D01*
X150330Y65812D01*
X149888Y65150D01*
X149732Y64370D01*
X149749Y64289D01*
Y52930D01*
X149249Y52544D01*
X148819Y52630D01*
X148038Y52474D01*
X147377Y52033D01*
X147203Y51772D01*
X146705Y51723D01*
X136762Y61667D01*
X136484Y61853D01*
X136420Y62496D01*
X149208Y75284D01*
X149277Y75330D01*
X149719Y75991D01*
X149874Y76772D01*
X149719Y77552D01*
X149277Y78214D01*
X148615Y78656D01*
X147835Y78811D01*
X147054Y78656D01*
X146393Y78214D01*
X146347Y78145D01*
X130327Y62126D01*
X130226Y62105D01*
X129569Y61667D01*
X129131Y61010D01*
X128977Y60236D01*
X129131Y59462D01*
X129569Y58806D01*
X130226Y58367D01*
X131000Y58213D01*
X131022D01*
X131102Y58197D01*
X131183Y58213D01*
X134493D01*
X135191Y57516D01*
X134908Y57091D01*
X133624Y57192D01*
Y44254D01*
X146562D01*
X146461Y45538D01*
X146886Y45821D01*
X150341Y42365D01*
X152637Y40069D01*
X153293Y39631D01*
X154067Y39477D01*
X158480D01*
X158747Y38977D01*
X158616Y38780D01*
X158461Y38000D01*
X158616Y37220D01*
X159058Y36558D01*
X159073Y36548D01*
Y25952D01*
X159058Y25942D01*
X158616Y25280D01*
X158461Y24500D01*
X158616Y23720D01*
X158747Y23523D01*
X158480Y23023D01*
X132338D01*
X121328Y34033D01*
Y35234D01*
X121828Y35335D01*
X123153Y33783D01*
X124794Y32382D01*
X126633Y31255D01*
X128626Y30430D01*
X130724Y29926D01*
X132124Y29816D01*
Y43504D01*
Y57192D01*
X130724Y57082D01*
X128626Y56578D01*
X126633Y55753D01*
X124794Y54626D01*
X123153Y53225D01*
X121828Y51673D01*
X121328Y51774D01*
Y61195D01*
X121174Y61969D01*
X120736Y62625D01*
X106523Y76838D01*
Y128500D01*
X106369Y129274D01*
X105931Y129931D01*
X87974Y147887D01*
X87318Y148326D01*
X86543Y148480D01*
X85514D01*
X85433Y148496D01*
X85352Y148480D01*
X30396D01*
X30315Y148496D01*
X30234Y148480D01*
X29824D01*
X24189Y154115D01*
X23532Y154554D01*
X22758Y154708D01*
X13683D01*
X12909Y154554D01*
X12252Y154115D01*
X1503Y143366D01*
X1003Y143573D01*
X1003Y179799D01*
X1494Y179896D01*
X1533Y179802D01*
X2479Y178259D01*
X3654Y176883D01*
X5031Y175707D01*
X6574Y174761D01*
X8246Y174068D01*
X10007Y173646D01*
X11061Y173563D01*
Y185039D01*
X11811D01*
Y185789D01*
X23288D01*
X23205Y186844D01*
X22782Y188604D01*
X22089Y190276D01*
X21144Y191820D01*
X19968Y193196D01*
X18591Y194372D01*
X17048Y195318D01*
X16954Y195357D01*
X17052Y195847D01*
X27332D01*
D02*
G37*
G36*
X160143Y192977D02*
X160575D01*
Y190602D01*
X159593Y189620D01*
X159154Y188963D01*
X159001Y188189D01*
Y180759D01*
X156697Y178456D01*
X156629Y178410D01*
X156187Y177749D01*
X156032Y176969D01*
X156117Y176539D01*
X155731Y176039D01*
X152731D01*
X152579Y176539D01*
X153021Y176834D01*
X153463Y177495D01*
X153618Y178276D01*
X153463Y179056D01*
X153021Y179718D01*
X152359Y180159D01*
X151579Y180315D01*
X150798Y180159D01*
X150137Y179718D01*
X149695Y179056D01*
X149540Y178276D01*
X149695Y177495D01*
X150137Y176834D01*
X150578Y176539D01*
X150426Y176039D01*
X130002D01*
X129921Y176055D01*
X129841Y176039D01*
X117323D01*
X116549Y175885D01*
X115892Y175446D01*
X115752Y175307D01*
X115684Y175261D01*
X115242Y174599D01*
X115087Y173819D01*
X115242Y173038D01*
X115684Y172377D01*
X116346Y171935D01*
X117126Y171780D01*
X117906Y171935D01*
X117993Y171993D01*
X129841D01*
X129921Y171977D01*
X130002Y171993D01*
X160605D01*
X164943Y167655D01*
X164897Y167190D01*
X164455Y166528D01*
X164299Y165748D01*
X164437Y165056D01*
X164251Y164771D01*
X164089Y164615D01*
X163976Y164638D01*
X163196Y164482D01*
X162534Y164040D01*
X162092Y163379D01*
X161937Y162598D01*
X162092Y161818D01*
X162534Y161156D01*
X163196Y160714D01*
X163976Y160559D01*
X164757Y160714D01*
X165418Y161156D01*
X165860Y161818D01*
X166016Y162598D01*
X165878Y163291D01*
X166064Y163575D01*
X166226Y163731D01*
X166339Y163709D01*
X167119Y163864D01*
X167780Y164306D01*
X168245Y164352D01*
X170668Y161930D01*
X170349Y161541D01*
X170072Y161726D01*
X169291Y161882D01*
X168511Y161726D01*
X167849Y161284D01*
X167407Y160623D01*
X167252Y159843D01*
X167407Y159062D01*
X167849Y158401D01*
X167918Y158355D01*
X173203Y153069D01*
X173860Y152631D01*
X174401Y152523D01*
X174352Y152023D01*
X164059D01*
X163824Y152464D01*
X163892Y152566D01*
X164047Y153347D01*
X163892Y154127D01*
X163450Y154788D01*
X162788Y155230D01*
X162008Y155386D01*
X161228Y155230D01*
X160566Y154788D01*
X160124Y154127D01*
X159969Y153347D01*
X160124Y152566D01*
X160192Y152464D01*
X159956Y152023D01*
X154578D01*
X152023Y154578D01*
Y158000D01*
X151869Y158774D01*
X151431Y159431D01*
X140931Y169931D01*
X140274Y170369D01*
X139500Y170523D01*
X121617D01*
X120842Y170369D01*
X120186Y169931D01*
X118004Y167749D01*
X117507Y167798D01*
X117387Y167977D01*
X116725Y168419D01*
X115945Y168575D01*
X115164Y168419D01*
X114503Y167977D01*
X114061Y167316D01*
X113995Y166984D01*
X103041D01*
X102773Y167484D01*
X103065Y167920D01*
X103220Y168701D01*
X103065Y169481D01*
X102623Y170143D01*
X101962Y170585D01*
X101181Y170740D01*
X100401Y170585D01*
X99739Y170143D01*
X99523Y169819D01*
X99023Y169971D01*
Y183116D01*
X99410Y183433D01*
X99606Y183394D01*
X100387Y183549D01*
X101048Y183991D01*
X101490Y184653D01*
X101646Y185433D01*
X101490Y186213D01*
X101048Y186875D01*
X100387Y187317D01*
X99606Y187472D01*
X99410Y187433D01*
X99023Y187750D01*
Y193078D01*
X149646D01*
X149963Y192691D01*
X149929Y192520D01*
X150084Y191739D01*
X150527Y191078D01*
X151188Y190636D01*
X151969Y190480D01*
X152749Y190636D01*
X153410Y191078D01*
X153852Y191739D01*
X154008Y192520D01*
X153974Y192691D01*
X154291Y193078D01*
X159637D01*
X160143Y192977D01*
D02*
G37*
G36*
X306139Y184000D02*
X280069Y157931D01*
X280023Y157861D01*
X279523Y158013D01*
Y164162D01*
X290447Y175086D01*
X290812Y175330D01*
X290858Y175398D01*
X298936Y183477D01*
X300919D01*
X301000Y183461D01*
X301780Y183616D01*
X302442Y184058D01*
X302884Y184720D01*
X303039Y185500D01*
X302884Y186280D01*
X302442Y186942D01*
X301780Y187384D01*
X301000Y187539D01*
X300919Y187523D01*
X298098D01*
X297324Y187369D01*
X296668Y186931D01*
X288366Y178629D01*
X288069Y178431D01*
X276069Y166431D01*
X275631Y165774D01*
X275477Y165000D01*
Y148338D01*
X267662Y140523D01*
X259483D01*
X259407Y140903D01*
Y141988D01*
X259253Y142762D01*
X258815Y143418D01*
X236859Y165374D01*
X236203Y165812D01*
X235429Y165966D01*
X207866D01*
X207092Y165812D01*
X206436Y165374D01*
X205661Y164600D01*
X173720D01*
X164122Y174197D01*
X164171Y174695D01*
X164237Y174739D01*
X164679Y175401D01*
X164834Y176181D01*
X164679Y176962D01*
X164237Y177623D01*
X163576Y178065D01*
X162882Y178203D01*
X162692Y178482D01*
X162608Y178693D01*
X162908Y179141D01*
X163063Y179921D01*
X163047Y180002D01*
Y187351D01*
X164029Y188333D01*
X164468Y188990D01*
X164622Y189764D01*
Y192977D01*
X173567D01*
Y191616D01*
X173551Y191535D01*
X173707Y190755D01*
X174149Y190094D01*
X174810Y189652D01*
X175591Y189496D01*
X176371Y189652D01*
X177032Y190094D01*
X177474Y190755D01*
X177630Y191535D01*
X177614Y191616D01*
Y192977D01*
X221205D01*
Y183939D01*
X221189Y183858D01*
X221344Y183078D01*
X221786Y182416D01*
X222448Y181974D01*
X223228Y181819D01*
X224009Y181974D01*
X224670Y182416D01*
X225112Y183078D01*
X225268Y183858D01*
X225252Y183939D01*
Y192977D01*
X230480D01*
X230747Y192477D01*
X230616Y192280D01*
X230461Y191500D01*
X230616Y190720D01*
X231058Y190058D01*
X231720Y189616D01*
X232500Y189461D01*
X233280Y189616D01*
X233942Y190058D01*
X234384Y190720D01*
X234539Y191500D01*
X234384Y192280D01*
X234253Y192477D01*
X234520Y192977D01*
X239480D01*
X239747Y192477D01*
X239616Y192280D01*
X239461Y191500D01*
X239616Y190720D01*
X240058Y190058D01*
X240720Y189616D01*
X241500Y189461D01*
X242280Y189616D01*
X242942Y190058D01*
X243384Y190720D01*
X243539Y191500D01*
X243384Y192280D01*
X243253Y192477D01*
X243520Y192977D01*
X248980D01*
X249247Y192477D01*
X249116Y192280D01*
X248961Y191500D01*
X249116Y190720D01*
X249558Y190058D01*
X250220Y189616D01*
X251000Y189461D01*
X251780Y189616D01*
X252442Y190058D01*
X252884Y190720D01*
X253039Y191500D01*
X252884Y192280D01*
X252753Y192477D01*
X253020Y192977D01*
X297162D01*
X306139Y184000D01*
D02*
G37*
G36*
X317594Y195847D02*
X317691Y195357D01*
X317598Y195318D01*
X316054Y194372D01*
X314678Y193196D01*
X313502Y191820D01*
X312556Y190276D01*
X311864Y188604D01*
X311441Y186844D01*
X311358Y185789D01*
X322835D01*
Y184289D01*
X311358D01*
X311441Y183235D01*
X311864Y181475D01*
X312556Y179802D01*
X313502Y178259D01*
X314678Y176883D01*
X316054Y175707D01*
X317598Y174761D01*
X319270Y174068D01*
X321030Y173646D01*
X322219Y173552D01*
X322274Y173046D01*
X321871Y172924D01*
X320741Y172321D01*
X319752Y171508D01*
X318939Y170519D01*
X318336Y169389D01*
X317964Y168164D01*
X317912Y167640D01*
X324370D01*
X330828D01*
X330776Y168164D01*
X330404Y169389D01*
X329801Y170519D01*
X328989Y171508D01*
X327999Y172321D01*
X326870Y172924D01*
X325644Y173296D01*
X325417Y173318D01*
X325382Y173824D01*
X326399Y174068D01*
X328072Y174761D01*
X329615Y175707D01*
X330992Y176883D01*
X332167Y178259D01*
X333113Y179802D01*
X333152Y179896D01*
X333642Y179799D01*
X333642Y17052D01*
X333152Y16954D01*
X333113Y17048D01*
X332167Y18591D01*
X330992Y19968D01*
X329615Y21144D01*
X328072Y22089D01*
X326399Y22782D01*
X324639Y23205D01*
X323585Y23288D01*
Y11811D01*
X322835D01*
Y11061D01*
X311358D01*
X311441Y10007D01*
X311864Y8246D01*
X312556Y6574D01*
X313502Y5031D01*
X314678Y3654D01*
X316054Y2479D01*
X317598Y1533D01*
X317691Y1494D01*
X317594Y1004D01*
X286390Y1003D01*
X286198Y1465D01*
X298431Y13698D01*
X298869Y14354D01*
X299023Y15128D01*
Y26075D01*
X299523Y26254D01*
X299948Y25736D01*
X300938Y24924D01*
X302067Y24320D01*
X303293Y23948D01*
X303817Y23897D01*
Y30354D01*
Y36812D01*
X303293Y36760D01*
X302067Y36389D01*
X300938Y35785D01*
X299948Y34973D01*
X299523Y34455D01*
X299023Y34633D01*
Y46075D01*
X299523Y46254D01*
X299948Y45736D01*
X300938Y44924D01*
X302067Y44320D01*
X303293Y43948D01*
X303817Y43897D01*
Y50354D01*
Y56812D01*
X303293Y56760D01*
X302067Y56389D01*
X300938Y55785D01*
X299948Y54973D01*
X299523Y54455D01*
X299023Y54633D01*
Y71000D01*
X298869Y71774D01*
X298431Y72431D01*
X290523Y80338D01*
Y80919D01*
X290539Y81000D01*
X290523Y81081D01*
Y83419D01*
X290539Y83500D01*
X290523Y83581D01*
Y84229D01*
X294752D01*
X295526Y84383D01*
X296182Y84821D01*
X307605Y96244D01*
X308065Y95997D01*
X308000Y95669D01*
X308155Y94889D01*
X308597Y94227D01*
X309259Y93785D01*
X310039Y93630D01*
X310820Y93785D01*
X311318Y94119D01*
X311817Y93785D01*
X312598Y93630D01*
X313378Y93785D01*
X314040Y94227D01*
X314482Y94889D01*
X314637Y95669D01*
X314482Y96450D01*
X314040Y97111D01*
X313378Y97553D01*
X312598Y97708D01*
X311817Y97553D01*
X311319Y97220D01*
X310820Y97553D01*
X310039Y97708D01*
X309712Y97643D01*
X309465Y98104D01*
X325931Y114569D01*
X326369Y115226D01*
X326523Y116000D01*
Y128500D01*
X326369Y129274D01*
X325931Y129931D01*
X324509Y131352D01*
X323853Y131790D01*
X323079Y131944D01*
X314120D01*
X314118Y131945D01*
X314117Y131944D01*
X313976D01*
X313202Y131790D01*
X312546Y131352D01*
X312107Y130695D01*
X311953Y129921D01*
X312107Y129147D01*
X312546Y128491D01*
X313202Y128052D01*
X313330Y128027D01*
X313338Y128022D01*
X314118Y127866D01*
X314278Y127898D01*
X322241D01*
X322477Y127662D01*
Y116838D01*
X293914Y88275D01*
X288608D01*
X288527Y88291D01*
X288023Y88191D01*
X287523Y88542D01*
Y106662D01*
X292338Y111477D01*
X310919D01*
X311000Y111461D01*
X311780Y111616D01*
X312442Y112058D01*
X312884Y112720D01*
X313039Y113500D01*
X312884Y114280D01*
X312442Y114942D01*
X311780Y115384D01*
X311000Y115539D01*
X310919Y115523D01*
X291500D01*
X290726Y115369D01*
X290069Y114931D01*
X284069Y108931D01*
X284023Y108861D01*
X283523Y109013D01*
X283523Y146192D01*
X284023Y146503D01*
X284612Y146386D01*
X285392Y146541D01*
X286054Y146983D01*
X286496Y147645D01*
X286651Y148425D01*
X286496Y149206D01*
X286054Y149867D01*
X285392Y150309D01*
X284612Y150464D01*
X284023Y150347D01*
X283523Y150659D01*
Y155662D01*
X298364Y170503D01*
X298770Y170202D01*
X298336Y169389D01*
X297964Y168164D01*
X297912Y167640D01*
X303620D01*
Y173347D01*
X303096Y173296D01*
X301870Y172924D01*
X301058Y172490D01*
X300757Y172896D01*
X309615Y181754D01*
X310054Y182410D01*
X310208Y183185D01*
Y184815D01*
X310054Y185590D01*
X309615Y186246D01*
X300476Y195385D01*
X300668Y195847D01*
X317594D01*
D02*
G37*
G36*
X253604Y142907D02*
X253558Y142442D01*
X253116Y141780D01*
X252961Y141000D01*
X253116Y140220D01*
X253558Y139558D01*
X254220Y139116D01*
X255000Y138961D01*
X255111Y138983D01*
X255498Y138666D01*
Y138302D01*
X255488Y138252D01*
X255643Y137471D01*
X256085Y136810D01*
X256747Y136368D01*
X257527Y136213D01*
X257678Y136243D01*
X257748Y136229D01*
X263410D01*
X275477Y124162D01*
Y116401D01*
X274977Y116133D01*
X274796Y116254D01*
X274016Y116409D01*
X273235Y116254D01*
X272574Y115812D01*
X272132Y115150D01*
X272016Y114566D01*
X271654Y114638D01*
X270873Y114482D01*
X270212Y114040D01*
X269770Y113379D01*
X269614Y112598D01*
X269770Y111818D01*
X270212Y111156D01*
X270873Y110714D01*
X270981Y110693D01*
X271087Y110162D01*
X270999Y110103D01*
X270557Y109442D01*
X270402Y108661D01*
X270557Y107881D01*
X270999Y107220D01*
X271512Y106877D01*
X271539Y106775D01*
X271529Y106376D01*
X271512Y106322D01*
X270976Y105964D01*
X270534Y105302D01*
X270379Y104522D01*
X270534Y103742D01*
X270976Y103080D01*
X271638Y102638D01*
X272418Y102483D01*
X273198Y102638D01*
X273860Y103080D01*
X274302Y103742D01*
X274457Y104522D01*
X274302Y105302D01*
X273860Y105964D01*
X273347Y106306D01*
X273320Y106408D01*
X273330Y106807D01*
X273347Y106862D01*
X273883Y107220D01*
X274325Y107881D01*
X274480Y108661D01*
X274325Y109442D01*
X273883Y110103D01*
X273221Y110545D01*
X273113Y110567D01*
X273007Y111098D01*
X273095Y111156D01*
X273537Y111818D01*
X273654Y112403D01*
X274016Y112331D01*
X274796Y112486D01*
X274977Y112607D01*
X275477Y112340D01*
Y98838D01*
X275090Y98521D01*
X275000Y98539D01*
X274220Y98384D01*
X273882Y98158D01*
X273431Y98459D01*
X273539Y99000D01*
X273384Y99780D01*
X272942Y100442D01*
X272280Y100884D01*
X271500Y101039D01*
X270720Y100884D01*
X270058Y100442D01*
X269616Y99780D01*
X269461Y99000D01*
X269616Y98220D01*
X269834Y97894D01*
X270029Y97500D01*
X269834Y97106D01*
X269616Y96780D01*
X269461Y96000D01*
X269616Y95220D01*
X270058Y94558D01*
X270720Y94116D01*
X271500Y93961D01*
X272280Y94116D01*
X272942Y94558D01*
X273116Y94819D01*
X273558Y95058D01*
X274220Y94616D01*
X275000Y94461D01*
X275090Y94479D01*
X275477Y94162D01*
Y90308D01*
X274977Y89944D01*
X274500Y90039D01*
X273720Y89884D01*
X273496Y89735D01*
X273039Y90000D01*
X272884Y90780D01*
X272442Y91442D01*
X271780Y91884D01*
X271000Y92039D01*
X270220Y91884D01*
X269558Y91442D01*
X269116Y90780D01*
X268961Y90000D01*
X269116Y89220D01*
X269558Y88558D01*
X270220Y88116D01*
X270411Y87568D01*
X270163Y87198D01*
X270008Y86417D01*
X270163Y85637D01*
X270605Y84975D01*
X271267Y84533D01*
X272047Y84378D01*
X272828Y84533D01*
X273489Y84975D01*
X273931Y85637D01*
X274015Y86057D01*
X274500Y85961D01*
X274977Y86056D01*
X275477Y85692D01*
Y83308D01*
X274977Y82944D01*
X274500Y83039D01*
X273720Y82884D01*
X273058Y82442D01*
X272996Y82349D01*
X272631Y82593D01*
X271850Y82748D01*
X271070Y82593D01*
X270409Y82151D01*
X269966Y81489D01*
X269811Y80709D01*
X269966Y79928D01*
X270300Y79430D01*
X269966Y78930D01*
X269811Y78149D01*
X269966Y77369D01*
X270408Y76708D01*
X271010Y76306D01*
X271104Y76065D01*
X271158Y75742D01*
X270981Y75523D01*
X261500D01*
X260726Y75369D01*
X260185Y75008D01*
X259805Y75098D01*
X259636Y75205D01*
X259561Y75583D01*
X259119Y76245D01*
X258457Y76687D01*
X257677Y76842D01*
X256897Y76687D01*
X256235Y76245D01*
X255793Y75583D01*
X255638Y74803D01*
X255793Y74023D01*
X256235Y73361D01*
X256897Y72919D01*
X257276Y72844D01*
X257440Y72301D01*
X256627Y71488D01*
X256558Y71442D01*
X256116Y70780D01*
X255586Y70680D01*
X255280Y70884D01*
X254500Y71039D01*
X253720Y70884D01*
X253058Y70442D01*
X252616Y69780D01*
X252461Y69000D01*
X252616Y68220D01*
X253058Y67558D01*
X253145Y67500D01*
Y67000D01*
X253058Y66942D01*
X252616Y66280D01*
X252461Y65500D01*
X252616Y64720D01*
X253058Y64058D01*
X253720Y63616D01*
X254500Y63461D01*
X255280Y63616D01*
X255942Y64058D01*
X256010Y64159D01*
X256509D01*
X256569Y64069D01*
X267328Y53311D01*
X267121Y52811D01*
X244149D01*
X243901Y53115D01*
X244064Y53607D01*
X244865Y53939D01*
X245648Y54540D01*
X246249Y55323D01*
X246627Y56236D01*
X246756Y57215D01*
X246627Y58193D01*
X246249Y59106D01*
X245648Y59889D01*
X244865Y60490D01*
X243952Y60868D01*
X242973Y60997D01*
X241995Y60868D01*
X241082Y60490D01*
X240299Y59889D01*
X239698Y59106D01*
X239320Y58193D01*
X239263Y57759D01*
X238857Y57468D01*
X238500Y57539D01*
X238419Y57523D01*
X236591D01*
X236384Y58023D01*
X250431Y72069D01*
X250869Y72726D01*
X251023Y73500D01*
Y91477D01*
X252594D01*
X252911Y91090D01*
X252882Y90945D01*
X253037Y90165D01*
X253479Y89503D01*
X254141Y89061D01*
X254921Y88906D01*
X254935Y88908D01*
X255341Y88479D01*
X255244Y87992D01*
X255399Y87212D01*
X255841Y86550D01*
X256503Y86108D01*
X257283Y85953D01*
X258064Y86108D01*
X258725Y86550D01*
X259167Y87212D01*
X259323Y87992D01*
X259167Y88772D01*
X258725Y89434D01*
X258064Y89876D01*
X257283Y90031D01*
X257270Y90029D01*
X256863Y90458D01*
X256960Y90945D01*
X256931Y91090D01*
X257249Y91477D01*
X261847D01*
X262621Y91631D01*
X263277Y92069D01*
X268104Y96896D01*
X268543Y97552D01*
X268696Y98327D01*
Y113835D01*
X272931Y118069D01*
X273007Y118184D01*
X273095Y118243D01*
X273537Y118905D01*
X273693Y119685D01*
X273671Y119796D01*
Y123314D01*
X273693Y123425D01*
X273537Y124206D01*
X273095Y124867D01*
X272434Y125309D01*
X271654Y125464D01*
X270873Y125309D01*
X270212Y124867D01*
X269770Y124206D01*
X269614Y123425D01*
X269627Y123364D01*
X269624Y123353D01*
Y120485D01*
X266662Y117523D01*
X257557D01*
X255924Y119156D01*
X255970Y119621D01*
X256412Y120283D01*
X256465Y120552D01*
X257041Y120883D01*
X257480Y120796D01*
X258261Y120951D01*
X258922Y121393D01*
X259364Y122054D01*
X259520Y122835D01*
X259364Y123615D01*
X258922Y124277D01*
X258261Y124719D01*
X257480Y124874D01*
X256700Y124719D01*
X256038Y124277D01*
X255596Y123615D01*
X255543Y123346D01*
X254967Y123015D01*
X254528Y123102D01*
X253747Y122947D01*
X253086Y122505D01*
X252621Y122459D01*
X249876Y125203D01*
X249869Y125241D01*
X249431Y125897D01*
X236175Y139152D01*
X236422Y139613D01*
X237008Y139496D01*
X237788Y139652D01*
X238450Y140094D01*
X238807Y140628D01*
X239288Y140447D01*
X239191Y139715D01*
X239320Y138736D01*
X239698Y137823D01*
X240299Y137040D01*
X241082Y136439D01*
X241995Y136061D01*
X242973Y135932D01*
X243952Y136061D01*
X244865Y136439D01*
X245648Y137040D01*
X246249Y137823D01*
X246544Y138534D01*
X247064Y138483D01*
X247116Y138220D01*
X247558Y137558D01*
X248220Y137116D01*
X249000Y136961D01*
X249780Y137116D01*
X250442Y137558D01*
X250884Y138220D01*
X251039Y139000D01*
X250884Y139780D01*
X250442Y140442D01*
X249780Y140884D01*
X249000Y141039D01*
X248220Y140884D01*
X247558Y140442D01*
X247229Y139950D01*
X246709Y140071D01*
X246627Y140694D01*
X246249Y141606D01*
X245648Y142389D01*
X244865Y142990D01*
X243952Y143368D01*
X242973Y143497D01*
X241995Y143368D01*
X241082Y142990D01*
X240299Y142389D01*
X239698Y141606D01*
X239454Y141016D01*
X238973Y141162D01*
X239047Y141535D01*
X238892Y142316D01*
X238450Y142977D01*
X237788Y143419D01*
X237008Y143575D01*
X236227Y143419D01*
X235566Y142977D01*
X235124Y142316D01*
X234969Y141535D01*
X235085Y140949D01*
X234625Y140703D01*
X219397Y155931D01*
X218741Y156369D01*
X217966Y156523D01*
X175472D01*
X171449Y160547D01*
X171767Y160935D01*
X172108Y160707D01*
X172882Y160553D01*
X206499D01*
X207274Y160707D01*
X207930Y161146D01*
X208704Y161920D01*
X234591D01*
X253604Y142907D01*
D02*
G37*
G36*
X27556Y145026D02*
X28212Y144588D01*
X28986Y144434D01*
X30234D01*
X30315Y144418D01*
X30396Y144434D01*
X85352D01*
X85433Y144418D01*
X85514Y144434D01*
X85705D01*
X102477Y127662D01*
Y76000D01*
X102631Y75226D01*
X103069Y74569D01*
X117282Y60357D01*
Y33195D01*
X117436Y32421D01*
X117875Y31764D01*
X130069Y19569D01*
X130726Y19131D01*
X131500Y18977D01*
X174500D01*
X175274Y19131D01*
X175931Y19569D01*
X180338Y23977D01*
X181036D01*
X181292Y23477D01*
X180990Y23024D01*
X180834Y22244D01*
X180857Y22133D01*
Y18810D01*
X180835Y18701D01*
X180920Y18271D01*
X180539Y17778D01*
X180516Y17771D01*
X105590D01*
X96611Y26750D01*
X112848Y42987D01*
X113286Y43643D01*
X113440Y44417D01*
Y44801D01*
X113456Y44882D01*
X113301Y45662D01*
X112859Y46324D01*
X112878Y46913D01*
X113104Y47251D01*
X113260Y48031D01*
X113104Y48812D01*
X112662Y49473D01*
X112001Y49916D01*
X111221Y50071D01*
X110440Y49916D01*
X109778Y49473D01*
X109336Y48812D01*
X109181Y48031D01*
X109336Y47251D01*
X109778Y46590D01*
X109760Y46001D01*
X109533Y45662D01*
X109467Y45328D01*
X92569Y28431D01*
X92568Y28429D01*
X79432D01*
X65361Y42500D01*
X70241Y47380D01*
X71209D01*
X71260Y47370D01*
X72040Y47525D01*
X72702Y47967D01*
X73144Y48629D01*
X73299Y49409D01*
X73144Y50190D01*
X72702Y50851D01*
X72040Y51293D01*
X71260Y51449D01*
X71149Y51426D01*
X69403D01*
X68629Y51272D01*
X67973Y50834D01*
X62500Y45361D01*
X49023Y58838D01*
Y77187D01*
X49523Y77338D01*
X49684Y77097D01*
X50346Y76655D01*
X51126Y76500D01*
X51906Y76655D01*
X52568Y77097D01*
X53010Y77759D01*
X53165Y78539D01*
X53010Y79320D01*
X52568Y79981D01*
X51906Y80423D01*
X51126Y80579D01*
X50346Y80423D01*
X49684Y79981D01*
X49523Y79740D01*
X49023Y79892D01*
Y79987D01*
X48869Y80761D01*
X48431Y81418D01*
X37662Y92186D01*
X37728Y92827D01*
X38056Y93046D01*
X38498Y93708D01*
X38653Y94488D01*
X38498Y95269D01*
X38056Y95930D01*
X37394Y96372D01*
X36614Y96527D01*
X36601Y96525D01*
X36194Y96954D01*
X36291Y97441D01*
X36136Y98221D01*
X35694Y98883D01*
X35032Y99325D01*
X34252Y99480D01*
X33472Y99325D01*
X32810Y98883D01*
X32368Y98221D01*
X32348Y98123D01*
X31870Y97978D01*
X20350Y109499D01*
Y135838D01*
X20850Y136167D01*
X21462Y135913D01*
X22441Y135785D01*
X23420Y135913D01*
X24332Y136291D01*
X25115Y136892D01*
X25717Y137676D01*
X26094Y138588D01*
X26223Y139567D01*
X26094Y140546D01*
X25717Y141458D01*
X25115Y142242D01*
X24332Y142843D01*
X23420Y143220D01*
X22441Y143349D01*
X21462Y143220D01*
X20550Y142843D01*
X19766Y142242D01*
X19641Y142078D01*
X19142Y142046D01*
X17828Y143360D01*
X17172Y143798D01*
X16398Y143952D01*
X8465D01*
X8274Y144414D01*
X14521Y150662D01*
X21920D01*
X27556Y145026D01*
D02*
G37*
G36*
X279477Y145987D02*
Y126513D01*
X278977Y126361D01*
X278931Y126431D01*
X269213Y136148D01*
X269372Y136696D01*
X269931Y137069D01*
X278931Y146069D01*
X278977Y146139D01*
X279477Y145987D01*
D02*
G37*
G36*
X5519Y140045D02*
X6299Y139890D01*
X6380Y139906D01*
X15560D01*
X16304Y139162D01*
Y108660D01*
X16458Y107886D01*
X16896Y107230D01*
X34648Y89478D01*
X34402Y89017D01*
X34252Y89047D01*
X33472Y88892D01*
X32810Y88450D01*
X32368Y87788D01*
X32213Y87008D01*
X32368Y86227D01*
X32701Y85728D01*
X32368Y85229D01*
X32213Y84449D01*
X32368Y83669D01*
X32810Y83007D01*
X33472Y82565D01*
X34252Y82410D01*
X35032Y82565D01*
X35694Y83007D01*
X36136Y83669D01*
X36291Y84449D01*
X36136Y85229D01*
X35802Y85728D01*
X36136Y86227D01*
X36291Y87008D01*
X36261Y87158D01*
X36722Y87404D01*
X44977Y79149D01*
Y58000D01*
X45131Y57226D01*
X45569Y56569D01*
X61069Y41069D01*
X77164Y24975D01*
X77820Y24537D01*
X78594Y24383D01*
X79969D01*
X80037Y24187D01*
X80052Y23883D01*
X79464Y23489D01*
X79022Y22828D01*
X78866Y22047D01*
X79022Y21267D01*
X79464Y20605D01*
X80125Y20163D01*
X80905Y20008D01*
X81686Y20163D01*
X82347Y20605D01*
X82541Y20895D01*
X83142D01*
X83204Y20802D01*
X83865Y20360D01*
X84646Y20205D01*
X85426Y20360D01*
X86088Y20802D01*
X86313Y21140D01*
X86915D01*
X87141Y20802D01*
X87802Y20360D01*
X88583Y20205D01*
X89363Y20360D01*
X90025Y20802D01*
X90467Y21464D01*
X90622Y22244D01*
X90467Y23024D01*
X90025Y23686D01*
X89730Y23883D01*
X89882Y24383D01*
X93256D01*
X103321Y14318D01*
X103978Y13879D01*
X104752Y13725D01*
X182793D01*
X182874Y13709D01*
X183654Y13864D01*
X184316Y14306D01*
X184758Y14968D01*
X184913Y15748D01*
X184858Y16027D01*
X185178Y16428D01*
X185691Y16447D01*
X186859Y15280D01*
X187515Y14841D01*
X188290Y14687D01*
X200273D01*
X200425Y14187D01*
X200058Y13942D01*
X199616Y13280D01*
X199461Y12500D01*
X199616Y11720D01*
X199747Y11523D01*
X199480Y11023D01*
X130081D01*
X130000Y11039D01*
X129919Y11023D01*
X84338D01*
X50488Y44873D01*
X50442Y44942D01*
X50374Y44988D01*
X36275Y59086D01*
Y65274D01*
X36291Y65354D01*
X36136Y66135D01*
X35694Y66796D01*
X35032Y67238D01*
X34252Y67393D01*
X33472Y67238D01*
X32810Y66796D01*
X32368Y66135D01*
X32213Y65354D01*
X32229Y65274D01*
Y58248D01*
X32383Y57474D01*
X32821Y56818D01*
X47512Y42127D01*
X47558Y42058D01*
X47627Y42012D01*
X82069Y7569D01*
X82726Y7131D01*
X83500Y6977D01*
X129919D01*
X130000Y6961D01*
X130081Y6977D01*
X280000D01*
X280774Y7131D01*
X281431Y7569D01*
X286931Y13069D01*
X287369Y13726D01*
X287523Y14500D01*
Y76963D01*
X287985Y77154D01*
X290195Y74944D01*
X289986Y74446D01*
X289377Y74325D01*
X288716Y73883D01*
X288274Y73221D01*
X288118Y72441D01*
X288274Y71661D01*
X288716Y70999D01*
X288928Y70857D01*
X288667Y70465D01*
X288511Y69685D01*
X288667Y68905D01*
X289109Y68243D01*
X289770Y67801D01*
X290551Y67646D01*
X291331Y67801D01*
X291992Y68243D01*
X292435Y68905D01*
X292590Y69685D01*
X292435Y70465D01*
X291992Y71127D01*
X291780Y71269D01*
X292041Y71661D01*
X292162Y72269D01*
X292660Y72479D01*
X294977Y70162D01*
Y28863D01*
X294477Y28813D01*
X294384Y29280D01*
X293942Y29942D01*
X293681Y30116D01*
X293442Y30558D01*
X293884Y31220D01*
X294039Y32000D01*
X293884Y32780D01*
X293442Y33442D01*
X292780Y33884D01*
X292000Y34039D01*
X291220Y33884D01*
X290558Y33442D01*
X290116Y32780D01*
X289961Y32000D01*
X290116Y31220D01*
X290558Y30558D01*
X290819Y30384D01*
X291058Y29942D01*
X290616Y29280D01*
X290461Y28500D01*
X290616Y27720D01*
X291058Y27058D01*
X291720Y26616D01*
X292500Y26461D01*
X293280Y26616D01*
X293942Y27058D01*
X294384Y27720D01*
X294477Y28187D01*
X294977Y28137D01*
Y15966D01*
X283150Y4139D01*
X66045D01*
X13299Y56885D01*
X13253Y56954D01*
X12591Y57396D01*
X11811Y57551D01*
X11031Y57396D01*
X10369Y56954D01*
X9927Y56292D01*
X9772Y55512D01*
X9927Y54731D01*
X10369Y54070D01*
X10438Y54024D01*
X62996Y1465D01*
X62805Y1003D01*
X17052Y1003D01*
X16954Y1494D01*
X17048Y1533D01*
X18591Y2479D01*
X19968Y3654D01*
X21144Y5031D01*
X22089Y6574D01*
X22782Y8246D01*
X23205Y10007D01*
X23288Y11061D01*
X11811D01*
Y11811D01*
X11061D01*
Y23288D01*
X10007Y23205D01*
X8246Y22782D01*
X6574Y22089D01*
X5031Y21144D01*
X3654Y19968D01*
X2479Y18591D01*
X1533Y17048D01*
X1494Y16954D01*
X1003Y17052D01*
X1003Y115928D01*
X1503Y116135D01*
X7646Y109993D01*
X8096Y109692D01*
X8165Y109607D01*
X8210Y109161D01*
X8190Y109074D01*
X6421Y107306D01*
X5983Y106649D01*
X5829Y105875D01*
Y99851D01*
X5983Y99076D01*
X6421Y98420D01*
X8446Y96395D01*
X8401Y95930D01*
X7959Y95269D01*
X7937Y95160D01*
X7406Y95055D01*
X7347Y95143D01*
X6686Y95585D01*
X5906Y95740D01*
X5125Y95585D01*
X4464Y95143D01*
X4022Y94481D01*
X3866Y93701D01*
X4022Y92920D01*
X4464Y92259D01*
X5125Y91817D01*
X5906Y91662D01*
X6686Y91817D01*
X7347Y92259D01*
X7790Y92920D01*
X7811Y93029D01*
X8342Y93134D01*
X8401Y93046D01*
X9062Y92604D01*
X9678Y92482D01*
X9690Y92451D01*
X9730Y91961D01*
X9188Y91599D01*
X8746Y90938D01*
X8591Y90157D01*
X8746Y89377D01*
X9188Y88715D01*
X9849Y88273D01*
X10630Y88118D01*
X10966Y87842D01*
X10981Y87342D01*
X9569Y85931D01*
X9131Y85274D01*
X8977Y84500D01*
X8986Y84455D01*
X8984Y84449D01*
X9140Y83669D01*
X9582Y83007D01*
X10243Y82565D01*
X11024Y82410D01*
X11804Y82565D01*
X12466Y83007D01*
X12662Y83301D01*
X14445Y85084D01*
X14883Y85740D01*
X15037Y86514D01*
Y94688D01*
X14883Y95463D01*
X14445Y96119D01*
X11289Y99274D01*
X11354Y99916D01*
X11678Y100133D01*
X12120Y100794D01*
X12275Y101575D01*
X12120Y102355D01*
X11833Y102785D01*
X11720Y103150D01*
X11833Y103515D01*
X12120Y103944D01*
X12275Y104724D01*
X12120Y105505D01*
X11678Y106166D01*
X11561Y106846D01*
X11727Y107094D01*
X11882Y107874D01*
X11727Y108654D01*
X11472Y109036D01*
X11419Y109462D01*
X11607Y109665D01*
X12072Y109975D01*
X12514Y110637D01*
X12669Y111417D01*
X12514Y112198D01*
X12072Y112859D01*
X11410Y113301D01*
X10630Y113456D01*
X10579Y113446D01*
X9915D01*
X4523Y118838D01*
Y140155D01*
X4525Y140157D01*
X5023Y140376D01*
X5519Y140045D01*
D02*
G37*
G36*
X234062Y54993D02*
X234116Y54720D01*
X234558Y54058D01*
X235220Y53616D01*
X236000Y53461D01*
X236081Y53477D01*
X237662D01*
X241782Y49357D01*
X242438Y48918D01*
X243213Y48764D01*
X263743D01*
X263961Y48264D01*
X263631Y47770D01*
X263477Y46996D01*
Y25523D01*
X263393Y25506D01*
X262731Y25064D01*
X262703Y25021D01*
X261705Y24023D01*
X219441D01*
X219250Y24485D01*
X221679Y26914D01*
X224722D01*
X224803Y26898D01*
X225584Y27053D01*
X226245Y27495D01*
X226687Y28157D01*
X226842Y28937D01*
X226687Y29717D01*
X226245Y30379D01*
X225584Y30821D01*
X224803Y30976D01*
X224722Y30960D01*
X220841D01*
X220067Y30806D01*
X219410Y30368D01*
X212569Y23527D01*
X212376Y23237D01*
X212162Y23023D01*
X210500D01*
X209990Y22922D01*
X209744Y23382D01*
X211931Y25569D01*
X212369Y26226D01*
X212523Y27000D01*
Y34162D01*
X233519Y55158D01*
X234062Y54993D01*
D02*
G37*
G36*
X228642Y140963D02*
X228593Y140465D01*
X228558Y140442D01*
X228116Y139780D01*
X227961Y139000D01*
X228116Y138220D01*
X228558Y137558D01*
X229220Y137116D01*
X230000Y136961D01*
X230780Y137116D01*
X231442Y137558D01*
X231465Y137593D01*
X231963Y137642D01*
X246124Y123482D01*
X246131Y123444D01*
X246569Y122788D01*
X254590Y114768D01*
X254433Y114218D01*
X253873Y113844D01*
X253431Y113182D01*
X253276Y112402D01*
X253431Y111621D01*
X253873Y110960D01*
X254535Y110518D01*
X255315Y110362D01*
X256095Y110518D01*
X256757Y110960D01*
X257199Y111621D01*
X257354Y112402D01*
X257240Y112977D01*
X257557Y113477D01*
X264650D01*
Y99165D01*
X261009Y95523D01*
X250153D01*
X249379Y95369D01*
X248723Y94931D01*
X247569Y93777D01*
X247131Y93121D01*
X246977Y92347D01*
Y74338D01*
X209069Y36431D01*
X208631Y35774D01*
X208477Y35000D01*
Y27838D01*
X204162Y23523D01*
X196838D01*
X192931Y27431D01*
X192274Y27869D01*
X191500Y28023D01*
X179500D01*
X178726Y27869D01*
X178069Y27431D01*
X173662Y23023D01*
X162520D01*
X162253Y23523D01*
X162384Y23720D01*
X162539Y24500D01*
X162384Y25280D01*
X161942Y25942D01*
X161927Y25952D01*
Y36548D01*
X161942Y36558D01*
X162384Y37220D01*
X162539Y38000D01*
X162384Y38780D01*
X162253Y38977D01*
X162520Y39477D01*
X199241D01*
X199558Y39090D01*
X199536Y38976D01*
X199691Y38196D01*
X200133Y37534D01*
X200794Y37092D01*
X201575Y36937D01*
X201946Y37011D01*
X202193Y36550D01*
X200538Y34896D01*
X200099Y34239D01*
X199945Y33465D01*
Y28034D01*
X199929Y27953D01*
X200084Y27172D01*
X200527Y26511D01*
X201188Y26069D01*
X201969Y25914D01*
X202749Y26069D01*
X203410Y26511D01*
X203853Y27172D01*
X204008Y27953D01*
X203992Y28034D01*
Y32627D01*
X205931Y34566D01*
X206369Y35222D01*
X206523Y35996D01*
Y39477D01*
X207273D01*
X208048Y39631D01*
X208704Y40069D01*
X218431Y49796D01*
X218869Y50452D01*
X219023Y51227D01*
Y63419D01*
X219039Y63500D01*
X219023Y63581D01*
Y73937D01*
X219214Y74222D01*
X219368Y74997D01*
Y86655D01*
X219214Y87429D01*
X219024Y87713D01*
X219149Y107200D01*
X219165Y107283D01*
X219149Y107364D01*
Y115672D01*
X220697Y117220D01*
X221135Y117876D01*
X221289Y118650D01*
Y128988D01*
X221135Y129762D01*
X220697Y130418D01*
X219155Y131960D01*
Y132824D01*
X219165Y132874D01*
X219149Y132955D01*
Y149749D01*
X219591Y150014D01*
X228642Y140963D01*
D02*
G37*
G36*
X279477Y77487D02*
X279477Y26872D01*
X279457Y26772D01*
X279473Y26691D01*
Y21063D01*
X274933Y16523D01*
X255541D01*
X255390Y17023D01*
X255442Y17058D01*
X255884Y17720D01*
X256039Y18500D01*
X255884Y19280D01*
X255753Y19477D01*
X256020Y19977D01*
X262543D01*
X263317Y20131D01*
X263973Y20569D01*
X264983Y21580D01*
X265500Y21477D01*
X266274Y21631D01*
X266931Y22069D01*
X267369Y22726D01*
X267523Y23500D01*
Y46158D01*
X270885Y49520D01*
X270942Y49558D01*
X271384Y50220D01*
X271539Y51000D01*
X271523Y51081D01*
Y54000D01*
X271369Y54774D01*
X270931Y55431D01*
X260023Y66338D01*
Y69162D01*
X262338Y71477D01*
X272000D01*
X272774Y71631D01*
X273431Y72069D01*
X278931Y77569D01*
X278977Y77639D01*
X279477Y77487D01*
D02*
G37*
G36*
X233247Y19477D02*
X233116Y19280D01*
X233066Y19026D01*
X233000Y19039D01*
X232220Y18884D01*
X231558Y18442D01*
X231116Y17780D01*
X230961Y17000D01*
X230979Y16910D01*
X230662Y16523D01*
X210000D01*
X209490Y16422D01*
X209244Y16883D01*
X211338Y18977D01*
X212919D01*
X213000Y18961D01*
X213780Y19116D01*
X214442Y19558D01*
X214488Y19627D01*
X214838Y19977D01*
X232980D01*
X233247Y19477D01*
D02*
G37*
G36*
X194569Y20069D02*
X195226Y19631D01*
X196000Y19477D01*
X205000D01*
X205510Y19578D01*
X205756Y19117D01*
X205372Y18733D01*
X194265D01*
X193968Y19094D01*
X193813Y19875D01*
X193371Y20536D01*
X192710Y20978D01*
X191929Y21134D01*
X191149Y20978D01*
X190487Y20536D01*
X190045Y19875D01*
X189890Y19094D01*
X189616Y18761D01*
X189115Y18746D01*
X187811Y20051D01*
X187154Y20489D01*
X186380Y20643D01*
X184903D01*
Y22194D01*
X184913Y22244D01*
X184758Y23024D01*
X184455Y23477D01*
X184712Y23977D01*
X190662D01*
X194569Y20069D01*
D02*
G37*
G36*
X283477Y18718D02*
Y15338D01*
X279162Y11023D01*
X210091D01*
X209884Y11523D01*
X210838Y12477D01*
X275771D01*
X276546Y12631D01*
X277202Y13069D01*
X282927Y18794D01*
X282977Y18869D01*
X283477Y18718D01*
D02*
G37*
%LPC*%
G36*
X42520Y163063D02*
X41739Y162908D01*
X41078Y162466D01*
X40636Y161804D01*
X40481Y161024D01*
X40636Y160243D01*
X41078Y159582D01*
X41739Y159140D01*
X42520Y158984D01*
X43300Y159140D01*
X43962Y159582D01*
X44404Y160243D01*
X44559Y161024D01*
X44404Y161804D01*
X43962Y162466D01*
X43300Y162908D01*
X42520Y163063D01*
D02*
G37*
G36*
X42634Y156764D02*
X41854Y156608D01*
X41193Y156166D01*
X40751Y155505D01*
X40595Y154724D01*
X40751Y153944D01*
X41193Y153282D01*
X41854Y152840D01*
X42634Y152685D01*
X43415Y152840D01*
X44076Y153282D01*
X44519Y153944D01*
X44674Y154724D01*
X44519Y155505D01*
X44076Y156166D01*
X43415Y156608D01*
X42634Y156764D01*
D02*
G37*
G36*
X132321Y152793D02*
X119383D01*
X119493Y151393D01*
X119997Y149295D01*
X120822Y147302D01*
X121949Y145463D01*
X123350Y143823D01*
X124990Y142422D01*
X126830Y141295D01*
X128823Y140469D01*
X130920Y139965D01*
X132321Y139855D01*
Y152793D01*
D02*
G37*
G36*
X119679Y131613D02*
X117679D01*
Y127837D01*
X122705D01*
Y128587D01*
X122602Y129370D01*
X122300Y130100D01*
X121819Y130726D01*
X121192Y131207D01*
X120462Y131509D01*
X119679Y131613D01*
D02*
G37*
G36*
X116179D02*
X114179D01*
X113396Y131509D01*
X112666Y131207D01*
X112039Y130726D01*
X111559Y130100D01*
X111256Y129370D01*
X111153Y128587D01*
Y127837D01*
X116179D01*
Y131613D01*
D02*
G37*
G36*
X203543Y130386D02*
X202763Y130230D01*
X202101Y129788D01*
X201659Y129127D01*
X201504Y128347D01*
X201659Y127566D01*
X202101Y126904D01*
X202763Y126462D01*
X203543Y126307D01*
X204324Y126462D01*
X204985Y126904D01*
X205427Y127566D01*
X205582Y128347D01*
X205427Y129127D01*
X204985Y129788D01*
X204324Y130230D01*
X203543Y130386D01*
D02*
G37*
G36*
X210236Y129992D02*
X209456Y129837D01*
X208794Y129395D01*
X208352Y128733D01*
X208197Y127953D01*
X208352Y127172D01*
X208794Y126511D01*
X209456Y126069D01*
X210236Y125914D01*
X211017Y126069D01*
X211678Y126511D01*
X212120Y127172D01*
X212275Y127953D01*
X212120Y128733D01*
X211678Y129395D01*
X211017Y129837D01*
X210236Y129992D01*
D02*
G37*
G36*
X122705Y126337D02*
X117679D01*
Y122561D01*
X119679D01*
X120462Y122664D01*
X121192Y122966D01*
X121819Y123447D01*
X122300Y124074D01*
X122602Y124803D01*
X122705Y125587D01*
Y126337D01*
D02*
G37*
G36*
X116179D02*
X111153D01*
Y125587D01*
X111256Y124803D01*
X111559Y124074D01*
X112039Y123447D01*
X112666Y122966D01*
X113396Y122664D01*
X114179Y122561D01*
X116179D01*
Y126337D01*
D02*
G37*
G36*
X146500Y125039D02*
X145720Y124884D01*
X145058Y124442D01*
X144616Y123780D01*
X144461Y123000D01*
X144616Y122220D01*
X145058Y121558D01*
X145720Y121116D01*
X146500Y120961D01*
X147280Y121116D01*
X147942Y121558D01*
X148384Y122220D01*
X148539Y123000D01*
X148384Y123780D01*
X147942Y124442D01*
X147280Y124884D01*
X146500Y125039D01*
D02*
G37*
G36*
X119679Y121136D02*
X114179D01*
X113204Y120942D01*
X112377Y120389D01*
X111824Y119562D01*
X111630Y118587D01*
Y115587D01*
X111824Y114611D01*
X112377Y113784D01*
X113204Y113232D01*
X114179Y113038D01*
X119679D01*
X120655Y113232D01*
X121482Y113784D01*
X122034Y114611D01*
X122228Y115587D01*
Y118587D01*
X122034Y119562D01*
X121482Y120389D01*
X120655Y120942D01*
X119679Y121136D01*
D02*
G37*
G36*
X209449Y114638D02*
X208668Y114482D01*
X208007Y114040D01*
X207565Y113379D01*
X207410Y112598D01*
X207565Y111818D01*
X208007Y111156D01*
X208668Y110714D01*
X209449Y110559D01*
X210229Y110714D01*
X210891Y111156D01*
X211333Y111818D01*
X211488Y112598D01*
X211333Y113379D01*
X210891Y114040D01*
X210229Y114482D01*
X209449Y114638D01*
D02*
G37*
G36*
X201969D02*
X201188Y114482D01*
X200527Y114040D01*
X200084Y113379D01*
X199929Y112598D01*
X200084Y111818D01*
X200527Y111156D01*
X201188Y110714D01*
X201969Y110559D01*
X202749Y110714D01*
X203410Y111156D01*
X203853Y111818D01*
X204008Y112598D01*
X203853Y113379D01*
X203410Y114040D01*
X202749Y114482D01*
X201969Y114638D01*
D02*
G37*
G36*
X119679Y101136D02*
X114179D01*
X113204Y100942D01*
X112377Y100389D01*
X111824Y99562D01*
X111630Y98587D01*
Y95587D01*
X111824Y94611D01*
X112377Y93784D01*
X113204Y93232D01*
X114179Y93038D01*
X119679D01*
X120655Y93232D01*
X121482Y93784D01*
X122034Y94611D01*
X122228Y95587D01*
Y98587D01*
X122034Y99562D01*
X121482Y100389D01*
X120655Y100942D01*
X119679Y101136D01*
D02*
G37*
G36*
X135827Y87669D02*
X135046Y87514D01*
X134385Y87072D01*
X133943Y86410D01*
X133788Y85630D01*
X133943Y84850D01*
X134385Y84188D01*
X135046Y83746D01*
X135827Y83591D01*
X136607Y83746D01*
X137269Y84188D01*
X137711Y84850D01*
X137866Y85630D01*
X137711Y86410D01*
X137269Y87072D01*
X136607Y87514D01*
X135827Y87669D01*
D02*
G37*
G36*
X119679Y91136D02*
X114179D01*
X113204Y90942D01*
X112377Y90389D01*
X111824Y89562D01*
X111630Y88587D01*
Y85587D01*
X111824Y84611D01*
X112377Y83784D01*
X113204Y83232D01*
X114179Y83038D01*
X119679D01*
X120655Y83232D01*
X121482Y83784D01*
X122034Y84611D01*
X122228Y85587D01*
Y88587D01*
X122034Y89562D01*
X121482Y90389D01*
X120655Y90942D01*
X119679Y91136D01*
D02*
G37*
G36*
X207480Y83141D02*
X206700Y82986D01*
X206038Y82544D01*
X205596Y81883D01*
X205441Y81102D01*
X205596Y80322D01*
X206038Y79660D01*
X206700Y79218D01*
X207480Y79063D01*
X208109Y79188D01*
X208320Y79164D01*
X208643Y78872D01*
X208746Y78354D01*
X209188Y77692D01*
X209850Y77250D01*
X210630Y77095D01*
X211410Y77250D01*
X212072Y77692D01*
X212514Y78354D01*
X212669Y79134D01*
X212514Y79914D01*
X212072Y80576D01*
X211410Y81018D01*
X210630Y81173D01*
X210001Y81048D01*
X209790Y81072D01*
X209468Y81364D01*
X209364Y81883D01*
X208922Y82544D01*
X208261Y82986D01*
X207480Y83141D01*
D02*
G37*
G36*
X134646Y81764D02*
X133865Y81608D01*
X133204Y81166D01*
X132762Y80505D01*
X132606Y79724D01*
X132663Y79442D01*
X132283Y79008D01*
X131503Y78852D01*
X130842Y78410D01*
X130400Y77749D01*
X130244Y76968D01*
X130400Y76188D01*
X130842Y75527D01*
X131503Y75085D01*
X132283Y74929D01*
X133064Y75085D01*
X133725Y75527D01*
X134167Y76188D01*
X134323Y76968D01*
X134266Y77251D01*
X134646Y77685D01*
X135426Y77840D01*
X136088Y78282D01*
X136530Y78944D01*
X136685Y79724D01*
X136530Y80505D01*
X136088Y81166D01*
X135426Y81608D01*
X134646Y81764D01*
D02*
G37*
G36*
X119679Y81136D02*
X114179D01*
X113204Y80942D01*
X112377Y80389D01*
X111824Y79562D01*
X111630Y78587D01*
Y75587D01*
X111824Y74611D01*
X112377Y73784D01*
X113204Y73232D01*
X114179Y73038D01*
X119679D01*
X120655Y73232D01*
X121482Y73784D01*
X122034Y74611D01*
X122228Y75587D01*
Y78587D01*
X122034Y79562D01*
X121482Y80389D01*
X120655Y80942D01*
X119679Y81136D01*
D02*
G37*
G36*
X146850Y69756D02*
X146070Y69600D01*
X145408Y69159D01*
X144966Y68497D01*
X144811Y67716D01*
X144966Y66936D01*
X145408Y66275D01*
X146070Y65833D01*
X146850Y65677D01*
X147631Y65833D01*
X148292Y66275D01*
X148734Y66936D01*
X148890Y67716D01*
X148734Y68497D01*
X148292Y69159D01*
X147631Y69600D01*
X146850Y69756D01*
D02*
G37*
G36*
X146562Y42754D02*
X133624D01*
Y29816D01*
X135024Y29926D01*
X137122Y30430D01*
X139115Y31255D01*
X140954Y32382D01*
X142595Y33783D01*
X143996Y35424D01*
X145123Y37263D01*
X145948Y39256D01*
X146452Y41353D01*
X146562Y42754D01*
D02*
G37*
G36*
X142913Y186291D02*
X142133Y186136D01*
X141472Y185694D01*
X141029Y185032D01*
X140874Y184252D01*
X141029Y183472D01*
X141472Y182810D01*
X142133Y182368D01*
X142913Y182213D01*
X143694Y182368D01*
X144355Y182810D01*
X144797Y183472D01*
X144953Y184252D01*
X144797Y185032D01*
X144355Y185694D01*
X143694Y186136D01*
X142913Y186291D01*
D02*
G37*
G36*
X230118Y177827D02*
X229338Y177671D01*
X228676Y177229D01*
X228234Y176568D01*
X228079Y175787D01*
X228234Y175007D01*
X228676Y174346D01*
X229338Y173903D01*
X230118Y173748D01*
X230898Y173903D01*
X231560Y174346D01*
X232002Y175007D01*
X232157Y175787D01*
X232002Y176568D01*
X231560Y177229D01*
X230898Y177671D01*
X230118Y177827D01*
D02*
G37*
G36*
X268110Y150858D02*
X267330Y150703D01*
X266668Y150261D01*
X266226Y149599D01*
X266071Y148819D01*
X266226Y148038D01*
X266668Y147377D01*
X267330Y146935D01*
X268110Y146780D01*
X268891Y146935D01*
X269552Y147377D01*
X269994Y148038D01*
X270149Y148819D01*
X269994Y149599D01*
X269552Y150261D01*
X268891Y150703D01*
X268110Y150858D01*
D02*
G37*
G36*
X305120Y173347D02*
Y167640D01*
X310828D01*
X310776Y168164D01*
X310404Y169389D01*
X309801Y170519D01*
X308988Y171508D01*
X307999Y172320D01*
X306870Y172924D01*
X305644Y173296D01*
X305120Y173347D01*
D02*
G37*
G36*
X330828Y166140D02*
X325120D01*
Y160432D01*
X325644Y160484D01*
X326870Y160856D01*
X327999Y161459D01*
X328989Y162271D01*
X329801Y163261D01*
X330404Y164390D01*
X330776Y165616D01*
X330828Y166140D01*
D02*
G37*
G36*
X323620D02*
X317912D01*
X317964Y165616D01*
X318336Y164390D01*
X318939Y163261D01*
X319752Y162271D01*
X320741Y161459D01*
X321871Y160856D01*
X323096Y160484D01*
X323620Y160432D01*
Y166140D01*
D02*
G37*
G36*
X310828Y166140D02*
X305120D01*
Y160432D01*
X305644Y160484D01*
X306870Y160855D01*
X307999Y161459D01*
X308988Y162271D01*
X309801Y163261D01*
X310404Y164390D01*
X310776Y165616D01*
X310828Y166140D01*
D02*
G37*
G36*
X303620D02*
X297912D01*
X297964Y165616D01*
X298336Y164390D01*
X298939Y163261D01*
X299752Y162271D01*
X300741Y161459D01*
X301870Y160855D01*
X303096Y160484D01*
X303620Y160432D01*
Y166140D01*
D02*
G37*
G36*
X314370Y162919D02*
X313194Y162803D01*
X312063Y162460D01*
X311020Y161903D01*
X310107Y161153D01*
X309357Y160239D01*
X308800Y159197D01*
X308457Y158066D01*
X308341Y156890D01*
X308457Y155714D01*
X308800Y154583D01*
X309357Y153540D01*
X310107Y152627D01*
X311020Y151877D01*
X312063Y151320D01*
X313194Y150977D01*
X314370Y150861D01*
X315546Y150977D01*
X316677Y151320D01*
X317720Y151877D01*
X318633Y152627D01*
X319383Y153540D01*
X319940Y154583D01*
X320283Y155714D01*
X320399Y156890D01*
X320283Y158066D01*
X319940Y159197D01*
X319383Y160239D01*
X318633Y161153D01*
X317720Y161903D01*
X316677Y162460D01*
X315546Y162803D01*
X314370Y162919D01*
D02*
G37*
G36*
X325120Y153348D02*
Y147640D01*
X330828D01*
X330776Y148164D01*
X330404Y149389D01*
X329801Y150519D01*
X328989Y151508D01*
X327999Y152321D01*
X326870Y152924D01*
X325644Y153296D01*
X325120Y153348D01*
D02*
G37*
G36*
X323620Y153348D02*
X323096Y153296D01*
X321871Y152924D01*
X320741Y152321D01*
X319752Y151508D01*
X318939Y150519D01*
X318336Y149389D01*
X317964Y148164D01*
X317913Y147640D01*
X323620D01*
Y153348D01*
D02*
G37*
G36*
X305120Y153347D02*
Y147640D01*
X310827D01*
X310776Y148164D01*
X310404Y149389D01*
X309801Y150519D01*
X308988Y151508D01*
X307999Y152321D01*
X306869Y152924D01*
X305644Y153296D01*
X305120Y153347D01*
D02*
G37*
G36*
X303620Y153347D02*
X303096Y153296D01*
X301870Y152924D01*
X300741Y152321D01*
X299751Y151508D01*
X298939Y150519D01*
X298336Y149389D01*
X297964Y148164D01*
X297912Y147640D01*
X303620D01*
Y153347D01*
D02*
G37*
G36*
X323620Y146140D02*
X317913D01*
X317964Y145616D01*
X318336Y144390D01*
X318939Y143261D01*
X319752Y142271D01*
X320741Y141459D01*
X321871Y140856D01*
X323096Y140484D01*
X323620Y140432D01*
Y146140D01*
D02*
G37*
G36*
X330828D02*
X325120D01*
Y140432D01*
X325644Y140484D01*
X326870Y140856D01*
X327999Y141459D01*
X328989Y142271D01*
X329801Y143261D01*
X330404Y144390D01*
X330776Y145616D01*
X330828Y146140D01*
D02*
G37*
G36*
X303620Y146140D02*
X297912D01*
X297964Y145616D01*
X298336Y144390D01*
X298939Y143261D01*
X299751Y142271D01*
X300741Y141459D01*
X301870Y140856D01*
X303096Y140484D01*
X303620Y140432D01*
Y146140D01*
D02*
G37*
G36*
X310827D02*
X305120D01*
Y140432D01*
X305644Y140484D01*
X306869Y140856D01*
X307999Y141459D01*
X308988Y142271D01*
X309801Y143261D01*
X310404Y144390D01*
X310776Y145616D01*
X310827Y146140D01*
D02*
G37*
G36*
X295669Y144756D02*
X294889Y144600D01*
X294227Y144158D01*
X293785Y143497D01*
X293630Y142717D01*
X293785Y141936D01*
X294227Y141275D01*
X294347Y141195D01*
Y140695D01*
X294227Y140615D01*
X293785Y139954D01*
X293630Y139173D01*
X293785Y138393D01*
X294227Y137731D01*
X294889Y137289D01*
X295669Y137134D01*
X296450Y137289D01*
X297111Y137731D01*
X297553Y138393D01*
X297709Y139173D01*
X297553Y139954D01*
X297111Y140615D01*
X296992Y140695D01*
Y141195D01*
X297111Y141275D01*
X297553Y141936D01*
X297709Y142717D01*
X297553Y143497D01*
X297111Y144158D01*
X296450Y144600D01*
X295669Y144756D01*
D02*
G37*
G36*
X288976Y121330D02*
X288196Y121175D01*
X287534Y120733D01*
X287092Y120072D01*
X286937Y119291D01*
X287092Y118511D01*
X287534Y117849D01*
X288196Y117407D01*
X288976Y117252D01*
X289757Y117407D01*
X290418Y117849D01*
X290860Y118511D01*
X291016Y119291D01*
X290860Y120072D01*
X290418Y120733D01*
X289757Y121175D01*
X288976Y121330D01*
D02*
G37*
G36*
X293504Y106567D02*
X292724Y106412D01*
X292062Y105970D01*
X291620Y105308D01*
X291465Y104528D01*
X291620Y103747D01*
X292062Y103086D01*
X292724Y102644D01*
X293504Y102488D01*
X294284Y102644D01*
X294731Y102942D01*
X294771Y102924D01*
X295136Y102611D01*
X295008Y101969D01*
X295163Y101188D01*
X295605Y100527D01*
X296267Y100084D01*
X297047Y99929D01*
X297828Y100084D01*
X298489Y100527D01*
X298931Y101188D01*
X299086Y101969D01*
X298931Y102749D01*
X298489Y103410D01*
X297828Y103852D01*
X297047Y104008D01*
X296267Y103852D01*
X295820Y103554D01*
X295780Y103572D01*
X295415Y103885D01*
X295543Y104528D01*
X295388Y105308D01*
X294946Y105970D01*
X294284Y106412D01*
X293504Y106567D01*
D02*
G37*
G36*
X310236Y87669D02*
X309456Y87514D01*
X308794Y87072D01*
X308352Y86410D01*
X308197Y85630D01*
X308352Y84850D01*
X308730Y84284D01*
X308768Y83957D01*
X308730Y83630D01*
X308352Y83064D01*
X308197Y82284D01*
X308352Y81503D01*
X308794Y80841D01*
X309456Y80400D01*
X310236Y80244D01*
X311017Y80400D01*
X311678Y80841D01*
X312120Y81503D01*
X312275Y82284D01*
X312120Y83064D01*
X311742Y83630D01*
X311705Y83957D01*
X311742Y84284D01*
X312120Y84850D01*
X312275Y85630D01*
X312120Y86410D01*
X311678Y87072D01*
X311017Y87514D01*
X310236Y87669D01*
D02*
G37*
G36*
X312008Y67197D02*
X311227Y67041D01*
X310566Y66599D01*
X310124Y65938D01*
X309969Y65158D01*
X310124Y64377D01*
X310566Y63716D01*
X311227Y63274D01*
X311852Y63149D01*
X312331Y62992D01*
X312486Y62212D01*
X312928Y61550D01*
X313590Y61108D01*
X314370Y60953D01*
X315150Y61108D01*
X315812Y61550D01*
X316254Y62212D01*
X316409Y62992D01*
X316254Y63772D01*
X315812Y64434D01*
X315150Y64876D01*
X314526Y65000D01*
X314047Y65158D01*
X313892Y65938D01*
X313450Y66599D01*
X312788Y67041D01*
X312008Y67197D01*
D02*
G37*
G36*
X325317Y56812D02*
Y51104D01*
X331024D01*
X330973Y51629D01*
X330601Y52854D01*
X329998Y53983D01*
X329185Y54973D01*
X328196Y55785D01*
X327066Y56389D01*
X325841Y56760D01*
X325317Y56812D01*
D02*
G37*
G36*
X323817Y56812D02*
X323293Y56760D01*
X322067Y56389D01*
X320938Y55785D01*
X319949Y54973D01*
X319136Y53983D01*
X318533Y52854D01*
X318161Y51629D01*
X318109Y51104D01*
X323817D01*
Y56812D01*
D02*
G37*
G36*
X305317Y56812D02*
Y51104D01*
X311024D01*
X310973Y51629D01*
X310601Y52854D01*
X309998Y53983D01*
X309185Y54973D01*
X308195Y55785D01*
X307066Y56389D01*
X305841Y56760D01*
X305317Y56812D01*
D02*
G37*
G36*
X323817Y49604D02*
X318109D01*
X318161Y49080D01*
X318533Y47855D01*
X319136Y46726D01*
X319949Y45736D01*
X320938Y44924D01*
X322067Y44320D01*
X323293Y43949D01*
X323817Y43897D01*
Y49604D01*
D02*
G37*
G36*
X331025D02*
X325317D01*
Y43897D01*
X325841Y43949D01*
X327066Y44320D01*
X328196Y44924D01*
X329185Y45736D01*
X329998Y46726D01*
X330601Y47855D01*
X330973Y49080D01*
X331025Y49604D01*
D02*
G37*
G36*
X311024Y49604D02*
X305317D01*
Y43897D01*
X305841Y43948D01*
X307066Y44320D01*
X308195Y44924D01*
X309185Y45736D01*
X309998Y46726D01*
X310601Y47855D01*
X310973Y49080D01*
X311024Y49604D01*
D02*
G37*
G36*
X314567Y46383D02*
X313391Y46268D01*
X312260Y45924D01*
X311217Y45367D01*
X310304Y44618D01*
X309554Y43704D01*
X308997Y42661D01*
X308654Y41530D01*
X308538Y40354D01*
X308654Y39178D01*
X308997Y38047D01*
X309554Y37005D01*
X310304Y36091D01*
X311217Y35341D01*
X312260Y34784D01*
X313391Y34441D01*
X314567Y34325D01*
X315743Y34441D01*
X316874Y34784D01*
X317916Y35341D01*
X318830Y36091D01*
X319580Y37005D01*
X320137Y38047D01*
X320480Y39178D01*
X320596Y40354D01*
X320480Y41530D01*
X320137Y42661D01*
X319580Y43704D01*
X318830Y44618D01*
X317916Y45367D01*
X316874Y45924D01*
X315743Y46268D01*
X314567Y46383D01*
D02*
G37*
G36*
X325317Y36812D02*
Y31104D01*
X331025D01*
X330973Y31629D01*
X330601Y32854D01*
X329998Y33983D01*
X329185Y34973D01*
X328196Y35785D01*
X327066Y36389D01*
X325841Y36761D01*
X325317Y36812D01*
D02*
G37*
G36*
X323817Y36812D02*
X323293Y36761D01*
X322067Y36389D01*
X320938Y35785D01*
X319949Y34973D01*
X319136Y33983D01*
X318533Y32854D01*
X318161Y31629D01*
X318109Y31104D01*
X323817D01*
Y36812D01*
D02*
G37*
G36*
X305317Y36812D02*
Y31104D01*
X311024D01*
X310973Y31629D01*
X310601Y32854D01*
X309998Y33983D01*
X309185Y34973D01*
X308195Y35785D01*
X307066Y36389D01*
X305841Y36760D01*
X305317Y36812D01*
D02*
G37*
G36*
X331025Y29605D02*
X325317D01*
Y23897D01*
X325841Y23949D01*
X327066Y24320D01*
X328196Y24924D01*
X329185Y25736D01*
X329998Y26726D01*
X330601Y27855D01*
X330973Y29080D01*
X331025Y29605D01*
D02*
G37*
G36*
X323817D02*
X318109D01*
X318161Y29080D01*
X318533Y27855D01*
X319136Y26726D01*
X319949Y25736D01*
X320938Y24924D01*
X322067Y24320D01*
X323293Y23949D01*
X323817Y23897D01*
Y29605D01*
D02*
G37*
G36*
X311024Y29604D02*
X305317D01*
Y23897D01*
X305841Y23948D01*
X307066Y24320D01*
X308195Y24924D01*
X309185Y25736D01*
X309998Y26726D01*
X310601Y27855D01*
X310973Y29080D01*
X311024Y29604D01*
D02*
G37*
G36*
X322085Y23288D02*
X321030Y23205D01*
X319270Y22782D01*
X317598Y22089D01*
X316054Y21144D01*
X314678Y19968D01*
X313502Y18591D01*
X312556Y17048D01*
X311864Y15376D01*
X311441Y13616D01*
X311358Y12561D01*
X322085D01*
Y23288D01*
D02*
G37*
G36*
X254724Y132748D02*
X253944Y132593D01*
X253282Y132151D01*
X252840Y131489D01*
X252685Y130709D01*
X252840Y129928D01*
X253282Y129267D01*
X253944Y128825D01*
X254724Y128670D01*
X255376Y128799D01*
X255698Y128620D01*
X255852Y128456D01*
X255990Y127763D01*
X256432Y127101D01*
X257094Y126659D01*
X257874Y126504D01*
X258654Y126659D01*
X259316Y127101D01*
X259758Y127763D01*
X259913Y128543D01*
X259758Y129324D01*
X259316Y129985D01*
X258654Y130427D01*
X257874Y130582D01*
X257223Y130453D01*
X256901Y130632D01*
X256746Y130796D01*
X256608Y131489D01*
X256166Y132151D01*
X255505Y132593D01*
X254724Y132748D01*
D02*
G37*
G36*
Y82945D02*
X253944Y82789D01*
X253282Y82347D01*
X252840Y81686D01*
X252685Y80905D01*
X252840Y80125D01*
X253282Y79464D01*
X253944Y79022D01*
X254724Y78866D01*
X255505Y79022D01*
X255663Y79128D01*
X256297Y78949D01*
X256558Y78558D01*
X257220Y78116D01*
X258000Y77961D01*
X258780Y78116D01*
X259442Y78558D01*
X259884Y79220D01*
X260039Y80000D01*
X259884Y80780D01*
X259442Y81442D01*
X258780Y81884D01*
X258000Y82039D01*
X257220Y81884D01*
X257061Y81778D01*
X256428Y81956D01*
X256166Y82347D01*
X255505Y82789D01*
X254724Y82945D01*
D02*
G37*
G36*
X86417Y132945D02*
X85637Y132790D01*
X84975Y132347D01*
X84533Y131686D01*
X84378Y130905D01*
X84533Y130125D01*
X84695Y129883D01*
X84530Y129230D01*
X84188Y129001D01*
X83746Y128339D01*
X83591Y127559D01*
X83746Y126779D01*
X84188Y126117D01*
X84850Y125675D01*
X85630Y125520D01*
X86410Y125675D01*
X87072Y126117D01*
X87514Y126779D01*
X87669Y127559D01*
X87514Y128339D01*
X87352Y128581D01*
X87517Y129235D01*
X87859Y129464D01*
X88301Y130125D01*
X88456Y130905D01*
X88301Y131686D01*
X87859Y132347D01*
X87198Y132790D01*
X86417Y132945D01*
D02*
G37*
G36*
X34252Y128811D02*
X33472Y128656D01*
X32810Y128214D01*
X32368Y127552D01*
X32213Y126772D01*
X32368Y125991D01*
X32655Y125562D01*
X32769Y125197D01*
X32655Y124832D01*
X32368Y124402D01*
X32213Y123622D01*
X32368Y122842D01*
X32810Y122180D01*
X33472Y121738D01*
X34252Y121583D01*
X35032Y121738D01*
X35694Y122180D01*
X36136Y122842D01*
X36291Y123622D01*
X36136Y124402D01*
X35849Y124832D01*
X35735Y125197D01*
X35849Y125562D01*
X36136Y125991D01*
X36291Y126772D01*
X36136Y127552D01*
X35694Y128214D01*
X35032Y128656D01*
X34252Y128811D01*
D02*
G37*
G36*
X85500Y123539D02*
X84720Y123384D01*
X84058Y122942D01*
X83616Y122280D01*
X83461Y121500D01*
X83616Y120720D01*
X84058Y120058D01*
X84444Y119800D01*
Y119200D01*
X84058Y118942D01*
X83616Y118280D01*
X83461Y117500D01*
X83616Y116720D01*
X84058Y116058D01*
X84145Y116000D01*
Y115500D01*
X84058Y115442D01*
X83616Y114780D01*
X83461Y114000D01*
X83616Y113220D01*
X84058Y112558D01*
X84720Y112116D01*
X85500Y111961D01*
X86280Y112116D01*
X86942Y112558D01*
X87384Y113220D01*
X87539Y114000D01*
X87384Y114780D01*
X86942Y115442D01*
X86855Y115500D01*
Y116000D01*
X86942Y116058D01*
X87384Y116720D01*
X87539Y117500D01*
X87384Y118280D01*
X86942Y118942D01*
X86556Y119200D01*
Y119800D01*
X86942Y120058D01*
X87384Y120720D01*
X87539Y121500D01*
X87384Y122280D01*
X86942Y122942D01*
X86280Y123384D01*
X85500Y123539D01*
D02*
G37*
G36*
X36024Y116016D02*
X35243Y115860D01*
X34582Y115418D01*
X34140Y114757D01*
X33984Y113976D01*
X34140Y113196D01*
X34582Y112534D01*
X35243Y112092D01*
X36024Y111937D01*
X36804Y112092D01*
X37466Y112534D01*
X37908Y113196D01*
X38063Y113976D01*
X37908Y114757D01*
X37466Y115418D01*
X36804Y115860D01*
X36024Y116016D01*
D02*
G37*
G36*
X85500Y109039D02*
X84720Y108884D01*
X84058Y108442D01*
X83616Y107780D01*
X83461Y107000D01*
X83616Y106220D01*
X84058Y105558D01*
X84226Y105446D01*
Y104946D01*
X83991Y104788D01*
X83549Y104127D01*
X83394Y103347D01*
X83549Y102566D01*
X83991Y101904D01*
X84653Y101462D01*
X85433Y101307D01*
X86213Y101462D01*
X86875Y101904D01*
X87317Y102566D01*
X87472Y103347D01*
X87317Y104127D01*
X86875Y104788D01*
X86707Y104901D01*
Y105401D01*
X86942Y105558D01*
X87384Y106220D01*
X87539Y107000D01*
X87384Y107780D01*
X86942Y108442D01*
X86280Y108884D01*
X85500Y109039D01*
D02*
G37*
G36*
X51126Y100578D02*
X50346Y100423D01*
X49684Y99981D01*
X49242Y99320D01*
X49087Y98539D01*
X49242Y97759D01*
X49684Y97097D01*
X50346Y96655D01*
X51126Y96500D01*
X51906Y96655D01*
X52568Y97097D01*
X53010Y97759D01*
X53165Y98539D01*
X53010Y99320D01*
X52568Y99981D01*
X51906Y100423D01*
X51126Y100578D01*
D02*
G37*
G36*
Y95578D02*
X50346Y95423D01*
X49684Y94981D01*
X49242Y94320D01*
X49087Y93539D01*
X49242Y92759D01*
X49684Y92098D01*
X50346Y91655D01*
X51126Y91500D01*
X51906Y91655D01*
X52568Y92098D01*
X53010Y92759D01*
X53165Y93539D01*
X53010Y94320D01*
X52568Y94981D01*
X51906Y95423D01*
X51126Y95578D01*
D02*
G37*
G36*
X87500Y98039D02*
X86720Y97884D01*
X86058Y97442D01*
X85616Y96780D01*
X85461Y96000D01*
X85500Y95804D01*
X85094Y95279D01*
X84653Y95191D01*
X83991Y94749D01*
X83549Y94087D01*
X83394Y93307D01*
X83549Y92527D01*
X83991Y91865D01*
X84653Y91423D01*
X85433Y91268D01*
X86213Y91423D01*
X86875Y91865D01*
X87317Y92527D01*
X87472Y93307D01*
X87433Y93503D01*
X87839Y94028D01*
X88280Y94116D01*
X88942Y94558D01*
X89384Y95220D01*
X89539Y96000D01*
X89384Y96780D01*
X88942Y97442D01*
X88280Y97884D01*
X87500Y98039D01*
D02*
G37*
G36*
X52291Y90464D02*
X51511Y90309D01*
X50849Y89867D01*
X50407Y89206D01*
X50252Y88425D01*
X50407Y87645D01*
X50849Y86983D01*
X51511Y86541D01*
X52291Y86386D01*
X53072Y86541D01*
X53733Y86983D01*
X54175Y87645D01*
X54330Y88425D01*
X54175Y89206D01*
X53733Y89867D01*
X53072Y90309D01*
X52291Y90464D01*
D02*
G37*
G36*
X85433Y90228D02*
X84653Y90073D01*
X83991Y89631D01*
X83549Y88969D01*
X83394Y88189D01*
X83549Y87409D01*
X83991Y86747D01*
X84653Y86305D01*
X85433Y86150D01*
X86213Y86305D01*
X86875Y86747D01*
X87317Y87409D01*
X87472Y88189D01*
X87317Y88969D01*
X86875Y89631D01*
X86213Y90073D01*
X85433Y90228D01*
D02*
G37*
G36*
Y85307D02*
X84653Y85152D01*
X83991Y84710D01*
X83549Y84048D01*
X83394Y83268D01*
X83549Y82487D01*
X83991Y81826D01*
X84653Y81384D01*
X85433Y81229D01*
X86213Y81384D01*
X86875Y81826D01*
X87317Y82487D01*
X87472Y83268D01*
X87317Y84048D01*
X86875Y84710D01*
X86213Y85152D01*
X85433Y85307D01*
D02*
G37*
G36*
X50626Y85079D02*
X49846Y84923D01*
X49184Y84481D01*
X48742Y83820D01*
X48587Y83039D01*
X48742Y82259D01*
X49184Y81598D01*
X49846Y81155D01*
X50626Y81000D01*
X51406Y81155D01*
X52068Y81598D01*
X52510Y82259D01*
X52665Y83039D01*
X52510Y83820D01*
X52068Y84481D01*
X51406Y84923D01*
X50626Y85079D01*
D02*
G37*
G36*
X52291Y75504D02*
X51511Y75349D01*
X50849Y74906D01*
X50407Y74245D01*
X50252Y73465D01*
X50407Y72684D01*
X50849Y72023D01*
X51511Y71581D01*
X52291Y71425D01*
X53072Y71581D01*
X53733Y72023D01*
X54175Y72684D01*
X54330Y73465D01*
X54175Y74245D01*
X53733Y74906D01*
X53072Y75349D01*
X52291Y75504D01*
D02*
G37*
G36*
Y70582D02*
X51511Y70427D01*
X50849Y69985D01*
X50407Y69324D01*
X50252Y68543D01*
X50407Y67763D01*
X50849Y67101D01*
X51511Y66659D01*
X52291Y66504D01*
X53072Y66659D01*
X53733Y67101D01*
X54175Y67763D01*
X54330Y68543D01*
X54175Y69324D01*
X53733Y69985D01*
X53072Y70427D01*
X52291Y70582D01*
D02*
G37*
G36*
Y65464D02*
X51511Y65309D01*
X50849Y64867D01*
X50407Y64206D01*
X50252Y63425D01*
X50407Y62645D01*
X50849Y61983D01*
X51511Y61541D01*
X52291Y61386D01*
X53072Y61541D01*
X53733Y61983D01*
X54175Y62645D01*
X54330Y63425D01*
X54175Y64206D01*
X53733Y64867D01*
X53072Y65309D01*
X52291Y65464D01*
D02*
G37*
G36*
X84252Y60307D02*
X83472Y60152D01*
X82810Y59710D01*
X82368Y59048D01*
X82213Y58268D01*
X82368Y57487D01*
X82810Y56826D01*
X83472Y56384D01*
X84252Y56229D01*
X85032Y56384D01*
X85694Y56826D01*
X86136Y57487D01*
X86291Y58268D01*
X86136Y59048D01*
X85694Y59710D01*
X85032Y60152D01*
X84252Y60307D01*
D02*
G37*
G36*
X110433Y55779D02*
X109653Y55624D01*
X108991Y55182D01*
X108549Y54520D01*
X108394Y53740D01*
X108549Y52960D01*
X108991Y52298D01*
X109653Y51856D01*
X110433Y51701D01*
X111213Y51856D01*
X111875Y52298D01*
X112317Y52960D01*
X112472Y53740D01*
X112317Y54520D01*
X111875Y55182D01*
X111213Y55624D01*
X110433Y55779D01*
D02*
G37*
G36*
X86673Y41862D02*
X85893Y41707D01*
X85232Y41265D01*
X84790Y40603D01*
X84634Y39823D01*
X84790Y39043D01*
X85232Y38381D01*
X85893Y37939D01*
X86673Y37784D01*
X87454Y37939D01*
X87815Y38180D01*
X88266Y38306D01*
X88568Y38158D01*
X88983Y37880D01*
X89764Y37725D01*
X90544Y37880D01*
X91206Y38322D01*
X91648Y38983D01*
X91803Y39764D01*
X91648Y40544D01*
X91206Y41206D01*
X90544Y41648D01*
X89764Y41803D01*
X88983Y41648D01*
X88622Y41406D01*
X88171Y41280D01*
X87870Y41429D01*
X87454Y41707D01*
X86673Y41862D01*
D02*
G37*
G36*
X78937Y41212D02*
X78157Y41057D01*
X77495Y40615D01*
X77053Y39954D01*
X76898Y39173D01*
X77053Y38393D01*
X77495Y37731D01*
X78157Y37289D01*
X78937Y37134D01*
X79717Y37289D01*
X80379Y37731D01*
X80821Y38393D01*
X80976Y39173D01*
X80821Y39954D01*
X80379Y40615D01*
X79717Y41057D01*
X78937Y41212D01*
D02*
G37*
G36*
X114173Y38456D02*
X113393Y38301D01*
X112731Y37859D01*
X112289Y37198D01*
X112134Y36417D01*
X112289Y35637D01*
X112731Y34975D01*
X112851Y34896D01*
Y34396D01*
X112731Y34316D01*
X112289Y33654D01*
X112134Y32874D01*
X112289Y32094D01*
X112731Y31432D01*
X113393Y30990D01*
X114173Y30835D01*
X114954Y30990D01*
X115615Y31432D01*
X116057Y32094D01*
X116212Y32874D01*
X116057Y33654D01*
X115615Y34316D01*
X115496Y34396D01*
Y34896D01*
X115615Y34975D01*
X116057Y35637D01*
X116212Y36417D01*
X116057Y37198D01*
X115615Y37859D01*
X114954Y38301D01*
X114173Y38456D01*
D02*
G37*
G36*
X10433Y135307D02*
X9653Y135152D01*
X8991Y134710D01*
X8549Y134048D01*
X8394Y133268D01*
X8549Y132487D01*
X8991Y131826D01*
X9653Y131384D01*
X10433Y131228D01*
X11213Y131384D01*
X11875Y131826D01*
X12317Y132487D01*
X12472Y133268D01*
X12317Y134048D01*
X11875Y134710D01*
X11213Y135152D01*
X10433Y135307D01*
D02*
G37*
G36*
X10236Y130386D02*
X9456Y130230D01*
X8794Y129788D01*
X8352Y129127D01*
X8197Y128347D01*
X8352Y127566D01*
X8794Y126904D01*
X9231Y126613D01*
X9259Y126031D01*
X8991Y125851D01*
X8549Y125190D01*
X8394Y124409D01*
X8549Y123629D01*
X8991Y122968D01*
X9653Y122526D01*
X10433Y122370D01*
X11213Y122526D01*
X11875Y122968D01*
X12317Y123629D01*
X12472Y124409D01*
X12317Y125190D01*
X11875Y125851D01*
X11439Y126143D01*
X11410Y126725D01*
X11678Y126904D01*
X12120Y127566D01*
X12275Y128347D01*
X12120Y129127D01*
X11678Y129788D01*
X11017Y130230D01*
X10236Y130386D01*
D02*
G37*
G36*
X5512Y90228D02*
X4732Y90073D01*
X4070Y89631D01*
X3628Y88969D01*
X3473Y88189D01*
X3628Y87409D01*
X4070Y86747D01*
X4732Y86305D01*
X5512Y86150D01*
X6292Y86305D01*
X6954Y86747D01*
X7396Y87409D01*
X7551Y88189D01*
X7396Y88969D01*
X6954Y89631D01*
X6292Y90073D01*
X5512Y90228D01*
D02*
G37*
G36*
X22441Y60849D02*
X21462Y60720D01*
X20550Y60343D01*
X19766Y59741D01*
X19165Y58958D01*
X18788Y58046D01*
X18659Y57067D01*
X18788Y56088D01*
X19165Y55176D01*
X19766Y54392D01*
X20550Y53791D01*
X21462Y53413D01*
X22441Y53285D01*
X23420Y53413D01*
X24332Y53791D01*
X25115Y54392D01*
X25717Y55176D01*
X26094Y56088D01*
X26223Y57067D01*
X26094Y58046D01*
X25717Y58958D01*
X25115Y59741D01*
X24332Y60343D01*
X23420Y60720D01*
X22441Y60849D01*
D02*
G37*
G36*
X7283Y34913D02*
X6503Y34758D01*
X5841Y34316D01*
X5399Y33654D01*
X5244Y32874D01*
X5399Y32094D01*
X5841Y31432D01*
X6503Y30990D01*
X7283Y30835D01*
X7835Y30944D01*
X7959Y30322D01*
X8401Y29660D01*
X9062Y29218D01*
X9843Y29063D01*
X10623Y29218D01*
X11284Y29660D01*
X11727Y30322D01*
X11882Y31102D01*
X11727Y31883D01*
X11284Y32544D01*
X10623Y32986D01*
X9843Y33141D01*
X9291Y33032D01*
X9167Y33654D01*
X8725Y34316D01*
X8064Y34758D01*
X7283Y34913D01*
D02*
G37*
G36*
X27953Y33535D02*
X27172Y33380D01*
X26511Y32938D01*
X26069Y32276D01*
X25914Y31496D01*
X26069Y30716D01*
X26402Y30217D01*
X26069Y29717D01*
X25914Y28937D01*
X26069Y28157D01*
X26511Y27495D01*
X27172Y27053D01*
X27953Y26898D01*
X28733Y27053D01*
X29395Y27495D01*
X29837Y28157D01*
X29992Y28937D01*
X29837Y29717D01*
X29503Y30217D01*
X29837Y30716D01*
X29992Y31496D01*
X29837Y32276D01*
X29395Y32938D01*
X28733Y33380D01*
X27953Y33535D01*
D02*
G37*
G36*
X12561Y23288D02*
Y12561D01*
X23288D01*
X23205Y13616D01*
X22782Y15376D01*
X22089Y17048D01*
X21144Y18591D01*
X19968Y19968D01*
X18591Y21144D01*
X17048Y22089D01*
X15376Y22782D01*
X13616Y23205D01*
X12561Y23288D01*
D02*
G37*
G36*
X58661Y17197D02*
X57881Y17041D01*
X57219Y16599D01*
X56778Y15938D01*
X56622Y15157D01*
X56778Y14377D01*
X57219Y13716D01*
X57881Y13273D01*
X58661Y13118D01*
X58738Y13134D01*
X59223Y12784D01*
X59337Y12212D01*
X59778Y11550D01*
X60440Y11108D01*
X61221Y10953D01*
X61298Y10968D01*
X61794Y10557D01*
X61896Y10046D01*
X62338Y9385D01*
X62999Y8943D01*
X63779Y8788D01*
X64560Y8943D01*
X65222Y9385D01*
X65663Y10046D01*
X65819Y10827D01*
X65663Y11607D01*
X65222Y12269D01*
X64560Y12711D01*
X63779Y12866D01*
X63702Y12851D01*
X63206Y13262D01*
X63104Y13772D01*
X62662Y14434D01*
X62001Y14876D01*
X61221Y15031D01*
X61143Y15016D01*
X60659Y15366D01*
X60545Y15938D01*
X60103Y16599D01*
X59442Y17041D01*
X58661Y17197D01*
D02*
G37*
G36*
X227756Y41016D02*
X226976Y40860D01*
X226314Y40418D01*
X225872Y39757D01*
X225717Y38976D01*
X225872Y38196D01*
X226205Y37697D01*
X225872Y37198D01*
X225717Y36417D01*
X225872Y35637D01*
X226314Y34975D01*
X226976Y34533D01*
X227756Y34378D01*
X228536Y34533D01*
X229198Y34975D01*
X229640Y35637D01*
X229795Y36417D01*
X229640Y37198D01*
X229306Y37697D01*
X229640Y38196D01*
X229795Y38976D01*
X229640Y39757D01*
X229198Y40418D01*
X228536Y40860D01*
X227756Y41016D01*
D02*
G37*
G36*
X223228Y144165D02*
X222448Y144010D01*
X221786Y143568D01*
X221344Y142906D01*
X221189Y142126D01*
X221344Y141346D01*
X221786Y140684D01*
X222448Y140242D01*
X223228Y140087D01*
X224009Y140242D01*
X224670Y140684D01*
X225112Y141346D01*
X225268Y142126D01*
X225112Y142906D01*
X224670Y143568D01*
X224009Y144010D01*
X223228Y144165D01*
D02*
G37*
G36*
X229509Y130939D02*
X228729Y130784D01*
X228067Y130342D01*
X227625Y129680D01*
X227470Y128900D01*
X227625Y128120D01*
X228067Y127458D01*
X228183Y127381D01*
X228116Y127280D01*
X227961Y126500D01*
X228116Y125720D01*
X228430Y125250D01*
X228116Y124780D01*
X227961Y124000D01*
X228116Y123220D01*
X228457Y122709D01*
X228058Y122442D01*
X227616Y121780D01*
X227461Y121000D01*
X227616Y120220D01*
X227930Y119750D01*
X227616Y119280D01*
X227461Y118500D01*
X227616Y117720D01*
X228058Y117058D01*
X228720Y116616D01*
X229500Y116461D01*
X230280Y116616D01*
X230942Y117058D01*
X231384Y117720D01*
X231539Y118500D01*
X231384Y119280D01*
X231070Y119750D01*
X231384Y120220D01*
X231539Y121000D01*
X231384Y121780D01*
X231043Y122291D01*
X231442Y122558D01*
X231884Y123220D01*
X232039Y124000D01*
X231884Y124780D01*
X231570Y125250D01*
X231884Y125720D01*
X232039Y126500D01*
X231884Y127280D01*
X231442Y127942D01*
X231326Y128019D01*
X231393Y128120D01*
X231548Y128900D01*
X231393Y129680D01*
X230951Y130342D01*
X230289Y130784D01*
X229509Y130939D01*
D02*
G37*
G36*
X229000Y115539D02*
X228220Y115384D01*
X227558Y114942D01*
X227116Y114280D01*
X226961Y113500D01*
X227116Y112720D01*
X227513Y112125D01*
X227216Y111680D01*
X227061Y110900D01*
X227216Y110120D01*
X227426Y109806D01*
X227320Y109134D01*
X226878Y108473D01*
X226723Y107692D01*
X226878Y106912D01*
X227320Y106250D01*
X227982Y105808D01*
X228762Y105653D01*
X229543Y105808D01*
X230204Y106250D01*
X230646Y106912D01*
X230801Y107692D01*
X231242Y108039D01*
X231523Y107984D01*
X232303Y108139D01*
X232965Y108581D01*
X233407Y109242D01*
X233562Y110023D01*
X233407Y110803D01*
X232965Y111465D01*
X232303Y111907D01*
X231523Y112062D01*
X230920Y111942D01*
X230642Y112358D01*
X230884Y112720D01*
X231039Y113500D01*
X230884Y114280D01*
X230442Y114942D01*
X229780Y115384D01*
X229000Y115539D01*
D02*
G37*
G36*
X257874Y108535D02*
X257094Y108380D01*
X256664Y108093D01*
X256299Y107979D01*
X255934Y108093D01*
X255505Y108380D01*
X254724Y108535D01*
X253944Y108380D01*
X253282Y107938D01*
X252840Y107276D01*
X252685Y106496D01*
X252840Y105716D01*
X253282Y105054D01*
X253944Y104612D01*
X254724Y104457D01*
X255505Y104612D01*
X256166Y105054D01*
X256432D01*
X257094Y104612D01*
X257874Y104457D01*
X258654Y104612D01*
X259316Y105054D01*
X259758Y105716D01*
X259913Y106496D01*
X259758Y107276D01*
X259316Y107938D01*
X258654Y108380D01*
X257874Y108535D01*
D02*
G37*
G36*
X254921Y103023D02*
X254141Y102868D01*
X253479Y102426D01*
X253037Y101765D01*
X252882Y100984D01*
X253037Y100204D01*
X253479Y99542D01*
X254141Y99100D01*
X254921Y98945D01*
X255129Y98986D01*
X255482Y98633D01*
X255441Y98425D01*
X255596Y97645D01*
X256038Y96983D01*
X256700Y96541D01*
X257480Y96386D01*
X258261Y96541D01*
X258922Y96983D01*
X259364Y97645D01*
X259520Y98425D01*
X259364Y99206D01*
X258922Y99867D01*
X258261Y100309D01*
X257480Y100464D01*
X257273Y100423D01*
X256919Y100777D01*
X256960Y100984D01*
X256805Y101765D01*
X256363Y102426D01*
X255702Y102868D01*
X254921Y103023D01*
D02*
G37*
G36*
X230500Y104039D02*
X229720Y103884D01*
X229058Y103442D01*
X228616Y102780D01*
X228461Y102000D01*
X228616Y101220D01*
X228930Y100750D01*
X228616Y100280D01*
X228461Y99500D01*
X228616Y98720D01*
X229058Y98058D01*
X229170Y97983D01*
X229064Y97452D01*
X228720Y97384D01*
X228058Y96942D01*
X227616Y96280D01*
X227461Y95500D01*
X227616Y94720D01*
X228058Y94058D01*
X228145Y94000D01*
Y93500D01*
X228058Y93442D01*
X227616Y92780D01*
X227461Y92000D01*
X227616Y91220D01*
X228058Y90558D01*
X228720Y90116D01*
X229500Y89961D01*
X230280Y90116D01*
X230942Y90558D01*
X231384Y91220D01*
X231539Y92000D01*
X231384Y92780D01*
X230942Y93442D01*
X230855Y93500D01*
Y94000D01*
X230942Y94058D01*
X231384Y94720D01*
X231539Y95500D01*
X231384Y96280D01*
X230942Y96942D01*
X230830Y97017D01*
X230936Y97548D01*
X231280Y97616D01*
X231942Y98058D01*
X232384Y98720D01*
X232539Y99500D01*
X232384Y100280D01*
X232070Y100750D01*
X232384Y101220D01*
X232539Y102000D01*
X232384Y102780D01*
X231942Y103442D01*
X231280Y103884D01*
X230500Y104039D01*
D02*
G37*
G36*
X231693Y83141D02*
X230913Y82986D01*
X230251Y82544D01*
X229809Y81883D01*
X229654Y81102D01*
X229809Y80322D01*
X230251Y79660D01*
X230913Y79218D01*
X231693Y79063D01*
X232473Y79218D01*
X233135Y79660D01*
X233577Y80322D01*
X233732Y81102D01*
X233577Y81883D01*
X233135Y82544D01*
X232473Y82986D01*
X231693Y83141D01*
D02*
G37*
G36*
X230000Y66539D02*
X229220Y66384D01*
X228558Y65942D01*
X228116Y65280D01*
X227961Y64500D01*
X228116Y63720D01*
X228558Y63058D01*
X229220Y62616D01*
X230000Y62461D01*
X230780Y62616D01*
X231442Y63058D01*
X231884Y63720D01*
X232039Y64500D01*
X231884Y65280D01*
X231442Y65942D01*
X230780Y66384D01*
X230000Y66539D01*
D02*
G37*
G36*
X182283Y37472D02*
X181503Y37317D01*
X180842Y36875D01*
X180400Y36213D01*
X180244Y35433D01*
X180400Y34653D01*
X180842Y33991D01*
X181503Y33549D01*
X182283Y33394D01*
X183064Y33549D01*
X183725Y33991D01*
X184167Y34653D01*
X184323Y35433D01*
X184167Y36213D01*
X183725Y36875D01*
X183064Y37317D01*
X182283Y37472D01*
D02*
G37*
G36*
X175787D02*
X175007Y37317D01*
X174346Y36875D01*
X173903Y36213D01*
X173748Y35433D01*
X173903Y34653D01*
X174346Y33991D01*
X175007Y33549D01*
X175787Y33394D01*
X176568Y33549D01*
X177229Y33991D01*
X177671Y34653D01*
X177827Y35433D01*
X177671Y36213D01*
X177229Y36875D01*
X176568Y37317D01*
X175787Y37472D01*
D02*
G37*
G36*
X169291D02*
X168511Y37317D01*
X167849Y36875D01*
X167407Y36213D01*
X167252Y35433D01*
X167407Y34653D01*
X167849Y33991D01*
X168511Y33549D01*
X169291Y33394D01*
X170072Y33549D01*
X170733Y33991D01*
X171175Y34653D01*
X171330Y35433D01*
X171175Y36213D01*
X170733Y36875D01*
X170072Y37317D01*
X169291Y37472D01*
D02*
G37*
G36*
X196653Y31173D02*
X195873Y31018D01*
X195212Y30576D01*
X194770Y29914D01*
X194614Y29134D01*
X194770Y28354D01*
X195212Y27692D01*
X195873Y27250D01*
X196653Y27095D01*
X197434Y27250D01*
X198096Y27692D01*
X198538Y28354D01*
X198693Y29134D01*
X198538Y29914D01*
X198096Y30576D01*
X197434Y31018D01*
X196653Y31173D01*
D02*
G37*
G36*
X271457Y70346D02*
X270676Y70191D01*
X270015Y69749D01*
X269573Y69087D01*
X269418Y68307D01*
X269573Y67527D01*
X270015Y66865D01*
X270676Y66423D01*
X271457Y66268D01*
X272237Y66423D01*
X272899Y66865D01*
X273341Y67527D01*
X273496Y68307D01*
X273341Y69087D01*
X272899Y69749D01*
X272237Y70191D01*
X271457Y70346D01*
D02*
G37*
G36*
X272047Y65819D02*
X271267Y65663D01*
X270605Y65222D01*
X270163Y64560D01*
X270008Y63779D01*
X270163Y62999D01*
X270605Y62338D01*
X271267Y61896D01*
X272047Y61740D01*
X272828Y61896D01*
X273489Y62338D01*
X273931Y62999D01*
X274086Y63779D01*
X273931Y64560D01*
X273489Y65222D01*
X272828Y65663D01*
X272047Y65819D01*
D02*
G37*
%LPD*%
D17*
X1029716Y-320444D02*
X1031382Y-318778D01*
X1034714D01*
X1036380Y-320444D01*
Y-327109D01*
X1034714Y-328775D01*
X1031382D01*
X1029716Y-327109D01*
Y-320444D01*
X1039713Y-327109D02*
X1041379Y-328775D01*
X1044711D01*
X1046377Y-327109D01*
Y-320444D01*
X1044711Y-318778D01*
X1041379D01*
X1039713Y-320444D01*
Y-322110D01*
X1041379Y-323776D01*
X1046377D01*
X1049709Y-328775D02*
Y-327109D01*
X1051375D01*
Y-328775D01*
X1049709D01*
X1058040Y-320444D02*
X1059706Y-318778D01*
X1063038D01*
X1064704Y-320444D01*
Y-327109D01*
X1063038Y-328775D01*
X1059706D01*
X1058040Y-327109D01*
Y-320444D01*
X1074701Y-318778D02*
X1071369Y-320444D01*
X1068037Y-323776D01*
Y-327109D01*
X1069703Y-328775D01*
X1073035D01*
X1074701Y-327109D01*
Y-325443D01*
X1073035Y-323776D01*
X1068037D01*
X1078034Y-328775D02*
Y-327109D01*
X1079700D01*
Y-328775D01*
X1078034D01*
X1093029D02*
X1086364D01*
X1093029Y-322110D01*
Y-320444D01*
X1091362Y-318778D01*
X1088030D01*
X1086364Y-320444D01*
X1096361D02*
X1098027Y-318778D01*
X1101359D01*
X1103025Y-320444D01*
Y-327109D01*
X1101359Y-328775D01*
X1098027D01*
X1096361Y-327109D01*
Y-320444D01*
X1113022Y-328775D02*
X1106358D01*
X1113022Y-322110D01*
Y-320444D01*
X1111356Y-318778D01*
X1108024D01*
X1106358Y-320444D01*
X1116354D02*
X1118021Y-318778D01*
X1121353D01*
X1123019Y-320444D01*
Y-327109D01*
X1121353Y-328775D01*
X1118021D01*
X1116354Y-327109D01*
Y-320444D01*
X974816Y-282875D02*
Y-272878D01*
X978148Y-276210D01*
X981480Y-272878D01*
Y-282875D01*
X984813D02*
Y-272878D01*
X988145Y-276210D01*
X991477Y-272878D01*
Y-282875D01*
X994809Y-272878D02*
Y-282875D01*
X999808D01*
X1001474Y-281209D01*
Y-279542D01*
X999808Y-277876D01*
X994809D01*
X999808D01*
X1001474Y-276210D01*
Y-274544D01*
X999808Y-272878D01*
X994809D01*
X1004806Y-284541D02*
X1011471D01*
X1021467Y-274544D02*
X1019801Y-272878D01*
X1016469D01*
X1014803Y-274544D01*
Y-281209D01*
X1016469Y-282875D01*
X1019801D01*
X1021467Y-281209D01*
X1026466Y-282875D02*
X1029798D01*
X1031464Y-281209D01*
Y-277876D01*
X1029798Y-276210D01*
X1026466D01*
X1024800Y-277876D01*
Y-281209D01*
X1026466Y-282875D01*
X1034796D02*
Y-276210D01*
X1039795D01*
X1041461Y-277876D01*
Y-282875D01*
X1046459Y-274544D02*
Y-276210D01*
X1044793D01*
X1048125D01*
X1046459D01*
Y-281209D01*
X1048125Y-282875D01*
X1053124Y-276210D02*
Y-282875D01*
Y-279542D01*
X1054790Y-277876D01*
X1056456Y-276210D01*
X1058122D01*
X1064787Y-282875D02*
X1068119D01*
X1069785Y-281209D01*
Y-277876D01*
X1068119Y-276210D01*
X1064787D01*
X1063121Y-277876D01*
Y-281209D01*
X1064787Y-282875D01*
X1073117D02*
X1076450D01*
X1074784D01*
Y-272878D01*
X1073117D01*
X1081448Y-282875D02*
X1084780D01*
X1083114D01*
Y-272878D01*
X1081448D01*
X1094777Y-282875D02*
X1091445D01*
X1089779Y-281209D01*
Y-277876D01*
X1091445Y-276210D01*
X1094777D01*
X1096443Y-277876D01*
Y-279542D01*
X1089779D01*
X1099775Y-276210D02*
Y-282875D01*
Y-279542D01*
X1101441Y-277876D01*
X1103108Y-276210D01*
X1104774D01*
X1109772Y-284541D02*
X1116437D01*
X1119769Y-272878D02*
Y-282875D01*
X1124767D01*
X1126433Y-281209D01*
Y-279542D01*
X1124767Y-277876D01*
X1119769D01*
X1124767D01*
X1126433Y-276210D01*
Y-274544D01*
X1124767Y-272878D01*
X1119769D01*
X1131432Y-282875D02*
X1134764D01*
X1136430Y-281209D01*
Y-277876D01*
X1134764Y-276210D01*
X1131432D01*
X1129766Y-277876D01*
Y-281209D01*
X1131432Y-282875D01*
X1141429Y-276210D02*
X1144761D01*
X1146427Y-277876D01*
Y-282875D01*
X1141429D01*
X1139762Y-281209D01*
X1141429Y-279542D01*
X1146427D01*
X1149759Y-276210D02*
Y-282875D01*
Y-279542D01*
X1151425Y-277876D01*
X1153092Y-276210D01*
X1154758D01*
X1166420Y-272878D02*
Y-282875D01*
X1161422D01*
X1159756Y-281209D01*
Y-277876D01*
X1161422Y-276210D01*
X1166420D01*
X1169753Y-282875D02*
Y-281209D01*
X1171419D01*
Y-282875D01*
X1169753D01*
X1178083Y-286207D02*
Y-276210D01*
X1183082D01*
X1184748Y-277876D01*
Y-281209D01*
X1183082Y-282875D01*
X1178083D01*
X1194745Y-276210D02*
X1189746D01*
X1188080Y-277876D01*
Y-281209D01*
X1189746Y-282875D01*
X1194745D01*
X1198077Y-272878D02*
Y-282875D01*
X1203075D01*
X1204741Y-281209D01*
Y-279542D01*
Y-277876D01*
X1203075Y-276210D01*
X1198077D01*
X1214738Y-272878D02*
Y-282875D01*
X1209740D01*
X1208074Y-281209D01*
Y-277876D01*
X1209740Y-276210D01*
X1214738D01*
X1219737Y-282875D02*
X1223069D01*
X1224735Y-281209D01*
Y-277876D01*
X1223069Y-276210D01*
X1219737D01*
X1218071Y-277876D01*
Y-281209D01*
X1219737Y-282875D01*
X1234732Y-276210D02*
X1229733D01*
X1228067Y-277876D01*
Y-281209D01*
X1229733Y-282875D01*
X1234732D01*
D110*
X324370Y166890D02*
D03*
X324370Y146890D02*
D03*
X304370Y146890D02*
D03*
X304370Y166890D02*
D03*
X324567Y50354D02*
D03*
X324567Y30354D02*
D03*
X304567Y30354D02*
D03*
X304567Y50354D02*
D03*
D111*
X322835Y11811D02*
D03*
X11811Y185039D02*
D03*
Y11811D02*
D03*
X322835Y185039D02*
D03*
D112*
X132874Y43504D02*
D03*
X133071Y153543D02*
D03*
D113*
X116929Y107087D02*
D03*
Y127087D02*
D03*
D114*
X177362Y64173D02*
D03*
X314118Y124197D02*
D03*
X320220D02*
D03*
X288500Y81000D02*
D03*
X213779Y103937D02*
D03*
X176378Y133071D02*
D03*
X148622D02*
D03*
X147441Y101378D02*
D03*
X148630Y62559D02*
D03*
X217000Y63500D02*
D03*
X147835Y76772D02*
D03*
X193701Y63779D02*
D03*
X217126Y107283D02*
D03*
X146630Y106059D02*
D03*
X154331Y133071D02*
D03*
X215748Y128740D02*
D03*
X217126Y132874D02*
D03*
X192913Y133465D02*
D03*
X151772Y64370D02*
D03*
X173622Y64173D02*
D03*
X197047Y65354D02*
D03*
X216929Y87205D02*
D03*
X212205Y86614D02*
D03*
X196063Y133465D02*
D03*
X170866Y133071D02*
D03*
X87130Y124559D02*
D03*
X102630Y72059D02*
D03*
X86130Y99059D02*
D03*
X85630Y110559D02*
D03*
X102630Y63559D02*
D03*
X198031Y117323D02*
D03*
X214173Y120472D02*
D03*
X220472Y25197D02*
D03*
X201969D02*
D03*
Y27953D02*
D03*
X224803Y28937D02*
D03*
X223228Y183858D02*
D03*
X222835Y175984D02*
D03*
X203937Y179134D02*
D03*
X205512Y164961D02*
D03*
X148031Y168307D02*
D03*
X129921Y174016D02*
D03*
X142520Y192520D02*
D03*
X175591Y191535D02*
D03*
X137205Y182874D02*
D03*
X150000Y153500D02*
D03*
X162008Y158465D02*
D03*
X197244Y74508D02*
D03*
X210630Y96850D02*
D03*
X203543Y133465D02*
D03*
X157087Y103937D02*
D03*
X157874Y81102D02*
D03*
X175197Y77953D02*
D03*
X283000Y4500D02*
D03*
X268500D02*
D03*
X164173Y68898D02*
D03*
X213779Y76772D02*
D03*
X111417Y44882D02*
D03*
X112992Y38976D02*
D03*
X131102Y60236D02*
D03*
X144882Y54724D02*
D03*
X105118Y159449D02*
D03*
X98425Y164961D02*
D03*
X106299Y24409D02*
D03*
X281496Y26772D02*
D03*
X264173Y23622D02*
D03*
X219685Y192126D02*
D03*
X170079Y172047D02*
D03*
X194488Y158661D02*
D03*
X169291Y159843D02*
D03*
X161024Y179921D02*
D03*
X68626Y160780D02*
D03*
X85433Y146457D02*
D03*
X30315D02*
D03*
X40945Y151181D02*
D03*
X6299Y141929D02*
D03*
X154724Y177559D02*
D03*
X9843Y107874D02*
D03*
X10630Y111417D02*
D03*
X34252Y78347D02*
D03*
X161614Y168307D02*
D03*
X158071Y176969D02*
D03*
X230500Y86500D02*
D03*
X4331Y75984D02*
D03*
Y79921D02*
D03*
Y72047D02*
D03*
X11811Y55512D02*
D03*
X159055Y192717D02*
D03*
X254330Y133464D02*
D03*
X4921Y97638D02*
D03*
X208000Y4500D02*
D03*
X31630Y52059D02*
D03*
X34252Y65354D02*
D03*
X49000Y43500D02*
D03*
X269500Y51000D02*
D03*
X236000Y55500D02*
D03*
X238500D02*
D03*
X258000Y70000D02*
D03*
X37402Y78347D02*
D03*
X53126Y80539D02*
D03*
X71653Y46654D02*
D03*
X170500Y4500D02*
D03*
X164500D02*
D03*
X140000Y5000D02*
D03*
X144000D02*
D03*
X218000Y4500D02*
D03*
X230500D02*
D03*
X259500D02*
D03*
X52653Y103791D02*
D03*
X53653Y95791D02*
D03*
X57653Y60291D02*
D03*
X71260Y49409D02*
D03*
X231823Y116808D02*
D03*
X231500Y133000D02*
D03*
X273500Y90500D02*
D03*
X227756Y41535D02*
D03*
X258268Y101575D02*
D03*
X251500Y58500D02*
D03*
X11811Y51181D02*
D03*
X108500Y184000D02*
D03*
X220630Y161559D02*
D03*
X232630Y183559D02*
D03*
X251630Y185559D02*
D03*
X284630Y190059D02*
D03*
X6027Y123252D02*
D03*
X67126Y133539D02*
D03*
Y123539D02*
D03*
X52653Y108291D02*
D03*
X293027Y43252D02*
D03*
X271527Y59252D02*
D03*
X160500Y24500D02*
D03*
Y38000D02*
D03*
X311000Y113500D02*
D03*
X208000Y12500D02*
D03*
X317268Y124197D02*
D03*
X213000Y21000D02*
D03*
X257677Y77362D02*
D03*
X182874Y18701D02*
D03*
X129724Y73819D02*
D03*
X257000Y119000D02*
D03*
X258071Y133268D02*
D03*
X24409Y172047D02*
D03*
Y177559D02*
D03*
X193000Y4500D02*
D03*
X186500D02*
D03*
X182874Y15748D02*
D03*
X130000Y9000D02*
D03*
X288500Y83500D02*
D03*
X288527Y86252D02*
D03*
X314118Y129905D02*
D03*
X212500Y192000D02*
D03*
X271654Y123425D02*
D03*
X301000Y185500D02*
D03*
X257527Y138252D02*
D03*
X11024Y84449D02*
D03*
X182874Y22244D02*
D03*
X206693Y44291D02*
D03*
X284252Y166929D02*
D03*
X241929Y152559D02*
D03*
X94094Y26378D02*
D03*
X271654Y119685D02*
D03*
X289370Y176772D02*
D03*
X111024Y61614D02*
D03*
X271850Y37992D02*
D03*
X263386Y148031D02*
D03*
X55905Y3740D02*
D03*
X51575Y34449D02*
D03*
X26378Y3937D02*
D03*
X36220Y6102D02*
D03*
X46063Y3740D02*
D03*
X21260Y193110D02*
D03*
X42520Y177559D02*
D03*
Y172047D02*
D03*
X21457D02*
D03*
X36417Y188386D02*
D03*
X30906Y165551D02*
D03*
X226969Y192126D02*
D03*
X200984Y189370D02*
D03*
X172244Y187205D02*
D03*
X276772Y23425D02*
D03*
X117126Y173819D02*
D03*
X93504Y20669D02*
D03*
D124*
X175500Y195000D02*
X175591Y194909D01*
X116929Y107087D02*
X117016Y107000D01*
X116929Y107087D02*
X118587D01*
X217000Y150000D02*
X217126Y149874D01*
D125*
X177362Y41862D02*
Y64173D01*
X177000Y41500D02*
X177362Y41862D01*
X217132Y131122D02*
Y132868D01*
Y131122D02*
X219266Y128988D01*
Y118650D02*
Y128988D01*
X217126Y132874D02*
X217132Y132868D01*
X217126Y116510D02*
X219266Y118650D01*
X281500Y26772D02*
X281500Y156500D01*
X281500Y26772D02*
Y26772D01*
X131299Y60236D02*
X135331D01*
X131102D02*
X131299D01*
X131000D02*
X131102D01*
X131299D02*
X147835Y76772D01*
X214000Y22096D02*
X220841Y28937D01*
X224803D01*
X258000Y138500D02*
X264248D01*
X268500D01*
X214000Y22000D02*
Y22096D01*
X117016Y107000D02*
X141819D01*
X204500Y35996D02*
Y41500D01*
X201969Y33465D02*
X204500Y35996D01*
X201969Y27953D02*
Y33465D01*
X207866Y163943D02*
X235429D01*
X257384Y141988D01*
Y140352D02*
Y141988D01*
Y140352D02*
X257521Y140215D01*
Y138258D02*
Y140215D01*
Y138258D02*
X257527Y138252D01*
X172882Y162576D02*
X206499D01*
X161443Y174016D02*
X172882Y162576D01*
X206499D02*
X207866Y163943D01*
X277500Y165000D02*
X289500Y177000D01*
X265500Y23500D02*
Y46996D01*
X182880Y18695D02*
Y22238D01*
X94108Y26392D02*
X104752Y15748D01*
X129921Y174016D02*
X161443D01*
X117323D02*
X129921D01*
X117126Y173819D02*
X117323Y174016D01*
X162598Y195000D02*
X175500D01*
X160143D02*
X162598D01*
Y189764D02*
Y195000D01*
X161024Y188189D02*
X162598Y189764D01*
X161024Y179921D02*
Y188189D01*
X97000Y195101D02*
X160043D01*
X192913Y133465D02*
Y147413D01*
X170866Y133071D02*
Y133465D01*
X173500Y136098D01*
X217000Y63500D02*
Y74652D01*
Y51227D02*
Y63500D01*
X217345Y74997D02*
Y86655D01*
X217000Y74652D02*
X217345Y74997D01*
X217000Y87000D02*
X217345Y86655D01*
X192913Y147413D02*
X195500Y150000D01*
X111417Y44417D02*
Y44882D01*
X94000Y27000D02*
X111417Y44417D01*
X94000Y26500D02*
Y27000D01*
X135331Y60236D02*
X151772Y43796D01*
X141819Y107000D02*
X147319Y101500D01*
X214000Y22000D02*
X262543D01*
X264165Y23622D01*
X264173D01*
X97000Y166386D02*
Y195101D01*
Y166386D02*
X98425Y164961D01*
X115965Y164151D02*
X116617Y163500D01*
X114957Y164151D02*
X115965D01*
X114148Y164961D02*
X114957Y164151D01*
X98425Y164961D02*
X114148D01*
X281496Y20225D02*
Y26772D01*
X275771Y14500D02*
X281496Y20225D01*
X223228Y195000D02*
X298000D01*
X175500D02*
X223228D01*
Y183858D02*
Y195000D01*
X256719Y115500D02*
X267500D01*
X174634Y154500D02*
X217966D01*
X169291Y159843D02*
X174634Y154500D01*
X160043Y195101D02*
X160143Y195000D01*
X298000D02*
X308185Y184815D01*
Y183185D02*
Y184815D01*
X281500Y156500D02*
X308185Y183185D01*
X85433Y146457D02*
X86543D01*
X30315D02*
X85433D01*
X2500Y118000D02*
X9077Y111423D01*
X10624D01*
X10630Y111417D01*
X86543Y146457D02*
X104500Y128500D01*
X28986Y146457D02*
X30315D01*
X22758Y152685D02*
X28986Y146457D01*
X13683Y152685D02*
X22758D01*
X2500Y141502D02*
X13683Y152685D01*
X2500Y118000D02*
Y141502D01*
X217126Y107283D02*
Y116510D01*
X11000Y84500D02*
X13014Y86514D01*
Y94688D01*
X7852Y99851D02*
X13014Y94688D01*
X7852Y99851D02*
Y105875D01*
X9843Y107866D01*
Y107874D01*
X297000Y15128D02*
Y71000D01*
X283988Y2116D02*
X297000Y15128D01*
X65207Y2116D02*
X283988D01*
X11811Y55512D02*
X65207Y2116D01*
X158071Y176969D02*
X161024Y179921D01*
Y179921D01*
X285500Y14500D02*
Y107500D01*
X280000Y9000D02*
X285500Y14500D01*
X130000Y9000D02*
X280000D01*
X49000Y43500D02*
X83500Y9000D01*
X34252Y58248D02*
X49000Y43500D01*
X34252Y58248D02*
Y65354D01*
X83500Y9000D02*
X130000D01*
X210500Y21000D02*
X213000D01*
X206210Y16710D02*
X210500Y21000D01*
X188290Y16710D02*
X206210D01*
X258000Y65500D02*
X269500Y54000D01*
Y51000D02*
Y54000D01*
Y50996D02*
Y51000D01*
X265500Y46996D02*
X269500Y50996D01*
X243213Y50787D02*
X269213D01*
X238500Y55500D02*
X243213Y50787D01*
X236000Y55500D02*
X238500D01*
X258000Y65500D02*
Y70000D01*
X261500Y73500D01*
X272000D01*
X277500Y79000D01*
X116617Y163500D02*
X121617Y168500D01*
X150000Y149500D02*
Y153500D01*
Y134668D02*
Y149500D01*
X134500Y134000D02*
X150000Y149500D01*
X149000Y133668D02*
X150000Y134668D01*
Y153500D02*
X150240D01*
X153740Y150000D01*
X150000Y153500D02*
Y158000D01*
X139500Y168500D02*
X150000Y158000D01*
X121617Y168500D02*
X139500D01*
X186380Y18620D02*
X188290Y16710D01*
X182880Y18620D02*
X186380D01*
X210000Y14500D02*
X275771D01*
X208000Y12500D02*
X210000Y14500D01*
X71254Y49403D02*
X71260Y49409D01*
X277500Y79000D02*
Y125000D01*
X264248Y138252D02*
X277500Y125000D01*
X250153Y93500D02*
X261847D01*
X249000Y92347D02*
X250153Y93500D01*
X249000Y73500D02*
Y92347D01*
X62500Y42500D02*
X78594Y26406D01*
X47000Y58000D02*
X62500Y42500D01*
X69403Y49403D01*
X71254D01*
X217966Y154500D02*
X248000Y124466D01*
X285500Y107500D02*
X291500Y113500D01*
X311000D01*
X217000Y87500D02*
X217126Y107283D01*
X294752Y86252D02*
X324500Y116000D01*
Y128500D01*
X323079Y129921D02*
X324500Y128500D01*
X313976Y129921D02*
X323079D01*
X288527Y86252D02*
X294752D01*
X288500D02*
X288527D01*
X213000Y21000D02*
X214000Y22000D01*
X93906Y26406D02*
X93933Y26378D01*
X94094D01*
X78594Y26406D02*
X93906D01*
X18327Y108660D02*
X47000Y79987D01*
Y58000D02*
Y79987D01*
X18327Y108660D02*
Y140000D01*
X210500Y35000D02*
X249000Y73500D01*
X210500Y27000D02*
Y35000D01*
X205000Y21500D02*
X210500Y27000D01*
X191500Y26000D02*
X196000Y21500D01*
X179500Y26000D02*
X191500D01*
X174500Y21000D02*
X179500Y26000D01*
X196000Y21500D02*
X205000D01*
X267500Y115500D02*
X271500Y119500D01*
X266673Y114673D02*
X267500Y115500D01*
X261847Y93500D02*
X266673Y98327D01*
Y114673D01*
X131500Y21000D02*
X174500D01*
X182874Y18701D02*
X182880Y18695D01*
X182874Y22244D02*
X182880Y22238D01*
X119305Y33195D02*
X131500Y21000D01*
X119305Y33195D02*
Y61195D01*
X104500Y76000D02*
X119305Y61195D01*
X207273Y41500D02*
X217000Y51227D01*
X204500Y41500D02*
X207273D01*
X104500Y76000D02*
Y128500D01*
X248000Y124219D02*
X256719Y115500D01*
X271648Y119691D02*
Y123353D01*
Y119691D02*
X271654Y119685D01*
X248000Y124219D02*
Y124466D01*
X257748Y138252D02*
X264248D01*
X24409Y177559D02*
X27559D01*
X28000Y178000D01*
Y193000D01*
X6299Y141929D02*
X16398D01*
X18327Y140000D01*
X288500Y83500D02*
Y86000D01*
Y81000D02*
Y83500D01*
Y79500D02*
Y81000D01*
Y79500D02*
X297000Y71000D01*
X197000Y41500D02*
X204500D01*
X177000D02*
X197000D01*
X197047Y41547D01*
Y65354D01*
X154067Y41500D02*
X177000D01*
X151772Y43796D02*
X154067Y41500D01*
X151772Y43796D02*
Y64370D01*
X298098Y185500D02*
X301000D01*
X268500Y138500D02*
X277500Y147500D01*
X153740Y150000D02*
X171000D01*
X104752Y15748D02*
X182874D01*
X289370Y176772D02*
X298098Y185500D01*
X277500Y147500D02*
Y165000D01*
X118587Y107087D02*
X122500Y111000D01*
X134500Y123000D02*
Y134000D01*
X122544Y111044D02*
X134500Y123000D01*
X171000Y150000D02*
X173500Y147500D01*
Y136098D02*
Y147500D01*
X217126Y132874D02*
Y149874D01*
X195500Y150000D02*
X217000D01*
X171000D02*
X195500D01*
X175591Y191535D02*
Y194909D01*
X30101Y195101D02*
X97000D01*
X28000Y193000D02*
X30101Y195101D01*
D126*
X160500Y24500D02*
Y38000D01*
M02*
