G04*
G04 #@! TF.GenerationSoftware,Altium Limited,Altium Designer,20.1.11 (218)*
G04*
G04 Layer_Color=15132400*
%FSLAX25Y25*%
%MOIN*%
G70*
G04*
G04 #@! TF.SameCoordinates,26502B99-587C-4767-892E-7210AEBADD4C*
G04*
G04*
G04 #@! TF.FilePolarity,Positive*
G04*
G01*
G75*
%ADD10C,0.02362*%
%ADD11C,0.00984*%
%ADD12C,0.01575*%
%ADD13C,0.01000*%
%ADD14C,0.00600*%
%ADD15C,0.00787*%
%ADD16C,0.00500*%
%ADD17C,0.01200*%
D10*
X150984Y130905D02*
G03*
X150984Y130905I-1181J0D01*
G01*
D11*
X141240Y135630D02*
G03*
X141240Y135630I-492J0D01*
G01*
X260906Y158661D02*
G03*
X260906Y158661I-492J0D01*
G01*
X158961Y191142D02*
G03*
X158961Y191142I-300J0D01*
G01*
X116240Y178543D02*
G03*
X116240Y178543I-492J0D01*
G01*
X98032Y30118D02*
G03*
X98032Y30118I-492J0D01*
G01*
X132794Y63249D02*
G03*
X132794Y63249I-492J0D01*
G01*
X85138Y55413D02*
G03*
X85138Y55413I-492J0D01*
G01*
X279134Y49016D02*
G03*
X279134Y49016I-492J0D01*
G01*
X272441Y66142D02*
G03*
X272441Y66142I-492J0D01*
G01*
X270079Y138386D02*
G03*
X270079Y138386I-492J0D01*
G01*
D12*
X253973Y141965D02*
G03*
X253973Y141965I-500J0D01*
G01*
X33441Y141817D02*
G03*
X33441Y141817I-500J0D01*
G01*
D13*
X85329Y152038D02*
G03*
X85329Y152038I-412J0D01*
G01*
X146874Y43504D02*
G03*
X146874Y43504I-14000J0D01*
G01*
X147071Y153543D02*
G03*
X147071Y153543I-14000J0D01*
G01*
D14*
X152072Y164646D02*
G03*
X152072Y164646I-300J0D01*
G01*
X326772Y73740D02*
Y75073D01*
Y74407D01*
X322773D01*
X323439Y73740D01*
X299606Y74831D02*
Y72165D01*
X296940Y74831D01*
X296274D01*
X295608Y74165D01*
Y72832D01*
X296274Y72165D01*
X299606Y121929D02*
Y123262D01*
Y122596D01*
X295608D01*
X296274Y121929D01*
Y125261D02*
X295608Y125928D01*
Y127261D01*
X296274Y127927D01*
X298940D01*
X299606Y127261D01*
Y125928D01*
X298940Y125261D01*
X296274D01*
X326105Y121929D02*
X326772Y122596D01*
Y123928D01*
X326105Y124595D01*
X323439D01*
X322773Y123928D01*
Y122596D01*
X323439Y121929D01*
X324106D01*
X324772Y122596D01*
Y124595D01*
D15*
X329134Y58071D02*
Y75315D01*
X293701Y58071D02*
Y75315D01*
Y58071D02*
X329134D01*
X293701Y121535D02*
Y138779D01*
X329134Y121535D02*
Y138779D01*
X293701D02*
X329134D01*
D16*
X145866Y62008D02*
X218701D01*
X145866Y134843D02*
X218701D01*
Y62008D02*
Y134843D01*
X145866Y62008D02*
Y134843D01*
X120704Y28184D02*
X123391Y30871D01*
X260630Y165157D02*
X282283D01*
X260630Y179331D02*
X282283D01*
X260630Y165157D02*
Y179331D01*
X282283Y165157D02*
Y179331D01*
X159843Y180315D02*
Y189764D01*
X150394D02*
X159843D01*
X150394Y180315D02*
X159843D01*
X150394D02*
Y189764D01*
X231423Y58214D02*
X238474Y58215D01*
X238473Y52715D02*
X238474Y58215D01*
X238473Y52715D02*
X247474Y52715D01*
X247474Y58215D01*
X253724Y58215D01*
X253724Y138715D01*
X247474Y138715D02*
X253724Y138715D01*
X247474Y138715D02*
X247474Y144215D01*
X238474Y144215D02*
X247474Y144215D01*
X238474Y144215D02*
X238474Y138715D01*
X232224D02*
X238474D01*
X232223Y68214D02*
X232224Y138715D01*
X231423Y68215D02*
X232223Y68214D01*
X231423Y58214D02*
X231423Y68215D01*
X288626Y153937D02*
X295526D01*
X66142Y77037D02*
Y80837D01*
X102362Y172638D02*
X114567D01*
X102362Y175000D02*
X114567D01*
X102362Y172638D02*
Y175000D01*
X114567Y172638D02*
Y175000D01*
X55807Y193307D02*
X79626Y193307D01*
X55807Y151969D02*
X79626Y151969D01*
X55807Y151969D02*
Y193307D01*
X79626Y151969D02*
Y193307D01*
X160039Y166024D02*
Y166648D01*
X150591Y166024D02*
Y166648D01*
X160039Y174648D02*
Y175472D01*
X150591Y174648D02*
Y175472D01*
X158715D02*
X160039D01*
X158715Y166024D02*
X160039D01*
X150591Y175472D02*
X152415D01*
X150591Y166024D02*
X152415D01*
X260886Y128740D02*
X265886D01*
X3602Y115551D02*
X8602D01*
X3618Y104134D02*
X6618D01*
X40807Y71850D02*
X45807D01*
X34917D02*
X37917D01*
X34917Y58858D02*
X37917D01*
X3405Y53150D02*
X8405D01*
X3618Y64567D02*
X6618D01*
X239764Y145531D02*
Y150531D01*
X187657Y154528D02*
X192657D01*
X203618Y158465D02*
X206618D01*
X209311Y158071D02*
X214311D01*
X203618Y186417D02*
X206618D01*
X209311Y184055D02*
X214311D01*
X216988D02*
X221988D01*
X224665D02*
X229665D01*
X137795Y170941D02*
Y173941D01*
X155709Y155587D02*
Y158587D01*
X136689Y188976D02*
X139689D01*
X145350Y178740D02*
X148350D01*
X273303Y44488D02*
X276303D01*
X267595D02*
X270595D01*
X268579Y129921D02*
X271579D01*
X274484D02*
X277484D01*
X280390D02*
X283390D01*
X257752Y63189D02*
X260752D01*
X263657D02*
X266657D01*
X265035Y141339D02*
X268035D01*
X259524D02*
X262524D01*
X284724Y39220D02*
X287424D01*
X280118Y33465D02*
X283268D01*
X280118D02*
Y35039D01*
X288779Y33465D02*
X291929D01*
Y35039D01*
X10891Y58067D02*
X10891Y68067D01*
X11691Y68067D01*
X11691Y138567D01*
X17941D01*
X17941Y144067D02*
X17941Y138567D01*
X17941Y144067D02*
X26941Y144067D01*
X26941Y138567D02*
X26941Y144067D01*
X26941Y138567D02*
X33191Y138567D01*
X33191Y58067D02*
X33191Y138567D01*
X26941Y58067D02*
X33191Y58067D01*
X26941Y52567D02*
X26941Y58067D01*
X17941Y52567D02*
X26941Y52567D01*
X17941Y52567D02*
X17941Y58067D01*
X10891Y58067D02*
X17941Y58067D01*
X178150Y151181D02*
X178150Y151181D01*
X178150Y151181D02*
Y155118D01*
X196063Y156299D02*
X200000D01*
X200000Y156299D01*
X224016Y153150D02*
X224016Y153150D01*
X224016Y153150D02*
Y157087D01*
X126969Y192323D02*
X126969Y192323D01*
Y188386D02*
Y192323D01*
X34321Y153150D02*
X38120D01*
X93179Y181890D02*
X96979D01*
X97835Y152037D02*
Y155837D01*
X38651Y188583D02*
X42451D01*
X103937Y44360D02*
Y48160D01*
X102953Y50856D02*
Y54656D01*
X261486Y96850D02*
X265286D01*
X221457Y146132D02*
Y149932D01*
X167520Y189635D02*
Y193435D01*
X257720Y48622D02*
X264620D01*
X263386Y114242D02*
Y118042D01*
X262402Y108139D02*
Y111939D01*
X66142Y96525D02*
Y100325D01*
Y90029D02*
Y93829D01*
Y83533D02*
Y87333D01*
X67391Y69095D02*
X71191D01*
X60502Y66339D02*
X64302D01*
X56565Y52559D02*
X60365D01*
X49478D02*
X53278D01*
X94882Y131565D02*
Y135365D01*
Y124675D02*
Y128475D01*
Y117982D02*
Y121782D01*
Y111486D02*
Y115286D01*
Y104990D02*
Y108790D01*
X97835Y98494D02*
Y102294D01*
X98032Y91998D02*
Y95798D01*
Y85502D02*
Y89302D01*
X95669Y79005D02*
Y82806D01*
X93701Y72509D02*
Y76310D01*
X167194Y43307D02*
X170994D01*
X173887D02*
X177687D01*
X180384D02*
X184184D01*
X76575Y56565D02*
Y60365D01*
X112436Y24965D02*
X115123Y22279D01*
X81761Y29724D02*
X85561D01*
X88651D02*
X92451D01*
X98819Y35827D02*
X110630D01*
X98819Y33858D02*
X110630D01*
Y35827D01*
X98819Y33858D02*
Y35827D01*
X114833Y64014D02*
X119844Y69025D01*
X123463Y55384D02*
X128474Y60395D01*
X114833Y64014D02*
X123463Y55384D01*
X119844Y69025D02*
X128474Y60395D01*
X90354Y42323D02*
Y54134D01*
X88386Y42323D02*
Y54134D01*
Y42323D02*
X90354D01*
X88386Y54134D02*
X90354D01*
X279921Y52756D02*
Y54724D01*
X291732Y52756D02*
Y54724D01*
X279921Y52756D02*
X291732D01*
X279921Y54724D02*
X291732D01*
X273228Y71850D02*
X285039D01*
X273228Y69882D02*
X285039D01*
Y71850D01*
X273228Y69882D02*
Y71850D01*
X270866Y144095D02*
X282677D01*
X270866Y142126D02*
X282677D01*
Y144095D01*
X270866Y142126D02*
Y144095D01*
X92126Y66210D02*
Y70010D01*
X95443Y168074D02*
X94943Y168574D01*
X93943D01*
X93443Y168074D01*
Y166075D01*
X93943Y165575D01*
X94943D01*
X95443Y166075D01*
X97942Y165575D02*
Y168574D01*
X96442Y167074D01*
X98442D01*
X99441Y168074D02*
X99941Y168574D01*
X100941D01*
X101441Y168074D01*
Y166075D01*
X100941Y165575D01*
X99941D01*
X99441Y166075D01*
Y168074D01*
X115043Y55774D02*
X114543Y56274D01*
X113543D01*
X113043Y55774D01*
Y53775D01*
X113543Y53275D01*
X114543D01*
X115043Y53775D01*
X117542Y53275D02*
Y56274D01*
X116042Y54774D01*
X118042D01*
X121041Y56274D02*
X120041Y55774D01*
X119041Y54774D01*
Y53775D01*
X119541Y53275D01*
X120541D01*
X121041Y53775D01*
Y54274D01*
X120541Y54774D01*
X119041D01*
X135143Y68074D02*
X134643Y68574D01*
X133643D01*
X133143Y68074D01*
Y66075D01*
X133643Y65575D01*
X134643D01*
X135143Y66075D01*
X137642Y65575D02*
Y68574D01*
X136142Y67074D01*
X138142D01*
X141141Y68574D02*
X139141D01*
Y67074D01*
X140141Y67574D01*
X140641D01*
X141141Y67074D01*
Y66075D01*
X140641Y65575D01*
X139641D01*
X139141Y66075D01*
X101643Y32974D02*
X101143Y33474D01*
X100143D01*
X99643Y32974D01*
Y30975D01*
X100143Y30475D01*
X101143D01*
X101643Y30975D01*
X104142Y30475D02*
Y33474D01*
X102642Y31974D01*
X104642D01*
X105641Y32974D02*
X106141Y33474D01*
X107141D01*
X107641Y32974D01*
Y32474D01*
X107141Y31974D01*
X106641D01*
X107141D01*
X107641Y31475D01*
Y30975D01*
X107141Y30475D01*
X106141D01*
X105641Y30975D01*
X137144Y186996D02*
X136644Y187496D01*
X135644D01*
X135144Y186996D01*
Y184997D01*
X135644Y184497D01*
X136644D01*
X137144Y184997D01*
X138143Y184497D02*
X139143D01*
X138643D01*
Y187496D01*
X138143Y186996D01*
X140642D02*
X141142Y187496D01*
X142142D01*
X142642Y186996D01*
Y184997D01*
X142142Y184497D01*
X141142D01*
X140642Y184997D01*
Y186996D01*
X145641Y184497D02*
X143641D01*
X145641Y186496D01*
Y186996D01*
X145141Y187496D01*
X144141D01*
X143641Y186996D01*
X145700Y196200D02*
X145200Y196700D01*
X144201D01*
X143701Y196200D01*
Y194201D01*
X144201Y193701D01*
X145200D01*
X145700Y194201D01*
X146700Y193701D02*
X147699D01*
X147200D01*
Y196700D01*
X146700Y196200D01*
X149199D02*
X149699Y196700D01*
X150698D01*
X151198Y196200D01*
Y194201D01*
X150698Y193701D01*
X149699D01*
X149199Y194201D01*
Y196200D01*
X152198D02*
X152698Y196700D01*
X153698D01*
X154197Y196200D01*
Y194201D01*
X153698Y193701D01*
X152698D01*
X152198Y194201D01*
Y196200D01*
X152943Y170874D02*
X152443Y171374D01*
X151443D01*
X150943Y170874D01*
Y168875D01*
X151443Y168375D01*
X152443D01*
X152943Y168875D01*
X153942D02*
X154442Y168375D01*
X155442D01*
X155942Y168875D01*
Y170874D01*
X155442Y171374D01*
X154442D01*
X153942Y170874D01*
Y170374D01*
X154442Y169874D01*
X155942D01*
X156941Y170874D02*
X157441Y171374D01*
X158441D01*
X158941Y170874D01*
Y170374D01*
X158441Y169874D01*
X158941Y169375D01*
Y168875D01*
X158441Y168375D01*
X157441D01*
X156941Y168875D01*
Y169375D01*
X157441Y169874D01*
X156941Y170374D01*
Y170874D01*
X157441Y169874D02*
X158441D01*
X281133Y98956D02*
X280633Y99456D01*
X279634D01*
X279134Y98956D01*
Y96956D01*
X279634Y96457D01*
X280633D01*
X281133Y96956D01*
X282133Y96457D02*
X283133D01*
X282633D01*
Y99456D01*
X282133Y98956D01*
X286631Y96457D02*
X284632D01*
X286631Y98456D01*
Y98956D01*
X286132Y99456D01*
X285132D01*
X284632Y98956D01*
X73228Y77559D02*
Y80558D01*
X74728D01*
X75228Y80058D01*
Y79059D01*
X74728Y78559D01*
X73228D01*
X74228D02*
X75228Y77559D01*
X78227Y80558D02*
X76227D01*
Y79059D01*
X77227Y79558D01*
X77727D01*
X78227Y79059D01*
Y78059D01*
X77727Y77559D01*
X76727D01*
X76227Y78059D01*
X79226Y80058D02*
X79726Y80558D01*
X80726D01*
X81226Y80058D01*
Y79558D01*
X80726Y79059D01*
X80226D01*
X80726D01*
X81226Y78559D01*
Y78059D01*
X80726Y77559D01*
X79726D01*
X79226Y78059D01*
X99213Y66535D02*
Y69534D01*
X100712D01*
X101212Y69035D01*
Y68035D01*
X100712Y67535D01*
X99213D01*
X100212D02*
X101212Y66535D01*
X104211Y69534D02*
X103211Y69035D01*
X102212Y68035D01*
Y67035D01*
X102711Y66535D01*
X103711D01*
X104211Y67035D01*
Y67535D01*
X103711Y68035D01*
X102212D01*
X105211Y69035D02*
X105710Y69534D01*
X106710D01*
X107210Y69035D01*
Y68535D01*
X106710Y68035D01*
X107210Y67535D01*
Y67035D01*
X106710Y66535D01*
X105710D01*
X105211Y67035D01*
Y67535D01*
X105710Y68035D01*
X105211Y68535D01*
Y69035D01*
X105710Y68035D02*
X106710D01*
X310236Y140551D02*
Y143550D01*
X311736D01*
X312236Y143050D01*
Y142051D01*
X311736Y141551D01*
X310236D01*
X313235Y143550D02*
Y140551D01*
X314735D01*
X315235Y141051D01*
Y141551D01*
X314735Y142051D01*
X313235D01*
X314735D01*
X315235Y142551D01*
Y143050D01*
X314735Y143550D01*
X313235D01*
X316234Y140551D02*
Y142551D01*
X317234Y143550D01*
X318234Y142551D01*
Y140551D01*
Y142051D01*
X316234D01*
X161417Y179377D02*
Y176878D01*
X161917Y176378D01*
X162917D01*
X163417Y176878D01*
Y179377D01*
X164416Y176378D02*
X165416D01*
X164916D01*
Y179377D01*
X164416Y178877D01*
X166916Y176378D02*
X167915D01*
X167415D01*
Y179377D01*
X166916Y178877D01*
X283858Y138826D02*
Y136327D01*
X284358Y135827D01*
X285358D01*
X285858Y136327D01*
Y138826D01*
X286857Y135827D02*
X287857D01*
X287357D01*
Y138826D01*
X286857Y138326D01*
X291356Y138826D02*
X290356Y138326D01*
X289356Y137326D01*
Y136327D01*
X289856Y135827D01*
X290856D01*
X291356Y136327D01*
Y136826D01*
X290856Y137326D01*
X289356D01*
X277559Y82133D02*
Y79634D01*
X278059Y79134D01*
X279059D01*
X279558Y79634D01*
Y82133D01*
X280558Y79134D02*
X281558D01*
X281058D01*
Y82133D01*
X280558Y81633D01*
X285057Y82133D02*
X283057D01*
Y80633D01*
X284057Y81133D01*
X284557D01*
X285057Y80633D01*
Y79634D01*
X284557Y79134D01*
X283557D01*
X283057Y79634D01*
X285433Y65597D02*
Y63098D01*
X285933Y62598D01*
X286933D01*
X287432Y63098D01*
Y65597D01*
X288432Y62598D02*
X289432D01*
X288932D01*
Y65597D01*
X288432Y65098D01*
X290931D02*
X291431Y65597D01*
X292431D01*
X292931Y65098D01*
Y64598D01*
X292431Y64098D01*
X291931D01*
X292431D01*
X292931Y63598D01*
Y63098D01*
X292431Y62598D01*
X291431D01*
X290931Y63098D01*
X170866Y173865D02*
Y171366D01*
X171366Y170866D01*
X172366D01*
X172865Y171366D01*
Y173865D01*
X173865Y170866D02*
X174865D01*
X174365D01*
Y173865D01*
X173865Y173365D01*
X176364D02*
X176864Y173865D01*
X177864D01*
X178364Y173365D01*
Y171366D01*
X177864Y170866D01*
X176864D01*
X176364Y171366D01*
Y173365D01*
X87008Y59298D02*
Y56799D01*
X87508Y56299D01*
X88507D01*
X89007Y56799D01*
Y59298D01*
X90007Y56799D02*
X90507Y56299D01*
X91506D01*
X92006Y56799D01*
Y58798D01*
X91506Y59298D01*
X90507D01*
X90007Y58798D01*
Y58299D01*
X90507Y57799D01*
X92006D01*
X106299Y165597D02*
Y163098D01*
X106799Y162598D01*
X107799D01*
X108299Y163098D01*
Y165597D01*
X109298Y165098D02*
X109798Y165597D01*
X110798D01*
X111298Y165098D01*
Y164598D01*
X110798Y164098D01*
X111298Y163598D01*
Y163098D01*
X110798Y162598D01*
X109798D01*
X109298Y163098D01*
Y163598D01*
X109798Y164098D01*
X109298Y164598D01*
Y165098D01*
X109798Y164098D02*
X110798D01*
X112205Y70716D02*
Y68216D01*
X112705Y67716D01*
X113704D01*
X114204Y68216D01*
Y70716D01*
X115204D02*
X117203D01*
Y70216D01*
X115204Y68216D01*
Y67716D01*
X92520Y40794D02*
Y38295D01*
X93019Y37795D01*
X94019D01*
X94519Y38295D01*
Y40794D01*
X97518D02*
X96518Y40295D01*
X95519Y39295D01*
Y38295D01*
X96019Y37795D01*
X97018D01*
X97518Y38295D01*
Y38795D01*
X97018Y39295D01*
X95519D01*
X136643Y150074D02*
Y147575D01*
X137143Y147075D01*
X138143D01*
X138643Y147575D01*
Y150074D01*
X141642D02*
X139642D01*
Y148574D01*
X140642Y149074D01*
X141142D01*
X141642Y148574D01*
Y147575D01*
X141142Y147075D01*
X140142D01*
X139642Y147575D01*
X59055Y148668D02*
Y146169D01*
X59555Y145669D01*
X60555D01*
X61054Y146169D01*
Y148668D01*
X63554Y145669D02*
Y148668D01*
X62054Y147169D01*
X64053D01*
X252756Y173865D02*
Y171366D01*
X253256Y170866D01*
X254255D01*
X254755Y171366D01*
Y173865D01*
X255755Y173365D02*
X256255Y173865D01*
X257255D01*
X257754Y173365D01*
Y172865D01*
X257255Y172366D01*
X256755D01*
X257255D01*
X257754Y171866D01*
Y171366D01*
X257255Y170866D01*
X256255D01*
X255755Y171366D01*
X82677Y16929D02*
Y19928D01*
X84177D01*
X84676Y19428D01*
Y18429D01*
X84177Y17929D01*
X82677D01*
X83677D02*
X84676Y16929D01*
X85676Y19428D02*
X86176Y19928D01*
X87176D01*
X87675Y19428D01*
Y18928D01*
X87176Y18429D01*
X87675Y17929D01*
Y17429D01*
X87176Y16929D01*
X86176D01*
X85676Y17429D01*
Y17929D01*
X86176Y18429D01*
X85676Y18928D01*
Y19428D01*
X86176Y18429D02*
X87176D01*
X88675Y19428D02*
X89175Y19928D01*
X90175D01*
X90675Y19428D01*
Y17429D01*
X90175Y16929D01*
X89175D01*
X88675Y17429D01*
Y19428D01*
X71260Y30709D02*
Y33708D01*
X72759D01*
X73259Y33208D01*
Y32208D01*
X72759Y31708D01*
X71260D01*
X72259D02*
X73259Y30709D01*
X74259Y33708D02*
X76258D01*
Y33208D01*
X74259Y31209D01*
Y30709D01*
X77258Y31209D02*
X77758Y30709D01*
X78757D01*
X79257Y31209D01*
Y33208D01*
X78757Y33708D01*
X77758D01*
X77258Y33208D01*
Y32708D01*
X77758Y32208D01*
X79257D01*
X122835Y19685D02*
Y22684D01*
X124334D01*
X124834Y22184D01*
Y21185D01*
X124334Y20685D01*
X122835D01*
X123834D02*
X124834Y19685D01*
X125834Y22684D02*
X127833D01*
Y22184D01*
X125834Y20185D01*
Y19685D01*
X128833Y22184D02*
X129332Y22684D01*
X130332D01*
X130832Y22184D01*
Y21684D01*
X130332Y21185D01*
X130832Y20685D01*
Y20185D01*
X130332Y19685D01*
X129332D01*
X128833Y20185D01*
Y20685D01*
X129332Y21185D01*
X128833Y21684D01*
Y22184D01*
X129332Y21185D02*
X130332D01*
X116098Y16843D02*
X113978Y18964D01*
X115038Y20024D01*
X115745Y20024D01*
X116452Y19317D01*
X116452Y18610D01*
X115392Y17550D01*
X116098Y18257D02*
X117512Y18257D01*
X116098Y21085D02*
X117512Y22498D01*
X117866Y22145D01*
Y19317D01*
X118219Y18964D01*
Y23205D02*
X119633Y24619D01*
X119986Y24265D01*
Y21438D01*
X120340Y21085D01*
X74803Y62205D02*
Y65204D01*
X76303D01*
X76802Y64704D01*
Y63704D01*
X76303Y63204D01*
X74803D01*
X75803D02*
X76802Y62205D01*
X77802Y65204D02*
X79801D01*
Y64704D01*
X77802Y62705D01*
Y62205D01*
X82801D02*
X80801D01*
X82801Y64204D01*
Y64704D01*
X82301Y65204D01*
X81301D01*
X80801Y64704D01*
X188189Y41339D02*
Y44338D01*
X189689D01*
X190188Y43838D01*
Y42838D01*
X189689Y42338D01*
X188189D01*
X189189D02*
X190188Y41339D01*
X191188Y44338D02*
X193187D01*
Y43838D01*
X191188Y41838D01*
Y41339D01*
X194187D02*
X195187D01*
X194687D01*
Y44338D01*
X194187Y43838D01*
X170472Y29528D02*
Y32527D01*
X171972D01*
X172472Y32027D01*
Y31027D01*
X171972Y30527D01*
X170472D01*
X171472D02*
X172472Y29528D01*
X173471Y32527D02*
X175471D01*
Y32027D01*
X173471Y30027D01*
Y29528D01*
X176470Y32027D02*
X176970Y32527D01*
X177970D01*
X178470Y32027D01*
Y30027D01*
X177970Y29528D01*
X176970D01*
X176470Y30027D01*
Y32027D01*
X156299Y42126D02*
Y45125D01*
X157799D01*
X158299Y44625D01*
Y43626D01*
X157799Y43126D01*
X156299D01*
X157299D02*
X158299Y42126D01*
X161298Y45125D02*
X160298Y44625D01*
X159298Y43626D01*
Y42626D01*
X159798Y42126D01*
X160798D01*
X161298Y42626D01*
Y43126D01*
X160798Y43626D01*
X159298D01*
X162297Y42626D02*
X162797Y42126D01*
X163797D01*
X164297Y42626D01*
Y44625D01*
X163797Y45125D01*
X162797D01*
X162297Y44625D01*
Y44125D01*
X162797Y43626D01*
X164297D01*
X101181Y73622D02*
Y76621D01*
X102681D01*
X103180Y76121D01*
Y75122D01*
X102681Y74622D01*
X101181D01*
X102181D02*
X103180Y73622D01*
X106179Y76621D02*
X105180Y76121D01*
X104180Y75122D01*
Y74122D01*
X104680Y73622D01*
X105680D01*
X106179Y74122D01*
Y74622D01*
X105680Y75122D01*
X104180D01*
X107179Y76621D02*
X109178D01*
Y76121D01*
X107179Y74122D01*
Y73622D01*
X102756Y79134D02*
Y82133D01*
X104255D01*
X104755Y81633D01*
Y80633D01*
X104255Y80133D01*
X102756D01*
X103756D02*
X104755Y79134D01*
X107754Y82133D02*
X106755Y81633D01*
X105755Y80633D01*
Y79634D01*
X106255Y79134D01*
X107255D01*
X107754Y79634D01*
Y80133D01*
X107255Y80633D01*
X105755D01*
X110753Y82133D02*
X109754Y81633D01*
X108754Y80633D01*
Y79634D01*
X109254Y79134D01*
X110254D01*
X110753Y79634D01*
Y80133D01*
X110254Y80633D01*
X108754D01*
X104331Y86221D02*
Y89219D01*
X105830D01*
X106330Y88720D01*
Y87720D01*
X105830Y87220D01*
X104331D01*
X105330D02*
X106330Y86221D01*
X109329Y89219D02*
X108329Y88720D01*
X107330Y87720D01*
Y86720D01*
X107830Y86221D01*
X108829D01*
X109329Y86720D01*
Y87220D01*
X108829Y87720D01*
X107330D01*
X112328Y89219D02*
X110329D01*
Y87720D01*
X111328Y88220D01*
X111828D01*
X112328Y87720D01*
Y86720D01*
X111828Y86221D01*
X110829D01*
X110329Y86720D01*
X104724Y92126D02*
Y95125D01*
X106224D01*
X106724Y94625D01*
Y93625D01*
X106224Y93126D01*
X104724D01*
X105724D02*
X106724Y92126D01*
X109723Y95125D02*
X108723Y94625D01*
X107723Y93625D01*
Y92626D01*
X108223Y92126D01*
X109223D01*
X109723Y92626D01*
Y93126D01*
X109223Y93625D01*
X107723D01*
X112222Y92126D02*
Y95125D01*
X110722Y93625D01*
X112722D01*
X104724Y99213D02*
Y102212D01*
X106224D01*
X106724Y101712D01*
Y100712D01*
X106224Y100212D01*
X104724D01*
X105724D02*
X106724Y99213D01*
X109723Y102212D02*
X108723Y101712D01*
X107723Y100712D01*
Y99712D01*
X108223Y99213D01*
X109223D01*
X109723Y99712D01*
Y100212D01*
X109223Y100712D01*
X107723D01*
X110722Y101712D02*
X111222Y102212D01*
X112222D01*
X112722Y101712D01*
Y101212D01*
X112222Y100712D01*
X111722D01*
X112222D01*
X112722Y100212D01*
Y99712D01*
X112222Y99213D01*
X111222D01*
X110722Y99712D01*
X101969Y105512D02*
Y108511D01*
X103468D01*
X103968Y108011D01*
Y107011D01*
X103468Y106511D01*
X101969D01*
X102968D02*
X103968Y105512D01*
X106967Y108511D02*
X105967Y108011D01*
X104967Y107011D01*
Y106012D01*
X105467Y105512D01*
X106467D01*
X106967Y106012D01*
Y106511D01*
X106467Y107011D01*
X104967D01*
X109966Y105512D02*
X107967D01*
X109966Y107511D01*
Y108011D01*
X109466Y108511D01*
X108466D01*
X107967Y108011D01*
X101969Y111811D02*
Y114810D01*
X103468D01*
X103968Y114310D01*
Y113311D01*
X103468Y112811D01*
X101969D01*
X102968D02*
X103968Y111811D01*
X106967Y114810D02*
X105967Y114310D01*
X104967Y113311D01*
Y112311D01*
X105467Y111811D01*
X106467D01*
X106967Y112311D01*
Y112811D01*
X106467Y113311D01*
X104967D01*
X107967Y111811D02*
X108966D01*
X108466D01*
Y114810D01*
X107967Y114310D01*
X101969Y118504D02*
Y121503D01*
X103468D01*
X103968Y121003D01*
Y120003D01*
X103468Y119504D01*
X101969D01*
X102968D02*
X103968Y118504D01*
X106967Y121503D02*
X105967Y121003D01*
X104967Y120003D01*
Y119004D01*
X105467Y118504D01*
X106467D01*
X106967Y119004D01*
Y119504D01*
X106467Y120003D01*
X104967D01*
X107967Y121003D02*
X108466Y121503D01*
X109466D01*
X109966Y121003D01*
Y119004D01*
X109466Y118504D01*
X108466D01*
X107967Y119004D01*
Y121003D01*
X101969Y125197D02*
Y128196D01*
X103468D01*
X103968Y127696D01*
Y126696D01*
X103468Y126197D01*
X101969D01*
X102968D02*
X103968Y125197D01*
X106967Y128196D02*
X104967D01*
Y126696D01*
X105967Y127196D01*
X106467D01*
X106967Y126696D01*
Y125697D01*
X106467Y125197D01*
X105467D01*
X104967Y125697D01*
X107967D02*
X108466Y125197D01*
X109466D01*
X109966Y125697D01*
Y127696D01*
X109466Y128196D01*
X108466D01*
X107967Y127696D01*
Y127196D01*
X108466Y126696D01*
X109966D01*
X102362Y132283D02*
Y135283D01*
X103862D01*
X104362Y134783D01*
Y133783D01*
X103862Y133283D01*
X102362D01*
X103362D02*
X104362Y132283D01*
X107361Y135283D02*
X105361D01*
Y133783D01*
X106361Y134283D01*
X106861D01*
X107361Y133783D01*
Y132783D01*
X106861Y132283D01*
X105861D01*
X105361Y132783D01*
X108360Y134783D02*
X108860Y135283D01*
X109860D01*
X110360Y134783D01*
Y134283D01*
X109860Y133783D01*
X110360Y133283D01*
Y132783D01*
X109860Y132283D01*
X108860D01*
X108360Y132783D01*
Y133283D01*
X108860Y133783D01*
X108360Y134283D01*
Y134783D01*
X108860Y133783D02*
X109860D01*
X44882Y38189D02*
Y41188D01*
X46381D01*
X46881Y40688D01*
Y39689D01*
X46381Y39189D01*
X44882D01*
X45882D02*
X46881Y38189D01*
X49880Y41188D02*
X47881D01*
Y39689D01*
X48881Y40188D01*
X49380D01*
X49880Y39689D01*
Y38689D01*
X49380Y38189D01*
X48381D01*
X47881Y38689D01*
X50880Y41188D02*
X52879D01*
Y40688D01*
X50880Y38689D01*
Y38189D01*
X57087Y41732D02*
Y44731D01*
X58586D01*
X59086Y44232D01*
Y43232D01*
X58586Y42732D01*
X57087D01*
X58086D02*
X59086Y41732D01*
X62085Y44731D02*
X60086D01*
Y43232D01*
X61085Y43732D01*
X61585D01*
X62085Y43232D01*
Y42232D01*
X61585Y41732D01*
X60585D01*
X60086Y42232D01*
X65084Y44731D02*
X64084Y44232D01*
X63085Y43232D01*
Y42232D01*
X63585Y41732D01*
X64584D01*
X65084Y42232D01*
Y42732D01*
X64584Y43232D01*
X63085D01*
X55512Y72441D02*
Y75440D01*
X57011D01*
X57511Y74940D01*
Y73940D01*
X57011Y73441D01*
X55512D01*
X56511D02*
X57511Y72441D01*
X60510Y75440D02*
X58511D01*
Y73940D01*
X59510Y74440D01*
X60010D01*
X60510Y73940D01*
Y72941D01*
X60010Y72441D01*
X59011D01*
X58511Y72941D01*
X63509Y75440D02*
X61510D01*
Y73940D01*
X62510Y74440D01*
X63009D01*
X63509Y73940D01*
Y72941D01*
X63009Y72441D01*
X62010D01*
X61510Y72941D01*
X72441Y70079D02*
Y73078D01*
X73940D01*
X74440Y72578D01*
Y71578D01*
X73940Y71078D01*
X72441D01*
X73441D02*
X74440Y70079D01*
X77439Y73078D02*
X75440D01*
Y71578D01*
X76440Y72078D01*
X76939D01*
X77439Y71578D01*
Y70579D01*
X76939Y70079D01*
X75940D01*
X75440Y70579D01*
X79939Y70079D02*
Y73078D01*
X78439Y71578D01*
X80438D01*
X73228Y83465D02*
Y86464D01*
X74728D01*
X75228Y85964D01*
Y84964D01*
X74728Y84464D01*
X73228D01*
X74228D02*
X75228Y83465D01*
X78227Y86464D02*
X76227D01*
Y84964D01*
X77227Y85464D01*
X77727D01*
X78227Y84964D01*
Y83964D01*
X77727Y83465D01*
X76727D01*
X76227Y83964D01*
X81226Y83465D02*
X79226D01*
X81226Y85464D01*
Y85964D01*
X80726Y86464D01*
X79726D01*
X79226Y85964D01*
X73228Y90551D02*
Y93550D01*
X74728D01*
X75228Y93050D01*
Y92051D01*
X74728Y91551D01*
X73228D01*
X74228D02*
X75228Y90551D01*
X78227Y93550D02*
X76227D01*
Y92051D01*
X77227Y92550D01*
X77727D01*
X78227Y92051D01*
Y91051D01*
X77727Y90551D01*
X76727D01*
X76227Y91051D01*
X79226Y90551D02*
X80226D01*
X79726D01*
Y93550D01*
X79226Y93050D01*
X61417Y101575D02*
Y104574D01*
X62917D01*
X63417Y104074D01*
Y103074D01*
X62917Y102575D01*
X61417D01*
X62417D02*
X63417Y101575D01*
X66416Y104574D02*
X64416D01*
Y103074D01*
X65416Y103574D01*
X65916D01*
X66416Y103074D01*
Y102075D01*
X65916Y101575D01*
X64916D01*
X64416Y102075D01*
X67415Y104074D02*
X67915Y104574D01*
X68915D01*
X69415Y104074D01*
Y102075D01*
X68915Y101575D01*
X67915D01*
X67415Y102075D01*
Y104074D01*
X286417Y166535D02*
Y169535D01*
X287917D01*
X288417Y169035D01*
Y168035D01*
X287917Y167535D01*
X286417D01*
X287417D02*
X288417Y166535D01*
X290916D02*
Y169535D01*
X289416Y168035D01*
X291416D01*
X292415Y169035D02*
X292915Y169535D01*
X293915D01*
X294415Y169035D01*
Y168535D01*
X293915Y168035D01*
X293415D01*
X293915D01*
X294415Y167535D01*
Y167035D01*
X293915Y166535D01*
X292915D01*
X292415Y167035D01*
X261417Y103937D02*
Y106936D01*
X262917D01*
X263417Y106436D01*
Y105437D01*
X262917Y104937D01*
X261417D01*
X262417D02*
X263417Y103937D01*
X265916D02*
Y106936D01*
X264416Y105437D01*
X266416D01*
X267415Y103937D02*
X268415D01*
X267915D01*
Y106936D01*
X267415Y106436D01*
X259449Y119291D02*
Y122290D01*
X260948D01*
X261448Y121791D01*
Y120791D01*
X260948Y120291D01*
X259449D01*
X260449D02*
X261448Y119291D01*
X263947D02*
Y122290D01*
X262448Y120791D01*
X264447D01*
X265447Y121791D02*
X265947Y122290D01*
X266946D01*
X267446Y121791D01*
Y119791D01*
X266946Y119291D01*
X265947D01*
X265447Y119791D01*
Y121791D01*
X246850Y43307D02*
Y46306D01*
X248350D01*
X248850Y45806D01*
Y44807D01*
X248350Y44307D01*
X246850D01*
X247850D02*
X248850Y43307D01*
X249849Y45806D02*
X250349Y46306D01*
X251349D01*
X251849Y45806D01*
Y45306D01*
X251349Y44807D01*
X250849D01*
X251349D01*
X251849Y44307D01*
Y43807D01*
X251349Y43307D01*
X250349D01*
X249849Y43807D01*
X252849D02*
X253348Y43307D01*
X254348D01*
X254848Y43807D01*
Y45806D01*
X254348Y46306D01*
X253348D01*
X252849Y45806D01*
Y45306D01*
X253348Y44807D01*
X254848D01*
X175197Y186221D02*
Y189219D01*
X176696D01*
X177196Y188720D01*
Y187720D01*
X176696Y187220D01*
X175197D01*
X176197D02*
X177196Y186221D01*
X178196Y188720D02*
X178696Y189219D01*
X179695D01*
X180195Y188720D01*
Y188220D01*
X179695Y187720D01*
X179196D01*
X179695D01*
X180195Y187220D01*
Y186720D01*
X179695Y186221D01*
X178696D01*
X178196Y186720D01*
X181195Y189219D02*
X183194D01*
Y188720D01*
X181195Y186720D01*
Y186221D01*
X206693Y146063D02*
Y149062D01*
X208192D01*
X208692Y148562D01*
Y147563D01*
X208192Y147063D01*
X206693D01*
X207693D02*
X208692Y146063D01*
X209692Y148562D02*
X210192Y149062D01*
X211192D01*
X211691Y148562D01*
Y148062D01*
X211192Y147563D01*
X210692D01*
X211192D01*
X211691Y147063D01*
Y146563D01*
X211192Y146063D01*
X210192D01*
X209692Y146563D01*
X214191Y146063D02*
Y149062D01*
X212691Y147563D01*
X214690D01*
X259842Y86221D02*
Y89219D01*
X261342D01*
X261842Y88720D01*
Y87720D01*
X261342Y87220D01*
X259842D01*
X260842D02*
X261842Y86221D01*
X262842Y88720D02*
X263341Y89219D01*
X264341D01*
X264841Y88720D01*
Y88220D01*
X264341Y87720D01*
X263841D01*
X264341D01*
X264841Y87220D01*
Y86720D01*
X264341Y86221D01*
X263341D01*
X262842Y86720D01*
X265841Y86221D02*
X266840D01*
X266340D01*
Y89219D01*
X265841Y88720D01*
X100000Y59449D02*
Y62448D01*
X101499D01*
X101999Y61948D01*
Y60948D01*
X101499Y60448D01*
X100000D01*
X101000D02*
X101999Y59449D01*
X104998D02*
X102999D01*
X104998Y61448D01*
Y61948D01*
X104499Y62448D01*
X103499D01*
X102999Y61948D01*
X107997Y62448D02*
X106998Y61948D01*
X105998Y60948D01*
Y59949D01*
X106498Y59449D01*
X107498D01*
X107997Y59949D01*
Y60448D01*
X107498Y60948D01*
X105998D01*
X100000Y55512D02*
Y58511D01*
X101499D01*
X101999Y58011D01*
Y57011D01*
X101499Y56511D01*
X100000D01*
X101000D02*
X101999Y55512D01*
X104998D02*
X102999D01*
X104998Y57511D01*
Y58011D01*
X104499Y58511D01*
X103499D01*
X102999Y58011D01*
X107997Y58511D02*
X105998D01*
Y57011D01*
X106998Y57511D01*
X107498D01*
X107997Y57011D01*
Y56012D01*
X107498Y55512D01*
X106498D01*
X105998Y56012D01*
X31496Y177953D02*
Y180952D01*
X32996D01*
X33495Y180452D01*
Y179452D01*
X32996Y178952D01*
X31496D01*
X32496D02*
X33495Y177953D01*
X36494D02*
X34495D01*
X36494Y179952D01*
Y180452D01*
X35995Y180952D01*
X34995D01*
X34495Y180452D01*
X38994Y177953D02*
Y180952D01*
X37494Y179452D01*
X39494D01*
X88583Y146850D02*
Y149849D01*
X90082D01*
X90582Y149350D01*
Y148350D01*
X90082Y147850D01*
X88583D01*
X89582D02*
X90582Y146850D01*
X93581D02*
X91582D01*
X93581Y148850D01*
Y149350D01*
X93081Y149849D01*
X92082D01*
X91582Y149350D01*
X94581D02*
X95081Y149849D01*
X96080D01*
X96580Y149350D01*
Y148850D01*
X96080Y148350D01*
X95580D01*
X96080D01*
X96580Y147850D01*
Y147350D01*
X96080Y146850D01*
X95081D01*
X94581Y147350D01*
X96457Y189764D02*
Y192763D01*
X97956D01*
X98456Y192263D01*
Y191263D01*
X97956Y190763D01*
X96457D01*
X97456D02*
X98456Y189764D01*
X101455D02*
X99456D01*
X101455Y191763D01*
Y192263D01*
X100955Y192763D01*
X99956D01*
X99456Y192263D01*
X104454Y189764D02*
X102455D01*
X104454Y191763D01*
Y192263D01*
X103954Y192763D01*
X102955D01*
X102455Y192263D01*
X23228Y154921D02*
Y157920D01*
X24728D01*
X25228Y157421D01*
Y156421D01*
X24728Y155921D01*
X23228D01*
X24228D02*
X25228Y154921D01*
X28227D02*
X26227D01*
X28227Y156921D01*
Y157421D01*
X27727Y157920D01*
X26727D01*
X26227Y157421D01*
X29226Y154921D02*
X30226D01*
X29726D01*
Y157920D01*
X29226Y157421D01*
X3937Y169291D02*
Y172290D01*
X4937Y171291D01*
X5936Y172290D01*
Y169291D01*
X6936Y172290D02*
Y169291D01*
Y170791D01*
X8935D01*
Y172290D01*
Y169291D01*
X11435D02*
Y172290D01*
X9935Y170791D01*
X11934D01*
X303150Y188189D02*
Y191188D01*
X304149Y190188D01*
X305149Y191188D01*
Y188189D01*
X306149Y191188D02*
Y188189D01*
Y189689D01*
X308148D01*
Y191188D01*
Y188189D01*
X309148Y190688D02*
X309647Y191188D01*
X310647D01*
X311147Y190688D01*
Y190188D01*
X310647Y189689D01*
X310147D01*
X310647D01*
X311147Y189189D01*
Y188689D01*
X310647Y188189D01*
X309647D01*
X309148Y188689D01*
X303150Y9843D02*
Y12842D01*
X304149Y11842D01*
X305149Y12842D01*
Y9843D01*
X306149Y12842D02*
Y9843D01*
Y11342D01*
X308148D01*
Y12842D01*
Y9843D01*
X311147D02*
X309148D01*
X311147Y11842D01*
Y12342D01*
X310647Y12842D01*
X309647D01*
X309148Y12342D01*
X2143Y24475D02*
Y27474D01*
X3143Y26474D01*
X4143Y27474D01*
Y24475D01*
X5142Y27474D02*
Y24475D01*
Y25974D01*
X7142D01*
Y27474D01*
Y24475D01*
X8141D02*
X9141D01*
X8641D01*
Y27474D01*
X8141Y26974D01*
X109843Y193944D02*
Y190945D01*
X111842D01*
X114841D02*
X112842D01*
X114841Y192944D01*
Y193444D01*
X114341Y193944D01*
X113341D01*
X112842Y193444D01*
X115841Y193944D02*
X117840D01*
Y193444D01*
X115841Y191445D01*
Y190945D01*
X222441Y162842D02*
Y159843D01*
X224440D01*
X225440D02*
X226440D01*
X225940D01*
Y162842D01*
X225440Y162342D01*
X229939Y162842D02*
X227939D01*
Y161342D01*
X228939Y161842D01*
X229439D01*
X229939Y161342D01*
Y160342D01*
X229439Y159843D01*
X228439D01*
X227939Y160342D01*
X196063Y148668D02*
Y145669D01*
X198062D01*
X199062D02*
X200062D01*
X199562D01*
Y148668D01*
X199062Y148169D01*
X203061Y145669D02*
Y148668D01*
X201561Y147169D01*
X203561D01*
X175591Y162448D02*
Y159449D01*
X177590D01*
X178590D02*
X179589D01*
X179089D01*
Y162448D01*
X178590Y161948D01*
X181089D02*
X181589Y162448D01*
X182588D01*
X183088Y161948D01*
Y161448D01*
X182588Y160948D01*
X182088D01*
X182588D01*
X183088Y160449D01*
Y159949D01*
X182588Y159449D01*
X181589D01*
X181089Y159949D01*
X126378Y27408D02*
X127378D01*
X126878D01*
Y24409D01*
X126378D01*
X127378D01*
X130877Y26909D02*
X130377Y27408D01*
X129377D01*
X128877Y26909D01*
Y24909D01*
X129377Y24409D01*
X130377D01*
X130877Y24909D01*
X131876Y24409D02*
Y27408D01*
X132876Y26409D01*
X133876Y27408D01*
Y24409D01*
X134875Y25909D02*
X136874D01*
X137874Y24409D02*
Y27408D01*
X138874Y26409D01*
X139874Y27408D01*
Y24409D01*
X140873Y27408D02*
Y24409D01*
Y25909D01*
X142873D01*
Y27408D01*
Y24409D01*
X145872D02*
X143872D01*
X145872Y26409D01*
Y26909D01*
X145372Y27408D01*
X144372D01*
X143872Y26909D01*
X100394Y148668D02*
X101393D01*
X100893D01*
Y145669D01*
X100394D01*
X101393D01*
X104892Y148169D02*
X104392Y148668D01*
X103393D01*
X102893Y148169D01*
Y146169D01*
X103393Y145669D01*
X104392D01*
X104892Y146169D01*
X105892Y145669D02*
Y148668D01*
X106892Y147669D01*
X107891Y148668D01*
Y145669D01*
X108891Y147169D02*
X110890D01*
X111890Y145669D02*
Y148668D01*
X112890Y147669D01*
X113889Y148668D01*
Y145669D01*
X114889Y148668D02*
Y145669D01*
Y147169D01*
X116888D01*
Y148668D01*
Y145669D01*
X117888D02*
X118888D01*
X118388D01*
Y148668D01*
X117888Y148169D01*
X246063Y153393D02*
X247063D01*
X246563D01*
Y150394D01*
X246063D01*
X247063D01*
X250561Y152893D02*
X250062Y153393D01*
X249062D01*
X248562Y152893D01*
Y150893D01*
X249062Y150394D01*
X250062D01*
X250561Y150893D01*
X251561Y150394D02*
Y153393D01*
X252561Y152393D01*
X253561Y153393D01*
Y150394D01*
X254560Y151893D02*
X256560D01*
X259559Y153393D02*
X258559D01*
X259059D01*
Y150893D01*
X258559Y150394D01*
X258059D01*
X257559Y150893D01*
X262558Y150394D02*
X260558D01*
X262558Y152393D01*
Y152893D01*
X262058Y153393D01*
X261058D01*
X260558Y152893D01*
X11143Y149774D02*
X12143D01*
X11643D01*
Y146775D01*
X11143D01*
X12143D01*
X15642Y149274D02*
X15142Y149774D01*
X14142D01*
X13643Y149274D01*
Y147275D01*
X14142Y146775D01*
X15142D01*
X15642Y147275D01*
X16642Y146775D02*
Y149774D01*
X17641Y148774D01*
X18641Y149774D01*
Y146775D01*
X19641Y148274D02*
X21640D01*
X24639Y149774D02*
X23639D01*
X24139D01*
Y147275D01*
X23639Y146775D01*
X23139D01*
X22640Y147275D01*
X25639Y146775D02*
X26638D01*
X26138D01*
Y149774D01*
X25639Y149274D01*
X285433Y25834D02*
Y22835D01*
X286933D01*
X287432Y23335D01*
Y25334D01*
X286933Y25834D01*
X285433D01*
X290431Y22835D02*
X288432D01*
X290431Y24834D01*
Y25334D01*
X289932Y25834D01*
X288932D01*
X288432Y25334D01*
X250031Y148562D02*
X249531Y149062D01*
X248531D01*
X248031Y148562D01*
Y146563D01*
X248531Y146063D01*
X249531D01*
X250031Y146563D01*
X251030Y146063D02*
X252030D01*
X251530D01*
Y149062D01*
X251030Y148562D01*
X253530D02*
X254030Y149062D01*
X255029D01*
X255529Y148562D01*
Y148062D01*
X255029Y147563D01*
X254529D01*
X255029D01*
X255529Y147063D01*
Y146563D01*
X255029Y146063D01*
X254030D01*
X253530Y146563D01*
X256529Y148562D02*
X257029Y149062D01*
X258028D01*
X258528Y148562D01*
Y146563D01*
X258028Y146063D01*
X257029D01*
X256529Y146563D01*
Y148562D01*
X250031Y145019D02*
X249531Y145519D01*
X248531D01*
X248031Y145019D01*
Y143019D01*
X248531Y142520D01*
X249531D01*
X250031Y143019D01*
X251030Y142520D02*
X252030D01*
X251530D01*
Y145519D01*
X251030Y145019D01*
X255529Y142520D02*
X253530D01*
X255529Y144519D01*
Y145019D01*
X255029Y145519D01*
X254030D01*
X253530Y145019D01*
X256529Y143019D02*
X257029Y142520D01*
X258028D01*
X258528Y143019D01*
Y145019D01*
X258028Y145519D01*
X257029D01*
X256529Y145019D01*
Y144519D01*
X257029Y144019D01*
X258528D01*
X261842Y73759D02*
X261342Y74259D01*
X260342D01*
X259842Y73759D01*
Y71760D01*
X260342Y71260D01*
X261342D01*
X261842Y71760D01*
X262842Y71260D02*
X263841D01*
X263341D01*
Y74259D01*
X262842Y73759D01*
X267340Y71260D02*
X265341D01*
X267340Y73259D01*
Y73759D01*
X266840Y74259D01*
X265841D01*
X265341Y73759D01*
X268340D02*
X268840Y74259D01*
X269839D01*
X270339Y73759D01*
Y73259D01*
X269839Y72759D01*
X270339Y72259D01*
Y71760D01*
X269839Y71260D01*
X268840D01*
X268340Y71760D01*
Y72259D01*
X268840Y72759D01*
X268340Y73259D01*
Y73759D01*
X268840Y72759D02*
X269839D01*
X261842Y78483D02*
X261342Y78983D01*
X260342D01*
X259842Y78483D01*
Y76484D01*
X260342Y75984D01*
X261342D01*
X261842Y76484D01*
X262842Y75984D02*
X263841D01*
X263341D01*
Y78983D01*
X262842Y78483D01*
X267340Y75984D02*
X265341D01*
X267340Y77984D01*
Y78483D01*
X266840Y78983D01*
X265841D01*
X265341Y78483D01*
X268340Y78983D02*
X270339D01*
Y78483D01*
X268340Y76484D01*
Y75984D01*
X277984Y111554D02*
X277484Y112054D01*
X276484D01*
X275984Y111554D01*
Y109555D01*
X276484Y109055D01*
X277484D01*
X277984Y109555D01*
X278983Y109055D02*
X279983D01*
X279483D01*
Y112054D01*
X278983Y111554D01*
X283482Y109055D02*
X281483D01*
X283482Y111055D01*
Y111554D01*
X282982Y112054D01*
X281982D01*
X281483Y111554D01*
X286481Y112054D02*
X285481Y111554D01*
X284482Y110555D01*
Y109555D01*
X284981Y109055D01*
X285981D01*
X286481Y109555D01*
Y110055D01*
X285981Y110555D01*
X284482D01*
X277984Y115491D02*
X277484Y115991D01*
X276484D01*
X275984Y115491D01*
Y113492D01*
X276484Y112992D01*
X277484D01*
X277984Y113492D01*
X278983Y112992D02*
X279983D01*
X279483D01*
Y115991D01*
X278983Y115491D01*
X283482Y112992D02*
X281483D01*
X283482Y114991D01*
Y115491D01*
X282982Y115991D01*
X281982D01*
X281483Y115491D01*
X286481Y115991D02*
X284482D01*
Y114492D01*
X285481Y114991D01*
X285981D01*
X286481Y114492D01*
Y113492D01*
X285981Y112992D01*
X284981D01*
X284482Y113492D01*
X275621Y119428D02*
X275122Y119928D01*
X274122D01*
X273622Y119428D01*
Y117429D01*
X274122Y116929D01*
X275122D01*
X275621Y117429D01*
X276621Y116929D02*
X277621D01*
X277121D01*
Y119928D01*
X276621Y119428D01*
X281120Y116929D02*
X279120D01*
X281120Y118929D01*
Y119428D01*
X280620Y119928D01*
X279620D01*
X279120Y119428D01*
X283619Y116929D02*
Y119928D01*
X282119Y118429D01*
X284119D01*
X275621Y123365D02*
X275122Y123865D01*
X274122D01*
X273622Y123365D01*
Y121366D01*
X274122Y120866D01*
X275122D01*
X275621Y121366D01*
X276621Y120866D02*
X277621D01*
X277121D01*
Y123865D01*
X276621Y123365D01*
X281120Y120866D02*
X279120D01*
X281120Y122865D01*
Y123365D01*
X280620Y123865D01*
X279620D01*
X279120Y123365D01*
X282119D02*
X282619Y123865D01*
X283619D01*
X284119Y123365D01*
Y122865D01*
X283619Y122366D01*
X283119D01*
X283619D01*
X284119Y121866D01*
Y121366D01*
X283619Y120866D01*
X282619D01*
X282119Y121366D01*
X257511Y34389D02*
X257011Y34889D01*
X256012D01*
X255512Y34389D01*
Y32390D01*
X256012Y31890D01*
X257011D01*
X257511Y32390D01*
X258511Y31890D02*
X259510D01*
X259011D01*
Y34889D01*
X258511Y34389D01*
X261010Y31890D02*
X262010D01*
X261510D01*
Y34889D01*
X261010Y34389D01*
X265509Y31890D02*
X263509D01*
X265509Y33889D01*
Y34389D01*
X265009Y34889D01*
X264009D01*
X263509Y34389D01*
X271291Y31633D02*
X270791Y32133D01*
X269791D01*
X269291Y31633D01*
Y29634D01*
X269791Y29134D01*
X270791D01*
X271291Y29634D01*
X272290Y29134D02*
X273290D01*
X272790D01*
Y32133D01*
X272290Y31633D01*
X274790Y29134D02*
X275789D01*
X275289D01*
Y32133D01*
X274790Y31633D01*
X277289Y29134D02*
X278288D01*
X277789D01*
Y32133D01*
X277289Y31633D01*
X151712Y182449D02*
X152212Y182949D01*
Y183949D01*
X151712Y184449D01*
X149712D01*
X149213Y183949D01*
Y182949D01*
X149712Y182449D01*
X149213Y181450D02*
Y180450D01*
Y180950D01*
X152212D01*
X151712Y181450D01*
Y178951D02*
X152212Y178451D01*
Y177451D01*
X151712Y176951D01*
X149712D01*
X149213Y177451D01*
Y178451D01*
X149712Y178951D01*
X151712D01*
Y175952D02*
X152212Y175452D01*
Y174452D01*
X151712Y173952D01*
X151212D01*
X150712Y174452D01*
Y174952D01*
Y174452D01*
X150212Y173952D01*
X149712D01*
X149213Y174452D01*
Y175452D01*
X149712Y175952D01*
X125228Y195413D02*
X124728Y195912D01*
X123728D01*
X123228Y195413D01*
Y193413D01*
X123728Y192913D01*
X124728D01*
X125228Y193413D01*
X126227Y192913D02*
X127227D01*
X126727D01*
Y195912D01*
X126227Y195413D01*
X128727D02*
X129226Y195912D01*
X130226D01*
X130726Y195413D01*
Y193413D01*
X130226Y192913D01*
X129226D01*
X128727Y193413D01*
Y195413D01*
X131726Y192913D02*
X132725D01*
X132225D01*
Y195912D01*
X131726Y195413D01*
X154165Y149153D02*
X153665Y149653D01*
X152665D01*
X152165Y149153D01*
Y147153D01*
X152665Y146653D01*
X153665D01*
X154165Y147153D01*
X155164D02*
X155664Y146653D01*
X156664D01*
X157164Y147153D01*
Y149153D01*
X156664Y149653D01*
X155664D01*
X155164Y149153D01*
Y148653D01*
X155664Y148153D01*
X157164D01*
X158163Y147153D02*
X158663Y146653D01*
X159663D01*
X160163Y147153D01*
Y149153D01*
X159663Y149653D01*
X158663D01*
X158163Y149153D01*
Y148653D01*
X158663Y148153D01*
X160163D01*
X137432Y169625D02*
X136933Y170125D01*
X135933D01*
X135433Y169625D01*
Y167626D01*
X135933Y167126D01*
X136933D01*
X137432Y167626D01*
X138432D02*
X138932Y167126D01*
X139932D01*
X140431Y167626D01*
Y169625D01*
X139932Y170125D01*
X138932D01*
X138432Y169625D01*
Y169125D01*
X138932Y168625D01*
X140431D01*
X141431Y170125D02*
X143430D01*
Y169625D01*
X141431Y167626D01*
Y167126D01*
X233495Y188720D02*
X232996Y189219D01*
X231996D01*
X231496Y188720D01*
Y186720D01*
X231996Y186221D01*
X232996D01*
X233495Y186720D01*
X234495Y189219D02*
X236494D01*
Y188720D01*
X234495Y186720D01*
Y186221D01*
X238994D02*
Y189219D01*
X237494Y187720D01*
X239493D01*
X219322Y173759D02*
X218822Y174259D01*
X217823D01*
X217323Y173759D01*
Y171760D01*
X217823Y171260D01*
X218822D01*
X219322Y171760D01*
X220322Y174259D02*
X222321D01*
Y173759D01*
X220322Y171760D01*
Y171260D01*
X223321Y173759D02*
X223821Y174259D01*
X224820D01*
X225320Y173759D01*
Y173259D01*
X224820Y172759D01*
X224321D01*
X224820D01*
X225320Y172259D01*
Y171760D01*
X224820Y171260D01*
X223821D01*
X223321Y171760D01*
X209086Y176121D02*
X208586Y176621D01*
X207587D01*
X207087Y176121D01*
Y174122D01*
X207587Y173622D01*
X208586D01*
X209086Y174122D01*
X210086Y176621D02*
X212085D01*
Y176121D01*
X210086Y174122D01*
Y173622D01*
X215084D02*
X213085D01*
X215084Y175621D01*
Y176121D01*
X214584Y176621D01*
X213584D01*
X213085Y176121D01*
X194519Y185964D02*
X194019Y186464D01*
X193019D01*
X192520Y185964D01*
Y183964D01*
X193019Y183465D01*
X194019D01*
X194519Y183964D01*
X195519Y186464D02*
X197518D01*
Y185964D01*
X195519Y183964D01*
Y183465D01*
X198518D02*
X199517D01*
X199018D01*
Y186464D01*
X198518Y185964D01*
X209480Y167066D02*
X208980Y167566D01*
X207980D01*
X207480Y167066D01*
Y165067D01*
X207980Y164567D01*
X208980D01*
X209480Y165067D01*
X210479Y167566D02*
X212479D01*
Y167066D01*
X210479Y165067D01*
Y164567D01*
X213478Y167066D02*
X213978Y167566D01*
X214978D01*
X215478Y167066D01*
Y165067D01*
X214978Y164567D01*
X213978D01*
X213478Y165067D01*
Y167066D01*
X196881Y168247D02*
X196381Y168747D01*
X195382D01*
X194882Y168247D01*
Y166248D01*
X195382Y165748D01*
X196381D01*
X196881Y166248D01*
X199880Y168747D02*
X198881Y168247D01*
X197881Y167248D01*
Y166248D01*
X198381Y165748D01*
X199380D01*
X199880Y166248D01*
Y166748D01*
X199380Y167248D01*
X197881D01*
X200880Y166248D02*
X201380Y165748D01*
X202379D01*
X202879Y166248D01*
Y168247D01*
X202379Y168747D01*
X201380D01*
X200880Y168247D01*
Y167747D01*
X201380Y167248D01*
X202879D01*
X187039Y163917D02*
X186539Y164416D01*
X185539D01*
X185039Y163917D01*
Y161917D01*
X185539Y161417D01*
X186539D01*
X187039Y161917D01*
X190038Y164416D02*
X189038Y163917D01*
X188038Y162917D01*
Y161917D01*
X188538Y161417D01*
X189538D01*
X190038Y161917D01*
Y162417D01*
X189538Y162917D01*
X188038D01*
X191037Y163917D02*
X191537Y164416D01*
X192537D01*
X193037Y163917D01*
Y163417D01*
X192537Y162917D01*
X193037Y162417D01*
Y161917D01*
X192537Y161417D01*
X191537D01*
X191037Y161917D01*
Y162417D01*
X191537Y162917D01*
X191037Y163417D01*
Y163917D01*
X191537Y162917D02*
X192537D01*
X239007Y156830D02*
X238507Y157330D01*
X237508D01*
X237008Y156830D01*
Y154831D01*
X237508Y154331D01*
X238507D01*
X239007Y154831D01*
X242006Y157330D02*
X240007D01*
Y155830D01*
X241007Y156330D01*
X241506D01*
X242006Y155830D01*
Y154831D01*
X241506Y154331D01*
X240507D01*
X240007Y154831D01*
X243006Y156830D02*
X243506Y157330D01*
X244506D01*
X245005Y156830D01*
Y156330D01*
X244506Y155830D01*
X244006D01*
X244506D01*
X245005Y155330D01*
Y154831D01*
X244506Y154331D01*
X243506D01*
X243006Y154831D01*
X74440Y44625D02*
X73940Y45125D01*
X72941D01*
X72441Y44625D01*
Y42626D01*
X72941Y42126D01*
X73940D01*
X74440Y42626D01*
X76939Y42126D02*
Y45125D01*
X75440Y43626D01*
X77439D01*
X78439Y44625D02*
X78939Y45125D01*
X79939D01*
X80438Y44625D01*
Y44125D01*
X79939Y43626D01*
X80438Y43126D01*
Y42626D01*
X79939Y42126D01*
X78939D01*
X78439Y42626D01*
Y43126D01*
X78939Y43626D01*
X78439Y44125D01*
Y44625D01*
X78939Y43626D02*
X79939D01*
X94519Y18247D02*
X94019Y18747D01*
X93019D01*
X92520Y18247D01*
Y16248D01*
X93019Y15748D01*
X94019D01*
X94519Y16248D01*
X97018Y15748D02*
Y18747D01*
X95519Y17248D01*
X97518D01*
X100017Y15748D02*
Y18747D01*
X98518Y17248D01*
X100517D01*
X9979Y76347D02*
X10479Y76847D01*
Y77847D01*
X9979Y78347D01*
X7980D01*
X7480Y77847D01*
Y76847D01*
X7980Y76347D01*
X7480Y75347D02*
Y74348D01*
Y74848D01*
X10479D01*
X9979Y75347D01*
Y72848D02*
X10479Y72348D01*
Y71349D01*
X9979Y70849D01*
X9480D01*
X8980Y71349D01*
Y71849D01*
Y71349D01*
X8480Y70849D01*
X7980D01*
X7480Y71349D01*
Y72348D01*
X7980Y72848D01*
X6527Y45019D02*
X6027Y45519D01*
X5027D01*
X4528Y45019D01*
Y43020D01*
X5027Y42520D01*
X6027D01*
X6527Y43020D01*
X7527Y42520D02*
X8526D01*
X8026D01*
Y45519D01*
X7527Y45019D01*
X10026Y42520D02*
X11026D01*
X10526D01*
Y45519D01*
X10026Y45019D01*
X37826Y52105D02*
X37326Y52605D01*
X36327D01*
X35827Y52105D01*
Y50106D01*
X36327Y49606D01*
X37326D01*
X37826Y50106D01*
X38826Y49606D02*
X39825D01*
X39326D01*
Y52605D01*
X38826Y52105D01*
X41325D02*
X41825Y52605D01*
X42825D01*
X43324Y52105D01*
Y50106D01*
X42825Y49606D01*
X41825D01*
X41325Y50106D01*
Y52105D01*
X37039Y82814D02*
X36539Y83314D01*
X35539D01*
X35039Y82814D01*
Y80815D01*
X35539Y80315D01*
X36539D01*
X37039Y80815D01*
X38038D02*
X38538Y80315D01*
X39538D01*
X40038Y80815D01*
Y82814D01*
X39538Y83314D01*
X38538D01*
X38038Y82814D01*
Y82314D01*
X38538Y81814D01*
X40038D01*
X42944Y81633D02*
X42444Y82133D01*
X41445D01*
X40945Y81633D01*
Y79634D01*
X41445Y79134D01*
X42444D01*
X42944Y79634D01*
X43944Y81633D02*
X44444Y82133D01*
X45443D01*
X45943Y81633D01*
Y81133D01*
X45443Y80633D01*
X45943Y80133D01*
Y79634D01*
X45443Y79134D01*
X44444D01*
X43944Y79634D01*
Y80133D01*
X44444Y80633D01*
X43944Y81133D01*
Y81633D01*
X44444Y80633D02*
X45443D01*
X4361Y95413D02*
X3862Y95912D01*
X2862D01*
X2362Y95413D01*
Y93413D01*
X2862Y92913D01*
X3862D01*
X4361Y93413D01*
X7361Y95912D02*
X6361Y95413D01*
X5361Y94413D01*
Y93413D01*
X5861Y92913D01*
X6861D01*
X7361Y93413D01*
Y93913D01*
X6861Y94413D01*
X5361D01*
X4755Y128483D02*
X4255Y128983D01*
X3256D01*
X2756Y128483D01*
Y126484D01*
X3256Y125984D01*
X4255D01*
X4755Y126484D01*
X7754Y128983D02*
X5755D01*
Y127484D01*
X6755Y127984D01*
X7254D01*
X7754Y127484D01*
Y126484D01*
X7254Y125984D01*
X6255D01*
X5755Y126484D01*
D17*
X367378Y169895D02*
X374043D01*
X370710D01*
Y159898D01*
X379041D02*
X382373D01*
X384039Y161565D01*
Y164897D01*
X382373Y166563D01*
X379041D01*
X377375Y164897D01*
Y161565D01*
X379041Y159898D01*
X387371Y156566D02*
Y166563D01*
X392370D01*
X394036Y164897D01*
Y161565D01*
X392370Y159898D01*
X387371D01*
X414030Y168229D02*
X412363Y169895D01*
X409031D01*
X407365Y168229D01*
Y166563D01*
X409031Y164897D01*
X412363D01*
X414030Y163231D01*
Y161565D01*
X412363Y159898D01*
X409031D01*
X407365Y161565D01*
X417362Y159898D02*
X420694D01*
X419028D01*
Y166563D01*
X417362D01*
X425692Y159898D02*
X429025D01*
X427359D01*
Y169895D01*
X425692D01*
X434023Y159898D02*
Y169895D01*
Y163231D02*
X439021Y166563D01*
X434023Y163231D02*
X439021Y159898D01*
X1029716Y-320444D02*
X1031382Y-318778D01*
X1034714D01*
X1036380Y-320444D01*
Y-327109D01*
X1034714Y-328775D01*
X1031382D01*
X1029716Y-327109D01*
Y-320444D01*
X1039713Y-327109D02*
X1041379Y-328775D01*
X1044711D01*
X1046377Y-327109D01*
Y-320444D01*
X1044711Y-318778D01*
X1041379D01*
X1039713Y-320444D01*
Y-322110D01*
X1041379Y-323776D01*
X1046377D01*
X1049709Y-328775D02*
Y-327109D01*
X1051375D01*
Y-328775D01*
X1049709D01*
X1058040Y-320444D02*
X1059706Y-318778D01*
X1063038D01*
X1064704Y-320444D01*
Y-327109D01*
X1063038Y-328775D01*
X1059706D01*
X1058040Y-327109D01*
Y-320444D01*
X1074701Y-318778D02*
X1071369Y-320444D01*
X1068037Y-323776D01*
Y-327109D01*
X1069703Y-328775D01*
X1073035D01*
X1074701Y-327109D01*
Y-325443D01*
X1073035Y-323776D01*
X1068037D01*
X1078034Y-328775D02*
Y-327109D01*
X1079700D01*
Y-328775D01*
X1078034D01*
X1093029D02*
X1086364D01*
X1093029Y-322110D01*
Y-320444D01*
X1091362Y-318778D01*
X1088030D01*
X1086364Y-320444D01*
X1096361D02*
X1098027Y-318778D01*
X1101359D01*
X1103025Y-320444D01*
Y-327109D01*
X1101359Y-328775D01*
X1098027D01*
X1096361Y-327109D01*
Y-320444D01*
X1113022Y-328775D02*
X1106358D01*
X1113022Y-322110D01*
Y-320444D01*
X1111356Y-318778D01*
X1108024D01*
X1106358Y-320444D01*
X1116354D02*
X1118021Y-318778D01*
X1121353D01*
X1123019Y-320444D01*
Y-327109D01*
X1121353Y-328775D01*
X1118021D01*
X1116354Y-327109D01*
Y-320444D01*
X974816Y-282875D02*
Y-272878D01*
X978148Y-276210D01*
X981480Y-272878D01*
Y-282875D01*
X984813D02*
Y-272878D01*
X988145Y-276210D01*
X991477Y-272878D01*
Y-282875D01*
X994809Y-272878D02*
Y-282875D01*
X999808D01*
X1001474Y-281209D01*
Y-279542D01*
X999808Y-277876D01*
X994809D01*
X999808D01*
X1001474Y-276210D01*
Y-274544D01*
X999808Y-272878D01*
X994809D01*
X1004806Y-284541D02*
X1011471D01*
X1021467Y-274544D02*
X1019801Y-272878D01*
X1016469D01*
X1014803Y-274544D01*
Y-281209D01*
X1016469Y-282875D01*
X1019801D01*
X1021467Y-281209D01*
X1026466Y-282875D02*
X1029798D01*
X1031464Y-281209D01*
Y-277876D01*
X1029798Y-276210D01*
X1026466D01*
X1024800Y-277876D01*
Y-281209D01*
X1026466Y-282875D01*
X1034796D02*
Y-276210D01*
X1039795D01*
X1041461Y-277876D01*
Y-282875D01*
X1046459Y-274544D02*
Y-276210D01*
X1044793D01*
X1048125D01*
X1046459D01*
Y-281209D01*
X1048125Y-282875D01*
X1053124Y-276210D02*
Y-282875D01*
Y-279542D01*
X1054790Y-277876D01*
X1056456Y-276210D01*
X1058122D01*
X1064787Y-282875D02*
X1068119D01*
X1069785Y-281209D01*
Y-277876D01*
X1068119Y-276210D01*
X1064787D01*
X1063121Y-277876D01*
Y-281209D01*
X1064787Y-282875D01*
X1073117D02*
X1076450D01*
X1074784D01*
Y-272878D01*
X1073117D01*
X1081448Y-282875D02*
X1084780D01*
X1083114D01*
Y-272878D01*
X1081448D01*
X1094777Y-282875D02*
X1091445D01*
X1089779Y-281209D01*
Y-277876D01*
X1091445Y-276210D01*
X1094777D01*
X1096443Y-277876D01*
Y-279542D01*
X1089779D01*
X1099775Y-276210D02*
Y-282875D01*
Y-279542D01*
X1101441Y-277876D01*
X1103108Y-276210D01*
X1104774D01*
X1109772Y-284541D02*
X1116437D01*
X1119769Y-272878D02*
Y-282875D01*
X1124767D01*
X1126433Y-281209D01*
Y-279542D01*
X1124767Y-277876D01*
X1119769D01*
X1124767D01*
X1126433Y-276210D01*
Y-274544D01*
X1124767Y-272878D01*
X1119769D01*
X1131432Y-282875D02*
X1134764D01*
X1136430Y-281209D01*
Y-277876D01*
X1134764Y-276210D01*
X1131432D01*
X1129766Y-277876D01*
Y-281209D01*
X1131432Y-282875D01*
X1141429Y-276210D02*
X1144761D01*
X1146427Y-277876D01*
Y-282875D01*
X1141429D01*
X1139762Y-281209D01*
X1141429Y-279542D01*
X1146427D01*
X1149759Y-276210D02*
Y-282875D01*
Y-279542D01*
X1151425Y-277876D01*
X1153092Y-276210D01*
X1154758D01*
X1166420Y-272878D02*
Y-282875D01*
X1161422D01*
X1159756Y-281209D01*
Y-277876D01*
X1161422Y-276210D01*
X1166420D01*
X1169753Y-282875D02*
Y-281209D01*
X1171419D01*
Y-282875D01*
X1169753D01*
X1178083Y-286207D02*
Y-276210D01*
X1183082D01*
X1184748Y-277876D01*
Y-281209D01*
X1183082Y-282875D01*
X1178083D01*
X1194745Y-276210D02*
X1189746D01*
X1188080Y-277876D01*
Y-281209D01*
X1189746Y-282875D01*
X1194745D01*
X1198077Y-272878D02*
Y-282875D01*
X1203075D01*
X1204741Y-281209D01*
Y-279542D01*
Y-277876D01*
X1203075Y-276210D01*
X1198077D01*
X1214738Y-272878D02*
Y-282875D01*
X1209740D01*
X1208074Y-281209D01*
Y-277876D01*
X1209740Y-276210D01*
X1214738D01*
X1219737Y-282875D02*
X1223069D01*
X1224735Y-281209D01*
Y-277876D01*
X1223069Y-276210D01*
X1219737D01*
X1218071Y-277876D01*
Y-281209D01*
X1219737Y-282875D01*
X1234732Y-276210D02*
X1229733D01*
X1228067Y-277876D01*
Y-281209D01*
X1229733Y-282875D01*
X1234732D01*
M02*
