G04*
G04 #@! TF.GenerationSoftware,Altium Limited,Altium Designer,20.1.11 (218)*
G04*
G04 Layer_Physical_Order=2*
G04 Layer_Color=11993160*
%FSLAX25Y25*%
%MOIN*%
G70*
G04*
G04 #@! TF.SameCoordinates,26502B99-587C-4767-892E-7210AEBADD4C*
G04*
G04*
G04 #@! TF.FilePolarity,Negative*
G04*
G01*
G75*
%ADD17C,0.01200*%
%ADD115C,0.04000*%
G04:AMPARAMS|DCode=116|XSize=117mil|YSize=117mil|CornerRadius=0mil|HoleSize=0mil|Usage=FLASHONLY|Rotation=0.000|XOffset=0mil|YOffset=0mil|HoleType=Round|Shape=Relief|Width=15mil|Gap=10mil|Entries=4|*
%AMTHD116*
7,0,0,0.11700,0.09700,0.01500,45*
%
%ADD116THD116*%
%ADD117C,0.07800*%
%ADD118C,0.07100*%
G04:AMPARAMS|DCode=119|XSize=175mil|YSize=175mil|CornerRadius=0mil|HoleSize=0mil|Usage=FLASHONLY|Rotation=0.000|XOffset=0mil|YOffset=0mil|HoleType=Round|Shape=Relief|Width=15mil|Gap=10mil|Entries=4|*
%AMTHD119*
7,0,0,0.17500,0.15500,0.01500,45*
%
%ADD119THD119*%
G04:AMPARAMS|DCode=120|XSize=215mil|YSize=215mil|CornerRadius=0mil|HoleSize=0mil|Usage=FLASHONLY|Rotation=0.000|XOffset=0mil|YOffset=0mil|HoleType=Round|Shape=Relief|Width=15mil|Gap=10mil|Entries=4|*
%AMTHD120*
7,0,0,0.21500,0.19500,0.01500,45*
%
%ADD120THD120*%
%ADD121C,0.05900*%
G04:AMPARAMS|DCode=122|XSize=93mil|YSize=93mil|CornerRadius=0mil|HoleSize=0mil|Usage=FLASHONLY|Rotation=0.000|XOffset=0mil|YOffset=0mil|HoleType=Round|Shape=Relief|Width=15mil|Gap=10mil|Entries=4|*
%AMTHD122*
7,0,0,0.09300,0.07300,0.01500,45*
%
%ADD122THD122*%
%ADD123C,0.02600*%
D17*
X1016816Y-294278D02*
Y-304275D01*
X1023480D01*
X1028479Y-297610D02*
X1031811D01*
X1033477Y-299276D01*
Y-304275D01*
X1028479D01*
X1026812Y-302609D01*
X1028479Y-300943D01*
X1033477D01*
X1036809Y-297610D02*
Y-302609D01*
X1038475Y-304275D01*
X1043474D01*
Y-305941D01*
X1041808Y-307607D01*
X1040141D01*
X1043474Y-304275D02*
Y-297610D01*
X1051804Y-304275D02*
X1048472D01*
X1046806Y-302609D01*
Y-299276D01*
X1048472Y-297610D01*
X1051804D01*
X1053471Y-299276D01*
Y-300943D01*
X1046806D01*
X1056803Y-297610D02*
Y-304275D01*
Y-300943D01*
X1058469Y-299276D01*
X1060135Y-297610D01*
X1061801D01*
X1083461Y-304275D02*
X1076796D01*
X1083461Y-297610D01*
Y-295944D01*
X1081795Y-294278D01*
X1078463D01*
X1076796Y-295944D01*
X1086793Y-304275D02*
Y-294278D01*
X1091792D01*
X1093458Y-295944D01*
Y-299276D01*
X1091792Y-300943D01*
X1086793D01*
X1029716Y-320444D02*
X1031382Y-318778D01*
X1034714D01*
X1036380Y-320444D01*
Y-327109D01*
X1034714Y-328775D01*
X1031382D01*
X1029716Y-327109D01*
Y-320444D01*
X1039713Y-327109D02*
X1041379Y-328775D01*
X1044711D01*
X1046377Y-327109D01*
Y-320444D01*
X1044711Y-318778D01*
X1041379D01*
X1039713Y-320444D01*
Y-322110D01*
X1041379Y-323776D01*
X1046377D01*
X1049709Y-328775D02*
Y-327109D01*
X1051375D01*
Y-328775D01*
X1049709D01*
X1058040Y-320444D02*
X1059706Y-318778D01*
X1063038D01*
X1064704Y-320444D01*
Y-327109D01*
X1063038Y-328775D01*
X1059706D01*
X1058040Y-327109D01*
Y-320444D01*
X1074701Y-318778D02*
X1071369Y-320444D01*
X1068037Y-323776D01*
Y-327109D01*
X1069703Y-328775D01*
X1073035D01*
X1074701Y-327109D01*
Y-325443D01*
X1073035Y-323776D01*
X1068037D01*
X1078034Y-328775D02*
Y-327109D01*
X1079700D01*
Y-328775D01*
X1078034D01*
X1093029D02*
X1086364D01*
X1093029Y-322110D01*
Y-320444D01*
X1091362Y-318778D01*
X1088030D01*
X1086364Y-320444D01*
X1096361D02*
X1098027Y-318778D01*
X1101359D01*
X1103025Y-320444D01*
Y-327109D01*
X1101359Y-328775D01*
X1098027D01*
X1096361Y-327109D01*
Y-320444D01*
X1113022Y-328775D02*
X1106358D01*
X1113022Y-322110D01*
Y-320444D01*
X1111356Y-318778D01*
X1108024D01*
X1106358Y-320444D01*
X1116354D02*
X1118021Y-318778D01*
X1121353D01*
X1123019Y-320444D01*
Y-327109D01*
X1121353Y-328775D01*
X1118021D01*
X1116354Y-327109D01*
Y-320444D01*
X974816Y-282875D02*
Y-272878D01*
X978148Y-276210D01*
X981480Y-272878D01*
Y-282875D01*
X984813D02*
Y-272878D01*
X988145Y-276210D01*
X991477Y-272878D01*
Y-282875D01*
X994809Y-272878D02*
Y-282875D01*
X999808D01*
X1001474Y-281209D01*
Y-279542D01*
X999808Y-277876D01*
X994809D01*
X999808D01*
X1001474Y-276210D01*
Y-274544D01*
X999808Y-272878D01*
X994809D01*
X1004806Y-284541D02*
X1011471D01*
X1021467Y-274544D02*
X1019801Y-272878D01*
X1016469D01*
X1014803Y-274544D01*
Y-281209D01*
X1016469Y-282875D01*
X1019801D01*
X1021467Y-281209D01*
X1026466Y-282875D02*
X1029798D01*
X1031464Y-281209D01*
Y-277876D01*
X1029798Y-276210D01*
X1026466D01*
X1024800Y-277876D01*
Y-281209D01*
X1026466Y-282875D01*
X1034796D02*
Y-276210D01*
X1039795D01*
X1041461Y-277876D01*
Y-282875D01*
X1046459Y-274544D02*
Y-276210D01*
X1044793D01*
X1048125D01*
X1046459D01*
Y-281209D01*
X1048125Y-282875D01*
X1053124Y-276210D02*
Y-282875D01*
Y-279542D01*
X1054790Y-277876D01*
X1056456Y-276210D01*
X1058122D01*
X1064787Y-282875D02*
X1068119D01*
X1069785Y-281209D01*
Y-277876D01*
X1068119Y-276210D01*
X1064787D01*
X1063121Y-277876D01*
Y-281209D01*
X1064787Y-282875D01*
X1073117D02*
X1076450D01*
X1074784D01*
Y-272878D01*
X1073117D01*
X1081448Y-282875D02*
X1084780D01*
X1083114D01*
Y-272878D01*
X1081448D01*
X1094777Y-282875D02*
X1091445D01*
X1089779Y-281209D01*
Y-277876D01*
X1091445Y-276210D01*
X1094777D01*
X1096443Y-277876D01*
Y-279542D01*
X1089779D01*
X1099775Y-276210D02*
Y-282875D01*
Y-279542D01*
X1101441Y-277876D01*
X1103108Y-276210D01*
X1104774D01*
X1109772Y-284541D02*
X1116437D01*
X1119769Y-272878D02*
Y-282875D01*
X1124767D01*
X1126433Y-281209D01*
Y-279542D01*
X1124767Y-277876D01*
X1119769D01*
X1124767D01*
X1126433Y-276210D01*
Y-274544D01*
X1124767Y-272878D01*
X1119769D01*
X1131432Y-282875D02*
X1134764D01*
X1136430Y-281209D01*
Y-277876D01*
X1134764Y-276210D01*
X1131432D01*
X1129766Y-277876D01*
Y-281209D01*
X1131432Y-282875D01*
X1141429Y-276210D02*
X1144761D01*
X1146427Y-277876D01*
Y-282875D01*
X1141429D01*
X1139762Y-281209D01*
X1141429Y-279542D01*
X1146427D01*
X1149759Y-276210D02*
Y-282875D01*
Y-279542D01*
X1151425Y-277876D01*
X1153092Y-276210D01*
X1154758D01*
X1166420Y-272878D02*
Y-282875D01*
X1161422D01*
X1159756Y-281209D01*
Y-277876D01*
X1161422Y-276210D01*
X1166420D01*
X1169753Y-282875D02*
Y-281209D01*
X1171419D01*
Y-282875D01*
X1169753D01*
X1178083Y-286207D02*
Y-276210D01*
X1183082D01*
X1184748Y-277876D01*
Y-281209D01*
X1183082Y-282875D01*
X1178083D01*
X1194745Y-276210D02*
X1189746D01*
X1188080Y-277876D01*
Y-281209D01*
X1189746Y-282875D01*
X1194745D01*
X1198077Y-272878D02*
Y-282875D01*
X1203075D01*
X1204741Y-281209D01*
Y-279542D01*
Y-277876D01*
X1203075Y-276210D01*
X1198077D01*
X1214738Y-272878D02*
Y-282875D01*
X1209740D01*
X1208074Y-281209D01*
Y-277876D01*
X1209740Y-276210D01*
X1214738D01*
X1219737Y-282875D02*
X1223069D01*
X1224735Y-281209D01*
Y-277876D01*
X1223069Y-276210D01*
X1219737D01*
X1218071Y-277876D01*
Y-281209D01*
X1219737Y-282875D01*
X1234732Y-276210D02*
X1229733D01*
X1228067Y-277876D01*
Y-281209D01*
X1229733Y-282875D01*
X1234732D01*
D115*
X11811Y196850D02*
G03*
X-0Y185039I-0J-11811D01*
G01*
X334646Y185039D02*
G03*
X322835Y196850I-11811J-0D01*
G01*
X322835Y0D02*
G03*
X334646Y11811I0J11811D01*
G01*
X0Y11811D02*
G03*
X11811Y-0I11811J-0D01*
G01*
X11811D02*
X322835Y0D01*
X334646Y11811D02*
X334646Y185039D01*
X11811Y196850D02*
X322835Y196850D01*
X-0Y185039D02*
X0Y11811D01*
D116*
X324370Y166890D02*
D03*
X324370Y146890D02*
D03*
X304370Y146890D02*
D03*
X304370Y166890D02*
D03*
X324567Y50354D02*
D03*
X324567Y30354D02*
D03*
X304567Y30354D02*
D03*
X304567Y50354D02*
D03*
D117*
X314370Y156890D02*
D03*
X314567Y40354D02*
D03*
D118*
X242973Y57215D02*
D03*
X242973Y139715D02*
D03*
X22441Y139567D02*
D03*
X22441Y57067D02*
D03*
D119*
X322835Y11811D02*
D03*
X11811Y185039D02*
D03*
Y11811D02*
D03*
X322835Y185039D02*
D03*
D120*
X132874Y43504D02*
D03*
X133071Y153543D02*
D03*
D121*
X116929Y77087D02*
D03*
Y87087D02*
D03*
Y97087D02*
D03*
Y107087D02*
D03*
Y117087D02*
D03*
D122*
Y127087D02*
D03*
D123*
X177362Y64173D02*
D03*
X310236Y82284D02*
D03*
X293504Y104528D02*
D03*
X288976Y119291D02*
D03*
X288500Y81000D02*
D03*
X310236Y85630D02*
D03*
X297047Y101969D02*
D03*
X148622Y133071D02*
D03*
X229509Y128900D02*
D03*
X203543Y128347D02*
D03*
X167520Y147047D02*
D03*
X147441Y101378D02*
D03*
X162008Y153347D02*
D03*
X146500Y123000D02*
D03*
X217000Y63500D02*
D03*
X153937Y146063D02*
D03*
X230000Y124000D02*
D03*
Y126500D02*
D03*
X147835Y76772D02*
D03*
X229500Y92000D02*
D03*
X163976Y162598D02*
D03*
X210827Y49016D02*
D03*
X217126Y107283D02*
D03*
X165551Y144882D02*
D03*
X230500Y102000D02*
D03*
X229000Y113500D02*
D03*
X146850Y67716D02*
D03*
X228762Y107692D02*
D03*
X209449Y112598D02*
D03*
X134646Y79724D02*
D03*
X210630Y79134D02*
D03*
X201969Y112598D02*
D03*
X156299Y51378D02*
D03*
X229500Y121000D02*
D03*
X217126Y132874D02*
D03*
X192913Y133465D02*
D03*
X135827Y85630D02*
D03*
X210236Y127953D02*
D03*
X151772Y64370D02*
D03*
X207480Y81102D02*
D03*
X230500Y99500D02*
D03*
X132283Y76968D02*
D03*
X197047Y65354D02*
D03*
X216929Y87205D02*
D03*
X169488Y144882D02*
D03*
X148819Y50591D02*
D03*
X170866Y133071D02*
D03*
X212992Y63779D02*
D03*
X229500Y95500D02*
D03*
X157283Y146063D02*
D03*
X181000Y147500D02*
D03*
X85433Y93307D02*
D03*
X87500Y96000D02*
D03*
X85630Y127559D02*
D03*
X169291Y35433D02*
D03*
X85433Y83268D02*
D03*
X85500Y121500D02*
D03*
Y107000D02*
D03*
Y114000D02*
D03*
X86417Y130905D02*
D03*
X85433Y103347D02*
D03*
X85500Y117500D02*
D03*
X84252Y58268D02*
D03*
X85433Y88189D02*
D03*
X201969Y27953D02*
D03*
X224803Y28937D02*
D03*
X223228Y183858D02*
D03*
X129921Y174016D02*
D03*
X142913Y184252D02*
D03*
X151579Y178276D02*
D03*
X151969Y192520D02*
D03*
X175591Y191535D02*
D03*
X150000Y153500D02*
D03*
X111417Y44882D02*
D03*
X131102Y60236D02*
D03*
X98425Y164961D02*
D03*
X281496Y26772D02*
D03*
X264173Y23622D02*
D03*
X169291Y159843D02*
D03*
X161024Y179921D02*
D03*
X162795Y176181D02*
D03*
X85433Y146457D02*
D03*
X30315D02*
D03*
X34252Y126772D02*
D03*
Y123622D02*
D03*
X42634Y154724D02*
D03*
X42520Y161024D02*
D03*
X6299Y141929D02*
D03*
X10236Y128347D02*
D03*
X10433Y133268D02*
D03*
Y124409D02*
D03*
X9843Y94488D02*
D03*
X10630Y90157D02*
D03*
X9843Y107874D02*
D03*
X10630Y111417D02*
D03*
X5512Y88189D02*
D03*
X5906Y93701D02*
D03*
X10236Y101575D02*
D03*
Y104724D02*
D03*
X166339Y165748D02*
D03*
X158071Y176969D02*
D03*
X223228Y142126D02*
D03*
X11811Y55512D02*
D03*
X312598Y95669D02*
D03*
X230000Y139000D02*
D03*
X257480Y122835D02*
D03*
X89764Y39764D02*
D03*
X86673Y39823D02*
D03*
X272418Y104522D02*
D03*
X272441Y108661D02*
D03*
X290551Y69685D02*
D03*
X9843Y31102D02*
D03*
X51126Y78539D02*
D03*
X191929Y19094D02*
D03*
X201500Y12500D02*
D03*
X34252Y65354D02*
D03*
X93000Y190000D02*
D03*
X49000Y43500D02*
D03*
X269500Y51000D02*
D03*
X236000Y55500D02*
D03*
X238500D02*
D03*
X258000Y70000D02*
D03*
X22000Y176000D02*
D03*
X292000Y32000D02*
D03*
X292500Y28500D02*
D03*
X34252Y84449D02*
D03*
X51126Y98539D02*
D03*
Y93539D02*
D03*
X52291Y88425D02*
D03*
X50626Y83039D02*
D03*
X52291Y73465D02*
D03*
Y68543D02*
D03*
Y63425D02*
D03*
X71260Y49409D02*
D03*
X231523Y110023D02*
D03*
X229100Y110900D02*
D03*
X63779Y10827D02*
D03*
X61221Y12992D02*
D03*
X230000Y64500D02*
D03*
X229500Y118500D02*
D03*
X258000Y80000D02*
D03*
X275000Y96500D02*
D03*
X271500Y99000D02*
D03*
X271000Y90000D02*
D03*
X271500Y96000D02*
D03*
X268110Y148819D02*
D03*
X274500Y88000D02*
D03*
X255000Y141000D02*
D03*
X249000Y139000D02*
D03*
X274500Y81000D02*
D03*
X271850Y78149D02*
D03*
X271850Y80709D02*
D03*
X272047Y86417D02*
D03*
X271457Y68307D02*
D03*
X254921Y90945D02*
D03*
X257480Y98425D02*
D03*
X254724Y106496D02*
D03*
X257283Y87992D02*
D03*
X254921Y100984D02*
D03*
X160500Y24500D02*
D03*
Y38000D02*
D03*
X311000Y113500D02*
D03*
X208000Y12500D02*
D03*
X284612Y148425D02*
D03*
X233000Y17000D02*
D03*
X235000Y18500D02*
D03*
X244500D02*
D03*
X254000D02*
D03*
X213000Y21000D02*
D03*
X34252Y87008D02*
D03*
X254724Y80905D02*
D03*
X257677Y74803D02*
D03*
X182874Y18701D02*
D03*
X111221Y48031D02*
D03*
X110433Y53740D02*
D03*
X254528Y121063D02*
D03*
X254724Y130709D02*
D03*
X271654Y112598D02*
D03*
X24409Y177559D02*
D03*
Y180709D02*
D03*
X182874Y15748D02*
D03*
X130000Y9000D02*
D03*
X288500Y83500D02*
D03*
X288527Y86252D02*
D03*
X314118Y129905D02*
D03*
X254500Y65500D02*
D03*
Y69000D02*
D03*
X251000Y191500D02*
D03*
X232500D02*
D03*
X241500D02*
D03*
X274016Y114370D02*
D03*
X271654Y123425D02*
D03*
X310039Y95669D02*
D03*
X301000Y185500D02*
D03*
X34252Y97441D02*
D03*
X257527Y138252D02*
D03*
X11024Y84449D02*
D03*
X27953Y28937D02*
D03*
Y31496D02*
D03*
X114173Y32874D02*
D03*
X314370Y62992D02*
D03*
X312008Y65158D02*
D03*
X272047Y63779D02*
D03*
X36614Y192126D02*
D03*
X114173Y36417D02*
D03*
X257874Y106496D02*
D03*
X237008Y141535D02*
D03*
X255315Y112402D02*
D03*
X182874Y22244D02*
D03*
X196653Y29134D02*
D03*
X99606Y185433D02*
D03*
X101181Y168701D02*
D03*
X115945Y166535D02*
D03*
X36024Y113976D02*
D03*
X7283Y32874D02*
D03*
X227756Y36417D02*
D03*
Y38976D02*
D03*
X231693Y81102D02*
D03*
X201575Y38976D02*
D03*
X94094Y26378D02*
D03*
X78937Y39173D02*
D03*
X271654Y119685D02*
D03*
X257874Y128543D02*
D03*
X290158Y72441D02*
D03*
X289370Y176772D02*
D03*
X295669Y139173D02*
D03*
X36614Y94488D02*
D03*
X175787Y35433D02*
D03*
X182283D02*
D03*
X295669Y142717D02*
D03*
X58661Y15157D02*
D03*
X230118Y175787D02*
D03*
X117126Y173819D02*
D03*
X80905Y22047D02*
D03*
X88583Y22244D02*
D03*
X84646D02*
D03*
M02*
