G04*
G04 #@! TF.GenerationSoftware,Altium Limited,Altium Designer,20.1.11 (218)*
G04*
G04 Layer_Physical_Order=3*
G04 Layer_Color=56745*
%FSLAX25Y25*%
%MOIN*%
G70*
G04*
G04 #@! TF.SameCoordinates,26502B99-587C-4767-892E-7210AEBADD4C*
G04*
G04*
G04 #@! TF.FilePolarity,Positive*
G04*
G01*
G75*
%ADD17C,0.01200*%
G04:AMPARAMS|DCode=113|XSize=85mil|YSize=60mil|CornerRadius=15mil|HoleSize=0mil|Usage=FLASHONLY|Rotation=180.000|XOffset=0mil|YOffset=0mil|HoleType=Round|Shape=RoundedRectangle|*
%AMROUNDEDRECTD113*
21,1,0.08500,0.03000,0,0,180.0*
21,1,0.05500,0.06000,0,0,180.0*
1,1,0.03000,-0.02750,0.01500*
1,1,0.03000,0.02750,0.01500*
1,1,0.03000,0.02750,-0.01500*
1,1,0.03000,-0.02750,-0.01500*
%
%ADD113ROUNDEDRECTD113*%
%ADD114C,0.02000*%
%ADD124C,0.00550*%
D17*
X1016816Y-294278D02*
Y-304275D01*
X1023480D01*
X1028479Y-297610D02*
X1031811D01*
X1033477Y-299276D01*
Y-304275D01*
X1028479D01*
X1026812Y-302609D01*
X1028479Y-300943D01*
X1033477D01*
X1036809Y-297610D02*
Y-302609D01*
X1038475Y-304275D01*
X1043474D01*
Y-305941D01*
X1041808Y-307607D01*
X1040141D01*
X1043474Y-304275D02*
Y-297610D01*
X1051804Y-304275D02*
X1048472D01*
X1046806Y-302609D01*
Y-299276D01*
X1048472Y-297610D01*
X1051804D01*
X1053471Y-299276D01*
Y-300943D01*
X1046806D01*
X1056803Y-297610D02*
Y-304275D01*
Y-300943D01*
X1058469Y-299276D01*
X1060135Y-297610D01*
X1061801D01*
X1076796Y-295944D02*
X1078463Y-294278D01*
X1081795D01*
X1083461Y-295944D01*
Y-297610D01*
X1081795Y-299276D01*
X1080129D01*
X1081795D01*
X1083461Y-300943D01*
Y-302609D01*
X1081795Y-304275D01*
X1078463D01*
X1076796Y-302609D01*
X1029716Y-320444D02*
X1031382Y-318778D01*
X1034714D01*
X1036380Y-320444D01*
Y-327109D01*
X1034714Y-328775D01*
X1031382D01*
X1029716Y-327109D01*
Y-320444D01*
X1039713Y-327109D02*
X1041379Y-328775D01*
X1044711D01*
X1046377Y-327109D01*
Y-320444D01*
X1044711Y-318778D01*
X1041379D01*
X1039713Y-320444D01*
Y-322110D01*
X1041379Y-323776D01*
X1046377D01*
X1049709Y-328775D02*
Y-327109D01*
X1051375D01*
Y-328775D01*
X1049709D01*
X1058040Y-320444D02*
X1059706Y-318778D01*
X1063038D01*
X1064704Y-320444D01*
Y-327109D01*
X1063038Y-328775D01*
X1059706D01*
X1058040Y-327109D01*
Y-320444D01*
X1074701Y-318778D02*
X1071369Y-320444D01*
X1068037Y-323776D01*
Y-327109D01*
X1069703Y-328775D01*
X1073035D01*
X1074701Y-327109D01*
Y-325443D01*
X1073035Y-323776D01*
X1068037D01*
X1078034Y-328775D02*
Y-327109D01*
X1079700D01*
Y-328775D01*
X1078034D01*
X1093029D02*
X1086364D01*
X1093029Y-322110D01*
Y-320444D01*
X1091362Y-318778D01*
X1088030D01*
X1086364Y-320444D01*
X1096361D02*
X1098027Y-318778D01*
X1101359D01*
X1103025Y-320444D01*
Y-327109D01*
X1101359Y-328775D01*
X1098027D01*
X1096361Y-327109D01*
Y-320444D01*
X1113022Y-328775D02*
X1106358D01*
X1113022Y-322110D01*
Y-320444D01*
X1111356Y-318778D01*
X1108024D01*
X1106358Y-320444D01*
X1116354D02*
X1118021Y-318778D01*
X1121353D01*
X1123019Y-320444D01*
Y-327109D01*
X1121353Y-328775D01*
X1118021D01*
X1116354Y-327109D01*
Y-320444D01*
X974816Y-282875D02*
Y-272878D01*
X978148Y-276210D01*
X981480Y-272878D01*
Y-282875D01*
X984813D02*
Y-272878D01*
X988145Y-276210D01*
X991477Y-272878D01*
Y-282875D01*
X994809Y-272878D02*
Y-282875D01*
X999808D01*
X1001474Y-281209D01*
Y-279542D01*
X999808Y-277876D01*
X994809D01*
X999808D01*
X1001474Y-276210D01*
Y-274544D01*
X999808Y-272878D01*
X994809D01*
X1004806Y-284541D02*
X1011471D01*
X1021467Y-274544D02*
X1019801Y-272878D01*
X1016469D01*
X1014803Y-274544D01*
Y-281209D01*
X1016469Y-282875D01*
X1019801D01*
X1021467Y-281209D01*
X1026466Y-282875D02*
X1029798D01*
X1031464Y-281209D01*
Y-277876D01*
X1029798Y-276210D01*
X1026466D01*
X1024800Y-277876D01*
Y-281209D01*
X1026466Y-282875D01*
X1034796D02*
Y-276210D01*
X1039795D01*
X1041461Y-277876D01*
Y-282875D01*
X1046459Y-274544D02*
Y-276210D01*
X1044793D01*
X1048125D01*
X1046459D01*
Y-281209D01*
X1048125Y-282875D01*
X1053124Y-276210D02*
Y-282875D01*
Y-279542D01*
X1054790Y-277876D01*
X1056456Y-276210D01*
X1058122D01*
X1064787Y-282875D02*
X1068119D01*
X1069785Y-281209D01*
Y-277876D01*
X1068119Y-276210D01*
X1064787D01*
X1063121Y-277876D01*
Y-281209D01*
X1064787Y-282875D01*
X1073117D02*
X1076450D01*
X1074784D01*
Y-272878D01*
X1073117D01*
X1081448Y-282875D02*
X1084780D01*
X1083114D01*
Y-272878D01*
X1081448D01*
X1094777Y-282875D02*
X1091445D01*
X1089779Y-281209D01*
Y-277876D01*
X1091445Y-276210D01*
X1094777D01*
X1096443Y-277876D01*
Y-279542D01*
X1089779D01*
X1099775Y-276210D02*
Y-282875D01*
Y-279542D01*
X1101441Y-277876D01*
X1103108Y-276210D01*
X1104774D01*
X1109772Y-284541D02*
X1116437D01*
X1119769Y-272878D02*
Y-282875D01*
X1124767D01*
X1126433Y-281209D01*
Y-279542D01*
X1124767Y-277876D01*
X1119769D01*
X1124767D01*
X1126433Y-276210D01*
Y-274544D01*
X1124767Y-272878D01*
X1119769D01*
X1131432Y-282875D02*
X1134764D01*
X1136430Y-281209D01*
Y-277876D01*
X1134764Y-276210D01*
X1131432D01*
X1129766Y-277876D01*
Y-281209D01*
X1131432Y-282875D01*
X1141429Y-276210D02*
X1144761D01*
X1146427Y-277876D01*
Y-282875D01*
X1141429D01*
X1139762Y-281209D01*
X1141429Y-279542D01*
X1146427D01*
X1149759Y-276210D02*
Y-282875D01*
Y-279542D01*
X1151425Y-277876D01*
X1153092Y-276210D01*
X1154758D01*
X1166420Y-272878D02*
Y-282875D01*
X1161422D01*
X1159756Y-281209D01*
Y-277876D01*
X1161422Y-276210D01*
X1166420D01*
X1169753Y-282875D02*
Y-281209D01*
X1171419D01*
Y-282875D01*
X1169753D01*
X1178083Y-286207D02*
Y-276210D01*
X1183082D01*
X1184748Y-277876D01*
Y-281209D01*
X1183082Y-282875D01*
X1178083D01*
X1194745Y-276210D02*
X1189746D01*
X1188080Y-277876D01*
Y-281209D01*
X1189746Y-282875D01*
X1194745D01*
X1198077Y-272878D02*
Y-282875D01*
X1203075D01*
X1204741Y-281209D01*
Y-279542D01*
Y-277876D01*
X1203075Y-276210D01*
X1198077D01*
X1214738Y-272878D02*
Y-282875D01*
X1209740D01*
X1208074Y-281209D01*
Y-277876D01*
X1209740Y-276210D01*
X1214738D01*
X1219737Y-282875D02*
X1223069D01*
X1224735Y-281209D01*
Y-277876D01*
X1223069Y-276210D01*
X1219737D01*
X1218071Y-277876D01*
Y-281209D01*
X1219737Y-282875D01*
X1234732Y-276210D02*
X1229733D01*
X1228067Y-277876D01*
Y-281209D01*
X1229733Y-282875D01*
X1234732D01*
D113*
X116929Y87087D02*
D03*
Y97087D02*
D03*
D114*
X293504Y104528D02*
D03*
X288976Y119291D02*
D03*
X297047Y101969D02*
D03*
X162008Y153347D02*
D03*
X230000Y124000D02*
D03*
Y126500D02*
D03*
X229500Y92000D02*
D03*
X210827Y49016D02*
D03*
X165551Y144882D02*
D03*
X230500Y102000D02*
D03*
X229000Y113500D02*
D03*
X228762Y107692D02*
D03*
X156299Y51378D02*
D03*
X135827Y85630D02*
D03*
X230500Y99500D02*
D03*
X169488Y144882D02*
D03*
X229500Y95500D02*
D03*
X181000Y147500D02*
D03*
X42634Y154724D02*
D03*
X42520Y161024D02*
D03*
X10236Y128347D02*
D03*
X10433Y133268D02*
D03*
Y124409D02*
D03*
X230000Y139000D02*
D03*
X191929Y19094D02*
D03*
X201500Y12500D02*
D03*
X93000Y190000D02*
D03*
X292000Y32000D02*
D03*
X292500Y28500D02*
D03*
X231523Y110023D02*
D03*
X229100Y110900D02*
D03*
X230000Y64500D02*
D03*
X258000Y80000D02*
D03*
X271000Y90000D02*
D03*
X271500Y96000D02*
D03*
X268110Y148819D02*
D03*
X274500Y88000D02*
D03*
X255000Y141000D02*
D03*
X249000Y139000D02*
D03*
X274500Y81000D02*
D03*
X271850Y78149D02*
D03*
X271850Y80709D02*
D03*
X272047Y86417D02*
D03*
X257480Y98425D02*
D03*
X254724Y106496D02*
D03*
X257283Y87992D02*
D03*
X254921Y100984D02*
D03*
X284612Y148425D02*
D03*
X233000Y17000D02*
D03*
X235000Y18500D02*
D03*
X244500D02*
D03*
X254000D02*
D03*
X254724Y80905D02*
D03*
X257677Y74803D02*
D03*
X254500Y65500D02*
D03*
Y69000D02*
D03*
X251000Y191500D02*
D03*
X232500D02*
D03*
X241500D02*
D03*
X36614Y192126D02*
D03*
X257874Y106496D02*
D03*
X255315Y112402D02*
D03*
X196653Y29134D02*
D03*
X99606Y185433D02*
D03*
X101181Y168701D02*
D03*
X115945Y166535D02*
D03*
X36024Y113976D02*
D03*
X227756Y36417D02*
D03*
Y38976D02*
D03*
X231693Y81102D02*
D03*
X201575Y38976D02*
D03*
D124*
X199500Y28000D02*
X223000Y51500D01*
Y63844D01*
X199500Y12500D02*
Y28000D01*
Y12500D02*
X201500D01*
X224454Y105950D02*
X229389D01*
X207087Y88583D02*
X224454Y105950D01*
X138779Y88583D02*
X207087D01*
X143118Y12000D02*
X193500D01*
X114077Y41041D02*
X143118Y12000D01*
X112692Y41041D02*
X114077D01*
X153740Y51378D02*
X156299D01*
X148618Y56500D02*
X153740Y51378D01*
X130218Y56500D02*
X148618D01*
X135827Y85630D02*
X138779Y88583D01*
X64500Y118177D02*
Y129988D01*
X42634Y151854D02*
X64500Y129988D01*
X42634Y151854D02*
Y154724D01*
X42520Y161024D02*
X43307D01*
X52756Y170472D01*
X42520Y160630D02*
Y161024D01*
X52756Y170472D02*
X137205D01*
X162795Y144882D01*
X165551D01*
X217323D02*
X223205Y139000D01*
X169488Y144882D02*
X217323D01*
X223205Y139000D02*
X230000D01*
X230500Y136500D02*
X232500Y138500D01*
X228754Y136500D02*
X230500D01*
X232500Y138500D02*
Y140138D01*
X222244Y150394D02*
X232500Y140138D01*
X162564Y150394D02*
X222244D01*
X54324Y85827D02*
X108952Y31199D01*
X49016Y85827D02*
X54324D01*
X10433Y124409D02*
X49016Y85827D01*
X93000Y189000D02*
Y190000D01*
X102538Y179462D02*
X131168D01*
X93000Y189000D02*
X102538Y179462D01*
X115061Y43131D02*
Y66048D01*
Y43131D02*
X127547Y30644D01*
X29331Y151778D02*
X115061Y66048D01*
X234325Y38696D02*
Y57825D01*
Y38696D02*
X235000Y38021D01*
Y18500D02*
Y38021D01*
X257740Y74740D02*
X258000Y75000D01*
X249387Y66513D02*
X257437Y74563D01*
X257677Y74803D01*
X234325Y57825D02*
X243013Y66513D01*
X254500Y69000D02*
X258000Y72500D01*
X259000D01*
X10268Y133268D02*
X10500Y133500D01*
X3000Y86500D02*
Y129500D01*
Y86500D02*
X74250Y15250D01*
X3000Y129500D02*
X6768Y133268D01*
X74250Y15250D02*
X130750D01*
X6768Y133268D02*
X10268D01*
X130750Y15250D02*
X138950Y7050D01*
X144319D01*
X144869Y6500D01*
X284500D01*
X298000Y20000D01*
Y97812D01*
X297047Y98764D02*
X298000Y97812D01*
X297047Y98764D02*
Y101969D01*
X297325Y101691D01*
X296500Y22000D02*
Y96500D01*
X282500Y8000D02*
X296500Y22000D01*
X141000Y8000D02*
X282500D01*
X293504Y99496D02*
X296500Y96500D01*
X295000Y23500D02*
Y94188D01*
X281500Y10000D02*
X295000Y23500D01*
X288976Y100211D02*
X295000Y94188D01*
X293504Y99496D02*
Y104528D01*
X231028Y16604D02*
Y28028D01*
X275325Y15325D02*
X292000Y32000D01*
X232306Y15325D02*
X275325D01*
X276000Y12000D02*
X292500Y28500D01*
X232822Y12000D02*
X276000D01*
X231028Y16604D02*
X232306Y15325D01*
X119000Y30000D02*
X141000Y8000D01*
X79000Y30000D02*
X119000D01*
X142000Y10000D02*
X281500D01*
X120801Y31199D02*
X142000Y10000D01*
X108952Y31199D02*
X120801D01*
X8000Y101000D02*
X79000Y30000D01*
X8000Y101000D02*
Y127000D01*
X9069Y128069D01*
X9569D01*
X10000Y128500D01*
X288976Y100211D02*
Y119291D01*
X221500Y87500D02*
X229500Y95500D01*
X221500Y52500D02*
Y87500D01*
X194500Y13000D02*
Y38500D01*
X193500Y12000D02*
X194500Y13000D01*
X198134Y29134D02*
X221500Y52500D01*
X194500Y38500D02*
X205016Y49016D01*
X180379Y30644D02*
X191929Y19094D01*
X127547Y30644D02*
X180379D01*
X223000Y63844D02*
X227500Y68344D01*
Y90000D01*
X224500Y31996D02*
X229000Y27496D01*
X224500Y31996D02*
Y64000D01*
X229000Y15822D02*
Y27496D01*
X36024Y113976D02*
X39757D01*
X112692Y41041D01*
X220000Y54000D02*
Y95500D01*
X208616Y42616D02*
X220000Y54000D01*
X205215Y42616D02*
X208616D01*
X196653Y29134D02*
X198134D01*
X106000Y80718D02*
X130218Y56500D01*
X229500Y105000D02*
X233000D01*
X220000Y95500D02*
X229500Y105000D01*
X229806Y103675D02*
X233675D01*
X228825Y98675D02*
Y102694D01*
X229806Y103675D01*
X231500Y109608D02*
X231523Y109630D01*
X231500Y108061D02*
Y109608D01*
X229389Y105950D02*
X231500Y108061D01*
X231523Y109630D02*
Y110023D01*
X226375Y134121D02*
X228754Y136500D01*
X226375Y110079D02*
Y134121D01*
Y110079D02*
X228625Y107829D01*
X228762D01*
X230500Y100000D02*
X234500Y96000D01*
X224500Y64000D02*
X234500Y74000D01*
X226000Y63000D02*
X236500Y73500D01*
X226000Y33055D02*
Y63000D01*
Y33055D02*
X231028Y28028D01*
X233000Y105000D02*
X235000Y107000D01*
X232175Y84585D02*
Y95325D01*
X228825Y98675D02*
X232175Y95325D01*
X233675Y103675D02*
X237500Y107500D01*
X230500Y102000D02*
X231000D01*
X236500Y96500D01*
X230500Y99500D02*
Y100000D01*
X234500Y74000D02*
Y96000D01*
X227325Y112675D02*
X229100Y110900D01*
X227325Y112675D02*
Y131325D01*
X234218Y138218D01*
X233000Y113500D02*
X235000Y111500D01*
X229000Y113500D02*
X233000D01*
X235000Y107000D02*
Y111500D01*
X201575Y38976D02*
X205215Y42616D01*
X205016Y49016D02*
X210827D01*
X236500Y73500D02*
Y96500D01*
X251817Y86317D02*
X257977D01*
X230000Y64500D02*
X251817Y86317D01*
X267660Y96000D02*
X271500D01*
X257977Y86317D02*
X267660Y96000D01*
X230000Y61000D02*
X253500Y84500D01*
X230000Y39500D02*
Y61000D01*
X253500Y84500D02*
X258000D01*
X231500Y60500D02*
X243715Y72715D01*
X231500Y39000D02*
Y60500D01*
X243715Y72715D02*
Y72765D01*
X254500Y83550D01*
X259050D01*
X227500Y90000D02*
X229500Y92000D01*
X237500Y107500D02*
Y119000D01*
X232500Y124000D02*
X237500Y119000D01*
X230000Y124000D02*
X232500D01*
X244500Y18500D02*
X248000Y22000D01*
Y62500D01*
X254500Y69000D01*
X254250Y65250D02*
X254500Y65500D01*
X254250Y18750D02*
Y65250D01*
X254000Y18500D02*
X254250Y18750D01*
X243013Y66513D02*
X249387D01*
X271700Y78000D02*
X272000D01*
X254500Y65500D02*
X259200D01*
X271700Y78000D01*
X259000Y72500D02*
X267209Y80709D01*
X271850D01*
X258000Y75000D02*
X259000D01*
X270222Y86222D01*
X271852D01*
X272047Y86417D01*
X258000Y80000D02*
X260500D01*
X268592Y88092D01*
X274408D01*
X274500Y88000D01*
X267500Y90000D02*
X271000D01*
X260100Y82600D02*
X267500Y90000D01*
X256419Y82600D02*
X260100D01*
X229000Y15822D02*
X232822Y12000D01*
X233000Y17000D02*
Y59181D01*
X254724Y80905D01*
X255000Y81181D02*
X256419Y82600D01*
X228917Y36417D02*
X231500Y39000D01*
X227756Y36417D02*
X228917D01*
X278500Y92500D02*
X281000Y90000D01*
X268000Y92500D02*
X278500D01*
X259050Y83550D02*
X268000Y92500D01*
X277500Y94000D02*
X286500Y103000D01*
X267500Y94000D02*
X277500D01*
X258000Y84500D02*
X267500Y94000D01*
X274500Y81000D02*
X278000D01*
X281000Y84000D01*
Y90000D01*
X276500Y101000D02*
Y140313D01*
X271500Y96000D02*
X276500Y101000D01*
X229500Y39000D02*
X230000Y39500D01*
X268110Y148819D02*
X269791Y150500D01*
X285678D01*
X286500Y149678D01*
Y103000D02*
Y149678D01*
X276500Y140313D02*
X284612Y148425D01*
X248000Y141000D02*
X255000D01*
X246825Y139825D02*
X248000Y141000D01*
X246825Y109081D02*
Y139825D01*
X254720Y106500D02*
X255000D01*
X249000Y112221D02*
X254720Y106500D01*
X249000Y112221D02*
Y139000D01*
X246825Y109081D02*
X254906Y101000D01*
X227780Y39000D02*
X229500D01*
X227756Y38976D02*
X227780Y39000D01*
X231693Y84103D02*
X232175Y84585D01*
X231693Y81102D02*
Y84103D01*
X257480Y98425D02*
X262008D01*
X244000Y108500D02*
X257283Y95217D01*
Y87992D02*
Y95217D01*
X244000Y108500D02*
Y117500D01*
X235000Y126500D02*
X244000Y117500D01*
X230000Y126500D02*
X235000D01*
X234218Y138218D02*
Y141570D01*
X222441Y153347D02*
X234218Y141570D01*
X88000Y101000D02*
X106000Y83000D01*
X81677Y101000D02*
X88000D01*
X64500Y118177D02*
X81677Y101000D01*
X106000Y80718D02*
Y83000D01*
X29331Y151778D02*
Y164757D01*
X262008Y98425D02*
X265551Y101969D01*
X29230Y164857D02*
Y184742D01*
Y164857D02*
X29331Y164757D01*
X29230Y184742D02*
X36614Y192126D01*
X112024Y162812D02*
X115945Y166732D01*
X112024Y104694D02*
X114500Y102218D01*
Y99516D02*
Y102218D01*
Y99516D02*
X116929Y97087D01*
X107874Y98844D02*
X117000Y89718D01*
Y87157D02*
Y89718D01*
X116929Y87087D02*
X117000Y87157D01*
X265551Y101969D02*
Y176949D01*
X251000Y191500D02*
X265551Y176949D01*
X255512Y146260D02*
Y168488D01*
X232500Y191500D02*
X255512Y168488D01*
X241500Y191500D02*
X259842Y173158D01*
Y147638D02*
Y173158D01*
X177000Y147500D02*
X181000D01*
X175681Y148819D02*
X177000Y147500D01*
X161811Y148819D02*
X175681D01*
X131168Y179462D02*
X161811Y148819D01*
X255512Y146260D02*
X259842Y141929D01*
Y116929D02*
Y141929D01*
X255315Y112402D02*
X259842Y116929D01*
X257874Y106496D02*
X262795Y111417D01*
Y144685D01*
X259842Y147638D02*
X262795Y144685D01*
X162008Y153347D02*
X222441Y153347D01*
X132546Y180412D02*
X162564Y150394D01*
X104628Y180412D02*
X132546D01*
X99606Y185433D02*
X104628Y180412D01*
X112024Y104694D02*
Y162812D01*
X156299Y51181D02*
Y51378D01*
X107874Y98844D02*
Y160433D01*
X101181Y167126D02*
Y168701D01*
Y167126D02*
X107874Y160433D01*
M02*
