G04*
G04 #@! TF.GenerationSoftware,Altium Limited,Altium Designer,20.1.11 (218)*
G04*
G04 Layer_Physical_Order=1*
G04 Layer_Color=25308*
%FSLAX25Y25*%
%MOIN*%
G70*
G04*
G04 #@! TF.SameCoordinates,26502B99-587C-4767-892E-7210AEBADD4C*
G04*
G04*
G04 #@! TF.FilePolarity,Positive*
G04*
G01*
G75*
%ADD14C,0.00600*%
%ADD17C,0.01200*%
%ADD81R,0.14764X0.03937*%
%ADD82O,0.01181X0.07087*%
%ADD83O,0.07087X0.01181*%
G04:AMPARAMS|DCode=84|XSize=39.37mil|YSize=35.43mil|CornerRadius=0mil|HoleSize=0mil|Usage=FLASHONLY|Rotation=225.000|XOffset=0mil|YOffset=0mil|HoleType=Round|Shape=Rectangle|*
%AMROTATEDRECTD84*
4,1,4,0.00139,0.02645,0.02645,0.00139,-0.00139,-0.02645,-0.02645,-0.00139,0.00139,0.02645,0.0*
%
%ADD84ROTATEDRECTD84*%

G04:AMPARAMS|DCode=85|XSize=31.5mil|YSize=31.5mil|CornerRadius=4.72mil|HoleSize=0mil|Usage=FLASHONLY|Rotation=0.000|XOffset=0mil|YOffset=0mil|HoleType=Round|Shape=RoundedRectangle|*
%AMROUNDEDRECTD85*
21,1,0.03150,0.02205,0,0,0.0*
21,1,0.02205,0.03150,0,0,0.0*
1,1,0.00945,0.01102,-0.01102*
1,1,0.00945,-0.01102,-0.01102*
1,1,0.00945,-0.01102,0.01102*
1,1,0.00945,0.01102,0.01102*
%
%ADD85ROUNDEDRECTD85*%
G04:AMPARAMS|DCode=86|XSize=31.5mil|YSize=31.5mil|CornerRadius=4.72mil|HoleSize=0mil|Usage=FLASHONLY|Rotation=270.000|XOffset=0mil|YOffset=0mil|HoleType=Round|Shape=RoundedRectangle|*
%AMROUNDEDRECTD86*
21,1,0.03150,0.02205,0,0,270.0*
21,1,0.02205,0.03150,0,0,270.0*
1,1,0.00945,-0.01102,-0.01102*
1,1,0.00945,-0.01102,0.01102*
1,1,0.00945,0.01102,0.01102*
1,1,0.00945,0.01102,-0.01102*
%
%ADD86ROUNDEDRECTD86*%
%ADD87R,0.03347X0.02953*%
%ADD88O,0.02756X0.09843*%
G04:AMPARAMS|DCode=89|XSize=15.75mil|YSize=11.81mil|CornerRadius=2.95mil|HoleSize=0mil|Usage=FLASHONLY|Rotation=180.000|XOffset=0mil|YOffset=0mil|HoleType=Round|Shape=RoundedRectangle|*
%AMROUNDEDRECTD89*
21,1,0.01575,0.00591,0,0,180.0*
21,1,0.00984,0.01181,0,0,180.0*
1,1,0.00591,-0.00492,0.00295*
1,1,0.00591,0.00492,0.00295*
1,1,0.00591,0.00492,-0.00295*
1,1,0.00591,-0.00492,-0.00295*
%
%ADD89ROUNDEDRECTD89*%
G04:AMPARAMS|DCode=90|XSize=15.75mil|YSize=11.81mil|CornerRadius=2.95mil|HoleSize=0mil|Usage=FLASHONLY|Rotation=90.000|XOffset=0mil|YOffset=0mil|HoleType=Round|Shape=RoundedRectangle|*
%AMROUNDEDRECTD90*
21,1,0.01575,0.00591,0,0,90.0*
21,1,0.00984,0.01181,0,0,90.0*
1,1,0.00591,0.00295,0.00492*
1,1,0.00591,0.00295,-0.00492*
1,1,0.00591,-0.00295,-0.00492*
1,1,0.00591,-0.00295,0.00492*
%
%ADD90ROUNDEDRECTD90*%
%ADD91R,0.08750X0.02900*%
%ADD92R,0.07087X0.05118*%
%ADD93R,0.03543X0.03937*%
%ADD94R,0.02756X0.03937*%
%ADD95O,0.09055X0.02362*%
G04:AMPARAMS|DCode=96|XSize=21.65mil|YSize=15.75mil|CornerRadius=3.94mil|HoleSize=0mil|Usage=FLASHONLY|Rotation=90.000|XOffset=0mil|YOffset=0mil|HoleType=Round|Shape=RoundedRectangle|*
%AMROUNDEDRECTD96*
21,1,0.02165,0.00787,0,0,90.0*
21,1,0.01378,0.01575,0,0,90.0*
1,1,0.00787,0.00394,0.00689*
1,1,0.00787,0.00394,-0.00689*
1,1,0.00787,-0.00394,-0.00689*
1,1,0.00787,-0.00394,0.00689*
%
%ADD96ROUNDEDRECTD96*%
G04:AMPARAMS|DCode=97|XSize=21.65mil|YSize=15.75mil|CornerRadius=3.94mil|HoleSize=0mil|Usage=FLASHONLY|Rotation=180.000|XOffset=0mil|YOffset=0mil|HoleType=Round|Shape=RoundedRectangle|*
%AMROUNDEDRECTD97*
21,1,0.02165,0.00787,0,0,180.0*
21,1,0.01378,0.01575,0,0,180.0*
1,1,0.00787,-0.00689,0.00394*
1,1,0.00787,0.00689,0.00394*
1,1,0.00787,0.00689,-0.00394*
1,1,0.00787,-0.00689,-0.00394*
%
%ADD97ROUNDEDRECTD97*%
G04:AMPARAMS|DCode=98|XSize=51.18mil|YSize=35.43mil|CornerRadius=3.54mil|HoleSize=0mil|Usage=FLASHONLY|Rotation=0.000|XOffset=0mil|YOffset=0mil|HoleType=Round|Shape=RoundedRectangle|*
%AMROUNDEDRECTD98*
21,1,0.05118,0.02835,0,0,0.0*
21,1,0.04409,0.03543,0,0,0.0*
1,1,0.00709,0.02205,-0.01417*
1,1,0.00709,-0.02205,-0.01417*
1,1,0.00709,-0.02205,0.01417*
1,1,0.00709,0.02205,0.01417*
%
%ADD98ROUNDEDRECTD98*%
G04:AMPARAMS|DCode=99|XSize=51.18mil|YSize=35.43mil|CornerRadius=3.54mil|HoleSize=0mil|Usage=FLASHONLY|Rotation=270.000|XOffset=0mil|YOffset=0mil|HoleType=Round|Shape=RoundedRectangle|*
%AMROUNDEDRECTD99*
21,1,0.05118,0.02835,0,0,270.0*
21,1,0.04409,0.03543,0,0,270.0*
1,1,0.00709,-0.01417,-0.02205*
1,1,0.00709,-0.01417,0.02205*
1,1,0.00709,0.01417,0.02205*
1,1,0.00709,0.01417,-0.02205*
%
%ADD99ROUNDEDRECTD99*%
%ADD100R,0.02756X0.03543*%
%ADD101R,0.04528X0.03937*%
%ADD102R,0.03937X0.04528*%
%ADD103R,0.03937X0.03543*%
%ADD104R,0.07087X0.05118*%
G04:AMPARAMS|DCode=105|XSize=39.37mil|YSize=35.43mil|CornerRadius=0mil|HoleSize=0mil|Usage=FLASHONLY|Rotation=315.000|XOffset=0mil|YOffset=0mil|HoleType=Round|Shape=Rectangle|*
%AMROTATEDRECTD105*
4,1,4,-0.02645,0.00139,-0.00139,0.02645,0.02645,-0.00139,0.00139,-0.02645,-0.02645,0.00139,0.0*
%
%ADD105ROTATEDRECTD105*%

%ADD106R,0.02559X0.04331*%
G04:AMPARAMS|DCode=107|XSize=15.75mil|YSize=62.99mil|CornerRadius=0mil|HoleSize=0mil|Usage=FLASHONLY|Rotation=315.000|XOffset=0mil|YOffset=0mil|HoleType=Round|Shape=Round|*
%AMOVALD107*
21,1,0.04724,0.01575,0.00000,0.00000,45.0*
1,1,0.01575,-0.01670,-0.01670*
1,1,0.01575,0.01670,0.01670*
%
%ADD107OVALD107*%

%ADD108R,0.04331X0.02559*%
%ADD109C,0.00800*%
%ADD110C,0.10000*%
%ADD111C,0.20000*%
%ADD112C,0.24410*%
G04:AMPARAMS|DCode=113|XSize=85mil|YSize=60mil|CornerRadius=15mil|HoleSize=0mil|Usage=FLASHONLY|Rotation=180.000|XOffset=0mil|YOffset=0mil|HoleType=Round|Shape=RoundedRectangle|*
%AMROUNDEDRECTD113*
21,1,0.08500,0.03000,0,0,180.0*
21,1,0.05500,0.06000,0,0,180.0*
1,1,0.03000,-0.02750,0.01500*
1,1,0.03000,0.02750,0.01500*
1,1,0.03000,0.02750,-0.01500*
1,1,0.03000,-0.02750,-0.01500*
%
%ADD113ROUNDEDRECTD113*%
%ADD114C,0.02000*%
D14*
X310236Y85630D02*
X312333Y83534D01*
X321654Y82284D02*
X324705Y79232D01*
Y78425D02*
Y79232D01*
Y86516D02*
Y88425D01*
X324948Y88182D01*
X325413Y77953D02*
X325886Y78425D01*
X312333Y83534D02*
X321722D01*
X310236Y82284D02*
X321654D01*
X321722Y83534D02*
X324705Y86516D01*
X28908Y124409D02*
X29696Y123622D01*
X31890Y129134D02*
X34252Y126772D01*
X28633Y129134D02*
X31890D01*
X29696Y123622D02*
X34252D01*
X11220Y95866D02*
X22440D01*
X9843Y94488D02*
X11220Y95866D01*
X9843Y94488D02*
X10236D01*
X22519Y90945D02*
X24891Y93317D01*
X27816D01*
X11796Y90945D02*
X22519D01*
X11009Y90157D02*
X11796Y90945D01*
X10630Y90157D02*
X11009D01*
X27816Y128317D02*
X28633Y129134D01*
X27816Y123317D02*
X28908Y124409D01*
X246850Y124615D02*
Y125591D01*
Y124615D02*
X248000Y123465D01*
X248348D01*
X246850Y125591D02*
X247244Y125984D01*
X254331D01*
X257480Y122835D01*
X90748Y44291D02*
X93898D01*
X89764Y43307D02*
X90748Y44291D01*
X89764Y39764D02*
Y43307D01*
X83858Y33465D02*
Y37008D01*
X86673Y39823D01*
Y42460D01*
X84646Y44488D02*
X86673Y42460D01*
X89764Y34843D02*
Y39764D01*
X89567Y34646D02*
X89764Y34843D01*
X89567Y34646D02*
X90748Y33465D01*
X116142Y37795D02*
X119681Y34256D01*
X115551Y37795D02*
X116142D01*
X114173Y36417D02*
X115551Y37795D01*
X243082Y130905D02*
X254724D01*
X108465Y29921D02*
X109744Y31201D01*
X116146Y25988D02*
Y27949D01*
X114173Y29921D02*
X116146Y27949D01*
X114173Y29921D02*
Y32874D01*
X119681Y31894D02*
Y34256D01*
X292720Y54331D02*
X297711Y59321D01*
X292126Y54331D02*
X292720D01*
X289567Y56890D02*
X292126Y54331D01*
X297711Y59321D02*
X306368D01*
X289567Y48425D02*
X292126Y50984D01*
X298228Y58071D02*
X306890D01*
X292126Y51968D02*
X298228Y58071D01*
X292126Y50984D02*
Y51968D01*
X280512Y147638D02*
X280709Y147835D01*
X27362Y83661D02*
X28150Y84449D01*
X284646Y65945D02*
X288386Y69685D01*
X283071Y65945D02*
X284646D01*
X288386Y69685D02*
X290551D01*
X93898Y44291D02*
X94095Y44488D01*
X90551Y33268D02*
X90748Y33465D01*
X28150Y84449D02*
X34252D01*
X34093Y87167D02*
X34252Y87008D01*
X29333Y87167D02*
X34093D01*
X28000Y88500D02*
X29333Y87167D01*
X242925Y121063D02*
X254528D01*
X34055Y97244D02*
X34252Y97441D01*
X28543Y97244D02*
X34055D01*
X27756Y98032D02*
X28543Y97244D01*
X22440Y95866D02*
X24891Y98317D01*
X27816D01*
X112992Y32874D02*
X114173D01*
X306496Y59445D02*
X312008Y64957D01*
Y65158D01*
X311811Y62992D02*
X314370D01*
X306890Y58071D02*
X311811Y62992D01*
X112992Y36417D02*
X114173D01*
X111319Y38091D02*
X112992Y36417D01*
X241350Y122638D02*
X242925Y121063D01*
X240158Y122638D02*
X241350D01*
X248425Y128543D02*
X257874D01*
X111319Y31201D02*
X112992Y32874D01*
X240523Y133465D02*
X243082Y130905D01*
X237598Y133465D02*
X240523D01*
X282874Y75394D02*
X285827Y72441D01*
X290158D01*
X280512Y139567D02*
X281102Y140157D01*
X294360Y141408D02*
X295669Y142717D01*
X285561Y141408D02*
X294360D01*
X280512Y146457D02*
X285561Y141408D01*
X294685Y140157D02*
X295669Y139173D01*
X281102Y140157D02*
X294685D01*
X280512Y146457D02*
Y147638D01*
Y147835D01*
X280315Y147441D02*
X280512Y147638D01*
X36593Y94467D02*
X36614Y94488D01*
X28966Y94467D02*
X36593D01*
X27816Y93317D02*
X28966Y94467D01*
X289567Y56890D02*
Y57874D01*
X83661Y33268D02*
X83858Y33465D01*
X109744Y31201D02*
X111319D01*
X109744Y38091D02*
X111319D01*
X108465Y39370D02*
X109744Y38091D01*
D17*
X369178Y169895D02*
Y159898D01*
X375842D01*
X380841Y166563D02*
X384173D01*
X385839Y164897D01*
Y159898D01*
X380841D01*
X379175Y161565D01*
X380841Y163231D01*
X385839D01*
X389172Y166563D02*
Y161565D01*
X390838Y159898D01*
X395836D01*
Y158232D01*
X394170Y156566D01*
X392504D01*
X395836Y159898D02*
Y166563D01*
X404167Y159898D02*
X400834D01*
X399168Y161565D01*
Y164897D01*
X400834Y166563D01*
X404167D01*
X405833Y164897D01*
Y163231D01*
X399168D01*
X409165Y166563D02*
Y159898D01*
Y163231D01*
X410831Y164897D01*
X412497Y166563D01*
X414163D01*
X429159Y159898D02*
X432491D01*
X430825D01*
Y169895D01*
X429159Y168229D01*
X1029716Y-320444D02*
X1031382Y-318778D01*
X1034714D01*
X1036380Y-320444D01*
Y-327109D01*
X1034714Y-328775D01*
X1031382D01*
X1029716Y-327109D01*
Y-320444D01*
X1039713Y-327109D02*
X1041379Y-328775D01*
X1044711D01*
X1046377Y-327109D01*
Y-320444D01*
X1044711Y-318778D01*
X1041379D01*
X1039713Y-320444D01*
Y-322110D01*
X1041379Y-323776D01*
X1046377D01*
X1049709Y-328775D02*
Y-327109D01*
X1051375D01*
Y-328775D01*
X1049709D01*
X1058040Y-320444D02*
X1059706Y-318778D01*
X1063038D01*
X1064704Y-320444D01*
Y-327109D01*
X1063038Y-328775D01*
X1059706D01*
X1058040Y-327109D01*
Y-320444D01*
X1074701Y-318778D02*
X1071369Y-320444D01*
X1068037Y-323776D01*
Y-327109D01*
X1069703Y-328775D01*
X1073035D01*
X1074701Y-327109D01*
Y-325443D01*
X1073035Y-323776D01*
X1068037D01*
X1078034Y-328775D02*
Y-327109D01*
X1079700D01*
Y-328775D01*
X1078034D01*
X1093029D02*
X1086364D01*
X1093029Y-322110D01*
Y-320444D01*
X1091362Y-318778D01*
X1088030D01*
X1086364Y-320444D01*
X1096361D02*
X1098027Y-318778D01*
X1101359D01*
X1103025Y-320444D01*
Y-327109D01*
X1101359Y-328775D01*
X1098027D01*
X1096361Y-327109D01*
Y-320444D01*
X1113022Y-328775D02*
X1106358D01*
X1113022Y-322110D01*
Y-320444D01*
X1111356Y-318778D01*
X1108024D01*
X1106358Y-320444D01*
X1116354D02*
X1118021Y-318778D01*
X1121353D01*
X1123019Y-320444D01*
Y-327109D01*
X1121353Y-328775D01*
X1118021D01*
X1116354Y-327109D01*
Y-320444D01*
X974816Y-282875D02*
Y-272878D01*
X978148Y-276210D01*
X981480Y-272878D01*
Y-282875D01*
X984813D02*
Y-272878D01*
X988145Y-276210D01*
X991477Y-272878D01*
Y-282875D01*
X994809Y-272878D02*
Y-282875D01*
X999808D01*
X1001474Y-281209D01*
Y-279542D01*
X999808Y-277876D01*
X994809D01*
X999808D01*
X1001474Y-276210D01*
Y-274544D01*
X999808Y-272878D01*
X994809D01*
X1004806Y-284541D02*
X1011471D01*
X1021467Y-274544D02*
X1019801Y-272878D01*
X1016469D01*
X1014803Y-274544D01*
Y-281209D01*
X1016469Y-282875D01*
X1019801D01*
X1021467Y-281209D01*
X1026466Y-282875D02*
X1029798D01*
X1031464Y-281209D01*
Y-277876D01*
X1029798Y-276210D01*
X1026466D01*
X1024800Y-277876D01*
Y-281209D01*
X1026466Y-282875D01*
X1034796D02*
Y-276210D01*
X1039795D01*
X1041461Y-277876D01*
Y-282875D01*
X1046459Y-274544D02*
Y-276210D01*
X1044793D01*
X1048125D01*
X1046459D01*
Y-281209D01*
X1048125Y-282875D01*
X1053124Y-276210D02*
Y-282875D01*
Y-279542D01*
X1054790Y-277876D01*
X1056456Y-276210D01*
X1058122D01*
X1064787Y-282875D02*
X1068119D01*
X1069785Y-281209D01*
Y-277876D01*
X1068119Y-276210D01*
X1064787D01*
X1063121Y-277876D01*
Y-281209D01*
X1064787Y-282875D01*
X1073117D02*
X1076450D01*
X1074784D01*
Y-272878D01*
X1073117D01*
X1081448Y-282875D02*
X1084780D01*
X1083114D01*
Y-272878D01*
X1081448D01*
X1094777Y-282875D02*
X1091445D01*
X1089779Y-281209D01*
Y-277876D01*
X1091445Y-276210D01*
X1094777D01*
X1096443Y-277876D01*
Y-279542D01*
X1089779D01*
X1099775Y-276210D02*
Y-282875D01*
Y-279542D01*
X1101441Y-277876D01*
X1103108Y-276210D01*
X1104774D01*
X1109772Y-284541D02*
X1116437D01*
X1119769Y-272878D02*
Y-282875D01*
X1124767D01*
X1126433Y-281209D01*
Y-279542D01*
X1124767Y-277876D01*
X1119769D01*
X1124767D01*
X1126433Y-276210D01*
Y-274544D01*
X1124767Y-272878D01*
X1119769D01*
X1131432Y-282875D02*
X1134764D01*
X1136430Y-281209D01*
Y-277876D01*
X1134764Y-276210D01*
X1131432D01*
X1129766Y-277876D01*
Y-281209D01*
X1131432Y-282875D01*
X1141429Y-276210D02*
X1144761D01*
X1146427Y-277876D01*
Y-282875D01*
X1141429D01*
X1139762Y-281209D01*
X1141429Y-279542D01*
X1146427D01*
X1149759Y-276210D02*
Y-282875D01*
Y-279542D01*
X1151425Y-277876D01*
X1153092Y-276210D01*
X1154758D01*
X1166420Y-272878D02*
Y-282875D01*
X1161422D01*
X1159756Y-281209D01*
Y-277876D01*
X1161422Y-276210D01*
X1166420D01*
X1169753Y-282875D02*
Y-281209D01*
X1171419D01*
Y-282875D01*
X1169753D01*
X1178083Y-286207D02*
Y-276210D01*
X1183082D01*
X1184748Y-277876D01*
Y-281209D01*
X1183082Y-282875D01*
X1178083D01*
X1194745Y-276210D02*
X1189746D01*
X1188080Y-277876D01*
Y-281209D01*
X1189746Y-282875D01*
X1194745D01*
X1198077Y-272878D02*
Y-282875D01*
X1203075D01*
X1204741Y-281209D01*
Y-279542D01*
Y-277876D01*
X1203075Y-276210D01*
X1198077D01*
X1214738Y-272878D02*
Y-282875D01*
X1209740D01*
X1208074Y-281209D01*
Y-277876D01*
X1209740Y-276210D01*
X1214738D01*
X1219737Y-282875D02*
X1223069D01*
X1224735Y-281209D01*
Y-277876D01*
X1223069Y-276210D01*
X1219737D01*
X1218071Y-277876D01*
Y-281209D01*
X1219737Y-282875D01*
X1234732Y-276210D02*
X1229733D01*
X1228067Y-277876D01*
Y-281209D01*
X1229733Y-282875D01*
X1234732D01*
D81*
X298130Y98425D02*
D03*
X324705D02*
D03*
X298130Y88425D02*
D03*
X324705D02*
D03*
X298130Y78425D02*
D03*
X324705D02*
D03*
Y108425D02*
D03*
Y118425D02*
D03*
X298130Y108425D02*
D03*
Y118425D02*
D03*
D82*
X147835Y139961D02*
D03*
X149803D02*
D03*
X151772D02*
D03*
X153740D02*
D03*
X155709D02*
D03*
X157677D02*
D03*
X159646D02*
D03*
X161614D02*
D03*
X163583D02*
D03*
X165551D02*
D03*
X167520D02*
D03*
X169488D02*
D03*
X171457D02*
D03*
X173425D02*
D03*
X175394D02*
D03*
X177362D02*
D03*
X179331D02*
D03*
X181299D02*
D03*
X183268D02*
D03*
X185236D02*
D03*
X187205D02*
D03*
X189173D02*
D03*
X191142D02*
D03*
X193110D02*
D03*
X195079D02*
D03*
X197047D02*
D03*
X199016D02*
D03*
X200984D02*
D03*
X202953D02*
D03*
X204921D02*
D03*
X206890D02*
D03*
X208858D02*
D03*
X210827D02*
D03*
X212795D02*
D03*
X214764D02*
D03*
X216732D02*
D03*
Y56890D02*
D03*
X214764D02*
D03*
X212795D02*
D03*
X210827D02*
D03*
X208858D02*
D03*
X206890D02*
D03*
X204921D02*
D03*
X202953D02*
D03*
X200984D02*
D03*
X199016D02*
D03*
X197047D02*
D03*
X195079D02*
D03*
X193110D02*
D03*
X191142D02*
D03*
X189173D02*
D03*
X187205D02*
D03*
X185236D02*
D03*
X183268D02*
D03*
X181299D02*
D03*
X179331D02*
D03*
X177362D02*
D03*
X175394D02*
D03*
X173425D02*
D03*
X171457D02*
D03*
X169488D02*
D03*
X167520D02*
D03*
X165551D02*
D03*
X163583D02*
D03*
X161614D02*
D03*
X159646D02*
D03*
X157677D02*
D03*
X155709D02*
D03*
X153740D02*
D03*
X151772D02*
D03*
X149803D02*
D03*
X147835D02*
D03*
D83*
X223819Y132874D02*
D03*
Y130905D02*
D03*
Y128937D02*
D03*
Y126969D02*
D03*
Y125000D02*
D03*
Y123031D02*
D03*
Y121063D02*
D03*
Y119095D02*
D03*
Y117126D02*
D03*
Y115157D02*
D03*
Y113189D02*
D03*
Y111221D02*
D03*
Y109252D02*
D03*
Y107283D02*
D03*
Y105315D02*
D03*
Y103347D02*
D03*
Y101378D02*
D03*
Y99410D02*
D03*
Y97441D02*
D03*
Y95473D02*
D03*
Y93504D02*
D03*
Y91535D02*
D03*
Y89567D02*
D03*
Y87598D02*
D03*
Y85630D02*
D03*
Y83661D02*
D03*
Y81693D02*
D03*
Y79724D02*
D03*
Y77756D02*
D03*
Y75787D02*
D03*
Y73819D02*
D03*
Y71850D02*
D03*
Y69882D02*
D03*
Y67913D02*
D03*
Y65945D02*
D03*
Y63976D02*
D03*
X140748D02*
D03*
Y65945D02*
D03*
Y67913D02*
D03*
Y69882D02*
D03*
Y71850D02*
D03*
Y73819D02*
D03*
Y75787D02*
D03*
Y77756D02*
D03*
Y79724D02*
D03*
Y81693D02*
D03*
Y83661D02*
D03*
Y85630D02*
D03*
Y87598D02*
D03*
Y89567D02*
D03*
Y91535D02*
D03*
Y93504D02*
D03*
Y95473D02*
D03*
Y97441D02*
D03*
Y99410D02*
D03*
Y101378D02*
D03*
Y103347D02*
D03*
Y105315D02*
D03*
Y107283D02*
D03*
Y109252D02*
D03*
Y111221D02*
D03*
Y113189D02*
D03*
Y115157D02*
D03*
Y117126D02*
D03*
Y119095D02*
D03*
Y121063D02*
D03*
Y123031D02*
D03*
Y125000D02*
D03*
Y126969D02*
D03*
Y128937D02*
D03*
Y130905D02*
D03*
Y132874D02*
D03*
D84*
X119681Y31894D02*
D03*
X124414Y27161D02*
D03*
D85*
X146850Y191929D02*
D03*
Y186024D02*
D03*
X101969Y25787D02*
D03*
Y19882D02*
D03*
X115354Y48622D02*
D03*
Y42717D02*
D03*
X281500Y87547D02*
D03*
Y93453D02*
D03*
X5118Y101181D02*
D03*
Y107087D02*
D03*
X36417Y74803D02*
D03*
Y68898D02*
D03*
Y55905D02*
D03*
Y61811D02*
D03*
X5118Y67520D02*
D03*
Y61614D02*
D03*
X205118Y155512D02*
D03*
Y161417D02*
D03*
Y189370D02*
D03*
Y183465D02*
D03*
X138189Y191929D02*
D03*
Y186024D02*
D03*
X146850Y181693D02*
D03*
Y175787D02*
D03*
X274803Y41535D02*
D03*
Y47441D02*
D03*
X269094Y41535D02*
D03*
Y47441D02*
D03*
X270079Y132874D02*
D03*
Y126969D02*
D03*
X275984Y132874D02*
D03*
Y126969D02*
D03*
X281890Y132874D02*
D03*
Y126969D02*
D03*
X259252Y60236D02*
D03*
Y66142D02*
D03*
X265158Y60236D02*
D03*
Y66142D02*
D03*
X266535Y144291D02*
D03*
Y138386D02*
D03*
X261024Y144291D02*
D03*
Y138386D02*
D03*
D86*
X152559Y162992D02*
D03*
X158465D02*
D03*
X142717Y179134D02*
D03*
X136811D02*
D03*
X100984Y160236D02*
D03*
X95079D02*
D03*
X134843Y60236D02*
D03*
X140748D02*
D03*
Y172441D02*
D03*
X134843D02*
D03*
X158661Y157087D02*
D03*
X152756D02*
D03*
D87*
X79331Y52461D02*
D03*
Y47539D02*
D03*
X96850Y25098D02*
D03*
Y20177D02*
D03*
D88*
X263957Y158661D02*
D03*
X268957D02*
D03*
X273957D02*
D03*
X278957D02*
D03*
X263957Y185827D02*
D03*
X268957D02*
D03*
X273957D02*
D03*
X278957D02*
D03*
D89*
X158268Y186024D02*
D03*
Y184055D02*
D03*
X151969D02*
D03*
Y186024D02*
D03*
D90*
X158071Y182087D02*
D03*
X156102D02*
D03*
X154134D02*
D03*
X152165D02*
D03*
Y187992D02*
D03*
X154134D02*
D03*
X156102D02*
D03*
X158071D02*
D03*
D91*
X237598Y63464D02*
D03*
X248348Y63465D02*
D03*
X237598Y68465D02*
D03*
X248348Y68464D02*
D03*
X237598Y73465D02*
D03*
X248348Y73465D02*
D03*
X237598Y78465D02*
D03*
X248348Y78465D02*
D03*
X237598Y83465D02*
D03*
X248348Y83465D02*
D03*
X237598Y88465D02*
D03*
X248348Y88464D02*
D03*
X237598Y93464D02*
D03*
X248348Y93465D02*
D03*
X237560Y98465D02*
D03*
X248348Y98465D02*
D03*
X237598Y103464D02*
D03*
X248348Y103464D02*
D03*
X237598Y108465D02*
D03*
X248348Y108465D02*
D03*
X237598Y113464D02*
D03*
X248348Y113464D02*
D03*
X237598Y118465D02*
D03*
X248348Y118465D02*
D03*
X237598Y123465D02*
D03*
X248348Y123465D02*
D03*
X237598Y128465D02*
D03*
X248348Y128465D02*
D03*
X237598Y133465D02*
D03*
X248348Y133465D02*
D03*
X27816Y133317D02*
D03*
X17066Y133317D02*
D03*
X27816Y128317D02*
D03*
X17066Y128317D02*
D03*
X27816Y123317D02*
D03*
X17066Y123317D02*
D03*
X27816Y118317D02*
D03*
X17066Y118317D02*
D03*
X27816Y113317D02*
D03*
X17066Y113317D02*
D03*
X27816Y108317D02*
D03*
X17066Y108317D02*
D03*
X27816Y103317D02*
D03*
X17066Y103317D02*
D03*
X27816Y98317D02*
D03*
X17028Y98317D02*
D03*
X27816Y93317D02*
D03*
X17066Y93317D02*
D03*
X27816Y88317D02*
D03*
X17066Y88317D02*
D03*
X27816Y83317D02*
D03*
X17066Y83317D02*
D03*
X27816Y78317D02*
D03*
X17066Y78317D02*
D03*
X27816Y73317D02*
D03*
X17066Y73317D02*
D03*
X27816Y68317D02*
D03*
X17066Y68317D02*
D03*
X27816Y63317D02*
D03*
X17066Y63317D02*
D03*
D92*
X292126Y148228D02*
D03*
Y159646D02*
D03*
D93*
X62795Y78937D02*
D03*
X69488D02*
D03*
X94488Y153937D02*
D03*
X101181D02*
D03*
X100591Y46260D02*
D03*
X107283D02*
D03*
X99606Y52756D02*
D03*
X106299D02*
D03*
X218110Y148031D02*
D03*
X224803D02*
D03*
X170866Y191535D02*
D03*
X164173D02*
D03*
X266732Y116142D02*
D03*
X260039D02*
D03*
X265748Y110039D02*
D03*
X259055D02*
D03*
X69488Y98425D02*
D03*
X62795D02*
D03*
X69488Y91929D02*
D03*
X62795D02*
D03*
X69488Y85433D02*
D03*
X62795D02*
D03*
X98228Y133465D02*
D03*
X91535D02*
D03*
X98228Y126575D02*
D03*
X91535D02*
D03*
X98228Y119882D02*
D03*
X91535D02*
D03*
X98228Y113386D02*
D03*
X91535D02*
D03*
X98228Y106890D02*
D03*
X91535D02*
D03*
X101181Y100394D02*
D03*
X94488D02*
D03*
X101378Y93898D02*
D03*
X94685D02*
D03*
X101378Y87402D02*
D03*
X94685D02*
D03*
X99016Y80905D02*
D03*
X92323D02*
D03*
X97047Y74410D02*
D03*
X90354D02*
D03*
X73228Y58465D02*
D03*
X79921D02*
D03*
X95472Y68110D02*
D03*
X88779D02*
D03*
D94*
X112205Y169095D02*
D03*
X108465D02*
D03*
X104724D02*
D03*
Y178543D02*
D03*
X108465D02*
D03*
X112205D02*
D03*
D95*
X49705Y190138D02*
D03*
X49705Y185138D02*
D03*
X49705Y180138D02*
D03*
X49705Y175138D02*
D03*
X49705Y170138D02*
D03*
X49705Y165138D02*
D03*
X49705Y160138D02*
D03*
X49705Y155138D02*
D03*
X85728Y190138D02*
D03*
X85728Y185138D02*
D03*
X85728Y180138D02*
D03*
X85728Y175138D02*
D03*
X85728Y170138D02*
D03*
X85728Y165138D02*
D03*
X85728Y160138D02*
D03*
X85728Y155138D02*
D03*
D96*
X154134Y167126D02*
D03*
X156496D02*
D03*
X154134Y174370D02*
D03*
X156496D02*
D03*
D97*
X158937Y170748D02*
D03*
Y173110D02*
D03*
Y168386D02*
D03*
X151693D02*
D03*
Y173110D02*
D03*
Y170748D02*
D03*
D98*
X263386Y132480D02*
D03*
Y125000D02*
D03*
X6102Y119291D02*
D03*
Y111811D02*
D03*
X43307Y75590D02*
D03*
Y68110D02*
D03*
X5906Y49409D02*
D03*
Y56890D02*
D03*
X190157Y158268D02*
D03*
Y150787D02*
D03*
X211811Y154331D02*
D03*
Y161811D02*
D03*
Y187795D02*
D03*
Y180315D02*
D03*
X219488Y187795D02*
D03*
Y180315D02*
D03*
X227165Y187795D02*
D03*
Y180315D02*
D03*
D99*
X243504Y148031D02*
D03*
X236024D02*
D03*
D100*
X286024Y32283D02*
D03*
X282283Y40157D02*
D03*
X289764D02*
D03*
D101*
X173524Y153150D02*
D03*
X182775Y153150D02*
D03*
X219390Y155118D02*
D03*
X228642Y155118D02*
D03*
X131595Y190354D02*
D03*
X122343Y190354D02*
D03*
D102*
X198031Y160925D02*
D03*
X198031Y151673D02*
D03*
D103*
X36220Y156496D02*
D03*
Y149803D02*
D03*
X95079Y185236D02*
D03*
Y178543D02*
D03*
X40551Y191929D02*
D03*
Y185236D02*
D03*
X263386Y93504D02*
D03*
Y100197D02*
D03*
X69291Y72441D02*
D03*
Y65748D02*
D03*
X62402Y69685D02*
D03*
Y62992D02*
D03*
X58465Y55905D02*
D03*
Y49213D02*
D03*
X51378Y55905D02*
D03*
Y49213D02*
D03*
X169095Y39961D02*
D03*
Y46654D02*
D03*
X175787Y39961D02*
D03*
Y46654D02*
D03*
X182283Y39961D02*
D03*
Y46654D02*
D03*
X83661Y33071D02*
D03*
Y26378D02*
D03*
X90551Y26378D02*
D03*
Y33071D02*
D03*
D104*
X261221Y42913D02*
D03*
Y54331D02*
D03*
D105*
X111413Y21256D02*
D03*
X116146Y25988D02*
D03*
D106*
X100984Y39567D02*
D03*
X108465D02*
D03*
Y30118D02*
D03*
X104724D02*
D03*
X100984D02*
D03*
X282087Y49016D02*
D03*
X285827D02*
D03*
X289567D02*
D03*
Y58465D02*
D03*
X282087D02*
D03*
X275394Y75590D02*
D03*
X282874D02*
D03*
Y66142D02*
D03*
X279134D02*
D03*
X275394D02*
D03*
X273031Y147835D02*
D03*
X280512D02*
D03*
Y138386D02*
D03*
X276772D02*
D03*
X273031D02*
D03*
D107*
X113093Y59073D02*
D03*
X114903Y57263D02*
D03*
X116712Y55454D02*
D03*
X118522Y53644D02*
D03*
X124785Y70765D02*
D03*
X126595Y68956D02*
D03*
X128404Y67146D02*
D03*
X130214Y65337D02*
D03*
D108*
X94095Y51968D02*
D03*
Y44488D02*
D03*
X84646D02*
D03*
Y48228D02*
D03*
Y51968D02*
D03*
D109*
X297441Y108465D02*
X299016D01*
X296063Y119291D02*
X296850Y118504D01*
X314000Y124500D02*
X320075Y118425D01*
X322736Y120394D02*
X324705Y118425D01*
Y108425D02*
Y108705D01*
X293504Y104528D02*
X297441Y108465D01*
X320075Y118425D02*
X324705D01*
X320000Y124000D02*
X320291D01*
X324705Y108205D02*
Y108425D01*
X291500Y78000D02*
X298000D01*
X288976Y119291D02*
X296063D01*
X320291Y124000D02*
X322736Y121555D01*
X324500Y108500D02*
X324705Y108705D01*
Y118425D01*
X297047Y99606D02*
X298425Y98228D01*
X322736Y120394D02*
Y121555D01*
X324500Y108000D02*
X324705Y108205D01*
X324000Y108000D02*
X324705Y107295D01*
Y98425D02*
Y107295D01*
X288500Y81000D02*
X291500Y78000D01*
X297047Y99606D02*
Y101969D01*
X135827Y85630D02*
X140748D01*
X195079Y59055D02*
X195152Y59128D01*
X181102Y140157D02*
X181299Y139961D01*
X146526Y75787D02*
X147510Y76772D01*
X223819Y101378D02*
X229553D01*
X113583Y168898D02*
X142717D01*
X140748Y75787D02*
X140748Y75787D01*
X127362Y83268D02*
Y83268D01*
X193701Y62667D02*
X195006Y61362D01*
X226772Y125000D02*
X228042Y126270D01*
X163976Y149409D02*
Y162598D01*
X140945Y69882D02*
X144685D01*
X147835Y53347D02*
X148589Y52592D01*
X148630Y62559D02*
X148860Y62330D01*
X210630Y79134D02*
X216929D01*
X226772Y97441D02*
X228483Y95730D01*
X223819Y119095D02*
X223892Y119167D01*
X159646Y139961D02*
Y148228D01*
X151403Y134597D02*
Y135408D01*
X212205Y86614D02*
X213779D01*
X229500Y92000D02*
Y92847D01*
X217126Y107283D02*
X223819D01*
X210827Y128868D02*
Y139961D01*
X147835Y134183D02*
X148622Y133396D01*
X140675Y132801D02*
X140748Y132874D01*
X148589Y50820D02*
X148819Y50591D01*
X155709Y56890D02*
X155782Y56817D01*
X173689Y63000D02*
Y64106D01*
X229553Y101378D02*
X230175Y102000D01*
X228762Y105337D02*
Y107692D01*
X201969Y112598D02*
X204528Y115157D01*
X181299Y139961D02*
Y147835D01*
X175394Y134380D02*
X176378Y133396D01*
X140748Y69882D02*
Y71850D01*
X149803Y56890D02*
Y60697D01*
X216732Y83661D02*
X223819D01*
X229270Y95730D02*
X229500Y95500D01*
X217126Y132874D02*
X217126Y132874D01*
X195833Y133694D02*
Y135663D01*
X170866Y133071D02*
Y133661D01*
X155636Y140033D02*
X155709Y139961D01*
X226772Y103347D02*
X228762Y105337D01*
X229379Y128770D02*
X229509Y128900D01*
X147638Y149409D02*
X153740Y143307D01*
X137692Y79724D02*
X137692Y79724D01*
X151772Y56890D02*
Y64370D01*
X223819Y99410D02*
X223864Y99455D01*
X230175Y102000D02*
X230500D01*
X229316Y121000D02*
X229500D01*
X223819Y126969D02*
X226772D01*
X195079Y136417D02*
Y139961D01*
X175394Y139894D02*
X175500Y140000D01*
X135827Y85630D02*
X135827Y85630D01*
X226875Y95472D02*
X229500Y92847D01*
X165551Y139961D02*
Y144882D01*
X137008Y89567D02*
X140551D01*
X148860Y61641D02*
Y62330D01*
X217520Y79724D02*
X223819D01*
X227953Y123031D02*
X228921Y124000D01*
X223819Y125000D02*
X226772D01*
X146468Y123031D02*
X146500Y123000D01*
X216732Y56890D02*
X217000Y57157D01*
X228483Y95730D02*
X229270D01*
X140748Y123031D02*
X146468D01*
X136221Y128937D02*
X136221Y128937D01*
X148589Y50820D02*
Y52592D01*
X155782Y52220D02*
X156299Y51703D01*
X213027Y63548D02*
Y63745D01*
X223864Y99455D02*
X230455D01*
X223819Y103347D02*
X226772D01*
X192913Y133465D02*
X193037Y133589D01*
X149803Y137008D02*
Y139961D01*
X218701Y128740D02*
X220866Y130905D01*
X167520Y139764D02*
Y147047D01*
X153937Y146063D02*
X155636Y144364D01*
Y140033D02*
Y144364D01*
X132283Y76968D02*
X132608D01*
X137692Y79724D02*
X140748D01*
X177362Y56890D02*
X177362Y56890D01*
X207480Y81102D02*
X207805D01*
X209842Y81496D02*
X223819Y81693D01*
X217126Y107283D02*
X217126Y107283D01*
X195079Y136417D02*
X195833Y135663D01*
X170866Y133661D02*
X173425Y136221D01*
X133396Y77756D02*
X140748D01*
X136221Y128937D02*
X140748D01*
X195006Y56963D02*
X195079Y56890D01*
X132608Y76968D02*
X133396Y77756D01*
X217000Y57157D02*
Y63500D01*
X229770Y126270D02*
X230000Y126500D01*
X208858Y133661D02*
Y139961D01*
X140748Y101378D02*
X147441D01*
X207874Y81496D02*
X209842D01*
X213779Y86614D02*
X216732Y83661D01*
X127362Y83268D02*
X135630Y91535D01*
X175394Y56890D02*
Y61295D01*
X228042Y126270D02*
X229770D01*
X142717Y168898D02*
X147638Y163976D01*
X140748Y103347D02*
X143846D01*
X223622Y95472D02*
X226875D01*
X218849Y103937D02*
X220227Y105315D01*
X223819Y111221D02*
X226746D01*
X228921Y124000D02*
X230000D01*
X216732Y139764D02*
Y139961D01*
X176378Y133071D02*
Y133396D01*
X162008Y150591D02*
Y153347D01*
X152929Y133071D02*
X154331D01*
X156299Y51378D02*
Y51703D01*
X210827Y49016D02*
Y56890D01*
X216929Y79134D02*
X217520Y79724D01*
X213779Y103937D02*
X218849D01*
X226772Y126969D02*
X228573Y128770D01*
X161614Y139961D02*
Y147047D01*
X147638Y149409D02*
Y163976D01*
X151403Y134597D02*
X152929Y133071D01*
X144685Y69882D02*
X146850Y67716D01*
X213027Y63548D02*
X214764Y61811D01*
X223819Y119095D02*
X227411D01*
X210236Y128278D02*
X210827Y128868D01*
X147835Y134183D02*
Y139961D01*
X147510Y76772D02*
X147835D01*
X140748Y75787D02*
X146526D01*
X226746Y111221D02*
X229000Y113474D01*
X195833Y133694D02*
X196063Y133465D01*
X134646Y79724D02*
X137692D01*
X212992Y63779D02*
X213027Y63745D01*
X215748Y128740D02*
X218701D01*
X169488Y139961D02*
Y144882D01*
X148622Y133071D02*
Y133396D01*
X130905Y83465D02*
Y83465D01*
X214764Y56890D02*
Y61811D01*
X223425Y97441D02*
X226772D01*
X229000Y113474D02*
Y113500D01*
X204528Y115157D02*
X223819D01*
Y123031D02*
X227953D01*
X193037Y133589D02*
Y139888D01*
X161614Y147047D02*
X163976Y149409D01*
X149803Y137008D02*
X151403Y135408D01*
X130905Y83465D02*
X137008Y89567D01*
X173689Y63000D02*
X175394Y61295D01*
X193701Y62667D02*
Y63779D01*
X173425Y136221D02*
Y139961D01*
X157283Y146063D02*
X157677Y145669D01*
X135630Y91535D02*
X140748D01*
X143846Y103347D02*
X146500Y106000D01*
X177362Y56890D02*
Y63976D01*
X157677Y141535D02*
Y145669D01*
X148860Y61641D02*
X149803Y60697D01*
X155782Y52220D02*
Y56817D01*
X173622Y64173D02*
X173689Y64106D01*
X218504Y85630D02*
X223819D01*
X230455Y99455D02*
X230500Y99500D01*
X228573Y128770D02*
X229379D01*
X175394Y134380D02*
Y139894D01*
X159646Y148228D02*
X162008Y150591D01*
X147835Y53347D02*
Y56890D01*
X197047D02*
Y65354D01*
X203543Y128347D02*
X208858Y133661D01*
X169488Y139764D02*
Y139961D01*
X195006Y56963D02*
Y61362D01*
X209449Y112598D02*
X218504D01*
X219094Y113189D01*
X223819D01*
X207480Y81102D02*
X207874Y81496D01*
X216929Y87205D02*
X218504Y85630D01*
X220227Y105315D02*
X223819D01*
X220866Y130905D02*
X223819D01*
X227411Y119095D02*
X229316Y121000D01*
X217126Y132874D02*
X223819D01*
X210236Y127953D02*
Y128278D01*
X193037Y139888D02*
X193110Y139961D01*
X153740Y139961D02*
Y143307D01*
X94685Y178347D02*
X95079Y177953D01*
X151772Y157087D02*
X152559Y157874D01*
X130217Y64862D02*
Y65340D01*
X142212Y57394D02*
Y58772D01*
Y57394D02*
X144882Y54724D01*
X140748Y60236D02*
X142212Y58772D01*
X266929Y137992D02*
Y138386D01*
X260681Y138319D02*
X261000Y138000D01*
X261221Y138189D02*
X261417Y138386D01*
X205512Y161811D02*
Y164961D01*
X205315Y161614D02*
X205512Y161811D01*
X143812Y180229D02*
X145386D01*
X142717Y179134D02*
X143812Y180229D01*
X145386D02*
X146850Y181693D01*
X137205Y179528D02*
Y182874D01*
X136811Y179134D02*
X137205Y179528D01*
X151508Y178347D02*
X151579Y178276D01*
X150197Y178347D02*
X151508D01*
X146850Y181693D02*
X150197Y178347D01*
X153937Y177559D02*
X154724D01*
X151693Y175315D02*
X153937Y177559D01*
X154331Y177165D02*
X154724Y177559D01*
X151221Y175787D02*
X151693Y175315D01*
X146850Y175787D02*
X151221D01*
X147980Y182823D02*
X149358D01*
X146850Y181693D02*
X147980Y182823D01*
X149358D02*
X150400Y183865D01*
X151778D01*
X151969Y184055D01*
X258897Y66535D02*
X259252D01*
X265158Y65945D02*
X265354Y66142D01*
X264764Y66142D02*
X264961Y65945D01*
X269193Y47441D02*
Y50693D01*
Y47343D02*
Y47441D01*
X117913Y190354D02*
X122441D01*
X115354Y50591D02*
X119488Y54724D01*
X108661Y169095D02*
Y172047D01*
X115354Y49016D02*
X115650Y48720D01*
X115453Y48524D02*
X115650Y48720D01*
X111811Y44882D02*
X115453Y48524D01*
X73819Y51968D02*
X79331D01*
X100984Y24606D02*
Y30118D01*
X96850Y24606D02*
X100984D01*
X95308Y26148D02*
X96850Y24606D01*
X147555Y170949D02*
X148750D01*
X144777Y173727D02*
X147555Y170949D01*
X142913Y175591D02*
X144777Y173727D01*
X137992Y175591D02*
X142913D01*
X140748Y172441D02*
X143740D01*
X147874Y168307D01*
X134843Y172441D02*
X137992Y175591D01*
X129921Y174016D02*
X131496Y172441D01*
X134843D01*
X147874Y168307D02*
X148031D01*
X142913Y184252D02*
X143238D01*
X144076Y185089D01*
X145916D01*
X146850Y186024D01*
X141339Y185827D02*
X142913Y184252D01*
X138386Y185827D02*
X141339D01*
X142446Y192446D02*
X142446Y192446D01*
X144720D01*
X145237Y191929D01*
X146850D01*
X131496Y190354D02*
X135236D01*
X139803Y191929D02*
X140320Y192446D01*
X142446D01*
X142520Y192520D01*
X138189Y191929D02*
X139803D01*
X135236Y188976D02*
Y190354D01*
Y188976D02*
X138189Y186024D01*
X138386Y185827D01*
X151969Y188189D02*
Y192520D01*
Y188189D02*
X152165Y187992D01*
X170866Y191535D02*
X175535D01*
X156102Y187992D02*
Y191339D01*
X157480Y192717D01*
X160630Y165748D02*
X166339D01*
X159871Y166507D02*
X160630Y165748D01*
X156884Y166507D02*
X159871D01*
X152559Y162992D02*
X152559Y162992D01*
Y157874D02*
Y162992D01*
X152559Y162992D02*
X153689Y164122D01*
Y165566D01*
X154134Y166011D01*
Y167126D01*
X157677Y157087D02*
X158661D01*
X160039Y158465D01*
X162008D01*
X161778Y158694D02*
Y159678D01*
X158465Y162992D02*
X161778Y159678D01*
X150000Y155118D02*
X151870Y156988D01*
X150000Y153500D02*
Y155118D01*
X113222Y39206D02*
Y40584D01*
X112992Y38976D02*
X113222Y39206D01*
Y40584D02*
X115354Y42717D01*
X111417Y44882D02*
X111811D01*
X115354Y49016D02*
Y50591D01*
X111417Y50356D02*
X117696Y56635D01*
X110433Y47441D02*
X111417Y48425D01*
Y50356D01*
X131102Y60236D02*
X134843D01*
X130217Y64862D02*
X134843Y60236D01*
X101772Y159449D02*
X105118D01*
X98196Y164731D02*
X98425Y164961D01*
X98196Y163353D02*
Y164731D01*
X95079Y160236D02*
X98196Y163353D01*
X100984Y160236D02*
X101772Y159449D01*
X106299Y24409D02*
Y25984D01*
X104724Y27559D02*
X106299Y25984D01*
X104724Y27559D02*
Y29776D01*
X107480Y17323D02*
X111413Y21256D01*
X85630Y17323D02*
X107480D01*
X80905Y22047D02*
X85630Y17323D01*
X112607Y15354D02*
X124414Y27161D01*
X83268Y15354D02*
X112607D01*
X77756Y20866D02*
X83268Y15354D01*
X72835Y55709D02*
Y58465D01*
X114961Y13386D02*
X130709Y29134D01*
X81102Y13386D02*
X114961D01*
X68701Y25787D02*
X81102Y13386D01*
X104500Y30000D02*
X104724Y29776D01*
X275984Y126772D02*
X281890D01*
X219291Y187795D02*
X219685Y188189D01*
Y192126D01*
X190157Y158268D02*
X190551Y158661D01*
X194488D01*
X169291Y157382D02*
X173524Y153150D01*
X169291Y157382D02*
Y159843D01*
X79331Y52362D02*
X79724Y51968D01*
X11417Y123425D02*
X17126D01*
X17323Y123228D01*
X42634Y154724D02*
X42841Y154931D01*
X49498D01*
X49705Y155138D01*
X37992Y151181D02*
X40945D01*
X36417Y149606D02*
X37992Y151181D01*
X42356Y154724D02*
X42634D01*
X40584Y156496D02*
X42356Y154724D01*
X36220Y149803D02*
X36417Y149606D01*
X36220Y156496D02*
X40584D01*
X42520Y161024D02*
X42844D01*
X43730Y160138D01*
X49705D01*
X154724Y177559D02*
X155512D01*
X157087Y179134D01*
X151693Y173110D02*
Y175315D01*
X154724Y177559D02*
Y179134D01*
X155905Y180315D01*
X5512Y88189D02*
X5906Y87795D01*
X16544D01*
X17066Y88317D01*
X12214Y93317D02*
X17066D01*
X11192Y92295D02*
X12214Y93317D01*
X7610Y92295D02*
X11192D01*
X6204Y93701D02*
X7610Y92295D01*
X5906Y93701D02*
X6204D01*
X10236Y101575D02*
X13494Y98317D01*
X17028D01*
X10236Y104724D02*
X10561D01*
X10919Y104367D01*
X16016D01*
X17066Y103317D01*
X9843Y107874D02*
X16623D01*
X17066Y108317D01*
X5906Y107874D02*
X9843D01*
X5118Y107087D02*
X5906Y107874D01*
X13730Y108317D02*
X17066D01*
X6496Y111417D02*
X10630D01*
X6102Y111811D02*
X6496Y111417D01*
X10630D02*
X13730Y108317D01*
X34252Y78248D02*
X36417Y76083D01*
X34252Y78248D02*
Y78347D01*
X158937Y168386D02*
X158976Y168347D01*
X151693Y170748D02*
Y173110D01*
X156496Y174665D02*
X157841Y176011D01*
X158976Y168347D02*
X161378D01*
X157841Y176739D02*
X158071Y176969D01*
X157841Y176011D02*
Y176739D01*
X156496Y174409D02*
Y174665D01*
X161378Y168347D02*
X161614Y168110D01*
X156496Y166894D02*
X156884Y166507D01*
X156496Y166894D02*
Y167126D01*
X158386Y168386D02*
X158937D01*
X229921Y115748D02*
X232000Y113669D01*
X228150Y115748D02*
X229921D01*
X226772Y117126D02*
X228150Y115748D01*
X232000Y112135D02*
Y113669D01*
X233911Y114515D02*
X236548D01*
X231823Y116602D02*
X233911Y114515D01*
X231823Y116602D02*
Y116808D01*
X16732Y68307D02*
X17066Y67973D01*
Y63326D02*
X17126Y63386D01*
X16007Y62267D02*
X17066Y63326D01*
Y63317D02*
Y63326D01*
Y67973D01*
X6732Y61614D02*
X7384Y62267D01*
X16007D01*
X5118Y61614D02*
X6732D01*
X5906Y56890D02*
Y60827D01*
X5118Y61614D02*
X5906Y60827D01*
X4404Y69847D02*
X5118Y69133D01*
X4404Y69847D02*
Y71974D01*
X4331Y72047D02*
X4404Y71974D01*
X5118Y67520D02*
Y69133D01*
X10024Y75984D02*
X12691Y73317D01*
X4331Y75984D02*
X10024D01*
X5935Y78317D02*
X17066D01*
X4331Y79921D02*
X5935Y78317D01*
X39961Y78347D02*
X43110Y75197D01*
X36614Y74016D02*
X37598Y75000D01*
X17018Y73317D02*
X17066Y73365D01*
X12691Y73317D02*
X17018D01*
X37598Y75000D02*
X43110D01*
X11486Y51181D02*
X11811D01*
X10732Y50427D02*
X11486Y51181D01*
X6923Y50427D02*
X10732D01*
X5906Y49409D02*
X6923Y50427D01*
X5906Y56890D02*
X10108D01*
X11486Y55512D01*
X11811D01*
X155905Y181890D02*
X156102Y182087D01*
X155905Y180315D02*
Y181890D01*
X159055Y179134D02*
X160236Y177953D01*
X157087Y179134D02*
X159055D01*
X160236Y174409D02*
Y177953D01*
X157480Y192717D02*
X159055D01*
X161221Y191142D02*
X163779D01*
X164173Y191535D01*
X162824Y176209D02*
Y181665D01*
X160433Y184055D02*
X162824Y181665D01*
X158268Y184055D02*
X160433D01*
X162795Y176181D02*
X162824Y176209D01*
X160236Y180709D02*
X161024Y179921D01*
X158336Y180709D02*
X160236D01*
X158261Y180784D02*
X158336Y180709D01*
X158261Y180784D02*
Y181896D01*
X158071Y182087D02*
X158261Y181896D01*
X166339Y165748D02*
Y184055D01*
X162402Y187992D02*
X166339Y184055D01*
X158071Y187992D02*
X162402D01*
X158071D02*
X161221Y191142D01*
X146850Y186024D02*
X151969D01*
X154134Y187992D02*
X156102D01*
X156293Y187014D02*
X157093Y186214D01*
X158077D01*
X158268Y186024D01*
X156293Y187014D02*
Y187802D01*
X156102Y187992D02*
X156293Y187802D01*
X248348Y133465D02*
X248349Y133464D01*
X254330D01*
X262402Y133268D02*
X263189Y132480D01*
X261939Y133731D02*
X262402Y133268D01*
X262598D01*
X258071D02*
X262402D01*
X262598D02*
X263386Y132480D01*
X254330Y133464D02*
Y133730D01*
X254331Y133731D01*
X223228Y142126D02*
Y144882D01*
X224606Y146260D01*
X175394Y35433D02*
X175787Y35827D01*
X169291Y35630D02*
Y39961D01*
Y35630D02*
X169488Y35433D01*
X291732Y149409D02*
X293498Y147644D01*
X303616D01*
X266535Y144291D02*
Y144882D01*
X266929Y144095D02*
Y144488D01*
X263386Y148031D02*
X266535Y144882D01*
X261024Y138386D02*
X261417D01*
X266535D01*
X266929Y144095D02*
X269291Y141732D01*
X268701Y136221D02*
X270866D01*
X266929Y137992D02*
X268701Y136221D01*
X270866D02*
X273031Y138386D01*
X130217Y65340D02*
X130723D01*
X130214Y65337D02*
X130217Y65340D01*
X224606Y146260D02*
Y147835D01*
X94685Y86811D02*
Y87598D01*
X87730Y94554D02*
X94685Y87598D01*
X87730Y94554D02*
Y95770D01*
X87500Y96000D02*
X87730Y95770D01*
X88583Y22244D02*
X90551Y24213D01*
Y26378D01*
X36220Y61811D02*
Y62047D01*
X31500Y52000D02*
X32512D01*
X36417Y55905D01*
X35827Y61221D02*
X36417Y60630D01*
X34252Y65354D02*
X34482Y65125D01*
Y63786D02*
Y65125D01*
Y63786D02*
X36220Y62047D01*
X43307Y68504D02*
X43504D01*
X36811D02*
X43307D01*
X36614Y68307D02*
X36811Y68504D01*
X27876Y68307D02*
X36614D01*
X27816Y68247D02*
X27876Y68307D01*
X34646Y62402D02*
X35827Y61221D01*
X85569Y190069D02*
X92931D01*
X93000Y190000D01*
X85500D02*
X85569Y190069D01*
X269193Y50693D02*
X269500Y51000D01*
X259449Y66142D02*
X264764D01*
X258500Y67311D02*
Y69500D01*
X258000Y70000D02*
X258500Y69500D01*
X258122Y67311D02*
X258500D01*
X290775Y88500D02*
X298500D01*
X284161Y86500D02*
X288500D01*
X283114Y87547D02*
X284161Y86500D01*
X257527Y138252D02*
X257594Y138319D01*
X260681D01*
X286024Y32480D02*
X288980D01*
X10236Y128347D02*
X17126D01*
X296854Y40354D02*
X314567D01*
X288980Y32480D02*
X296854Y40354D01*
X36417Y74016D02*
Y76083D01*
X37402Y78347D02*
X39961D01*
X51000Y78500D02*
X52012D01*
X57087Y73425D01*
X71653Y46654D02*
X72810D01*
X71457D02*
X71653D01*
X72810D02*
X74188Y48031D01*
X51972Y93500D02*
X53543Y91929D01*
X51000Y93500D02*
X51972D01*
X51000Y98500D02*
X62721D01*
X53543Y91929D02*
X62598D01*
X52165Y88386D02*
X56299D01*
X55386Y83000D02*
X59449Y78937D01*
X50500Y83000D02*
X55386D01*
X80118Y58268D02*
X84252D01*
X56299Y88386D02*
X59252Y85433D01*
X57087Y73425D02*
X69685D01*
X59449Y78937D02*
X62598D01*
X52165Y73425D02*
X52362D01*
X56102Y69685D01*
X62402D01*
X52165Y68504D02*
X55118Y65551D01*
Y58858D02*
Y65551D01*
X52165Y62008D02*
Y63386D01*
X51575Y61417D02*
X52165Y62008D01*
X51575Y56102D02*
Y61417D01*
X34252Y65354D02*
X40551D01*
X43307Y68110D01*
X71260Y49409D02*
X71260D01*
X68701Y25787D02*
Y51575D01*
X65945Y24606D02*
Y53937D01*
X234674Y93464D02*
X240524D01*
X226741Y117126D02*
X226772D01*
X229723Y109277D02*
X232300Y106700D01*
X229723Y109277D02*
Y110277D01*
X232300Y95838D02*
Y106700D01*
X229100Y110900D02*
X229723Y110277D01*
X231523Y109977D02*
Y110023D01*
X233135Y111000D02*
X242937D01*
X232000Y112135D02*
X233135Y111000D01*
X231523Y109977D02*
X233000Y108500D01*
X230000Y64500D02*
X230230Y64730D01*
X230939D01*
X234709Y68500D01*
X237000D01*
X229893Y71065D02*
Y82687D01*
X226544Y67716D02*
X229893Y71065D01*
X228524Y71393D02*
Y87070D01*
X227187Y70057D02*
X228524Y71393D01*
Y87070D02*
X229954Y88500D01*
X229893Y82687D02*
X233229Y86024D01*
X236548Y114515D02*
X237598Y113464D01*
X85630Y185039D02*
X85827Y185236D01*
X232300Y95838D02*
X234674Y93464D01*
X237598Y118504D02*
X240551D01*
X232000Y121000D02*
Y129500D01*
X229500Y132000D02*
X232000Y129500D01*
X229500Y132000D02*
Y134028D01*
X235000Y128500D02*
X237500D01*
X231730Y131770D02*
X235000Y128500D01*
X231730Y131770D02*
Y132770D01*
X231500Y133000D02*
X231730Y132770D01*
X256162Y79162D02*
X257162D01*
X255465Y78465D02*
X256162Y79162D01*
X248348Y78465D02*
X255465D01*
X257162Y79162D02*
X258000Y80000D01*
X267120Y103380D02*
X271500Y99000D01*
X267120Y103380D02*
Y108471D01*
X265945Y109646D02*
X267120Y108471D01*
X264567Y109646D02*
X265945D01*
X268898Y104724D02*
X275000Y98622D01*
Y96500D02*
Y98622D01*
X276934Y90500D02*
X279886Y93453D01*
X273500Y90500D02*
X276934D01*
X251300Y58700D02*
Y60700D01*
Y58700D02*
X251500Y58500D01*
X248500Y63500D02*
X251300Y60700D01*
X268110Y148819D02*
X271850D01*
X272835Y147835D01*
X274500Y80618D02*
Y81000D01*
Y80618D02*
X275394Y79724D01*
Y75590D02*
Y79724D01*
X229954Y88500D02*
X237563D01*
X237598Y88465D01*
X233229Y86024D02*
X242983D01*
X223622Y67716D02*
X226544D01*
X242937Y111000D02*
X245472Y108465D01*
X233000Y108465D02*
X237598D01*
X243043Y90945D02*
X254921D01*
X260827D01*
X250809Y93000D02*
X253906Y96097D01*
X248228Y98425D02*
X257480D01*
X253906Y96097D02*
X258597D01*
X243005Y100984D02*
X254921D01*
X254921Y103543D02*
X257874Y106496D01*
X252756Y103543D02*
X254921D01*
X252362Y103150D02*
X252756Y103543D01*
X254495Y106266D02*
X254724Y106496D01*
X248000Y93000D02*
X250809D01*
X255572Y87762D02*
X257054D01*
X251273Y83465D02*
X255572Y87762D01*
X257054D02*
X257283Y87992D01*
X240524Y93464D02*
X243043Y90945D01*
X260827D02*
X263189Y93307D01*
X229500Y134028D02*
X236972Y141500D01*
X237000D01*
X234842Y147835D02*
X236221D01*
X228142Y130308D02*
Y141134D01*
X226772Y128937D02*
X228142Y130308D01*
Y141134D02*
X234842Y147835D01*
X232000Y121000D02*
X234083Y118917D01*
X237146D02*
X237598Y118465D01*
X234083Y118917D02*
X237146D01*
X258268Y101575D02*
X262008D01*
X263189Y100394D01*
X265894Y59500D02*
X273378D01*
X262697Y100197D02*
X263386D01*
X258597Y96097D02*
X262697Y100197D01*
X290000Y40394D02*
X293000Y43394D01*
X289764Y40157D02*
X290000Y40394D01*
Y39500D02*
Y40394D01*
Y43957D01*
X285827Y48130D02*
X290000Y43957D01*
X285827Y48130D02*
Y49016D01*
X259236Y60236D02*
X259252D01*
X265158D01*
X259000Y60000D02*
X259236Y60236D01*
X237634Y63500D02*
X248000D01*
X237598Y63464D02*
X237634Y63500D01*
X236559Y63059D02*
X237000Y63500D01*
X108465Y183965D02*
X108500Y184000D01*
X108465Y178543D02*
Y183965D01*
X91000Y80764D02*
Y87740D01*
X85433Y93307D02*
X91000Y87740D01*
X90945Y80709D02*
X91000Y80764D01*
X85433Y88189D02*
X88500Y85122D01*
Y78232D02*
Y85122D01*
Y78232D02*
X90354Y76378D01*
X94882Y93701D02*
Y94618D01*
X86154Y103347D02*
X94882Y94618D01*
X85433Y103347D02*
X86154D01*
X85500Y107000D02*
X90538Y101962D01*
X93116D01*
X94488Y100591D01*
Y100394D02*
Y100591D01*
X85917Y113583D02*
X92073Y107427D01*
X85827Y113583D02*
X85917D01*
X91535Y106890D02*
X92073Y107427D01*
X86634Y117500D02*
X90748Y113386D01*
X85500Y117500D02*
X86634D01*
X85500Y121500D02*
X87555D01*
X89173Y119882D01*
X6000Y119394D02*
Y123500D01*
Y119394D02*
X6102Y119291D01*
X62721Y98500D02*
X62795Y98425D01*
X71500Y133114D02*
X81693Y143307D01*
X71500Y100634D02*
Y133114D01*
X69488Y98622D02*
X71500Y100634D01*
X279886Y93453D02*
X281500D01*
X288527Y86252D02*
X290775Y88500D01*
X281500Y87547D02*
X283114D01*
X273378Y59500D02*
X279134Y65256D01*
X265158Y60236D02*
X265894Y59500D01*
X12297Y83500D02*
X17000D01*
X11348Y84449D02*
X12297Y83500D01*
X11024Y84449D02*
X11348D01*
X186555Y27500D02*
X193110Y34055D01*
X148809Y27500D02*
X186555D01*
X143750Y22441D02*
X148809Y27500D01*
X135039Y20079D02*
X163278D01*
X167243Y24044D02*
X186052D01*
X163278Y20079D02*
X167243Y24044D01*
X186052D02*
X199016Y37008D01*
X281060Y151835D02*
X284469Y148425D01*
X284612D01*
X243861Y80905D02*
X254724D01*
X110433Y53740D02*
X111379D01*
X106693D02*
X110433D01*
X111379D02*
X114903Y57263D01*
X106299Y53347D02*
X106693Y53740D01*
X129495Y73589D02*
X129724Y73819D01*
X140354D01*
X128937Y71457D02*
X133071D01*
X127617Y70137D02*
X128937Y71457D01*
X133071D02*
X136541Y67986D01*
X127819Y73589D02*
X129495D01*
X252717Y105905D02*
X253078Y106266D01*
X254495D01*
X256992Y119000D02*
X257000D01*
X256496Y118504D02*
X256992Y119000D01*
X268898Y104724D02*
Y113189D01*
X93362Y155138D02*
X94500Y154000D01*
X85728Y155138D02*
X93362D01*
X112205Y169291D02*
X113583Y167913D01*
X254238Y65500D02*
X254500D01*
X251234Y68504D02*
X254238Y65500D01*
X248819Y68504D02*
X251234D01*
X254500Y69000D02*
Y69241D01*
X252678Y71063D02*
X254500Y69241D01*
X242925Y71063D02*
X252678D01*
X212500Y188484D02*
Y192000D01*
Y188484D02*
X212598Y188386D01*
X271424Y123655D02*
X271654Y123425D01*
X161778Y158694D02*
X162008Y158465D01*
X163583Y139961D02*
Y145669D01*
X166339Y148425D01*
X158937Y173110D02*
X160236Y174409D01*
X275394Y75394D02*
Y75590D01*
X275197Y75394D02*
X275394Y75590D01*
X249908Y74515D02*
X257064D01*
X85630Y127559D02*
X87008D01*
X87992Y126575D01*
X89173Y133465D02*
X91535D01*
X86614Y130905D02*
X89173Y133465D01*
X86417Y130905D02*
X86614D01*
X243307Y148228D02*
X243435Y148356D01*
Y151378D01*
X242254Y152559D02*
X243435Y151378D01*
X241929Y152559D02*
X242254D01*
X242913Y148031D02*
X243504D01*
X166339Y148425D02*
Y165748D01*
X265354Y66142D02*
X275394D01*
X279134Y65256D02*
Y66142D01*
X36614Y192126D02*
X40157D01*
X40354Y191929D01*
X258858Y110039D02*
Y111024D01*
X104724Y165945D02*
Y168701D01*
X101181D02*
X104724D01*
X108465Y47441D02*
X110433D01*
X97835Y52953D02*
X99213D01*
X96850Y51968D02*
X97835Y52953D01*
X255315Y112402D02*
X257480D01*
X253150D02*
X255315D01*
X240485Y98465D02*
X243005Y100984D01*
X223819Y128937D02*
X226772D01*
X248622Y118504D02*
X256496D01*
X242161Y116894D02*
X242161D01*
X240551Y118504D02*
X242161Y116894D01*
X242913Y116142D02*
X259842D01*
X242161Y116894D02*
X242913Y116142D01*
X252165Y113386D02*
X253150Y112402D01*
X248425Y113386D02*
X252165D01*
X257480Y112402D02*
X258858Y111024D01*
X242965Y105905D02*
X252717D01*
X266732Y115354D02*
X268898Y113189D01*
X266732Y115354D02*
Y115551D01*
X237598Y103543D02*
X240602D01*
X242965Y105905D01*
X237560Y98465D02*
X240485D01*
X245472Y108465D02*
X248348D01*
X140551Y166535D02*
X146063Y161024D01*
Y148622D02*
Y161024D01*
Y148622D02*
X151772Y142913D01*
X40354Y191929D02*
X40551D01*
X95276Y185433D02*
X99606D01*
X104724Y169095D02*
X104724D01*
X113583Y167913D02*
X114242D01*
X115620Y166535D01*
X115945D01*
X231693Y81102D02*
Y81112D01*
X153740Y44291D02*
Y56890D01*
X138583Y29134D02*
X153740Y44291D01*
X217421Y146949D02*
X218307Y147835D01*
X217421Y144980D02*
Y146949D01*
X277240Y151835D02*
X281060D01*
X274016Y155059D02*
X277240Y151835D01*
X242983Y86024D02*
X245424Y88464D01*
X234055Y83465D02*
X237598D01*
X231923Y81332D02*
X234055Y83465D01*
X231726Y81332D02*
X231923D01*
X231693Y81112D02*
Y81299D01*
X231726Y81332D01*
X231496Y81309D02*
X231693Y81112D01*
X248348Y83465D02*
X251273D01*
X243194Y80238D02*
X243861Y80905D01*
X243194Y79293D02*
Y80238D01*
X241352Y79293D02*
X243194D01*
X240524Y78465D02*
X241352Y79293D01*
X237598Y78465D02*
X240524D01*
X245424Y88464D02*
X248348D01*
X240366Y73622D02*
X242925Y71063D01*
X237992Y73622D02*
X240366D01*
X248819Y73425D02*
X249908Y74515D01*
X258122Y67311D02*
X258897Y66535D01*
X284252Y165354D02*
Y166929D01*
X278957Y160059D02*
X284252Y165354D01*
X278957Y158661D02*
Y160059D01*
X274016Y155059D02*
Y158465D01*
X234055Y83465D02*
X237402D01*
X245472Y108465D02*
X245472Y108465D01*
X248228D01*
X124899Y70669D02*
X127819Y73589D01*
X124803Y70669D02*
X124899D01*
X94094Y26378D02*
X94324Y26148D01*
X95308D01*
X71260Y49409D02*
X73819Y51968D01*
X68701Y51575D02*
X72835Y55709D01*
X78937Y38849D02*
Y39173D01*
X111654Y57914D02*
X112402Y58661D01*
X111654Y57914D02*
Y58425D01*
X111024Y59055D02*
X111654Y58425D01*
X111024Y59055D02*
Y61614D01*
X110877D02*
X111024D01*
X90748Y113386D02*
X91535D01*
X89173Y119882D02*
X91535D01*
X87992Y126575D02*
X91535D01*
X98425Y119882D02*
X106299D01*
X108661Y122244D01*
X121850D01*
X98425Y113583D02*
X102559D01*
X104528Y111614D01*
X99606Y80512D02*
X102165Y83071D01*
X126181Y101378D02*
X130118Y105315D01*
X102559Y101378D02*
X126181D01*
X101575Y100394D02*
X102559Y101378D01*
X120669Y102953D02*
X125000Y107283D01*
X107283Y102953D02*
X120669D01*
X103543Y106693D02*
X107283Y102953D01*
X98425Y106693D02*
X103543D01*
X98228Y106890D02*
X98425Y106693D01*
X125591Y111614D02*
X127953Y109252D01*
X104528Y111614D02*
X125591D01*
X101378Y87008D02*
X105709Y91339D01*
X123819D01*
X101575Y93898D02*
X102559Y92913D01*
X120866D01*
X123819Y91339D02*
Y91339D01*
X129921Y97441D01*
X127362Y99410D02*
X135827D01*
X120866Y92913D02*
X127362Y99410D01*
X121653Y81102D02*
X134055Y93504D01*
X113189Y81102D02*
X121653D01*
X106496Y74410D02*
X113189Y81102D01*
X97047Y74410D02*
X106496D01*
X120473Y83071D02*
X132874Y95473D01*
X102165Y83071D02*
X120473D01*
X132874Y95473D02*
X140748D01*
X114764Y72835D02*
X120152D01*
X110039Y68110D02*
X114764Y72835D01*
X96063Y68110D02*
X110039D01*
X120152Y72835D02*
X127362Y80045D01*
Y83268D01*
X126772Y65551D02*
X129389Y68168D01*
X130905Y80315D02*
Y83465D01*
X120669Y70079D02*
X130905Y80315D01*
X120669Y69095D02*
Y70079D01*
X120669Y131890D02*
X124803Y127756D01*
X103543Y131890D02*
X120669D01*
X98228Y126575D02*
X103543Y131890D01*
X99606Y134843D02*
X120472D01*
X98228Y133465D02*
X99606Y134843D01*
X127953Y118504D02*
Y124606D01*
X124902Y127657D02*
X127953Y124606D01*
X120472Y134843D02*
X130512Y124803D01*
Y120472D02*
Y124803D01*
X85630Y83268D02*
X86024Y82874D01*
Y70276D02*
Y82874D01*
Y70276D02*
X88386Y67913D01*
X85433Y83268D02*
X85630D01*
X86221Y136811D02*
X121653D01*
X78740Y129331D02*
X86221Y136811D01*
X78740Y87795D02*
Y129331D01*
X69685Y85236D02*
X75787Y91339D01*
X84842Y138779D02*
X122638D01*
X75787Y129724D02*
X84842Y138779D01*
X75787Y91339D02*
Y129724D01*
X83268Y140945D02*
X123425D01*
X73032Y130709D02*
X83268Y140945D01*
X73032Y95669D02*
Y130709D01*
X81693Y143307D02*
X124213D01*
X69882Y78937D02*
X78740Y87795D01*
X69685Y78937D02*
X69882D01*
X69488Y91929D02*
Y92126D01*
Y91535D02*
Y91929D01*
Y92126D02*
X73032Y95669D01*
X59252Y85433D02*
X62598D01*
X69291Y57284D02*
Y65551D01*
X63189Y23425D02*
Y62992D01*
X162795Y172835D02*
Y176181D01*
X160827Y170866D02*
X162795Y172835D01*
X284646Y33465D02*
X285827Y32283D01*
X269094Y33465D02*
X284646D01*
X264370Y38189D02*
X269094Y33465D01*
X264370Y38189D02*
Y42520D01*
X280906Y47441D02*
X282087Y48622D01*
X270558Y39609D02*
Y40071D01*
Y39609D02*
X271850Y38317D01*
Y37992D02*
Y38317D01*
X269094Y41535D02*
X270558Y40071D01*
X273478Y39620D02*
Y40014D01*
X271850Y37992D02*
X273478Y39620D01*
Y40014D02*
X274803Y41339D01*
X282087Y40354D02*
Y48425D01*
X274803Y47441D02*
X280906D01*
X269094D02*
X269193D01*
X274803D02*
X275000Y47244D01*
X269193Y47441D02*
X274803D01*
X269094Y47244D02*
X269193Y47343D01*
X280315Y57874D02*
X282087D01*
X276575Y54134D02*
X280315Y57874D01*
X262205Y54134D02*
X276575D01*
X216732Y144291D02*
X217421Y144980D01*
X216732Y139961D02*
Y144291D01*
X264731Y123655D02*
X271424D01*
X263583Y124803D02*
X264731Y123655D01*
X303616Y147644D02*
X304370Y146890D01*
X292618Y159941D02*
X295669Y156890D01*
X313386D01*
X313779Y156496D01*
X263386Y132480D02*
X269685D01*
X270079Y132874D01*
X270276D02*
X275984D01*
X281890D01*
X263583Y125000D02*
X268110D01*
X270079Y126969D01*
X275984D01*
X261221Y144291D02*
Y145866D01*
X260827Y143898D02*
X261221Y144291D01*
Y145866D02*
X263386Y148031D01*
X151772Y139961D02*
Y142913D01*
X136541Y67986D02*
X140675D01*
X100984Y46654D02*
X101772Y47441D01*
X120669Y69095D02*
X124213Y65551D01*
X126772D01*
X10433Y124409D02*
X11417Y123425D01*
X10433Y133268D02*
X16929D01*
X40453Y185138D02*
X49705D01*
X40354Y185236D02*
X40453Y185138D01*
X40354Y185236D02*
X40551D01*
X39370D02*
X40354D01*
X36417Y188189D02*
X39370Y185236D01*
X42520Y190157D02*
X49685D01*
X49705Y190138D01*
X40748Y191929D02*
X42520Y190157D01*
X49656Y160187D02*
X49705Y160138D01*
X95079Y185236D02*
X95276Y185433D01*
X85827Y190157D02*
X85846Y190138D01*
X118110Y6693D02*
X133858Y22441D01*
X76378Y6693D02*
X118110D01*
X59646Y23425D02*
X76378Y6693D01*
X117520Y9252D02*
X132480Y24213D01*
X77362Y9252D02*
X117520D01*
X63189Y23425D02*
X77362Y9252D01*
X116732Y11614D02*
X131890Y26772D01*
X78937Y11614D02*
X116732D01*
X65945Y24606D02*
X78937Y11614D01*
X133858Y22441D02*
X143750D01*
X119095Y4134D02*
X135039Y20079D01*
X75000Y4134D02*
X119095D01*
X131890Y26772D02*
X139616D01*
X130709Y29134D02*
X138583D01*
X56496Y22638D02*
X75000Y4134D01*
X58465Y49213D02*
X59646Y48031D01*
Y23425D02*
Y48031D01*
X51378Y49213D02*
X56496Y44094D01*
Y22638D02*
Y44094D01*
X58465Y49213D02*
Y49409D01*
X55118Y58858D02*
X58465Y55512D01*
X65945Y53937D02*
X69291Y57284D01*
X205118Y183465D02*
X208661D01*
X211811Y180315D01*
X219488D01*
X227165D01*
X228966Y177264D02*
Y178514D01*
Y177264D02*
X230118Y176112D01*
Y175787D02*
Y176112D01*
X227165Y180315D02*
X228966Y178514D01*
X226969Y187795D02*
Y192126D01*
Y187795D02*
X227165D01*
X219488D02*
X226969D01*
X219291D02*
X219488D01*
X212008D02*
X219291D01*
X211811D02*
X212008D01*
X206693D02*
X211811D01*
X205118Y189370D02*
X206693Y187795D01*
X212008D02*
X212598Y188386D01*
X200984Y189567D02*
X201181Y189370D01*
X205118D01*
X204921Y161221D02*
X205315Y161614D01*
X230118Y159252D02*
Y175787D01*
X228642Y157775D02*
X230118Y159252D01*
X228642Y155118D02*
Y157775D01*
X219128Y155348D02*
X219291Y155512D01*
X204921D02*
Y155641D01*
X219291Y155512D02*
Y155709D01*
X212828Y155348D02*
X219128D01*
X211811Y154331D02*
X212828Y155348D01*
X205118Y155512D02*
X210630D01*
X211811Y154331D01*
X204853Y155709D02*
X204921Y155641D01*
X203248Y155709D02*
X204853D01*
X198031Y160925D02*
X203248Y155709D01*
X191142Y151772D02*
X198031D01*
X190157Y150787D02*
X191142Y151772D01*
X182775Y153150D02*
X185138Y150787D01*
X190157D01*
X205315Y161614D02*
X205512Y161811D01*
X211811D01*
X95079Y185236D02*
X95276D01*
X85827D02*
X95079D01*
Y160433D02*
Y177953D01*
X101181Y153937D02*
Y154134D01*
X95079Y160236D02*
X101181Y154134D01*
X86024Y160236D02*
X95079D01*
X30709Y62402D02*
X34646D01*
X29793Y63317D02*
X30709Y62402D01*
X4921Y97638D02*
X5020Y97736D01*
Y101083D01*
X5118Y101181D01*
X275000Y141732D02*
X276575Y140157D01*
X269291Y141732D02*
X275000D01*
X276575Y138583D02*
Y140157D01*
Y138583D02*
X276772Y138386D01*
X193110Y53347D02*
X193110Y53347D01*
Y34055D02*
Y53347D01*
X184252Y33071D02*
X189173Y37992D01*
X313976Y39764D02*
X314567Y40354D01*
X115748Y188189D02*
X117913Y190354D01*
X115748Y179134D02*
Y188189D01*
Y179134D02*
X117126Y177756D01*
Y173819D02*
Y177756D01*
X104724Y165945D02*
X106496Y164173D01*
X120866D01*
X108661Y172047D02*
X110433Y173819D01*
X117126D01*
X117126Y173819D01*
X123228Y166535D02*
X140551D01*
X120866Y164173D02*
X123228Y166535D01*
X27816Y63317D02*
X29793D01*
X36024Y74016D02*
X36614D01*
X35325Y73317D02*
X36024Y74016D01*
X27816Y73317D02*
X35325D01*
X27756Y63189D02*
X27816Y63249D01*
Y68247D02*
Y68317D01*
X35236Y75000D02*
X36220Y74016D01*
X34449Y75000D02*
X35236D01*
X31132Y78317D02*
X34449Y75000D01*
X27816Y78317D02*
X31132D01*
X16535Y68110D02*
X16732Y68307D01*
X17018Y73317D02*
X17066D01*
X182283Y35433D02*
Y39764D01*
X175787Y35827D02*
Y39961D01*
X169095Y46457D02*
X171457Y48819D01*
Y56890D01*
X173425Y49016D02*
Y56890D01*
Y49016D02*
X175787Y46654D01*
X181890Y47244D02*
Y49213D01*
Y47244D02*
X182283Y46850D01*
X179331Y51772D02*
X181890Y49213D01*
X179331Y51772D02*
Y56890D01*
X77756Y20866D02*
Y37667D01*
X78937Y38849D01*
X96850Y20669D02*
X100984D01*
X96850Y20669D02*
X96850Y20669D01*
X93504Y20669D02*
X96850D01*
X84646Y22244D02*
Y25394D01*
X83661Y26378D02*
X84646Y25394D01*
X100984Y39567D02*
Y46654D01*
X94095Y51968D02*
X96850D01*
X145915Y33071D02*
X184252D01*
X185433Y30118D02*
X191142Y35827D01*
X147146Y30118D02*
X185433D01*
X199016Y37008D02*
Y50591D01*
X139616Y26772D02*
X145915Y33071D01*
X141240Y24213D02*
X147146Y30118D01*
X132480Y24213D02*
X141240D01*
X71629Y47441D02*
X71653Y47417D01*
X79331Y52165D02*
Y52362D01*
X79724Y51968D02*
X84646D01*
X199016Y50787D02*
Y56890D01*
X191142Y35827D02*
Y56890D01*
X79331Y48228D02*
X84646D01*
X74188Y48031D02*
X79331D01*
X140675Y67986D02*
X140748Y67913D01*
X127579Y70137D02*
X127617D01*
X129389Y68168D02*
Y68327D01*
X129921Y97441D02*
X140748D01*
X134055Y93504D02*
X140748D01*
X124213Y143307D02*
X134646Y132874D01*
X140748D01*
X135433Y128937D02*
X136221D01*
X123425Y140945D02*
X135433Y128937D01*
X134449Y126969D02*
X140748D01*
X122638Y138779D02*
X134449Y126969D01*
X133465Y125000D02*
X140748D01*
X121653Y136811D02*
X133465Y125000D01*
X151299Y168386D02*
X151693D01*
X150518Y169167D02*
X151299Y168386D01*
X150518Y169167D02*
Y169181D01*
X148750Y170949D02*
X150518Y169181D01*
X125394Y116142D02*
Y118701D01*
X121850Y122244D02*
X125394Y118701D01*
X130512Y120472D02*
X135827Y115157D01*
X140748D01*
X127953Y118504D02*
X133268Y113189D01*
X140748D01*
X125394Y116142D02*
X130315Y111221D01*
X140748D01*
X127953Y109252D02*
X134252D01*
X125000Y107283D02*
X140748D01*
X135827Y99410D02*
X135827Y99410D01*
X140748D01*
X134252Y109252D02*
X140748D01*
X130118Y105315D02*
X140748D01*
X193110Y53347D02*
Y56890D01*
X189173Y37992D02*
Y56890D01*
X159055Y170866D02*
X160827D01*
X158937Y170748D02*
X159055Y170866D01*
X17066Y78317D02*
X27786D01*
D110*
X324370Y166890D02*
D03*
X324370Y146890D02*
D03*
X304370Y146890D02*
D03*
X304370Y166890D02*
D03*
X314370Y156890D02*
D03*
X324567Y50354D02*
D03*
X324567Y30354D02*
D03*
X304567Y30354D02*
D03*
X304567Y50354D02*
D03*
X314567Y40354D02*
D03*
D111*
X322835Y11811D02*
D03*
X11811Y185039D02*
D03*
Y11811D02*
D03*
X322835Y185039D02*
D03*
D112*
X132874Y43504D02*
D03*
X133071Y153543D02*
D03*
D113*
X116929Y77087D02*
D03*
Y87087D02*
D03*
Y97087D02*
D03*
Y107087D02*
D03*
Y117087D02*
D03*
Y127087D02*
D03*
D114*
X177362Y64173D02*
D03*
X314118Y124197D02*
D03*
X310236Y82284D02*
D03*
X320220Y124197D02*
D03*
X293504Y104528D02*
D03*
X288976Y119291D02*
D03*
X288500Y81000D02*
D03*
X310236Y85630D02*
D03*
X297047Y101969D02*
D03*
X213779Y103937D02*
D03*
X176378Y133071D02*
D03*
X148622D02*
D03*
X229509Y128900D02*
D03*
X203543Y128347D02*
D03*
X167520Y147047D02*
D03*
X147441Y101378D02*
D03*
X148630Y62559D02*
D03*
X162008Y153347D02*
D03*
X146500Y123000D02*
D03*
X217000Y63500D02*
D03*
X153937Y146063D02*
D03*
X230000Y124000D02*
D03*
Y126500D02*
D03*
X147835Y76772D02*
D03*
X193701Y63779D02*
D03*
X229500Y92000D02*
D03*
X163976Y162598D02*
D03*
X210827Y49016D02*
D03*
X217126Y107283D02*
D03*
X165551Y144882D02*
D03*
X230500Y102000D02*
D03*
X229000Y113500D02*
D03*
X146630Y106059D02*
D03*
X154331Y133071D02*
D03*
X146850Y67716D02*
D03*
X228762Y107692D02*
D03*
X209449Y112598D02*
D03*
X215748Y128740D02*
D03*
X134646Y79724D02*
D03*
X210630Y79134D02*
D03*
X201969Y112598D02*
D03*
X156299Y51378D02*
D03*
X229500Y121000D02*
D03*
X217126Y132874D02*
D03*
X192913Y133465D02*
D03*
X135827Y85630D02*
D03*
X210236Y127953D02*
D03*
X151772Y64370D02*
D03*
X173622Y64173D02*
D03*
X207480Y81102D02*
D03*
X230500Y99500D02*
D03*
X132283Y76968D02*
D03*
X197047Y65354D02*
D03*
X216929Y87205D02*
D03*
X169488Y144882D02*
D03*
X148819Y50591D02*
D03*
X212205Y86614D02*
D03*
X196063Y133465D02*
D03*
X170866Y133071D02*
D03*
X212992Y63779D02*
D03*
X229500Y95500D02*
D03*
X157283Y146063D02*
D03*
X181000Y147500D02*
D03*
X85433Y93307D02*
D03*
X87500Y96000D02*
D03*
X85630Y127559D02*
D03*
X87130Y124559D02*
D03*
X102630Y72059D02*
D03*
X169291Y35433D02*
D03*
X86130Y99059D02*
D03*
X85433Y83268D02*
D03*
X85500Y121500D02*
D03*
X85630Y110559D02*
D03*
X85500Y107000D02*
D03*
Y114000D02*
D03*
X86417Y130905D02*
D03*
X85433Y103347D02*
D03*
X85500Y117500D02*
D03*
X102630Y63559D02*
D03*
X84252Y58268D02*
D03*
X85433Y88189D02*
D03*
X198031Y117323D02*
D03*
X214173Y120472D02*
D03*
X220472Y25197D02*
D03*
X201969D02*
D03*
Y27953D02*
D03*
X224803Y28937D02*
D03*
X223228Y183858D02*
D03*
X222835Y175984D02*
D03*
X203937Y179134D02*
D03*
X205512Y164961D02*
D03*
X148031Y168307D02*
D03*
X129921Y174016D02*
D03*
X142913Y184252D02*
D03*
X142520Y192520D02*
D03*
X151579Y178276D02*
D03*
X151969Y192520D02*
D03*
X175591Y191535D02*
D03*
X137205Y182874D02*
D03*
X150000Y153500D02*
D03*
X162008Y158465D02*
D03*
X197244Y74508D02*
D03*
X210630Y96850D02*
D03*
X203543Y133465D02*
D03*
X157087Y103937D02*
D03*
X157874Y81102D02*
D03*
X175197Y77953D02*
D03*
X283000Y4500D02*
D03*
X268500D02*
D03*
X164173Y68898D02*
D03*
X213779Y76772D02*
D03*
X111417Y44882D02*
D03*
X112992Y38976D02*
D03*
X131102Y60236D02*
D03*
X144882Y54724D02*
D03*
X105118Y159449D02*
D03*
X98425Y164961D02*
D03*
X106299Y24409D02*
D03*
X281496Y26772D02*
D03*
X264173Y23622D02*
D03*
X219685Y192126D02*
D03*
X170079Y172047D02*
D03*
X194488Y158661D02*
D03*
X169291Y159843D02*
D03*
X161024Y179921D02*
D03*
X162795Y176181D02*
D03*
X68626Y160780D02*
D03*
X85433Y146457D02*
D03*
X30315D02*
D03*
X34252Y126772D02*
D03*
Y123622D02*
D03*
X40945Y151181D02*
D03*
X42634Y154724D02*
D03*
X42520Y161024D02*
D03*
X6299Y141929D02*
D03*
X10236Y128347D02*
D03*
X10433Y133268D02*
D03*
Y124409D02*
D03*
X154724Y177559D02*
D03*
X9843Y94488D02*
D03*
X10630Y90157D02*
D03*
X9843Y107874D02*
D03*
X10630Y111417D02*
D03*
X5512Y88189D02*
D03*
X5906Y93701D02*
D03*
X10236Y101575D02*
D03*
Y104724D02*
D03*
X34252Y78347D02*
D03*
X161614Y168307D02*
D03*
X166339Y165748D02*
D03*
X158071Y176969D02*
D03*
X223228Y142126D02*
D03*
X230500Y86500D02*
D03*
X4331Y75984D02*
D03*
Y79921D02*
D03*
Y72047D02*
D03*
X11811Y55512D02*
D03*
X159055Y192717D02*
D03*
X312598Y95669D02*
D03*
X254330Y133464D02*
D03*
X230000Y139000D02*
D03*
X257480Y122835D02*
D03*
X89764Y39764D02*
D03*
X86673Y39823D02*
D03*
X272418Y104522D02*
D03*
X272441Y108661D02*
D03*
X290551Y69685D02*
D03*
X9843Y31102D02*
D03*
X51126Y78539D02*
D03*
X4921Y97638D02*
D03*
X208000Y4500D02*
D03*
X191929Y19094D02*
D03*
X201500Y12500D02*
D03*
X31630Y52059D02*
D03*
X34252Y65354D02*
D03*
X93000Y190000D02*
D03*
X49000Y43500D02*
D03*
X269500Y51000D02*
D03*
X236000Y55500D02*
D03*
X238500D02*
D03*
X258000Y70000D02*
D03*
X22000Y176000D02*
D03*
X292000Y32000D02*
D03*
X292500Y28500D02*
D03*
X37402Y78347D02*
D03*
X53126Y80539D02*
D03*
X71653Y46654D02*
D03*
X34252Y84449D02*
D03*
X170500Y4500D02*
D03*
X164500D02*
D03*
X140000Y5000D02*
D03*
X144000D02*
D03*
X218000Y4500D02*
D03*
X230500D02*
D03*
X259500D02*
D03*
X52653Y103791D02*
D03*
X53653Y95791D02*
D03*
X51126Y98539D02*
D03*
Y93539D02*
D03*
X52291Y88425D02*
D03*
X50626Y83039D02*
D03*
X52291Y73465D02*
D03*
Y68543D02*
D03*
X57653Y60291D02*
D03*
X52291Y63425D02*
D03*
X71260Y49409D02*
D03*
X231523Y110023D02*
D03*
X229100Y110900D02*
D03*
X63779Y10827D02*
D03*
X61221Y12992D02*
D03*
X230000Y64500D02*
D03*
X231823Y116808D02*
D03*
X229500Y118500D02*
D03*
X231500Y133000D02*
D03*
X258000Y80000D02*
D03*
X275000Y96500D02*
D03*
X271500Y99000D02*
D03*
X273500Y90500D02*
D03*
X271000Y90000D02*
D03*
X271500Y96000D02*
D03*
X268110Y148819D02*
D03*
X274500Y88000D02*
D03*
X255000Y141000D02*
D03*
X249000Y139000D02*
D03*
X227756Y41535D02*
D03*
X274500Y81000D02*
D03*
X271850Y78149D02*
D03*
X271850Y80709D02*
D03*
X272047Y86417D02*
D03*
X271457Y68307D02*
D03*
X254921Y90945D02*
D03*
X257480Y98425D02*
D03*
X254724Y106496D02*
D03*
X257283Y87992D02*
D03*
X258268Y101575D02*
D03*
X254921Y100984D02*
D03*
X251500Y58500D02*
D03*
X11811Y51181D02*
D03*
X108500Y184000D02*
D03*
X220630Y161559D02*
D03*
X232630Y183559D02*
D03*
X251630Y185559D02*
D03*
X284630Y190059D02*
D03*
X6027Y123252D02*
D03*
X67126Y133539D02*
D03*
Y123539D02*
D03*
X52653Y108291D02*
D03*
X293027Y43252D02*
D03*
X271527Y59252D02*
D03*
X160500Y24500D02*
D03*
Y38000D02*
D03*
X311000Y113500D02*
D03*
X208000Y12500D02*
D03*
X284612Y148425D02*
D03*
X317268Y124197D02*
D03*
X233000Y17000D02*
D03*
X235000Y18500D02*
D03*
X244500D02*
D03*
X254000D02*
D03*
X213000Y21000D02*
D03*
X34252Y87008D02*
D03*
X257677Y77362D02*
D03*
X254724Y80905D02*
D03*
X257677Y74803D02*
D03*
X182874Y18701D02*
D03*
X111221Y48031D02*
D03*
X110433Y53740D02*
D03*
X129724Y73819D02*
D03*
X257000Y119000D02*
D03*
X254528Y121063D02*
D03*
X254724Y130709D02*
D03*
X258071Y133268D02*
D03*
X271654Y112598D02*
D03*
X24409Y172047D02*
D03*
Y177559D02*
D03*
Y180709D02*
D03*
X193000Y4500D02*
D03*
X186500D02*
D03*
X182874Y15748D02*
D03*
X130000Y9000D02*
D03*
X288500Y83500D02*
D03*
X288527Y86252D02*
D03*
X314118Y129905D02*
D03*
X254500Y65500D02*
D03*
Y69000D02*
D03*
X251000Y191500D02*
D03*
X232500D02*
D03*
X241500D02*
D03*
X212500Y192000D02*
D03*
X274016Y114370D02*
D03*
X271654Y123425D02*
D03*
X310039Y95669D02*
D03*
X301000Y185500D02*
D03*
X34252Y97441D02*
D03*
X257527Y138252D02*
D03*
X11024Y84449D02*
D03*
X27953Y28937D02*
D03*
Y31496D02*
D03*
X114173Y32874D02*
D03*
X314370Y62992D02*
D03*
X312008Y65158D02*
D03*
X272047Y63779D02*
D03*
X36614Y192126D02*
D03*
X114173Y36417D02*
D03*
X257874Y106496D02*
D03*
X237008Y141535D02*
D03*
X255315Y112402D02*
D03*
X182874Y22244D02*
D03*
X196653Y29134D02*
D03*
X99606Y185433D02*
D03*
X101181Y168701D02*
D03*
X115945Y166535D02*
D03*
X36024Y113976D02*
D03*
X7283Y32874D02*
D03*
X227756Y36417D02*
D03*
Y38976D02*
D03*
X231693Y81102D02*
D03*
X201575Y38976D02*
D03*
X206693Y44291D02*
D03*
X284252Y166929D02*
D03*
X241929Y152559D02*
D03*
X94094Y26378D02*
D03*
X78937Y39173D02*
D03*
X271654Y119685D02*
D03*
X257874Y128543D02*
D03*
X290158Y72441D02*
D03*
X289370Y176772D02*
D03*
X295669Y139173D02*
D03*
X36614Y94488D02*
D03*
X111024Y61614D02*
D03*
X175787Y35433D02*
D03*
X182283D02*
D03*
X271850Y37992D02*
D03*
X295669Y142717D02*
D03*
X263386Y148031D02*
D03*
X55905Y3740D02*
D03*
X51575Y34449D02*
D03*
X26378Y3937D02*
D03*
X36220Y6102D02*
D03*
X46063Y3740D02*
D03*
X58661Y15157D02*
D03*
X21260Y193110D02*
D03*
X42520Y177559D02*
D03*
Y172047D02*
D03*
X21457D02*
D03*
X36417Y188386D02*
D03*
X30906Y165551D02*
D03*
X226969Y192126D02*
D03*
X200984Y189370D02*
D03*
X230118Y175787D02*
D03*
X172244Y187205D02*
D03*
X276772Y23425D02*
D03*
X117126Y173819D02*
D03*
X80905Y22047D02*
D03*
X88583Y22244D02*
D03*
X84646D02*
D03*
X93504Y20669D02*
D03*
M02*
